<?xml version="1.0" encoding="UTF-8"?>
<svg width="300px" height="200px" viewBox="0 0 300 200" version="1.1" xmlns="http://www.w3.org/2000/svg" xmlns:xlink="http://www.w3.org/1999/xlink">
    <title>Glow</title>
    <defs>
        <polygon id="path-1" points="0 0.568774194 18.4557419 0.568774194 18.4557419 18.9258387 0 18.9258387"></polygon>
        <polygon id="path-3" points="0.221135484 0.568774194 18.6523613 0.568774194 18.6523613 18.9998161 0.221135484 18.9998161"></polygon>
        <polygon id="path-5" points="0.131614815 0.568774194 15.7363556 0.568774194 15.7363556 18.9262677 0.131614815 18.9262677"></polygon>
    </defs>
    <g id="Glow" stroke="none" stroke-width="1" fill="none" fill-rule="evenodd">
        <rect fill="#FFFFFF" x="0" y="0" width="300" height="200"></rect>
        <g id="Group-22" transform="translate(50.000000, 91.000000)">
            <g id="Group-3">
                <mask id="mask-2" fill="white">
                    <use xlink:href="#path-1"></use>
                </mask>
                <g id="Clip-2"></g>
                <path d="M18.4557419,9.2916129 C18.3815806,9.73535484 18.2344839,11.2136774 17.8888065,12.5688065 C17.5933871,13.7510968 17.0019355,14.8353226 16.1401935,15.7963548 C14.4393871,17.7190323 11.9755161,18.9258387 9.2156129,18.9258387 C4.14016129,18.9258387 0,15.155871 0,9.73535484 C0,4.65929032 4.11503226,0.568774194 9.2156129,0.568774194 C11.4330968,0.568774194 13.4538387,1.35758065 15.0553548,2.66367742 C15.4494516,2.9836129 15.9422258,3.45187097 16.2872903,3.87109677 L14.5625806,5.49712903 C13.1087742,3.6486129 11.260871,2.93396774 9.24012903,2.93396774 C5.54432258,2.93396774 2.41483871,6.06345161 2.39032258,9.73535484 C2.36519355,13.4311613 5.54432258,16.5606452 9.24012903,16.5606452 C11.4827419,16.5606452 13.0100968,15.9937097 14.4639032,14.2444839 C15.0308387,13.578871 15.4745806,12.7410323 15.7203548,11.6077742 L8.91958065,11.6077742 L8.91958065,9.2916129 L18.4557419,9.2916129 Z" id="Fill-1" fill="#000000" mask="url(#mask-2)"></path>
            </g>
            <polygon id="Fill-4" fill="#222222" points="36 16.6532809 36 19 25 19 25 1 27.3034735 1 27.3034735 16.6532809"></polygon>
            <g id="Group-8" transform="translate(40.000000, 0.000000)">
                <mask id="mask-4" fill="white">
                    <use xlink:href="#path-3"></use>
                </mask>
                <g id="Clip-7"></g>
                <path d="M16.2130065,9.78420323 C16.2130065,6.01423548 13.207329,3.00794516 9.43674839,3.00794516 C5.66678065,3.00794516 2.66110323,6.01423548 2.66110323,9.78420323 C2.66110323,13.554171 5.66678065,16.5604613 9.43674839,16.5604613 C13.207329,16.5604613 16.2130065,13.554171 16.2130065,9.78420323 M0.221135484,9.78420323 C0.221135484,4.68362258 4.33616774,0.568590323 9.43674839,0.568590323 C14.5379419,0.568590323 18.6523613,4.68362258 18.6523613,9.78420323 C18.6523613,14.8847839 14.5379419,18.9998161 9.43674839,18.9998161 C4.33616774,18.9998161 0.221135484,14.8847839 0.221135484,9.78420323" id="Fill-6" fill="#000000" mask="url(#mask-4)"></path>
            </g>
            <polygon id="Fill-9" fill="#222222" points="85 1 77.795365 19 77.6958671 19 73.000309 7.16642517 68.3041329 19 68.205253 19 61 1 63.5096949 1 68.2546929 12.9832333 73.000309 1 77.7459251 12.9832333 82.4909231 1"></polygon>
            <path d="M106.185973,8.58947114 L110.976717,8.58947114 C112.395083,8.68944699 113.488359,7.3164867 113.488359,5.96836513 C113.488359,4.320316 112.32509,3.32179943 110.976717,3.34725912 L110.906725,3.34725912 L106.185973,3.34725912 L106.185973,8.58947114 Z M110.139696,10.9361093 L106.185973,10.9361093 L106.185973,19 L104,19 L104,1 L110.976717,1 C113.558351,1 115.720607,3.19698486 115.720607,5.96836513 C115.720607,8.16534998 114.348518,10.0375686 112.488792,10.6864801 L116,19 L113.37209,19 L110.139696,10.9361093 Z" id="Fill-11" fill="#222222"></path>
            <polygon id="Fill-13" fill="#222222" points="125.155979 3.34671911 125.155979 8.76423101 132.082611 8.76423101 132.082611 11.1109501 125.155979 11.1109501 125.155979 16.6532809 132.954359 16.6532809 132.954359 19 123 19 123 1 133 1 133 3.34671911"></polygon>
            <g id="Group-17" transform="translate(138.000000, 0.000000)">
                <mask id="mask-6" fill="white">
                    <use xlink:href="#path-5"></use>
                </mask>
                <g id="Clip-16"></g>
                <path d="M14.2116148,13.9979129 L15.7363556,15.7967839 C14.0925037,17.7188484 11.7096889,18.9262677 9.04183704,18.9262677 C4.13398519,18.9262677 0.131614815,15.1556871 0.131614815,9.73517097 C0.131614815,4.65910645 4.11028148,0.568590323 9.04183704,0.568590323 C11.7096889,0.568590323 14.0925037,1.77662258 15.7363556,3.69807419 L14.2116148,5.49694516 C12.8059852,3.64904194 11.0187259,2.93439677 9.06554074,2.93439677 C5.49220741,2.93439677 2.46702222,6.06388065 2.44272593,9.73517097 C2.41902222,13.4309774 5.49220741,16.5604613 9.06554074,16.5604613 C11.0187259,16.5604613 12.8059852,15.8458161 14.2116148,13.9979129" id="Fill-15" fill="#000000" mask="url(#mask-6)"></path>
            </g>
            <polygon id="Fill-18" fill="#222222" points="161 19 164 19 164 1 161 1"></polygon>
            <path d="M182.713947,5.96791555 C182.713947,4.51976816 181.523542,3.32125854 180.142434,3.34671911 L180.070773,3.34671911 L175.238081,3.34671911 L175.238081,8.58911199 L180.142434,8.58911199 C181.594611,8.68909129 182.713947,7.46574208 182.713947,5.96791555 M185,5.96791555 C185,8.73877044 182.785609,10.9612917 180.142434,10.9358311 L175.238081,10.9358311 L175.238081,19 L173,19 L173,1 L180.142434,1 C182.785609,1 185,3.19706065 185,5.96791555" id="Fill-20" fill="#222222"></path>
            <polygon id="Fill-21" fill="#222222" points="192.155979 3.34671911 192.155979 8.76423101 199.082611 8.76423101 199.082611 11.1109501 192.155979 11.1109501 192.155979 16.6532809 199.954359 16.6532809 199.954359 19 190 19 190 1 200 1 200 3.34671911"></polygon>
        </g>
    </g>
</svg>