<?xml version="1.0" encoding="UTF-8"?>
<svg width="300px" height="200px" viewBox="0 0 300 200" version="1.1" xmlns="http://www.w3.org/2000/svg" xmlns:xlink="http://www.w3.org/1999/xlink">
    <title>Humane League</title>
    <g id="Humane-League" stroke="none" stroke-width="1" fill="none" fill-rule="evenodd">
        <rect fill="#FFFFFF" x="0" y="0" width="300" height="200"></rect>
        <g id="THL-mended-heart-logo-2color-horiz-white" transform="translate(48.000000, 92.000000)" fill="#222222" fill-rule="nonzero">
            <polygon id="Path" points="0.71162 12.6587322 0.71162 11.3698684 0 11.3698684 0 14.7139474 0.71162 14.7139474 0.71162 13.4250836 4.68171053 13.4250836 4.68171053 12.6587322"></polygon>
            <polygon id="Path" points="4.68171053 6.82963816 4.68171053 6.01934211 0 6.01934211 0 6.82963816 2.02249895 6.82963816 2.02249895 9.22194079 0 9.22194079 0 10.0322368 4.68171053 10.0322368 4.68171053 9.22194079 2.77157263 9.22194079 2.77157263 6.82963816"></polygon>
            <polygon id="Path" points="3.93263684 1.33763158 3.93263684 3.90142544 2.69666526 3.90142544 2.69666526 1.67203947 1.98504526 1.67203947 1.98504526 3.90142544 0.749073684 3.90142544 0.749073684 1.41194444 0 1.41194444 0 4.68171053 4.68171053 4.68171053 4.68171053 1.33763158"></polygon>
            <polygon id="Path" points="17.7612528 1.33763158 17.7612528 7.13165072 10.9978262 7.13165072 10.9978262 1.33763158 8.69460526 1.33763158 8.69460526 14.7139474 10.9978262 14.7139474 10.9978262 9.24181818 17.7612528 9.24181818 17.7612528 14.7139474 20.0644737 14.7139474 20.0644737 1.33763158"></polygon>
            <path d="M32.5116435,1.33763158 L32.5116435,8.66149472 C32.5116435,9.86444808 32.2237987,10.8197346 31.6121286,11.5273542 C30.9767002,12.2343503 30.0523524,12.6238975 29.0934868,12.5887836 C28.1440907,12.6285987 27.2287361,12.2372507 26.6108257,11.5273542 C25.963175,10.8197346 25.6753302,9.86444808 25.6753302,8.66149472 L25.6753302,1.33763158 L23.4085526,1.33763158 L23.4085526,8.76763766 C23.4085526,10.6782107 23.9482616,12.1288309 24.9916989,13.1548793 C26.0913018,14.193747 27.5692334,14.7546705 29.0934868,14.7116425 C30.6177403,14.7546705 32.0956719,14.193747 33.1952748,13.1548793 C34.2387121,12.1288309 34.7784211,10.6782107 34.7784211,8.76763766 L34.7784211,1.33763158 L32.5116435,1.33763158 Z" id="Path"></path>
            <polygon id="Path" points="50.0882801 1.33763158 46.1831566 9.74253589 42.243166 1.33763158 38.7913158 1.33763158 38.7913158 14.7139474 40.9879477 14.7139474 40.9879477 4.2704067 45.5206803 13.5336842 46.7758986 13.5336842 51.3086312 4.2704067 51.3086312 14.7139474 53.5052632 14.7139474 53.5052632 1.33763158"></polygon>
            <polygon id="Path" points="56.1805263 14.7139474 58.5568491 14.7139474 59.9046142 11.6738756 65.0828698 11.6738756 64.1607147 9.59947368 60.7913018 9.59947368 63.2030921 4.09157895 66.5370375 11.6738756 67.8493351 14.7139474 70.2256579 14.7139474 64.4089872 1.33763158 62.0326645 1.33763158"></polygon>
            <polygon id="Path" points="82.7284184 1.33763158 82.7284184 11.3162201 75.1121079 1.33763158 72.9009211 1.33763158 72.9009211 14.7139474 75.1121079 14.7139474 75.1121079 4.94995215 82.5529273 14.7139474 84.9396053 14.7139474 84.9396053 1.33763158"></polygon>
            <polygon id="Path" points="91.1454202 12.5680144 91.1454202 9.02722488 97.3760981 9.02722488 97.3760981 6.98858852 91.1454202 6.98858852 91.1454202 3.48356459 98.0722633 3.48356459 98.0722633 1.33763158 88.9525 1.33763158 88.9525 14.7139474 98.3159211 14.7139474 98.3159211 12.5680144"></polygon>
            <polygon id="Path" points="106.631102 1.33763158 105.004079 1.33763158 105.004079 14.7139474 112.361053 14.7139474 112.361053 13.1044976 106.631102 13.1044976"></polygon>
            <polygon id="Path" points="117.384829 8.74110048 124.032143 8.74110048 124.032143 7.13165072 117.384829 7.13165072 117.384829 2.94708134 124.818385 2.94708134 124.818385 1.33763158 115.705132 1.33763158 115.705132 14.7139474 125.068553 14.7139474 125.068553 13.1044976 117.384829 13.1044976"></polygon>
            <polygon id="Path" points="135.221914 1.33763158 133.606925 1.33763158 127.778924 14.5708852 127.743816 14.7139474 129.499238 14.7139474 130.973792 11.3519856 136.520926 11.3519856 135.818757 9.74253589 131.640853 9.74253589 134.449528 3.34050239 139.36471 14.6424163 139.36471 14.7139474 141.120132 14.7139474 135.257022 1.37339713"></polygon>
            <path d="M149.551988,2.86331216 C151.016605,2.864362 152.43059,3.39417983 153.529053,4.3535118 L153.529053,4.42447368 L154.496447,3.14715971 L154.460618,3.14715971 C153.081813,1.98157128 151.329032,1.34010449 149.516158,1.33763158 C145.574922,1.33763158 142.457763,4.24706897 142.457763,8.008049 C142.457763,11.769029 145.539093,14.7139474 149.4445,14.7139474 C151.248994,14.6733086 152.993472,14.0643299 154.424789,12.9753811 L154.424789,12.9753811 L154.424789,8.04352995 L149.229523,8.04352995 L149.229523,9.56921053 L152.991612,9.56921053 L152.991612,12.0528766 C151.983327,12.723088 150.801927,13.0925334 149.587817,13.1173049 C146.613976,13.1173049 144.213405,10.8110436 144.213405,8.008049 C144.222697,6.62169016 144.792776,5.29687216 145.796105,4.32997407 C146.799434,3.36307598 148.152278,2.83479416 149.551988,2.86331216 L149.551988,2.86331216 Z" id="Path"></path>
            <path d="M167.513938,9.12862402 C167.513938,11.6188956 166.034051,13.1130585 163.543508,13.1130585 C161.052965,13.1130585 159.536983,11.6188956 159.536983,9.12862402 L159.536983,1.33763158 L157.840526,1.33763158 L157.840526,9.12862402 C157.840526,12.6150042 159.970121,14.7139474 163.543508,14.7139474 C167.116895,14.7139474 169.210395,12.6150042 169.210395,9.12862402 L169.210395,1.33763158 L167.513938,1.33763158 L167.513938,9.12862402 Z" id="Path"></path>
            <polygon id="Path" points="174.234171 13.1044976 174.234171 8.74110048 180.881486 8.74110048 180.881486 7.13165072 174.234171 7.13165072 174.234171 2.94708134 181.667727 2.94708134 181.667727 1.33763158 172.554474 1.33763158 172.554474 14.7139474 181.917895 14.7139474 181.917895 13.1044976"></polygon>
            <path d="M197.429059,0 L197.429059,0 L194.889252,2.49720181 L192.419996,0 L189.245237,0 L186.599605,2.64196713 L186.599605,8.3963887 L194.889252,16.7203947 L203.32,8.36019737 L203.32,2.67815846 L200.603818,0 L197.429059,0 Z M197.78181,1.3028879 L200.215792,1.3028879 L198.240386,5.82680423 L195.735855,3.29341108 L197.78181,1.3028879 Z M194.430676,14.5851062 L192.561096,12.6669657 L194.289576,8.57734535 L196.229706,10.4954859 L194.430676,14.5851062 Z M193.407698,7.70875342 L191.643944,11.7621824 L189.527438,9.62689394 L192.384721,6.69539616 L193.407698,7.70875342 Z M196.723557,9.30117196 L193.125498,5.6820389 L194.077925,3.36579375 L195.242003,4.52391632 L195.242003,4.52391632 L197.71126,7.05730947 L196.723557,9.30117196 Z M189.703814,1.3028879 L192.067245,1.3028879 L193.231323,2.49720181 L192.24362,4.77725564 L189.209962,1.80956653 L189.703814,1.3028879 Z M187.904784,3.18483709 L188.328085,2.75054113 L191.538118,5.86299556 L188.680836,8.79449334 L187.904784,7.99828406 L187.904784,3.18483709 Z M202.014822,7.99828406 L196.018055,13.8612796 L198.593137,7.9259014 L198.593137,7.9259014 L198.875338,7.31064878 L202.014822,7.31064878 L202.014822,7.99828406 Z M202.014822,6.00776088 L199.404465,6.00776088 L201.062394,2.20767117 L202.014822,3.14864576 L202.014822,6.00776088 Z" id="Shape"></path>
        </g>
    </g>
</svg>