<?xml version="1.0" encoding="UTF-8"?>
<svg width="300px" height="200px" viewBox="0 0 300 200" version="1.1" xmlns="http://www.w3.org/2000/svg" xmlns:xlink="http://www.w3.org/1999/xlink">
    <title>Live Nation</title>
    <g id="Live-Nation" stroke="none" stroke-width="1" fill="none" fill-rule="evenodd">
        <rect fill="#FFFFFF" x="0" y="0" width="300" height="200"></rect>
        <g id="Group-5" transform="translate(48.000000, 78.000000)">
            <polygon id="Fill-1" fill="#FFFFFE" points="2.04 41.48 202.64 41.48 202.64 2.04 2.04 2.04"></polygon>
            <polyline id="Fill-2" fill="#222222" points="14.28 12.24 20.7805241 12.24 20.7805241 25.8402212 29.92 25.8402212 29.92 31.28 14.28 31.28 14.28 12.24"></polyline>
            <polyline id="Fill-3" fill="#222222" points="38.76 12.24 45.9582463 12.24 49.6951305 23.2328849 53.4314934 12.24 60.52 12.24 52.7172731 31.96 46.5627269 31.96 38.76 12.24"></polyline>
            <polyline id="Fill-4" fill="#222222" points="60.52 12.24 76.7044587 12.24 76.7044587 17.4624973 66.7551587 17.4624973 66.7551587 19.3935156 76.026752 19.3935156 76.026752 23.99049 66.7551587 23.99049 66.7551587 26.0577607 76.84 26.0577607 76.84 31.28 60.52 31.28 60.52 12.24"></polyline>
            <polyline id="Fill-5" fill="#222222" points="85 12.24 90.956661 12.24 97.7295469 20.6448195 97.7295469 12.24 104.04 12.24 104.04 31.28 98.3821655 31.28 91.310195 22.4942927 91.310195 31.28 85 31.28 85 12.24"></polyline>
            <path d="M116.952654,24.0074041 L115.205482,19.2521534 L113.45831,24.0074041 L116.952654,24.0074041 Z M112.093412,11.56 L118.426847,11.56 L126.48,31.28 L119.545959,31.28 L118.535883,28.650932 L111.847627,28.650932 L110.865005,31.28 L104.04,31.28 L112.093412,11.56 L112.093412,11.56 Z" id="Fill-6" fill="#222222"></path>
            <polyline id="Fill-7" fill="#222222" points="128.037835 17.6255875 122.4 17.6255875 122.4 12.24 140.08 12.24 140.08 17.6255875 134.442165 17.6255875 134.442165 31.28 128.037835 31.28 128.037835 17.6255875"></polyline>
            <polygon id="Fill-8" fill="#222222" points="141.44 31.28 147.56 31.28 147.56 12.24 141.44 12.24"></polygon>
            <path d="M163.488052,21.8156754 L163.488052,21.76 C163.488052,19.4404564 161.915625,17.344675 159.432253,17.344675 C156.976628,17.344675 155.431424,19.4126187 155.431424,21.7040595 L155.431424,21.76 C155.431424,24.0792785 157.004375,26.175325 159.487485,26.175325 C161.942849,26.175325 163.488052,24.1071162 163.488052,21.8156754 Z M148.92,21.8156754 L148.92,21.76 C148.92,16.0872061 153.527602,11.56 159.487485,11.56 C165.447369,11.56 170,16.0312656 170,21.7040595 L170,21.76 C170,27.4327939 165.391875,31.96 159.432253,31.96 C153.472631,31.96 148.92,27.4887344 148.92,21.8156754 L148.92,21.8156754 Z" id="Fill-9" fill="#222222"></path>
            <g id="Group-13" fill="#222222">
                <polyline id="Fill-10" points="170.86409 12.058186 176.906076 12.058186 183.775681 20.5970198 183.775681 12.058186 190.17625 12.058186 190.17625 31.4017773 184.437881 31.4017773 177.26492 22.4759827 177.26492 31.4017773 170.86409 31.4017773 170.86409 12.058186"></polyline>
                <path d="M4.28074348,39.2322313 L200.262367,39.2322313 L200.262367,4.38450892 L4.28074348,4.38450892 L4.28074348,39.2322313 Z M0,43.52 L204.54311,43.52 L204.54311,0.096740241 L0,0.096740241 L0,43.52 Z" id="Fill-12"></path>
            </g>
            <path d="M40.7736054,7.76045344 C40.7736054,7.76045344 40.3544276,7.02593718 40.2692072,6.87538251 C40.1879815,6.7274738 40.0486994,6.84283731 40.0486994,6.84283731 C40.0486994,6.84283731 39.6170049,7.16432047 39.3858446,7.31646271 C39.1554833,7.47230928 39.172261,7.64773589 39.172261,7.74590071 C39.172261,7.84274255 39.0984921,8.41903088 39.0984921,8.41903088 C39.0873069,8.55185767 39.0159349,8.65743116 38.9640037,8.72305076 L35.1898058,11.6277768 L34.7205611,11.7365254 L33.5559712,12.2966735 L33.6236149,11.5076506 C33.7053732,11.5547485 33.8371985,11.6748748 33.929343,11.6883691 C34.0409285,11.7055678 34.2116356,11.6582053 34.2116356,11.6582053 C34.2116356,11.6582053 34.1477203,11.5076506 34.1477203,11.4179528 C34.1477203,11.3293134 34.1692917,11.1925177 34.1692917,11.1925177 C34.1692917,11.1925177 34.3485208,11.3004726 34.4771503,11.3028539 C34.5839421,11.309998 34.6928644,11.2652814 34.7586439,11.2189772 C34.8225592,11.166852 34.8846103,11.0980572 34.8846103,11.0980572 C34.8846103,11.0980572 34.6664994,10.9644367 34.5935294,10.8906146 C34.5415982,10.8339912 34.4651662,10.7501146 34.5173637,10.7501146 C34.6265523,10.7524959 34.7876721,10.5995599 34.7876721,10.5995599 C34.7876721,10.5995599 34.6710267,10.5307651 34.5839421,10.4569431 C34.4843408,10.3754478 34.4433285,10.3090344 34.4012509,10.1971106 C34.3607712,10.0939185 34.3415966,10.0034269 34.3415966,10.0034269 C34.3415966,10.0034269 34.4081751,10.0915371 34.5621044,10.0888912 C34.6928644,10.0841284 34.8081783,10.0034269 34.8081783,10.0034269 C34.8081783,10.0034269 34.7061801,9.94653895 34.6411996,9.87695041 C34.566898,9.79863023 34.5149669,9.71448896 34.4795472,9.6078571 C34.4324096,9.45518567 34.4105719,9.3816282 34.3703585,9.26229577 C34.3535808,9.20805376 34.3415966,9.11835599 34.2965896,8.96965349 C34.246789,8.63123623 34.1003164,8.49020699 34.1003164,8.49020699 C33.6553062,7.90121809 32.6409173,7.74378395 32.6409173,7.74378395 C32.1218719,7.63556451 31.6057559,8.30631333 31.396966,8.97917891 C31.0515571,10.0915371 31.1532889,11.1893426 31.1532889,11.1893426 C31.1532889,11.1893426 31.170333,11.3965206 31.3546221,11.5126779 C31.4632781,11.5812081 31.8997663,11.6796375 31.8997663,11.6796375 L31.8526287,12.5879928 L30.776455,12.6816595 C30.776455,12.6816595 29.9668613,12.2014192 29.2962834,11.8013513 L26.2994553,9.59621491 C26.2994553,9.59621491 26.1734889,9.51683635 26.1575101,9.28319879 C26.1575101,9.28319879 26.0837412,8.70876262 26.0837412,8.60953942 C26.0837412,8.51349137 26.1005189,8.33753556 25.8677607,8.17983683 C25.6360678,8.02451945 25.2073027,7.70832819 25.2073027,7.70832819 C25.2073027,7.70832819 25.0680207,7.59084792 24.9841319,7.73902123 C24.9018409,7.88454859 24.48,8.62620892 24.48,8.62620892 L24.7002414,9.4697384 C24.7002414,9.4697384 24.7950491,9.63616878 24.9271407,9.79148616 L25.117555,9.98490525 L26.2302137,10.9731683 L26.2523177,10.9803124 L28.071773,12.5951369 L28.5932152,13.0986615 C28.5932152,13.0986615 28.6304992,13.162429 28.6304992,13.2619167 C28.6304992,13.3600816 28.6209119,13.6704517 28.6209119,13.6704517 C28.6209119,13.6704517 28.6137214,13.7651768 28.672843,13.818625 C28.7348941,13.8778944 29.7106676,14.6685048 29.7106676,14.6685048 C29.7106676,14.6685048 29.7796428,14.724599 29.7796428,14.8643052 L29.9540783,20.6888393 C29.9540783,20.6888393 29.9540783,20.7790662 30.048886,20.7790662 L30.3618046,20.8960173 L31.0755253,27.2592672 L32.4443778,31.4647432 L30.2646001,32.5130694 C30.2646001,32.5130694 30.1868365,32.5514357 30.1471557,32.6474837 C30.1471557,32.6474837 30.0185262,32.8906467 30.0185262,32.9411844 C30.0185262,33.0234735 30.0853709,33.042789 30.0853709,33.042789 L33.337594,33.0475517 L33.0276048,33.8884352 L32.9461128,34.1125473 C32.9461128,34.1125473 32.8310653,34.5406624 33.0177512,34.606282 C33.2044371,34.6663451 33.7823379,34.6904232 34.0334717,34.6758705 C34.3535808,34.659201 34.9317478,34.616072 35.0238924,34.5237283 C35.110178,34.4374702 35.1501251,34.0493091 34.685674,31.4671246 L34.4081751,21.5299874 L35.2396065,15.3014165 C35.3163048,14.6124106 35.4105799,14.5340904 35.4105799,14.5340904 C35.4105799,14.5340904 36.2920783,13.8802757 36.3770323,13.8016909 C36.4638506,13.722577 36.4481381,13.5968943 36.4481381,13.5968943 L36.4481381,12.9007443 C36.4481381,12.7647424 36.5008682,12.6742508 36.5008682,12.6742508 L37.2183173,11.9855095 L37.4340314,11.7685415 L39.7336503,9.57610567 L40.1360503,9.11994356 L40.3288615,8.92784744 C40.4633499,8.77279466 40.5504345,8.60953942 40.5504345,8.60953942 C40.5504345,8.60953942 40.7144837,8.1980939 40.7736054,8.05732925 C40.8329933,7.91577082 40.7736054,7.76045344 40.7736054,7.76045344" id="Fill-14" fill="#222222"></path>
        </g>
    </g>
</svg>