<?xml version="1.0" encoding="UTF-8"?>
<svg width="300px" height="200px" viewBox="0 0 300 200" version="1.1" xmlns="http://www.w3.org/2000/svg" xmlns:xlink="http://www.w3.org/1999/xlink">
    <title>Medallia</title>
    <g id="Medallia" stroke="none" stroke-width="1" fill="none" fill-rule="evenodd">
        <rect fill="#FFFFFF" x="0" y="0" width="300" height="200"></rect>
        <g id="Group-2" transform="translate(50.000000, 84.000000)" fill="#222222">
            <polyline id="Fill-1" points="19.133002 2.8 11.5489066 12.6933333 3.96590457 2.8 0 2.8 0 25.2 4.35407555 25.2 4.35407555 10.4750388 11.3969185 19.2462016 11.6374751 19.2462016 18.744831 10.4110078 18.744831 25.2 23.1 25.2 23.1 2.8 19.133002 2.8"></polyline>
            <polyline id="Fill-2" points="86.8 25.2 91 25.2 91 1.4 86.8 2.69841968 86.8 25.2"></polyline>
            <polyline id="Fill-3" points="78.4 25.2 82.6 25.2 82.6 1.4 78.4 2.69841968 78.4 25.2"></polyline>
            <path d="M53.9513429,21.8773888 L53.7850533,21.9335132 C53.7753978,21.9367512 52.8195008,22.2573081 51.8539483,22.2573081 L51.7134068,22.2573081 C51.2724712,22.2573081 50.23933,22.2573081 49.3649686,21.5827355 C48.360794,20.8056279 47.8511969,19.375534 47.8511969,17.3302299 C47.8511969,14.1678337 49.3370749,12.2790304 51.8239089,12.2790304 C52.4601007,12.2790304 53.1209677,12.4053104 53.7914903,12.6535531 L53.9513429,12.7129155 L53.9513429,21.8773888 Z M53.9513429,8.9784817 L53.6466574,8.89753299 C52.8527587,8.68598703 51.9333382,8.5705002 51.0568311,8.5705002 C49.6267406,8.5705002 47.581915,8.8716294 45.9672967,10.3049612 C44.2647059,11.8192418 43.4,14.2628135 43.4,17.5709174 C43.4,20.5703369 44.2132098,22.7958868 45.8138812,24.182808 C47.1302511,25.3214866 48.9669464,25.9 51.2746168,25.9 C54.0951029,25.9 56.6945847,25.0559748 57.9927164,24.5530135 L58.1,24.5109201 L58.1,2.1 L53.9513429,3.25163031 L53.9513429,8.9784817 L53.9513429,8.9784817 Z" id="Fill-4"></path>
            <polyline id="Fill-5" points="94.5 25.2 98.7 25.2 98.7 7.7 94.5 9.01060177 94.5 25.2"></polyline>
            <polyline id="Fill-6" points="93.8 3.10064103 96.95 6.3 100.1 3.15 96.95 0 93.8 3.10064103"></polyline>
            <path d="M70.5717687,21.390644 C70.5717687,21.390644 69.5186053,22.7624891 66.9996546,22.7624891 C65.4690572,22.7624891 64.4785436,21.9150131 64.4785436,20.4953003 C64.4785436,18.6534813 66.3115879,17.9963882 68.026894,17.9963882 C69.6277023,17.9963882 70.5717687,18.2237598 70.5717687,18.2237598 L70.5717687,21.390644 Z M67.2945404,8.4 C64.1890587,8.4 62.0027996,9.61845083 62.0027996,9.61845083 L62.0027996,13.10953 L62.0341245,13.10953 C62.71463,12.8364665 64.3759277,11.9976936 67.1011904,11.9976936 C68.4676023,11.9976936 69.4051877,12.2903394 69.9657947,12.8941253 C70.5426042,13.5131419 70.5339628,14.7294169 70.5264016,15.4626632 C70.5264016,15.4626632 69.2226394,15.1286771 67.67908,15.1286771 C62.856132,15.1286771 60.2,17.2348564 60.2,20.5486075 C60.2,23.8623586 62.9652289,25.9 66.041546,25.9 C69.1200235,25.9 70.8450511,24.5553525 70.8450511,24.5553525 L70.8450511,25.4789817 L74.9,25.4789817 L74.9,14.9807224 C74.9,9.08320279 70.5598868,8.4 67.2945404,8.4 L67.2945404,8.4 Z" id="Fill-7"></path>
            <path d="M111.170689,21.390644 C111.170689,21.390644 110.118605,22.7624891 107.598574,22.7624891 C106.067977,22.7624891 105.078544,21.9150131 105.078544,20.4953003 C105.078544,18.6534813 106.911588,17.9963882 108.626894,17.9963882 C110.226622,17.9963882 111.170689,18.2237598 111.170689,18.2237598 L111.170689,21.390644 Z M107.89346,8.4 C104.789059,8.4 102.6028,9.61845083 102.6028,9.61845083 L102.6028,13.10953 L102.634124,13.10953 C103.31463,12.8364665 104.974848,11.9976936 107.70011,11.9976936 C109.067602,11.9976936 110.004108,12.2903394 110.565795,12.8941253 C111.142604,13.5131419 111.132883,14.7294169 111.125321,15.4626632 C111.125321,15.4626632 109.820479,15.1286771 108.27692,15.1286771 C103.456132,15.1286771 100.8,17.2348564 100.8,20.5486075 C100.8,23.8623586 103.564149,25.9 106.641546,25.9 C109.717863,25.9 111.443971,24.5553525 111.443971,24.5553525 L111.443971,25.4789817 L115.5,25.4789817 L115.5,14.9807224 C115.5,9.08320279 111.158807,8.4 107.89346,8.4 L107.89346,8.4 Z" id="Fill-8"></path>
            <path d="M30.0580874,15.6219639 C30.0580874,15.2259872 30.1108551,14.4644101 30.4570106,13.7961317 C30.9002585,12.9423408 31.9112858,11.924735 33.5987939,11.924735 C35.2936894,11.924735 36.206569,12.9510198 36.5949386,13.8113198 C36.9031014,14.4969562 36.9157657,15.2509392 36.9157657,15.6219639 L30.0580874,15.6219639 Z M40.6,16.8706466 C40.6,13.826508 39.8813052,11.6144628 38.4639673,10.2453599 C37.309412,9.12903106 35.6757269,8.4 33.6061813,8.4 C31.7002154,8.4 29.8480724,9.07478768 28.5246608,10.2518691 C26.7833297,11.8010601 25.9,14.1411196 25.9,17.2069556 C25.9,25.0516335 31.603123,25.9 34.0557614,25.9 C36.4587982,25.9 38.6602628,25.0093237 39.5383157,24.6024983 L39.5383157,21.0604054 C38.9357097,21.4314302 37.1458324,22.3947926 34.7301314,22.3947926 C33.4320482,22.3947926 31.6696102,21.8935838 30.6511953,20.2890645 C30.2459401,19.6511624 30.089748,19.0154299 30.0295929,18.6487447 L40.5451217,18.6487447 C40.5451217,18.6487447 40.6,17.6007625 40.6,16.8706466 L40.6,16.8706466 Z" id="Fill-9"></path>
            <polyline id="Fill-10" points="122.5 25.5555884 135.595259 4.94056771 123.565409 4.94056771 123.565409 3.5 137.9 3.5 137.9 3.81350286 124.983871 24.3965109 137.722953 24.3965109 137.722953 25.9 122.5 25.9 122.5 25.5555884"></polyline>
            <path d="M141.035526,25.9 L142.520724,25.9 L142.520724,9.39930028 L141.035526,9.39930028 L141.035526,25.9 Z M140.7,4.66718773 C140.7,4.03690636 141.175658,3.5 141.763816,3.5 C142.351974,3.5 142.8,4.03690636 142.8,4.66718773 C142.8,5.32970572 142.351974,5.86550047 141.763816,5.86550047 C141.175658,5.86550047 140.7,5.32970572 140.7,4.66718773 L140.7,4.66718773 Z" id="Fill-11"></path>
            <path d="M147.7,9.35305906 L149.274738,9.35305906 L149.274738,12.5803981 C149.987768,10.7766556 152.008542,9.1 154.771664,9.1 C158.070866,9.1 160.3,10.9985003 160.3,15.7129794 L160.3,25.9 L158.725262,25.9 L158.725262,15.6182216 C158.725262,12.1054944 157.178793,10.5559257 154.415672,10.5559257 C151.830547,10.5559257 149.274738,12.3897678 149.274738,15.8701659 L149.274738,25.9 L147.7,25.9 L147.7,9.35305906" id="Fill-12"></path>
            <path d="M176.230242,17.2307851 L176.230242,16.9827012 C176.230242,12.869558 173.875604,10.5028815 170.585067,10.5028815 C167.205195,10.5028815 164.760158,12.9946976 164.760158,17.0441733 L164.760158,17.2933549 C164.760158,21.3428305 167.234973,23.7117024 170.37449,23.7117024 C173.574627,23.7117024 176.230242,21.3120945 176.230242,17.2307851 Z M163.432882,26.5778399 L165.062198,26.5778399 C165.48548,28.6645986 167.174352,30.0982162 170.464889,30.0982162 C173.845825,30.0982162 176.200463,28.5098206 176.200463,24.4910811 L176.200463,21.1573165 C175.354963,23.1200333 173.152409,25.1134862 170.224533,25.1134862 C166.208675,25.1134862 163.1,22.060737 163.1,17.324091 L163.1,17.1067431 C163.1,12.4655984 166.269295,9.1 170.435111,9.1 C173.544849,9.1 175.294342,10.8750074 176.200463,12.869558 L176.200463,9.34918161 L177.8,9.34918161 L177.8,24.5525532 C177.769158,29.3495737 174.721104,31.5 170.495731,31.5 C165.937476,31.5 163.824258,29.1947956 163.432882,26.5778399 L163.432882,26.5778399 Z" id="Fill-13"></path>
            <polygon id="Fill-14" points="181.3 25.9 182.7 25.9 182.7 2.1 181.3 2.1"></polygon>
            <path d="M199.2582,16.3001569 C199.10885,12.3409492 197.109451,10.5035693 194.063549,10.5035693 C191.0492,10.5035693 188.900451,12.7462051 188.60175,16.3001569 L199.2582,16.3001569 Z M186.9,17.6718768 L186.9,17.4225731 C186.9,12.4979996 189.885951,9.1 194.063549,9.1 C197.824649,9.1 200.9,11.6556384 200.9,17.0480682 L200.9,17.6411257 L188.5418,17.6411257 C188.60175,22.0044911 190.601149,24.4986272 194.303351,24.4986272 C196.899098,24.4986272 198.660799,23.3751128 199.19825,21.1006276 L200.780099,21.1006276 C200.1238,24.217474 197.645849,25.9 194.303351,25.9 C189.7955,25.9 186.9,22.5656992 186.9,17.6718768 L186.9,17.6718768 Z" id="Fill-15"></path>
        </g>
    </g>
</svg>