<?xml version="1.0" encoding="UTF-8"?>
<svg width="300px" height="200px" viewBox="0 0 300 200" version="1.1" xmlns="http://www.w3.org/2000/svg" xmlns:xlink="http://www.w3.org/1999/xlink">
    <title>n2p</title>
    <g id="n2p" stroke="none" stroke-width="1" fill="none" fill-rule="evenodd">
        <rect fill="#FFFFFF" x="0" y="0" width="300" height="200"></rect>
        <g id="Logo" transform="translate(52.000000, 81.000000)" fill="#222222">
            <path d="M93.479872,24.8976637 C92.7365575,25.2410096 91.8094919,25.4008028 90.9964627,25.3253319 C89.2282051,25.1618117 88.2600494,23.704106 88.2739,21.2270778 C88.3556184,19.2857995 89.1141686,17.3463846 90.9784569,16.0214517 C91.6206623,15.5648996 92.4170707,15.242052 93.1890098,15.0776001 C94.6816409,14.7589453 96.1008638,15.6478244 96.6036399,17.0980762 C97.3857361,19.3570775 96.6262626,23.4436849 93.479872,24.8976637 M103.764852,15.7791996 C103.291624,12.8647199 101.816999,10.5628585 98.9471584,9.57055647 C95.5800819,8.40588266 92.4909405,9.00219565 89.8759506,11.5630804 C89.7877686,11.6497321 89.6852743,11.7219419 89.5236842,11.8556465 C89.6861976,11.0408407 89.829782,10.3201405 89.9835235,9.55192169 L83.6334934,9.55192169 C81.7576629,19.3566116 79.8827558,29.1585064 78,39 L85.0130113,39 C85.6390576,35.6918605 86.2600254,32.4098098 86.9013073,29.0224725 C87.9497964,30.0748717 89.0832356,30.7373382 90.4082747,31.0285066 C93.6820905,31.7478092 96.6170288,30.8961997 99.1415282,28.8021162 C103.220986,25.4175741 104.605583,20.9559417 103.764852,15.7791996" id="Fill-1"></path>
            <path d="M66.9765929,23.8732434 C66.9446604,23.815316 66.9127279,23.7573886 66.8807954,23.6994612 C67.1885892,23.3168601 67.4462667,22.8665213 67.813934,22.5661397 C68.5874101,21.9345442 69.4047933,21.3594746 70.2288292,20.8012227 C72.2898059,19.4048921 74.4048904,18.0917154 76.4210729,16.6276472 C77.9001685,15.5536545 79.0945326,14.1419078 79.950501,12.4494 C82.348543,7.70682794 80.5088762,2.58492483 75.7389592,0.70275157 C73.9183633,-0.0157350218 72.0467641,-0.16382361 70.1432324,0.169726081 C66.5011535,0.80739461 63.7088339,2.87502897 61.4398525,5.94845114 C63.0435735,7.26863521 64.6025003,8.55144677 66.1339298,9.81183482 C66.821809,9.1237134 67.4130037,8.44727089 68.0866907,7.87874151 C69.0171683,7.09391871 70.0997687,6.67534654 71.3163082,6.76737636 C73.2495549,6.91453064 74.1889025,8.65795844 73.2499984,10.4448318 C72.9444221,11.0264415 72.5057938,11.5818905 72.0095095,11.9901853 C71.0107319,12.8123806 69.9347841,13.5313343 68.8836727,14.2811204 C67.1127495,15.5452457 65.2721958,16.7126696 63.5766688,18.0800365 C61.2265256,19.9752901 59.490196,22.3974962 58.6182614,25.4288743 C58.1920512,26.9106945 57.9352607,28.4200769 58.014205,30 L77.3568725,30 C77.7276443,27.9697381 78.0917635,25.9763817 78.476284,23.8732434 L66.9765929,23.8732434 Z" id="Fill-3"></path>
            <path d="M123.699881,8.39409241 C122.258296,7.84037484 120.765544,7.73495006 119.267007,8.02937964 C117.27059,8.42116094 115.587406,9.42697038 114.190315,11.3317398 C114.903988,7.42342456 115.576728,3.74115524 116.259701,0 L109.46334,0 C107.643116,9.99588432 105.825563,19.9765723 104,30 L110.758542,30 C110.809264,29.8071961 110.862656,29.6500087 110.892022,29.4871227 C111.4384,26.4654204 111.966981,23.439919 112.530267,20.4220157 C112.906236,18.4094471 113.795658,16.703655 115.36138,15.461827 C116.33089,14.6929859 117.418753,14.3192503 118.640096,14.5177528 C119.283915,14.6222279 119.721284,15.0016621 119.821839,15.6968958 C119.885465,16.1375904 119.91483,16.6082029 119.842751,17.0431988 C119.507716,19.0633657 119.134862,21.0764092 118.769571,23.0908774 C118.354893,25.3803049 117.933986,27.6678328 117.511744,29.9781552 L124.305435,29.9781552 C124.998197,26.174315 125.707866,22.4326848 126.35035,18.6777579 C126.646231,16.9472718 126.95635,15.194466 126.998174,13.4449844 C127.05557,11.0164152 125.755919,9.18335365 123.699881,8.39409241" id="Fill-5"></path>
            <path d="M139.084818,24.3725518 C136.56059,24.6638363 134.835782,23.1216126 134.847177,20.5836534 C134.862209,17.4147246 137.380271,14.6664422 140.336581,14.5929611 C142.412429,14.5414803 143.838171,15.7396188 144.13988,17.7900504 C144.602794,20.9356589 142.243736,24.0077862 139.084818,24.3725518 M145.699519,9.99621023 C145.096981,9.73176615 144.482551,9.52540297 143.85755,9.37052058 C143.649217,9.31903979 143.440002,9.27327908 143.229026,9.23279846 C142.386883,9.07131597 141.526681,8.99871485 140.652385,9.0000172 C136.56984,8.99387478 132.918497,10.8392632 130.592032,13.8013889 C130.370485,14.0834332 130.16127,14.3755977 129.964388,14.6770024 C129.767507,14.978847 129.583838,15.2899318 129.413384,15.6102568 C128.817012,16.730514 128.387132,17.959013 128.156335,19.2689132 C127.37101,23.7292619 129.587802,27.6374022 133.82935,29.2091064 C135.747957,29.9197174 137.733953,30.1335607 139.777648,29.9223574 C144.808485,29.4022694 150.082452,25.5310897 150.906096,19.4321557 C151.463708,15.3062121 149.513829,11.669556 145.699519,9.99621023" id="Fill-7"></path>
            <path d="M170.545061,9.45040442 C167.275563,8.30209883 163.380492,9.40767468 161.190319,12.1041463 C161.101523,12.2138942 161.036701,12.3434328 160.961224,12.4639757 C160.930145,12.4324906 160.899066,12.4010055 160.867987,12.3695205 C161.069112,11.4294661 161.270681,10.4898616 161.481129,9.50572819 L154.92615,9.50572819 C153.621281,16.3128009 152.318188,23.1104282 151,29.989017 C153.122687,29.989017 155.151694,29.9737243 157.179813,30 C157.659759,30.0061089 157.816485,29.8554304 157.904394,29.3750581 C158.446055,26.4199591 158.955748,23.4549648 159.620836,20.5273028 C160.168712,18.1155463 161.459818,16.1895594 163.926593,15.40783 C166.125201,14.7106605 167.192982,15.6911957 166.776525,17.9815098 C166.26772,20.7818822 165.709632,23.5737085 165.174187,26.369583 C164.947312,27.5543213 164.724432,28.7395094 164.493116,29.9593311 L171.236344,29.9593311 C171.290066,29.7470318 171.349116,29.5563222 171.386411,29.3611147 C172.026636,26.0102034 172.672188,22.6606414 173.299538,19.3074812 C173.631194,17.5353214 174.145771,15.7834019 173.961074,13.9451235 C173.739082,11.7330722 172.652653,10.1907534 170.545061,9.45040442" id="Fill-9"></path>
            <path d="M19.54152,9.46836919 C16.0966467,8.38315216 13.0700065,9.2002144 10.4944542,11.7485847 C10.2857816,11.9550999 10.106412,12.19176 9.83913355,12.4999581 C10.0686734,11.4318381 10.2706862,10.4928465 10.4815787,9.51021214 L3.92526419,9.51021214 C2.62039467,16.3211638 1.31774506,23.1208673 0,29.9984077 C2.22302882,29.9984077 4.34172136,30.0092059 6.45952592,29.9745618 C6.60293282,29.9718622 6.8280328,29.6438675 6.86932333,29.4373523 C7.37990514,26.8660359 7.89181891,24.2947194 8.34557075,21.7130547 C8.69543029,19.7216904 9.37028625,17.9179446 10.9042516,16.5447761 C11.8779089,15.6728231 12.9976371,15.1621592 14.3247058,15.2597927 C15.3645167,15.3362798 15.8506794,15.8644908 15.8688828,16.9227124 C15.8742106,17.2597055 15.8466836,17.6029977 15.7876337,17.9345918 C15.582513,19.0917966 15.3609649,20.2458521 15.1389728,21.3994576 C14.5924282,24.238029 14.0414439,27.0757005 13.4833557,29.961064 L20.2403511,29.961064 C20.2900773,29.7608478 20.3469073,29.56963 20.384202,29.3748129 C21.0244272,26.022878 21.6686482,22.671843 22.2982178,19.3181085 C22.6312059,17.5445075 23.1440077,15.7907032 22.9619741,13.953213 C22.742646,11.741386 21.6699802,10.1387562 19.54152,9.46836919" id="Fill-11"></path>
            <path d="M37.0943141,16.9288425 L31.0644626,16.9288425 C31.3905992,15.0437233 33.9748869,13.5713304 35.79528,14.201604 C36.8765835,14.5766103 37.3437396,15.5213629 37.0943141,16.9288425 M38.3924294,9.45327924 C35.1852669,8.63835337 32.033226,8.88265569 29.1453098,10.5094372 C24.7654337,12.976145 22.9229919,16.8222618 23.0024589,21.5561126 C23.0552839,24.6943228 24.5564307,27.1233107 27.4668549,28.6145636 C31.8531619,30.8619695 37.4769503,30.2777492 41.8347778,27.5663005 C41.9519113,27.4934923 42.074557,27.2636639 42.0378092,27.156206 C41.5008323,25.5925834 40.9367539,24.0372943 40.3933461,22.5184094 C39.1503524,23.0214879 37.9877445,23.5526371 36.7801206,23.9644861 C35.3901358,24.4381782 33.9450293,24.5965142 32.4911952,24.1947531 C30.8614312,23.744307 29.9202286,22.4438467 30.0672197,20.7837313 L30.8687807,20.7837313 C34.7750698,20.7837313 38.6808995,20.7758364 42.5871886,20.7933806 C43.0828243,20.7955736 43.361648,20.6802208 43.448924,20.1845985 C43.612911,19.2516882 43.9151615,18.3306202 43.9776327,17.3937625 C44.2073063,13.9467752 42.6905417,10.5449641 38.3924294,9.45327924" id="Fill-13"></path>
            <path d="M189.10156,16.9337525 L183.078837,16.9337525 C183.378757,15.0347448 186.028059,13.5484313 187.855558,14.2251447 C188.890607,14.6084548 189.333609,15.5342759 189.10156,16.9337525 M191.317948,9.75787153 C188.420088,8.69784803 185.477287,8.77108921 182.600064,9.8442698 C177.790782,11.6388979 174.779649,16.3044047 175.012615,21.6080307 C175.163951,25.0508046 176.911656,27.5414432 180.206658,28.9624097 C182.605108,29.9969962 185.144347,30.203124 187.725318,29.8220068 C190.032049,29.4816765 192.150297,28.6540951 194.126382,27.3831194 C193.531126,25.7205009 192.947335,24.0894593 192.386474,22.5220105 C191.112039,23.0373301 189.949043,23.5732626 188.738353,23.9802554 C187.34927,24.4473324 185.904697,24.601709 184.456455,24.1859447 C182.864673,23.7289549 181.933726,22.4268408 182.085979,20.7861507 L182.9408,20.7861507 C186.816842,20.7861507 190.692884,20.7791336 194.568467,20.7953607 C195.055495,20.7975535 195.313225,20.6874725 195.444383,20.1989056 C195.852532,18.6726823 196.153829,17.1473361 195.915818,15.5601516 C195.502166,12.809441 194.077312,10.7674595 191.317948,9.75787153" id="Fill-15"></path>
            <path d="M55.4758285,24.2959825 C53.3849802,24.2050495 52.5672241,23.1724876 52.9398601,21.0681086 C53.2740651,19.1769005 53.6997264,17.3001025 53.9692308,15.3999501 C54.095713,14.5104959 54.4649438,14.3345927 55.2535117,14.37832 C56.4638492,14.4454018 57.6809973,14.3962085 58.89474,14.3962085 C59.269322,12.3936944 59.6239587,10.4960265 60,8.48357432 L55.3128611,8.48357432 C55.7302524,6.26391411 56.1276984,4.15009397 56.531955,2 L49.4392216,2 C49.3735482,2.29416585 49.3083612,2.55802069 49.2563089,2.82485694 C48.929401,4.51382607 48.5844938,6.20031068 48.2926117,7.89573953 C48.2055336,8.40158553 48.0021891,8.55363747 47.5230161,8.52630787 C46.8643357,8.48854334 46.2007905,8.49102785 45.543083,8.53525211 C45.3621161,8.54767465 45.0726665,8.74544156 45.0410459,8.90146871 C44.6757069,10.7027376 44.3507449,12.511957 44,14.4016744 L46.7553664,14.4016744 C46.7179082,14.6709952 46.7003953,14.8647869 46.66391,15.0546034 C46.1827911,17.5525286 45.680754,20.0464786 45.2215263,22.548379 C44.5881423,25.998368 46.2066282,28.9599025 49.4202493,30.2061322 C51.4240195,30.9832866 53.510976,31.1497487 55.6290666,30.8789372 C55.8066282,30.8565766 56.0698085,30.6389336 56.1028884,30.4724715 C56.5090909,28.4446154 56.8797811,26.4088088 57.2733354,24.2999577 C56.6399514,24.2999577 56.0566738,24.3213245 55.4758285,24.2959825" id="Fill-17"></path>
        </g>
    </g>
</svg>