<?xml version="1.0" encoding="UTF-8"?>
<svg width="300px" height="200px" viewBox="0 0 300 200" version="1.1" xmlns="http://www.w3.org/2000/svg" xmlns:xlink="http://www.w3.org/1999/xlink">
    <title>Stonesource</title>
    <g id="Stonesource" stroke="none" stroke-width="1" fill="none" fill-rule="evenodd">
        <rect fill="#FFFFFF" x="0" y="0" width="300" height="200"></rect>
        <g id="stonesource" transform="translate(46.000000, 90.000000)" fill="#222222" fill-rule="nonzero">
            <path d="M206.528,15.3810811 C205.856,16.6108108 205.28,17.4621622 204.704,18.1243243 C204.224,18.5972973 203.744,18.8810811 203.264,19.0702703 C202.784,19.2594595 201.92,19.2594595 200.864,19.2594595 L197.504,19.2594595 C196.928,19.2594595 196.544,19.1648649 196.352,19.0702703 C196.16,18.9756757 196.064,18.7864865 195.968,18.5972973 C195.872,18.4081081 195.872,17.9351351 195.872,17.1783784 L195.872,13.3 L193.28,13.3 L193.28,17.1783784 C193.28,17.9351351 193.184,18.4081081 193.088,18.6918919 C192.992,18.9756757 192.8,19.2594595 192.416,19.3540541 C192.032,19.5432432 191.552,19.7324324 191.072,19.7324324 L190.4,19.7324324 L190.4,20.3 L205.472,20.3 L207.2,15.3810811 L206.528,15.3810811 L206.528,15.3810811 Z" id="Path"></path>
            <polygon id="Path" points="196.465 11.0669421 206.535 11.0669421 206.535 8.84545455 196.465 8.84545455 196.465 2.82892562 207.2 2.82892562 207.2 0.7 193.9 0.7 193.9 11.9 196.465 11.9"></polygon>
            <path d="M174.825,9.67105263 C174.825,5.80263158 176.769444,2.11842105 181.533333,2.11842105 C184.255556,2.11842105 186.491667,3.40789474 187.075,6.07894737 L189.7,6.07894737 C189.116667,2.11842105 185.713889,0 181.533333,0 C175.408333,0 172.2,4.42105263 172.2,9.85526316 C172.2,11.3289474 172.394444,12.7105263 172.880556,14 L175.7,14 C175.116667,12.7105263 174.825,11.2368421 174.825,9.67105263 L174.825,9.67105263 Z" id="Path"></path>
            <path d="M185.345399,18.0811321 C184.357669,18.609434 183.271166,18.9264151 182.08589,18.9264151 C180.604294,18.9264151 179.419018,18.609434 178.233742,17.8698113 C177.246012,17.2358491 176.455828,16.2849057 175.961963,15.1226415 L172.9,15.1226415 C173.097546,15.545283 173.393865,16.0735849 173.690184,16.4962264 C175.468098,19.0320755 177.937423,20.3 181.09816,20.3 C182.876074,20.3 184.357669,19.8773585 185.641718,19.0320755 C186.925767,18.1867925 188.01227,16.8132075 189,15.0169811 L188.604908,14.7 C187.320859,16.390566 186.234356,17.4471698 185.345399,18.0811321 L185.345399,18.0811321 Z" id="Path"></path>
            <path d="M170.1,6.53219512 C170.1,2.89902439 167.511321,0.7 163.720755,0.7 L155.4,0.7 L155.4,20.3 L157.896226,20.3 L157.896226,11.9819512 L163.720755,11.9819512 C167.511321,11.9819512 170.1,10.1653659 170.1,6.53219512 L170.1,6.53219512 Z M157.896226,9.78292683 L157.896226,2.89902439 L163.443396,2.89902439 C166.679245,2.80341463 167.603774,4.14195122 167.603774,6.53219512 C167.603774,8.82682927 165.754717,9.78292683 162.888679,9.78292683 L157.896226,9.78292683 L157.896226,9.78292683 Z" id="Shape"></path>
            <path d="M170.38,18.8626667 C169.726667,18.452 168.98,17.528 168.046667,16.0906667 L166.086667,12.6 L163.1,12.6 L167.766667,20.3 L172.9,20.3 L172.9,19.684 C171.873333,19.5813333 171.033333,19.2733333 170.38,18.8626667 L170.38,18.8626667 Z" id="Path"></path>
            <path d="M151.103448,3.8440678 C151.103448,2.66949153 151.2,1.81525424 151.489655,1.38813559 C151.875862,0.854237288 152.455172,0.533898305 153.227586,0.533898305 L154,0.533898305 L154,0 L145.6,0 L145.6,0.640677966 L146.372414,0.640677966 C147.144828,0.640677966 147.627586,0.854237288 148.013793,1.28135593 C148.303448,1.70847458 148.496552,2.56271186 148.496552,3.95084746 L148.496552,6.3 L151.103448,6.3 L151.103448,3.8440678 L151.103448,3.8440678 Z" id="Path"></path>
            <path d="M148.467879,13.46 C148.467879,16.94 146.613939,18.8733333 143.296364,18.8733333 C139.783636,18.8733333 137.734545,16.94 137.734545,13.46 L137.734545,0.7 L135.1,0.7 L135.1,13.3633333 C135.1,18.68 138.124848,21 143.296364,21 C148.272727,21 151.2,18.39 151.2,13.3633333 L151.2,7.56333333 L148.565455,7.56333333 L148.565455,13.46 L148.467879,13.46 Z" id="Path"></path>
            <path d="M119.422222,2.83333333 C120.577778,1.60555556 121.925926,0.944444444 123.659259,0.944444444 C125.585185,0.944444444 127.02963,1.60555556 128.088889,2.92777778 C129.437037,4.53333333 130.111111,6.98888889 130.111111,10.3888889 C130.111111,10.9555556 130.111111,11.4277778 130.014815,11.9 L132.807407,11.9 C132.903704,11.3333333 133,10.6722222 133,10.0111111 C133,7.17777778 131.651852,4.25 130.207407,2.73888889 C128.57037,1.13333333 126.548148,0 123.948148,0 C121.348148,0 119.133333,0.85 117.303704,2.55 C116.148148,3.58888889 115.281481,4.91111111 114.8,6.32777778 L117.496296,6.32777778 C117.785185,4.81666667 118.651852,3.58888889 119.422222,2.83333333 L119.422222,2.83333333 Z" id="Path"></path>
            <path d="M123.696891,18.1691176 C118.800518,18.1691176 116.744041,14.1852941 116.744041,10.3867647 C116.744041,9.55294118 116.841969,8.53382353 117.135751,7.7 L114.393782,7.7 C114.197927,8.53382353 114.1,9.55294118 114.1,10.3867647 C114.1,15.575 117.331606,20.3 123.696891,20.3 C128.887047,20.3 132.020725,17.15 133,13.1661765 L130.258031,13.1661765 C129.376684,15.9455882 127.320207,18.1691176 123.696891,18.1691176 L123.696891,18.1691176 Z" id="Path"></path>
            <path d="M112.7,15.2188235 C112.7,11.2658824 109.629747,10.08 106.652532,9.38823529 C103.582278,8.69647059 100.512025,8.30117647 100.512025,5.83058824 C100.512025,3.16235294 102.651899,2.37176471 104.791772,2.37176471 C107.396835,2.37176471 109.257595,3.65647059 109.536709,6.52235294 L111.955696,6.52235294 C111.76962,1.97647059 108.792405,0 104.88481,0 C101.442405,0 98,1.77882353 98,5.92941176 C98,9.68470588 101.070253,10.5741176 104.140506,11.2658824 C107.210759,11.9576471 110.187975,12.4517647 110.187975,15.2188235 C110.187975,15.8117647 110.094937,16.3058824 109.908861,16.8 L112.513924,16.8 C112.606962,16.3058824 112.7,15.8117647 112.7,15.2188235 L112.7,15.2188235 Z" id="Path"></path>
            <path d="M108.666667,17.7646341 C107.904762,18.5158537 106.761905,18.8914634 105.333333,18.8914634 C104.095238,18.8914634 103.047619,18.6097561 102,18.1402439 C100.952381,17.5768293 100.285714,16.9195122 99.7142857,16.1682927 C99.2380952,15.4170732 98.8571429,14.1963415 98.5714286,12.6 L98,12.6 L98,20.3 L98.5714286,20.3 C98.6666667,19.7365854 98.7619048,19.454878 98.952381,19.2670732 C99.1428571,19.0792683 99.3333333,18.9853659 99.6190476,18.9853659 C99.9047619,18.9853659 100.571429,19.1731707 101.714286,19.5487805 C102.761905,19.9243902 103.52381,20.1121951 103.904762,20.1121951 C104.47619,20.2060976 105.142857,20.3 105.714286,20.3 C107.809524,20.3 109.714286,19.6426829 111.047619,18.4219512 C111.428571,18.0463415 111.714286,17.7646341 112,17.3890244 L109.142857,17.3890244 C108.952381,17.3890244 108.857143,17.5768293 108.666667,17.7646341 L108.666667,17.7646341 Z" id="Path"></path>
            <polygon id="Path" points="77.4111888 18.1269939 77.4111888 10.9165644 87.0839161 10.9165644 87.0839161 8.74355828 77.4111888 8.74355828 77.4111888 4.2 74.9 4.2 74.9 20.3 88.2 20.3 88.2 18.1269939"></polygon>
            <path d="M77.5352941,1.53333333 L84.5517647,1.53333333 C85.54,1.53333333 86.1329412,1.61666667 86.5282353,1.7 C87.0223529,1.86666667 87.3188235,2.11666667 87.6152941,2.45 C87.8129412,2.78333333 88.1094118,3.36666667 88.3070588,4.2 L88.9,4.2 L88.7023529,0.7 L72.1,0.7 L72.1,1.11666667 L72.7917647,1.11666667 C73.5823529,1.11666667 74.1752941,1.28333333 74.4717647,1.61666667 C74.6694118,1.86666667 74.8670588,2.45 74.8670588,3.36666667 L77.5352941,3.36666667 L77.5352941,1.53333333 L77.5352941,1.53333333 Z" id="Path"></path>
            <polygon id="Path" points="68.147561 0.7 68.147561 16.5712195 68.0493902 16.5712195 57.4469512 0.7 54.6 0.7 54.6 13.4160976 57.152439 13.4160976 57.152439 4.62 57.2506098 4.62 67.754878 20.3 70.7 20.3 70.7 0.7"></polygon>
            <path d="M54.7,16.5819672 C54.7,17.7180328 54.6,18.5442623 54.4,18.8540984 C54,19.3704918 53.4,19.6803279 52.5,19.6803279 L51.8,19.6803279 L51.8,20.3 L60.2,20.3 L60.2,19.6803279 L59.5,19.6803279 C58.7,19.6803279 58.1,19.4737705 57.7,19.0606557 C57.4,18.7508197 57.3,17.9245902 57.3,16.5819672 L57.3,14 L54.7,14 L54.7,16.5819672 L54.7,16.5819672 Z" id="Path"></path>
            <path d="M49.1559585,10.3328358 C49.1559585,14.1880597 47.0994819,18.1373134 42.3010363,18.1373134 C38.0901554,18.1373134 36.0336788,15.0343284 35.5440415,11.7432836 L32.9,11.7432836 C33.3896373,16.3507463 36.6212435,20.3 42.3010363,20.3 C48.5683938,20.3 51.8,15.5044776 51.8,10.3328358 C51.8,9.39253731 51.7020725,8.54626866 51.5062176,7.7 L48.8621762,7.7 C48.9601036,8.64029851 49.1559585,9.48656716 49.1559585,10.3328358 L49.1559585,10.3328358 Z" id="Path"></path>
            <path d="M35.5278075,9.93243243 C35.5278075,6.81081081 36.5983957,4.44594595 37.9609626,2.83783784 C39.0315508,1.51351351 40.4914439,0.945945946 42.2433155,0.945945946 C44.1898396,0.945945946 45.6497326,1.60810811 46.7203209,2.93243243 C47.4989305,3.78378378 48.0828877,4.91891892 48.3748663,6.33783784 L51.1,6.33783784 C50.613369,5.01351351 49.8347594,3.78378378 48.8614973,2.74324324 C46.9149733,0.851351351 45.0657754,0 42.5352941,0 C39.9074866,0 37.668984,0.851351351 35.8197861,2.55405405 C33.6786096,4.54054054 32.9,7 32.9,10.1216216 C32.9,10.2162162 32.9,10.4054054 32.9,10.5 L35.5278075,10.5 C35.5278075,10.2162162 35.5278075,10.1216216 35.5278075,9.93243243 L35.5278075,9.93243243 Z" id="Path"></path>
            <path d="M23.7670588,16.8945946 C23.7670588,18.0297297 23.6682353,18.6918919 23.4705882,18.9756757 C23.0752941,19.4486486 22.4823529,19.7324324 21.6917647,19.7324324 L21,19.7324324 L21,20.3 L29.4,20.3 L29.4,19.7324324 L28.7082353,19.7324324 C27.9176471,19.7324324 27.3247059,19.5432432 26.9294118,19.1648649 C26.6329412,18.8810811 26.5341176,18.1243243 26.5341176,16.8945946 L26.5341176,16.8 L23.7670588,16.8945946 L23.7670588,16.8945946 L23.7670588,16.8945946 Z" id="Path"></path>
            <polygon id="Path" points="32.9 2.85350318 32.9 0.7 16.8 0.7 16.8 2.85350318 23.4756098 2.85350318 23.4756098 15.4 26.2243902 15.4 26.2243902 2.85350318"></polygon>
            <path d="M4.34383562,3.33768116 C5.1109589,2.62753623 6.16575342,2.22173913 7.41232877,2.22173913 C8.46712329,2.22173913 9.61780822,2.22173913 10.6726027,2.72898551 C11.6315068,3.13478261 12.4945205,3.74347826 13.1657534,4.65652174 C13.7410959,5.46811594 13.8369863,5.97536232 14.0287671,7.7 L14.7,7.7 L14.7,0.7 L14.0287671,0.7 C13.9328767,1.30869565 13.7410959,1.71449275 13.5493151,1.9173913 C13.3575342,2.12028986 13.069863,2.22173913 12.7821918,2.22173913 C12.4945205,2.22173913 12.0150685,2.01884058 11.3438356,1.71449275 C9.90547945,1.1057971 8.5630137,0.7 7.31643836,0.7 C5.30273973,0.7 3.67260274,1.41014493 2.33013699,2.62753623 C1.5630137,3.43913043 0.987671233,4.35217391 0.7,5.26521739 L3.19315068,5.26521739 C3.38493151,4.55507246 3.76849315,3.94637681 4.34383562,3.33768116 L4.34383562,3.33768116 Z" id="Path"></path>
            <path d="M9.71890244,9.31960784 C6.67560976,8.67908497 3.63231707,8.3130719 3.33780488,6.3 L0.58902439,6.3 C0.687195122,9.59411765 3.82865854,10.5091503 6.97012195,11.1496732 C10.2097561,11.7901961 13.3512195,12.2477124 13.3512195,14.8098039 C13.3512195,17.4633987 10.7006098,18.1954248 8.24634146,18.1954248 C5.20304878,18.1954248 2.35609756,16.8228758 2.35609756,13.7117647 L0,13.7117647 C0,18.2869281 3.82865854,20.3 8.24634146,20.3 C11.8786585,20.3 16.1,18.7444444 16.1,14.7183007 C16.1,11.0581699 12.9585366,9.96013072 9.71890244,9.31960784 L9.71890244,9.31960784 Z" id="Path"></path>
        </g>
    </g>
</svg>