<?xml version="1.0" encoding="UTF-8"?>
<svg width="300px" height="200px" viewBox="0 0 300 200" version="1.1" xmlns="http://www.w3.org/2000/svg" xmlns:xlink="http://www.w3.org/1999/xlink">
    <title>United Nations</title>
    <defs>
        <polygon id="path-1" points="0.067003882 0.117146871 48.5322341 0.117146871 48.5322341 9.33498701 0.067003882 9.33498701"></polygon>
        <polygon id="path-3" points="0 65.3449091 77.52 65.3449091 77.52 0 0 0"></polygon>
    </defs>
    <g id="United-Nations" stroke="none" stroke-width="1" fill="none" fill-rule="evenodd">
        <rect fill="#FFFFFF" x="0" y="0" width="300" height="200"></rect>
        <g id="Group-2" transform="translate(85.000000, 57.000000)">
            <g id="Group" transform="translate(26.928000, 0.000000)">
                <g id="Group-47">
                    <path d="M64.8095533,53.5524472 C62.5499431,54.20899 60.1387451,54.4201078 57.9442424,55.2320065 C61.6611714,51.7743663 61.4489237,46.4241725 63.9286883,42.3515428 C64.7186253,41.1986386 65.3715525,39.9899725 66.292322,38.8957792 C64.7839798,42.1787613 65.4381425,46.4381129 63.7053217,49.6239138 C63.0381869,50.8895482 62.0841842,52.1172484 61.0292465,53.1111775 C61.3739328,53.0972371 61.675626,52.7733891 61.9788016,52.5571777 C64.7933691,49.5098432 68.470517,48.6575976 71.5151224,46.1818226 C72.7347436,45.1273061 73.8517001,43.7455904 74.3878788,42.2511446 C73.8117956,47.307248 69.1758267,52.0462056 64.8095533,53.5524472" id="Fill-1" fill="#222222"></path>
                    <path d="M75.4395857,32.9619105 C73.8237619,34.9752395 71.8688558,36.8495738 70.3759657,38.8957792 C70.542535,37.2756974 70.761583,35.2835666 70.0409425,33.7489126 C68.7920351,30.4441386 67.6946202,27.0885902 67.3406061,23.4615261 L67.3894606,22.0746254 C68.3292942,25.7786126 72.4848288,28.3248181 72.222725,32.4795544 C72.3178246,33.4865363 71.9620708,34.3424645 71.746647,35.2280957 L71.8182616,35.2934676 L72.0054165,35.1097915 C72.6215345,33.07171 72.9324929,30.9286526 73.8905926,29.027281 C75.2524308,26.2910525 76.9527715,23.5295637 76.2598199,20.2258052 C78.3308462,24.1208308 77.7034206,29.3250724 75.4395857,32.9619105" id="Fill-3" fill="#222222"></path>
                    <path d="M73.5947827,12.4459392 C76.1571322,15.6857853 76.7186515,20.8485786 74.8525097,24.5648689 C74.1568473,26.139704 73.665535,27.8178153 73.3923413,29.5607922 C73.261879,29.2602482 73.232024,28.8559193 73.1156032,28.5209076 C72.0964435,24.8834735 68.4091468,22.2910115 66.8926765,18.8615289 C66.411861,17.7399899 66.0017979,16.581185 65.7745455,15.3637467 C67.3948948,18.1598357 71.388103,19.6040493 72.4765154,22.6852926 C72.9224318,23.4645702 72.8973481,24.4383174 73.1739499,25.2762283 C73.232024,25.2762283 73.2902345,25.2359099 73.2902345,25.1808377 C72.8110549,22.0067476 72.9571945,18.6848656 73.4189245,15.5502035 C73.3923413,13.8522509 73.2147108,12.2051734 72.2035943,10.8908182 C72.8519522,11.2432546 73.1438223,11.9202735 73.5947827,12.4459392" id="Fill-5" fill="#222222"></path>
                    <path d="M71.7241564,11.4376216 C72.4111691,14.3746478 71.4077158,17.2349622 72.0387879,20.2002784 L72.0152705,20.2258052 C70.3253612,17.0837753 66.738061,15.6009856 64.2697134,13.0862037 C62.8390515,11.5939402 62.2173029,9.77535501 61.8593939,7.84966265 C63.2737746,11.0737993 67.0902646,11.7843383 69.2812744,14.5012291 C70.0144869,15.1275561 70.2536959,15.9953347 70.7264085,16.7057422 L70.80364,16.635083 C69.5435833,14.0916165 69.1215234,11.2293284 68.2423364,8.51677985 C67.8020471,7.34149566 66.9285654,6.18647499 65.7564552,5.44540909 C68.6326687,6.00120851 71.1253685,8.84046985 71.7241564,11.4376216" id="Fill-7" fill="#222222"></path>
                    <path d="M64.8812788,5.20048603 C66.9893123,6.98421215 67.9428433,9.29376107 68.5584877,11.6867861 L68.9066667,12.4466494 C65.8469981,10.3662757 63.0672541,7.56956931 61.1134702,4.6160251 L58.7272727,2.33374675 C60.8250139,3.17465353 63.0866199,3.67653455 64.8812788,5.20048603" id="Fill-9" fill="#222222"></path>
                    <path d="M18.009697,3.11166234 C15.8460909,4.85214945 14.345503,7.05346964 12.7404614,9.10617911 C11.3016592,10.7408971 9.46125029,11.8188016 7.83030303,13.2245649 C8.7106793,11.549675 8.74281892,9.54883312 9.99169258,8.01009556 C11.768792,5.16500744 15.0640729,4.16414154 18.009697,3.11166234" id="Fill-11" fill="#222222"></path>
                    <path d="M6.81694226,7.91985724 C7.90436762,6.67545035 9.28297559,5.8104808 10.8343748,5.44540909 C7.82205198,7.35037173 8.01803478,10.7643853 7.06303023,13.6025872 C6.75853395,14.6520695 6.22985283,15.6189165 5.96644279,16.6947578 L6.04303212,16.7509024 C6.54422698,15.5346996 7.42521903,14.3857122 8.52481279,13.393297 C10.6643036,11.5750554 13.8290893,10.4418833 14.8775758,7.7522142 C14.829618,11.4897841 11.4427948,14.4282819 8.20227865,16.5288281 C6.86590217,17.6082278 5.57719719,18.8382691 4.84122382,20.2258052 C4.76907237,19.2826813 4.99268459,18.335999 4.91981736,17.3257915 C4.56736327,14.0630784 4.31139743,10.3389516 6.81694226,7.91985724" id="Fill-13" fill="#222222"></path>
                    <path d="M1.58525218,19.9242628 C1.49738542,16.7286468 2.94267576,14.1201313 4.97943578,11.7389916 C5.03856886,11.7118594 5.08076712,11.6577223 5.15683503,11.6707152 C2.91491375,14.7971632 4.76955497,18.7352853 4.66739076,22.2902442 L4.37172533,25.9299117 C4.41572812,25.9562796 4.41572812,26.0657002 4.51969686,26.0236643 C4.65226047,25.6179547 4.68099415,25.184476 4.76955497,24.7671746 C5.29772725,21.8312891 8.07614941,19.7480944 10.5029657,17.7191642 C11.0211437,17.1884935 11.4792168,16.6497977 11.7454545,16.0270302 C11.5473726,17.4888587 11.0480728,18.9632979 10.3871981,20.3150689 C8.49840962,23.6952605 5.00914113,26.4687348 4.37172533,30.3387078 C4.06245652,26.630127 1.3109635,23.857417 1.58525218,19.9242628" id="Fill-15" fill="#222222"></path>
                    <path d="M0.210306127,23.9612064 C0.45463989,22.9594198 0.641300619,21.9229082 1.10254982,21.0037208 C0.228675056,25.2378557 3.24158453,28.2885368 4.22985989,31.958648 C4.64343092,33.3311736 4.74459509,34.8054482 5.33604757,36.0935873 C5.39101929,36.1216736 5.4389676,36.0672883 5.47300414,36.0260526 C4.00146388,32.1274211 6.12564137,28.5046735 8.26021891,25.4522051 C8.77927621,24.6250641 9.07844662,23.7039616 9.33655708,22.7533686 C9.56333231,24.5178255 9.09127786,26.5497405 8.8202011,28.3816045 C8.3011438,30.7126384 7.52640723,32.9231565 6.85202444,35.184996 C6.40833377,36.5982468 6.52489543,38.1929093 6.75288625,39.6736948 L6.53907732,39.5121987 C4.97420669,36.7845099 1.87553054,34.6571016 0.955328257,31.6772745 C0.198015153,29.3016856 -0.305374527,26.5497405 0.210306127,23.9612064" id="Fill-17" fill="#222222"></path>
                    <path d="M0.072444113,31.8089187 C0.41011345,36.3315461 5.41386737,38.721451 7.73334201,42.4654552 C8.28213741,43.2315988 8.75826309,44.0791814 9.49171107,44.7204004 C9.37708086,44.2387142 8.91445666,43.8333207 8.74476161,43.3396694 C7.93321684,41.7693002 7.63737561,39.8980057 7.83248522,38.0000795 C8.05724513,35.689941 9.05410431,33.5462828 8.67354793,31.1166234 C10.7116094,35.3877292 10.0926592,40.7189566 11.2322105,45.3472101 C11.5305667,46.3593431 12.133368,47.2632767 12.5284848,48.2307662 C8.34090855,45.4587545 2.63110671,42.8213164 0.773329702,37.7408386 C-0.00962369909,35.9891938 -0.0969862088,33.8205764 0.072444113,31.8089187" id="Fill-19" fill="#222222"></path>
                    <path d="M3.13212121,42.2500449 C5.29264369,47.412902 10.7038718,47.8406601 14.3320992,50.9845402 C14.9998058,51.6096157 15.6993604,52.1411433 16.4530566,52.5121 L16.4918867,52.4703075 C15.6589378,51.6748274 14.6952894,50.7688497 14.1122252,49.7376239 C11.9886955,46.6189746 12.7355321,42.2500449 11.1445997,38.8957792 C12.5901336,40.7223557 13.9048454,42.6211309 14.7776044,44.693416 C16.0757798,48.0761471 16.5718743,51.8971168 19.5757576,54.4540909 C16.3249295,53.3224597 12.5165156,53.638685 9.64725158,51.5242193 C6.51426126,49.4903626 3.71837025,46.0406083 3.13212121,42.2500449" id="Fill-21" fill="#222222"></path>
                    <path d="M8.61333333,52.926837 C12.3437126,56.990137 18.4390484,55.6343983 23.4079632,56.6978169 C24.1099319,56.7895301 24.752282,57.0588587 25.4961948,56.9495861 C24.9038345,56.5905655 24.0818373,56.6296004 23.4353983,56.3032984 C19.5404085,54.9927847 18.9690203,50.9541184 16.8545407,48.2307662 C19.5558408,49.9489364 21.8268849,52.266148 24.3188606,54.5114798 C26.1101865,56.0141365 28.2663463,56.707923 30.5381818,57.150193 C29.9922501,57.3410727 29.2765639,57.2887734 28.6905348,57.4356914 C24.6090393,58.397038 20.0746012,59.9680375 15.7461899,58.5615155 C12.9322478,57.713105 10.0291417,55.582099 8.61333333,52.926837" id="Fill-23" fill="#222222"></path>
                    <g id="Group-27" transform="translate(14.877576, 56.009922)">
                        <mask id="mask-2" fill="white">
                            <use xlink:href="#path-1"></use>
                        </mask>
                        <g id="Clip-26"></g>
                        <path d="M43.5540592,5.88384231 C39.406144,7.49284232 35.077183,5.81024474 31.8373605,3.25651698 C30.5257868,2.38998667 29.3696185,1.14207478 27.6729157,1.25247115 C27.057542,1.24029508 26.4641646,1.27168228 25.9412011,1.4286183 C29.0884833,2.95103292 32.0121589,5.04991681 34.6852858,7.7340638 C34.2348188,8.26872856 33.6514633,8.76889446 33.101818,9.22996164 C30.5257868,6.3449095 27.6729157,3.5679538 24.4786474,1.94596598 C23.8532519,2.03025144 23.2580523,2.42137387 22.6940899,2.73619293 C20.0937197,4.445172 17.5223742,6.64362908 15.5891794,9.33508172 L13.9278788,7.90899334 C16.5792698,5.12121446 19.5119261,2.95103292 22.7202511,1.40088391 C19.5676325,0.362941589 17.5098793,3.10810422 15.1168463,4.50456416 C12.3282718,6.52836229 8.31780048,7.47890749 4.94769264,6.08258283 C3.13528188,5.36798281 1.37935847,4.3155645 0.067003882,2.60536782 C2.71930596,4.50456416 6.66925509,4.70357526 9.68547102,3.47013937 C13.7329064,1.64535234 17.9386104,-0.667830382 22.8177373,0.438297934 C23.5791451,0.452232769 24.3190772,1.24029508 25.0384448,0.569258331 C28.6648282,-0.409562408 32.7703128,0.263368394 35.8926052,1.9862823 L39.1104315,3.3270029 C42.1015274,4.47669449 45.9684376,4.15862848 48.5322341,2.26430257 C47.2140226,3.9698994 45.4134559,5.19170038 43.5540592,5.88384231" id="Fill-25" fill="#222222" mask="url(#mask-2)"></path>
                    </g>
                    <path d="M61.9086332,58.4296311 C57.1679786,60.2363616 52.398706,58.0187006 47.8562577,57.2778755 L46.9818182,57.165682 L46.9818182,57.1377339 C49.1537405,56.6402846 51.2621996,55.987583 52.9908075,54.4123268 C55.5371489,51.9420631 57.8030072,49.3994553 60.6306266,47.4528506 C58.5335617,50.1663564 58.311507,54.0289432 54.8474016,55.7734926 C53.9901859,56.3396754 52.9082658,56.4398339 52.0236244,56.8685496 C53.2852022,56.8960966 54.4402573,56.4398339 55.6896459,56.3121285 C60.3345096,55.5761175 65.6483195,56.3312509 68.9066667,52.3374819 C67.6968928,55.1203898 64.6672249,57.4507793 61.9086332,58.4296311" id="Fill-28" fill="#222222"></path>
                    <path d="M70.5795787,44.6145523 C68.7008928,45.7946928 66.7966809,46.8890885 64.9915152,48.2307662 L64.9915152,48.0660391 C67.7565643,43.655409 66.4048836,37.5964867 68.1084772,32.7427138 L68.7438349,31.1166234 C68.3884653,34.1404065 69.7568974,36.7017797 69.6607761,39.7360257 C69.5646549,41.5688226 68.9413954,43.1938923 67.9385699,44.6574248 L68.1084772,44.6574248 C69.4633486,42.9498001 70.5212145,41.1337184 72.1044903,39.5071175 C74.5621641,37.2325814 77.0607857,34.900244 77.3834501,31.743888 C78.2180966,37.0132429 75.1372964,41.6313449 70.5795787,44.6145523" id="Fill-30" fill="#222222"></path>
                    <mask id="mask-4" fill="white">
                        <use xlink:href="#path-3"></use>
                    </mask>
                    <g id="Clip-33"></g>
                    <polygon id="Fill-32" fill="#222222" mask="url(#mask-4)" points="39.1515152 53.6761753 39.9345455 53.6761753 39.9345455 33.4503701 39.1515152 33.4503701"></polygon>
                    <polygon id="Fill-34" fill="#222222" mask="url(#mask-4)" points="33.8544758 31.1166234 34.4533333 31.7132036 19.3915848 46.6749351 18.7927273 46.0779602"></polygon>
                    <polygon id="Fill-35" fill="#222222" mask="url(#mask-4)" points="32.1042424 27.2497833 32.1029777 28.004961 11.7454545 27.982341 11.7463398 27.2270455"></polygon>
                    <polygon id="Fill-36" fill="#222222" mask="url(#mask-4)" points="34.4533333 24.2976168 33.8530637 24.8932987 18.7927273 9.93053745 19.3928646 9.33498701"></polygon>
                    <polygon id="Fill-37" fill="#222222" mask="url(#mask-4)" points="39.9168768 21.0037208 39.1515152 21.0030925 39.1691838 0.777915584 39.9345455 0.778795109"></polygon>
                    <polygon id="Fill-38" fill="#222222" mask="url(#mask-4)" points="42.8821603 23.3374675 42.2836364 22.7400479 57.3457185 7.77915584 57.9442424 8.37644381"></polygon>
                    <polygon id="Fill-39" fill="#222222" mask="url(#mask-4)" points="45.4166429 28.7828766 45.4157576 28.0287232 65.7731543 28.004961 65.7745455 28.7589969"></polygon>
                    <polygon id="Fill-40" fill="#222222" mask="url(#mask-4)" points="42.2836364 32.4916757 42.8824534 31.894539 57.9442424 46.8558455 57.3455576 47.4528506"></polygon>
                    <path d="M46.234087,6.93317882 C57.2710701,10.9601354 62.8805236,22.9714018 58.755091,33.7440346 C54.6295283,44.5171754 42.3224607,49.9918295 31.2856077,45.9648729 C20.2484945,41.9384244 14.6394313,29.926904 18.7647338,19.1541442 C22.8905567,8.38138443 35.1969738,2.90647628 46.234087,6.93317882 M46.5716484,6.0503094 C58.1087273,10.259403 63.9720676,22.8141594 59.6593757,34.0741421 C55.3468138,45.3341249 42.483954,51.05709 30.9479162,46.8477424 C19.4109674,42.6389028 13.548538,30.0844005 17.8601889,18.8241637 C22.173011,7.56392685 35.0356106,1.84146978 46.5716484,6.0503094" id="Fill-41" fill="#222222" mask="url(#mask-4)"></path>
                    <path d="M44.8418823,12.1044541 C53.2439646,15.2247711 57.514591,24.5323858 54.3738765,32.8802016 C51.233162,41.227888 41.8635331,45.4704732 33.4615811,42.3497677 C25.0589775,39.2297096 20.7880905,29.9217066 23.9291959,21.5741496 C27.0704317,13.2263338 36.4391483,8.98387807 44.8418823,12.1044541 M45.1815986,11.1994158 C54.087587,14.5066697 58.612968,24.3708227 55.2847384,33.218086 C51.9555967,42.0653494 42.0258985,46.5616715 33.1209526,43.2546765 C24.2160067,39.947811 19.6897135,30.0830108 23.0184643,21.2358769 C26.3470848,12.388743 36.276783,7.89242086 45.1815986,11.1994158" id="Fill-42" fill="#222222" mask="url(#mask-4)"></path>
                    <path d="M43.4830783,17.0924595 C49.3019264,19.1836759 52.2594012,25.4211115 50.0841538,31.0155061 C47.9087774,36.6097767 41.4214757,39.4526751 35.6026276,37.3614587 C29.7839084,35.2706143 26.8268206,29.0329307 29.0015521,23.4385361 C31.1767995,17.8445136 37.6642301,15.0013671 43.4830783,17.0924595 M43.791377,16.2991069 C50.0659654,18.553905 53.2545998,25.2796053 50.9095946,31.3117886 C48.5635574,37.3438479 41.5680143,40.4098575 35.2943288,38.1549353 C29.0197404,35.8998892 25.831235,29.1741889 28.1767562,23.1421296 C30.5221484,17.1101943 37.5175625,14.0443088 43.791377,16.2991069" id="Fill-43" fill="#222222" mask="url(#mask-4)"></path>
                    <path d="M40.7534774,21.5390129 C43.6984853,22.6324801 45.1944449,25.893904 44.0941765,28.8191546 C42.9929985,31.744147 39.7109058,33.230591 36.7665476,32.1372529 C33.8219295,31.0437858 32.3257101,27.7824909 33.4258485,24.8572403 C34.5267666,21.9321189 37.8100288,20.4455457 40.7534774,21.5390129 M41.0897824,20.6456489 C44.5306713,21.9234692 46.2793794,25.7344669 44.9931557,29.1530042 C43.7069319,32.5708959 39.8711315,34.3084372 36.4301127,33.0304878 C32.9892238,31.7527966 31.2407756,27.9417989 32.5267394,24.5232616 C33.8130931,21.1051117 37.6496732,19.3678286 41.0897824,20.6456489" id="Fill-44" fill="#222222" mask="url(#mask-4)"></path>
                    <path d="M52.1305179,4.35512228 C65.1819664,11.4903442 70.1353261,27.7022755 63.1866999,40.5424571 C56.2391186,53.3822496 40.0067632,58.0125987 26.9558371,50.8771173 C13.9039968,43.7413763 8.95063708,27.5295748 15.8991327,14.6895229 C22.8468446,1.84947097 39.0789388,-2.78035919 52.1305179,4.35512228 M52.6044867,3.47851412 C66.1475358,10.8827131 71.2881844,27.7057788 64.077824,41.0292887 C56.8682472,54.3531878 40.0245256,59.1577946 26.4813458,51.7534659 C12.9384273,44.3495264 7.79790933,27.526331 15.0082697,14.2025616 C22.2181077,0.878662457 39.061307,-3.92568487 52.6044867,3.47851412" id="Fill-45" fill="#222222" mask="url(#mask-4)"></path>
                    <path d="M33.7933461,53.6441269 C27.0958683,52.2295313 35.1557588,53.9248843 33.7933461,53.6441269 L33.7933461,53.6441269 Z M39.8843389,5.00965165 C39.8423284,5.15672121 39.7019902,5.19776687 39.5676348,5.29581324 C39.5992402,5.3215472 39.6027519,5.35011189 39.6344873,5.37597451 C39.7272225,5.42512637 40.1984417,5.49808214 40.316279,5.51635325 C40.6060599,5.51944132 40.6162049,5.34638046 40.9571007,5.28732104 L41.3839683,5.22079876 C41.7849534,5.18502856 42.33317,5.16521341 42.690714,4.98996517 C42.5545377,4.80133527 42.4685659,4.80866945 42.2586438,4.74137515 C41.9303641,4.65568108 41.5803639,4.62943244 41.2451908,4.74510658 C40.9360304,4.83002863 40.9486466,4.94364405 40.5467511,4.97941425 L39.8843389,5.00965165 Z M38.1455231,5.79518066 C38.5249176,5.8188559 38.6677271,5.80611759 39.0303435,5.94598165 C39.3610944,6.06011174 39.5548886,6.24372352 39.9342832,6.26752743 L39.5091064,5.81744053 L39.7514142,5.65261454 C39.6244725,5.54903537 39.5676348,5.55405349 39.4430342,5.47903901 C39.3796934,5.42744243 39.3738406,5.37044171 39.3102396,5.31871646 C39.2526216,5.32386325 39.1089017,5.33647289 39.052064,5.34161968 C38.8824615,5.38523874 38.7429037,5.42667041 38.548329,5.50117021 C38.3785965,5.54478927 38.1530668,5.59355511 38.1455231,5.79518066 L38.1455231,5.79518066 Z M49.3792174,8.18393515 C49.3666012,8.07031973 49.3349959,8.04445711 49.2938959,7.93341508 C49.1226026,7.6902292 48.9321899,7.53505344 48.6613982,7.44408391 C48.5729552,7.42362541 48.3056752,7.3610919 48.2571616,7.45141808 C48.1835458,7.57262502 48.4951774,7.77476524 48.587002,7.8239171 C48.6822083,7.90150498 48.8034273,7.94821211 48.8987637,8.02592866 C49.0833235,8.12436104 49.1720266,8.14507687 49.3792174,8.18393515 L49.3792174,8.18393515 Z M56.3781818,15.5688086 C56.3030053,15.1449703 56.0272711,14.7391458 55.7039339,14.4236475 L55.1951264,14.0095882 C54.9987308,13.7975404 54.7865976,13.4433125 54.4973369,13.1819841 C54.1801126,12.9232292 53.9411864,12.8583796 53.658689,12.6537947 L53.1782353,12.2371619 L52.3209883,11.538485 C52.0987102,11.3575753 51.8346818,11.0651089 51.6667701,10.8506164 C51.4953467,10.6074305 51.5438603,10.5171043 51.4454024,10.4110804 C51.3785499,10.3309191 51.1370224,10.2375049 51.0193152,10.2193624 L51.0644471,10.1004715 L50.8514035,10.0046126 C50.9700212,9.76464341 50.8038003,9.83669849 50.6357586,9.62220596 C50.5689061,9.54204469 50.5572004,9.42804326 50.4521093,9.26540466 C50.2873191,9.07909082 50.0675122,8.92635979 49.8519973,8.80232212 L48.8060286,8.23501705 C48.4683843,8.06414358 48.0070499,7.81799829 47.6286959,7.79428252 C47.3385247,7.79136365 47.1530545,7.95130018 46.8689964,8.00508415 C46.6143325,8.0564234 46.0636446,8.04805986 45.8872788,8.29317579 C45.7085719,8.5098557 46.1563797,8.90062583 46.3184386,9.05837498 L46.7722293,9.50588848 C46.9026827,9.63790368 46.940141,9.72050968 47.0729356,9.88083222 C47.2007877,9.9844114 47.4481681,10.1346977 47.5501377,10.269029 C47.6511968,10.4033602 47.4825048,10.4472366 47.6184209,10.6359952 C47.7229918,10.7987624 47.9779158,11.0057921 48.0540028,11.1713901 C48.0948426,11.2824321 48.1133116,11.4530483 48.208648,11.5307648 C48.3004727,11.5799167 48.4092055,11.5127511 48.4951774,11.5050309 C48.6355156,11.4639852 49.0475561,11.2552828 49.1711162,11.330426 C49.2948063,11.4054405 49.7173819,11.8269627 49.81623,11.9332439 C49.8795708,11.9848405 50.0091138,12.116727 49.9899945,12.2047371 C50.0057321,12.3466599 49.5537623,12.1859514 49.6615847,12.3772833 C49.6965717,12.4317106 49.9732163,12.5791662 50.0684226,12.6568828 L50.4210241,12.9699363 L50.8304633,13.2778431 C50.9256696,13.3555597 51.0301104,13.5183269 51.1228455,13.5676075 C51.3041537,13.6376038 51.3968888,13.4285154 51.5530948,13.5292639 C51.8580932,13.6744034 52.0769896,14.085632 52.3944741,14.3442583 C52.610119,14.4685533 52.6642253,14.4349705 52.8456635,14.5050955 C52.9984879,14.5775366 53.0972059,14.6836891 53.2525014,14.7845663 C53.4974106,14.9062879 53.5174403,14.8185351 53.8030592,15.0514274 C54.1841446,15.3617789 54.5083923,15.6775345 54.8351112,16.0215975 C54.9653046,16.1533554 55.2861706,16.4405463 55.4357434,16.4846801 C55.4642273,16.4822353 55.492451,16.4797906 55.5218453,16.4770886 L55.850125,16.3045424 C55.850125,16.3045424 55.8795193,16.3017116 55.8761376,16.273533 C55.8952569,16.1856515 55.8826408,16.0720361 55.9018901,15.9841546 C55.9219199,15.8962732 55.9762863,15.862819 55.9922841,15.7465015 C56.0115335,15.6590061 55.9930645,15.4881326 56.0757847,15.4522337 C56.1592853,15.4160775 56.3180926,15.5453907 56.3781818,15.5688086 L56.3781818,15.5688086 Z M48.9429852,15.626324 L48.8702798,15.4892906 C48.9914988,15.5357404 49.1127177,15.5824476 49.1820415,15.6911735 C49.2196298,15.7737795 49.226263,15.8306516 49.2354975,15.9159596 C49.2539665,16.0864471 49.5555832,16.4615195 49.7302581,16.4745152 C49.7909977,16.4979331 49.7877461,16.4696257 49.8453641,16.4643502 L49.6974822,15.9036073 C49.6304996,15.8233174 49.5479094,15.8596023 49.4494515,15.7535784 L48.8528513,15.0603056 C48.8177343,15.0058783 48.6849397,14.8455557 48.704059,14.7579316 C48.7550438,14.6959128 48.8987637,14.6831745 48.9563817,14.678285 L48.4098559,14.181491 C48.346385,14.1296371 48.247797,14.0236132 48.1359426,14.0622141 C48.0246085,14.100815 47.9828582,14.2480133 47.9343446,14.3382108 C47.8866113,14.4287943 47.809874,14.5215652 47.8188484,14.6068733 C47.8599484,14.7181726 47.9904018,14.8500592 48.056604,14.9300918 L48.5654115,15.3440225 C48.6957349,15.4760377 48.7615469,15.5561989 48.9429852,15.626324 L48.9429852,15.626324 Z M51.238992,16.771099 C51.4738863,17.0658815 51.8932102,17.4590963 52.2465921,17.5139097 C52.1422814,17.350885 52.0527979,17.3302979 51.9258561,17.2267187 C51.738565,17.0998503 51.4204303,16.8410954 51.238992,16.771099 L51.238992,16.771099 Z M30.7437527,19.7382242 C30.8298546,19.7306326 30.9448305,19.7203391 31.0019283,19.7153209 L31.7497921,19.9357323 C31.9569828,19.9748479 32.160792,19.9855275 32.2969682,20.1741574 C31.924337,20.2074828 32.0038056,20.1427619 31.7079117,20.0830592 C31.4438833,20.049219 31.3636342,20.1136826 31.1598251,20.1028743 C31.0419878,20.0847319 30.9817685,20.0614426 30.892415,20.0407268 L30.1246516,20.1661798 C29.9208424,20.1556289 29.8764909,20.0160222 29.7552719,19.9694438 C29.6315817,19.8941719 29.5197273,19.9327729 29.4111245,19.9999385 C29.2172002,20.0746956 29.0284848,20.2060675 28.8400167,20.3376967 C28.4887158,20.5695596 28.0835687,20.8352627 27.8307258,21.1732782 C27.6548802,21.4183942 27.6988416,21.5581295 27.522866,21.8032455 C27.3441591,22.0199254 26.9322487,22.2286278 26.6539133,22.5977814 C26.4521852,22.8739067 26.4705241,23.0443942 26.3940469,23.1374224 C26.3426719,23.1991839 25.9883796,23.4029969 25.9052692,23.4388957 C25.8225489,23.4747946 25.7365771,23.4825148 25.6822107,23.5162263 C25.6024819,23.5806898 25.5543585,23.671016 25.5059749,23.7613422 L25.2219168,24.0734951 C25.148431,24.1948307 24.8500659,24.6516084 24.833808,24.7680546 C24.8266545,24.9695515 25.1550643,25.0552455 24.9816899,25.3287975 C24.9561975,25.3595496 24.9307051,25.390559 24.9052127,25.4218257 C24.7168811,25.5531976 24.6662865,25.3567188 24.5200954,25.3410211 C24.3416486,25.2994608 24.0764496,25.5238609 23.9176423,25.3944191 C23.8190544,25.2885238 23.861325,25.1413256 23.8492291,25.0275815 C23.8048775,24.8881035 23.7414066,24.8363782 23.7004367,24.7252075 C23.6273411,24.5879169 23.6854794,24.3245298 23.4823206,24.05561 C23.3780099,23.8929714 23.2571811,23.8462643 23.1640558,24.0554813 L23.0964229,24.2334316 C22.9827476,23.985485 23.0469989,23.7788413 22.8398081,23.7394683 C22.5759097,23.7058855 22.4952705,24.028718 22.3415357,24.2143885 C21.9579791,24.6788864 21.8941181,24.6271612 21.6003051,24.854006 L21.2106356,25.2617605 L20.9675474,25.4268439 C20.8367037,25.5531976 20.7498215,25.819158 20.6825787,25.997237 L20.401382,27.1413687 C20.3399921,27.376191 20.2368519,27.758855 19.9849194,27.8381156 C19.9021992,27.8741431 19.640772,27.8688676 19.5516787,27.8481518 C19.4593337,27.7989999 19.3930015,27.7188387 19.3039081,27.6977368 C19.2179363,27.7055857 18.9881145,27.7257868 18.775201,27.6299278 C18.6481292,27.5267347 18.4802175,27.3117275 18.3589985,27.265535 C18.2382998,27.2183132 18.1234539,27.2287355 18.0089983,27.2390291 C17.8652784,27.2513813 17.6647208,27.2695238 17.5468835,27.2513813 C17.247868,27.1632425 17.0547241,26.7211332 16.9411789,26.4729292 C16.900339,26.3617585 16.8241219,26.1962891 16.7319071,26.1471373 C16.6048353,26.0435581 16.4514907,26.2293573 16.302048,26.1853522 C16.1842107,26.1669524 15.9235639,25.9033081 15.7711297,25.8306096 C15.7392642,25.8046183 15.6436677,25.7272878 15.5898215,25.7607419 C15.5325937,25.7656314 15.5158155,25.8822062 15.4935747,25.9412656 C15.4895427,26.1713272 15.5534038,26.2229238 15.6861984,26.3835037 C15.7179338,26.409109 15.8166519,26.5153902 15.7364028,26.5798538 C15.6026978,26.6776428 15.4096839,26.2357908 15.2593308,26.450026 C15.2366998,26.5094714 15.2400814,26.5379074 15.2141988,26.5686595 L15.1568409,26.5738063 L15.0181935,26.0983714 L14.9968631,25.899448 L14.8039793,25.4574673 L14.5675243,25.679294 L14.5110768,25.4259432 L14.4321284,25.2321665 C14.3877768,25.0926884 14.2734512,25.1028533 14.1647183,25.169633 C13.9508943,25.3322716 13.8030124,25.5749428 13.6693074,25.6728605 C13.5063381,25.7734802 13.3822577,25.6983371 13.2707935,25.736938 C13.1338369,25.8065484 13.0375901,25.9872007 12.9954496,26.1345276 L12.7748623,27.3018199 C12.5840595,28.2084272 12.4620601,28.420089 12.5672813,29.386399 L12.6834278,29.9211506 L12.7925509,30.6576565 L12.8898382,31.0220493 L12.9474562,31.0167738 C12.9072667,30.6472342 12.9191024,29.9574355 13.025104,29.603851 C13.1287644,29.2218304 13.2942049,29.1496466 13.3025289,28.6896522 L13.3710723,29.0570044 C13.5277985,28.8991266 13.5155726,28.7855112 13.7353795,28.6801306 C13.808475,28.8167779 13.8400804,28.8430265 13.8874234,29.0111979 C13.931645,29.15029 13.9437408,29.2640341 14.0168364,29.4013247 C14.0896718,29.537972 14.1497611,29.5615186 14.219475,29.6702446 C14.2864575,29.7500198 14.3302889,29.8897552 14.3711287,30.0009259 C14.4505974,30.1948313 14.5131578,30.5050541 14.7516938,30.5700323 C14.8449492,30.3608153 14.8173758,30.1051484 14.8206274,29.8749582 C14.8432584,29.8153841 14.8536634,29.6425806 14.9075096,29.6091264 C15.0478479,29.5678234 15.1048156,29.8211742 15.11392,29.9063536 C15.1958599,30.128695 15.2555589,30.4106105 15.3917352,30.5988544 C15.5341544,30.844871 15.6461389,30.8060127 15.8323895,31.1911214 L15.87453,31.0440518 C15.9536085,31.2378285 15.8542401,31.3903022 16.0705354,31.5143399 C16.0580493,31.4007245 16.0346379,30.9151247 16.0822411,30.8245412 C16.1048721,30.7650957 16.1909739,30.7576329 16.248592,30.7526148 L16.382297,31.7164801 C16.3943929,31.8300955 16.4382242,31.9698309 16.5050767,32.0499922 C16.6671356,32.20787 16.8554672,32.0759835 16.9281725,32.2131455 L17.0414576,32.719461 C17.138745,33.0839825 17.274531,33.5312387 17.4256645,33.8617914 C17.53973,34.110124 17.6915138,34.4411914 17.8853081,34.6248032 C17.9521606,34.7049644 18.0503584,34.811117 18.1618226,34.7721301 C18.2738071,34.7337865 18.2294555,34.5940511 18.2487049,34.5065556 C18.265483,34.3903668 18.3193292,34.3569127 18.3389688,34.2689025 C18.3523653,34.124149 18.3047621,33.9559776 18.3781178,33.8348994 C18.3398792,34.0105336 18.3999684,34.0336942 18.4186976,34.204439 C18.4434096,34.4316698 18.499857,34.6850206 18.582057,34.906976 C18.7049668,35.2410027 18.7964013,35.5478802 19.0024215,35.845622 C19.1389879,36.0345093 19.453611,36.2645709 19.6440236,36.4200039 C19.9048004,36.6836483 20.1616754,36.9192427 20.4761683,37.1494329 L20.8514009,37.4031697 L21.1630325,37.60531 C21.439677,37.7527655 21.4688112,37.4916946 21.6408849,37.4767689 C21.7302384,37.497356 22.0443411,37.7275463 22.1396775,37.8052628 C22.6227325,38.2503316 22.4639252,38.1210185 22.7972774,38.5219535 L23.5491731,39.315846 C23.7430974,39.4993291 23.9837145,39.8514983 24.2481331,39.8848238 L24.5125517,39.9191786 C24.8083156,39.9791388 25.1391965,40.0932689 25.4482269,40.0079608 C25.5632028,39.9976672 25.6429316,39.9335897 25.6943066,39.8716995 C25.7709138,39.7786712 25.8159157,39.6600377 25.9308916,39.6497441 C26.0485989,39.6680152 26.3223821,39.7870348 26.4429507,39.8339992 C26.7483393,39.9787528 27.1807996,40.2274714 27.5054375,40.2844722 C27.8303356,40.3419875 28.063539,40.0915962 28.010083,39.86681 C27.9281431,39.64434 27.5847761,39.4167231 27.4012569,39.0600505 C27.2238506,38.7603786 27.1009408,38.4267379 26.897912,38.157818 L26.4317653,37.5965604 L26.1526495,37.1621712 L26.0164733,36.9734127 C25.9813562,36.9192427 25.9312818,36.7228926 25.9220473,36.6373272 L25.6028721,35.8335271 C25.4574613,35.5594604 25.1700215,35.5850657 24.9837709,35.1999571 C25.1169557,35.3602796 25.3714895,35.567438 25.5524075,35.6373057 C25.4704677,35.4148356 25.2870785,35.0582917 25.150382,34.8694044 L24.85852,34.5796401 C25.0171972,34.7089532 25.1441389,34.8127897 25.3513297,34.8515193 L25.4123294,34.616311 C25.5025933,34.3786579 25.5853135,34.342759 25.5832325,34.0560827 C25.5594309,33.5703543 25.1061605,32.8644719 25.041389,32.2678301 C25.0134254,32.0119059 25.0715636,31.7487762 25.101088,31.4879626 L25.1091519,31.0279681 C25.0999174,30.94266 25.1509022,30.8803839 25.1675503,30.7647097 L25.1622177,30.4493401 C25.2009766,30.2737058 25.2234775,30.2142604 25.2052687,30.0435156 L25.0664912,29.5682094 L25.0581671,29.2244038 L25.008483,28.7698134 C24.9712849,28.4288385 25.1567551,28.268902 25.189401,28.0365244 C25.2060491,27.9200782 25.0572567,27.6175755 24.9933956,27.565979 C24.9010507,27.5166984 24.7038748,27.5630196 24.774109,27.4133766 C24.8447333,27.2637336 25.1049899,27.527378 25.1717124,27.6075393 C25.255343,27.3134002 25.1918722,27.2612889 25.1354247,27.0080668 L25.0263016,26.2716896 C24.9762273,26.0752109 24.8491555,25.971889 24.8396608,25.886581 C24.8593004,25.7986995 24.9452722,25.7909793 25.0472418,25.6673277 C25.1499918,25.54329 25.1918722,25.3962204 25.2052687,25.2515956 L25.2102111,24.7631651 C25.2423367,24.5307875 25.4408133,24.2262261 25.693136,24.1464509 C25.94806,24.0952403 26.2083166,24.3588847 26.3515162,24.346275 C26.4952361,24.3334081 26.5654703,24.1838938 26.6138538,24.0933102 L26.9447348,23.1456573 L27.0023528,23.1405105 C27.1447721,23.3863985 27.2943448,23.4304035 27.487879,23.614144 L27.6531894,23.8003291 C27.6850549,23.8261918 27.7392913,23.7927376 27.7935277,23.7591548 C27.8954973,23.6353745 28.018277,23.1653438 27.9457017,23.0283105 C27.9047318,22.9171398 27.77779,22.8135606 27.7334384,22.6740826 C27.7242039,22.5887745 27.7723273,22.4984483 27.8203207,22.4082508 C27.8879536,22.2299145 27.9235909,22.0258442 28.0541744,21.8994905 C28.3132605,21.6182183 28.8296116,21.5722832 29.1441046,21.8027308 C29.3034321,21.9321726 29.2834024,22.0199254 29.3501248,22.1000867 C29.4487128,22.2061106 29.5920425,22.1935009 29.6392555,22.361415 C29.6454985,22.418287 29.6324922,22.5629119 29.6128526,22.6507933 C29.6315817,22.8212808 29.6659184,22.8755794 29.5986757,23.0536584 C29.502559,23.2343108 29.3431014,23.3632379 29.2783299,23.5698816 C29.1884562,23.8075347 29.3350375,23.8232324 29.29914,24.027174 C29.2348888,24.2339463 29.0781625,24.3913095 29.0137812,24.5978245 C28.9399053,24.7192887 28.9525214,24.8329041 28.8188164,24.9308218 C28.7100835,24.9977301 28.5347582,24.9847345 28.4201725,24.9948994 C28.2510902,25.0385185 28.116995,25.1365648 27.9799083,25.2060465 C27.9857612,25.2630472 27.9920042,25.3196619 28.0267311,25.3740892 C28.0743342,25.542132 28.217664,25.529265 28.357612,25.4880907 C28.5840522,25.4395822 28.883848,25.2692234 29.1066464,25.4503904 C29.3000505,25.6342595 29.3589691,26.1741579 29.5240194,26.3603431 C29.6826966,26.4896562 29.7975425,26.4794913 29.9758592,26.5211803 C30.096688,26.5678875 30.1890329,26.6170393 30.2842392,26.6946272 C30.5065173,26.8756656 30.4362831,27.0255659 30.5373423,27.1598971 C30.6326787,27.2373563 30.7157891,27.2018435 30.8139869,27.30761 L31.2353919,27.9873725 L31.5258231,27.7320917 C31.6244111,27.8381156 31.739387,27.827822 31.7522633,27.6831971 C31.7430288,27.5981464 31.696206,27.430361 31.6578373,27.347369 C31.8516316,27.5311095 31.8671091,27.6732896 31.8663288,27.9316585 C31.8725718,27.9882732 31.8500708,28.0477186 31.8850579,28.1024033 C31.8971537,28.215504 32.0367116,28.432956 32.1319179,28.5106725 C32.2559983,28.5854296 32.3387185,28.5494021 32.4473214,28.4824938 C32.5468198,28.3304061 32.604828,28.0667618 32.7581726,27.8812199 C32.8864149,27.7261728 33.1412089,27.6749623 33.3714209,27.3960062 C33.3113316,27.3728456 33.1300234,27.3029779 33.1491427,27.2150965 C33.1942747,27.0964629 33.3664785,27.0810226 33.4749512,27.0139856 C33.6346689,26.8850585 33.7565382,26.673268 33.7921755,26.4694551 L33.441525,26.4429491 L33.2348544,26.4039622 L32.9478048,26.4296961 L32.6654375,26.2249825 L32.2576891,26.203752 C32.3279233,26.054109 32.3763068,25.9636542 32.5485106,25.9483425 C32.6344824,25.9406223 32.7553112,25.9875868 32.8096776,25.9540039 C32.9210118,25.9152743 32.9085257,25.8015303 32.9887747,25.7371954 C33.1421193,25.5512675 33.3680392,25.5026304 33.4010753,25.2701241 C33.6366199,25.3065376 33.6881249,25.2447761 33.805572,25.2629186 C34.0473597,25.3560755 34.1225362,25.7799137 34.2333501,25.9996817 C33.9342046,25.9115429 33.990522,26.164765 33.9833685,26.3662619 C34.0921014,26.299225 34.2199536,26.1444352 34.3314178,26.1057056 L34.7074307,26.1010735 C34.7934025,26.0933533 34.8188949,26.0626012 34.9021354,26.0263164 C35.0995715,25.9802526 35.2300249,26.1121391 35.3344657,26.2750351 C35.4431986,26.2079981 35.4368255,26.1511261 35.3669815,26.0425288 L35.5104413,26.0296618 L35.4285015,25.8077064 C35.2851717,25.8201874 35.2529161,25.7944534 35.2111657,25.941523 C35.0876056,25.8665085 35.0876056,25.8665085 34.9408943,25.8508108 L35.0466357,25.7554665 L35.0398724,25.6984658 C34.7952234,25.5767441 35.0759,25.4945242 35.1176503,25.3471973 C35.1372898,25.2593158 35.102693,25.2052745 35.0674458,25.1508472 L35.4279812,25.004035 C35.5813258,24.8184931 35.7116492,24.950251 35.7760305,24.7436073 C36.0719244,24.8034388 35.9745071,24.4390459 36.1979557,24.3617154 C36.251932,24.3282613 36.3407652,24.3492344 36.3985133,24.343959 C36.4812335,24.3079314 36.5638237,24.2720326 36.6474544,24.2358764 C36.7619101,24.2258401 36.8196582,24.220822 36.9306021,24.1819637 C37.039335,24.1150554 37.1387033,23.9627104 37.2155707,23.8700682 C37.2665555,23.8076633 37.3717767,23.7124477 37.3944077,23.6530022 C37.4136571,23.5651208 37.3759387,23.4827721 37.3609815,23.3403347 C37.4786887,23.3584771 37.5649207,23.3508856 37.6408776,23.2581147 C37.7211266,23.1936511 37.7086406,23.079907 37.5874216,23.0333286 C37.5589378,23.0360306 37.4729659,23.0436222 37.4446121,23.0460669 L37.8405247,22.6951844 L37.9183026,22.3439159 L37.8063181,22.3825168 L37.8455972,22.2068826 L37.5298036,22.2350613 C37.5807884,22.1730424 37.7343931,21.9872433 37.7853779,21.9252244 C37.9199934,21.8273067 38.0661845,21.8431331 38.1339475,21.6646681 C37.8505396,21.7185808 37.5022302,21.9790084 37.3233932,22.1956883 L37.0442774,22.5648419 L37.0611856,22.4486531 C36.780379,22.5310018 36.798718,22.7016179 36.6899851,22.7686548 L36.6357487,22.8019803 C36.7218506,22.7943888 36.1452801,22.816906 36.2347636,22.8378792 C36.0881823,22.8220528 35.9293751,22.6927397 35.8023033,22.5890318 C35.7067068,22.511444 35.6406347,22.4312827 35.5320318,22.4984483 L34.9948705,22.087091 C35.0457253,22.0250722 35.0717379,21.9940628 35.0082671,21.9422088 C34.9447962,21.8904836 34.7952234,21.8463499 34.6711431,21.7713354 C34.4483447,21.590297 34.4588798,21.4171075 34.4307862,21.1613119 C34.4065944,20.9340811 34.3773302,20.9365258 34.298902,20.7426205 C34.2607935,20.6597571 34.2545504,20.6030138 34.1876979,20.5228525 C34.1212356,20.4425625 33.9655499,20.3418141 33.8702135,20.2640976 C33.7432717,20.160647 33.5845946,20.0313339 33.4378832,20.0155075 C33.2310826,19.9766493 33.071495,20.1055764 32.892788,20.0638874 C32.7432153,20.0198823 32.5496811,19.8361419 32.368373,19.7661455 C32.2506657,19.7478744 32.107336,19.7607414 31.9923601,19.7707776 C31.986117,19.7139056 31.9736309,19.6002902 31.9135417,19.5770009 C31.821587,19.5278491 31.6553661,19.6000328 31.5407804,19.6100691 C31.4259345,19.620234 31.3879561,19.537628 31.2989928,19.5166548 C31.2100295,19.495939 30.8051426,19.5032731 30.7537676,19.5651633 C30.6995312,19.5986174 30.7378999,19.6813521 30.7437527,19.7382242 L30.7437527,19.7382242 Z M51.9725488,17.6530017 C52.050977,17.8467784 52.3585766,18.2787228 52.569149,18.3460171 C52.4262095,18.1005152 52.2424301,17.7437139 51.9725488,17.6530017 L51.9725488,17.6530017 Z M50.7284937,17.9354319 L51.0912401,18.3339222 C51.2272863,18.5225521 51.3634626,18.7114393 51.5255214,18.8690598 C51.6525932,18.972639 51.8340315,19.0426353 52.0027235,18.9991449 C52.114708,18.9602867 52.4528725,18.6146796 52.176488,18.4669667 C52.0844032,18.4179435 51.9466662,18.4874252 51.8614748,18.4950167 C51.8682381,18.2935199 51.855752,18.1799044 51.8055476,17.9834257 C51.7996947,17.9265536 51.7870786,17.8129382 51.6750941,17.8516678 C51.5381375,17.9212782 51.6992859,18.3372676 51.4828606,18.2129726 L51.391036,18.163692 L51.2956996,18.0861042 C51.1930797,18.2098845 51.3140385,18.2565916 51.4127565,18.3626155 C51.5398283,18.4663234 51.6375059,18.5723473 51.6566252,18.7427061 C51.3451236,18.5406945 51.3267847,18.3704644 51.1262272,18.1299806 C50.9966841,17.9979654 50.9014778,17.9201201 50.7284937,17.9354319 L50.7284937,17.9354319 Z M44.6693664,19.1908629 C45.0703515,19.15535 45.0007676,19.0464954 45.2307195,19.0262943 C45.3417935,18.987436 45.51972,19.0292537 45.6375574,19.0473961 L45.6216896,19.1634562 C45.8630871,19.2569992 45.8479997,19.1148191 46.0260563,19.1562507 C46.2074946,19.2263758 46.3184386,19.4462724 46.6175841,19.5342826 C46.7378926,19.581247 46.7988923,19.6042789 46.9076251,19.5373706 C46.9768188,19.6459679 47.006083,19.6435232 47.1205387,19.6332296 C47.1339352,19.4886048 47.2166555,19.4524486 47.1781567,19.3697139 C47.1406985,19.2868506 46.8380413,19.1704044 46.8122888,19.4597828 C46.7103192,19.3250655 46.7645556,19.2916113 46.7270973,19.209134 C46.6251277,19.0745454 46.4213186,19.0639945 46.2807202,19.1050402 C46.2214114,18.823382 46.2591297,18.905988 45.8621766,18.7118253 C45.7378361,18.6368108 45.4647033,18.5175339 45.3176017,18.5018362 C45.1429268,18.4885832 45.0979249,18.6074741 44.9608382,18.6770845 C44.8839708,18.7701127 44.7944873,18.7491395 44.7151487,18.8137318 C44.6381512,18.9065027 44.6567503,19.0771188 44.6693664,19.1908629 L44.6693664,19.1908629 Z M43.6984441,19.0473961 L43.9808115,19.2519811 L44.1961963,19.6343876 C44.3617668,19.5623326 44.3841377,19.5030158 44.4963823,19.4644149 C44.5504886,19.4309607 44.9073822,19.5139527 44.8245319,19.2918687 C44.7927965,19.2657487 44.7611911,19.2400148 44.7294556,19.2142808 L44.7102063,19.3020336 C44.615,19.2243171 44.4879282,19.1207379 44.3667092,19.0740307 C44.2456203,19.027581 43.8409935,19.0347865 43.6984441,19.0473961 L43.6984441,19.0473961 Z M40.6553539,20.0921947 C40.3337075,20.0635014 40.5458406,20.4177293 40.5040903,20.5647988 C40.4339862,20.7145705 40.1115594,20.9441173 39.9552234,20.8431116 C39.8725031,20.8792678 39.7865313,20.886988 39.6970478,20.8660148 C39.6083446,20.8451703 39.5450038,20.793445 39.4589019,20.8011652 L39.0018596,21.1286298 C38.9217406,21.1930934 38.8139182,21.2601303 38.6986821,21.2702952 C38.6133606,21.2778868 38.4981246,21.287923 38.4471398,21.3501992 C38.3670208,21.4144054 38.4429778,21.5800034 38.4814765,21.6626094 L38.6175227,21.8514966 C38.3368461,21.9337166 38.3585667,22.1325114 38.3861401,22.3885643 C38.4020078,22.5304871 38.4571547,23.0422068 38.4981246,23.1532488 C38.5423461,23.2929842 38.7302875,23.4197239 38.87921,23.4636003 C38.971815,23.5131382 39.1180061,23.5285786 39.204108,23.5211157 L39.2241377,23.1748653 L39.3102396,23.1674025 L39.3988127,23.4466159 C39.4272966,23.4437852 39.4847845,23.4388957 39.5132684,23.4363223 L39.8700319,23.519443 L39.9335028,23.5711683 C39.9712211,23.6537743 39.9008569,23.8036746 39.9100914,23.8889826 C39.9602958,24.085204 40.1673565,24.1243197 40.3396904,24.109008 C40.3353983,24.3388122 40.3578992,24.2794954 40.3446328,24.4241202 C40.3605005,24.5663004 40.2743986,24.5740205 40.4515448,24.8738211 C40.4866619,24.9279911 40.5593672,25.0651531 40.645339,25.0574329 C40.7313109,25.0499701 40.9101479,24.8330328 41.101601,24.730097 C41.1458225,24.8694464 41.1490741,24.8980111 41.2727642,24.9731542 L41.2310139,25.1202238 L41.5568224,24.9192416 C41.4599253,25.3582629 41.2753655,25.2597018 41.0740276,25.5358272 C41.002883,25.6858561 41.0472345,25.8253342 41.0054842,25.9725324 L41.0372197,25.998395 L41.1458225,25.9313581 L41.2286728,25.8954592 C41.4833367,25.8438626 41.2853804,26.1485527 41.2912332,26.2054247 C41.3003376,26.2908614 41.3614674,26.3137647 41.4215566,26.3373112 L41.2870712,26.4352289 L41.3664098,26.6291343 L40.8500586,26.6750694 C40.5951346,26.72628 40.3837818,26.9172259 40.1699578,27.0796072 L40.1767211,27.1364792 L40.2651641,27.1573237 L39.7706636,27.4021823 C39.9201063,27.4460587 40.114811,27.3715589 40.2585309,27.3588206 C40.3989992,27.3175176 40.3729866,27.348913 40.5425891,27.3046506 L40.6344137,27.3543172 L40.6177656,27.470506 L41.2477921,27.6725175 C41.3972348,27.7167799 41.5059677,27.649743 41.5987028,27.6990235 C41.7222629,27.7741667 41.6805126,27.9212362 41.8877034,27.9600945 C42.1258492,28.0250727 42.3147011,27.8937009 42.512007,27.8473798 L42.2788036,28.0977712 L42.386626,28.2891031 L42.6673026,28.2068831 C42.4592013,28.4260078 42.4693463,28.2532043 42.0682312,28.2887171 C42.1601859,28.337869 42.4333188,28.4568885 42.4943184,28.4804351 C42.6438912,28.5246975 42.7232298,28.4597193 42.9338022,28.5275282 C43.1117287,28.5688312 43.328154,28.6932549 43.385772,28.4296105 C43.4208891,28.4841665 43.4560062,28.5383365 43.4877416,28.5643278 C43.5798264,28.6136083 43.6373144,28.6085902 43.726928,28.6291774 C43.8445052,28.6474485 44.1234909,28.8234687 44.1111349,28.9682222 C44.0851222,28.999103 44.0592396,29.0301124 44.0342675,29.0611218 C43.9956387,28.9781298 43.9581805,28.8959098 43.891328,28.8157485 C43.726928,28.6291774 43.4743451,28.7090813 43.2671543,28.6697083 L42.8501715,28.5635558 L42.5286551,28.5346051 C42.3539802,28.5214808 42.2553922,28.4155855 42.0833185,28.4308972 C42.0255704,28.4359154 41.9429802,28.4718142 41.9496135,28.5288149 C41.9553363,28.5854296 42.0189372,28.6375409 42.0508027,28.6631462 C42.2353625,28.7614499 42.1685099,28.6812886 42.4484061,28.8573089 C42.6038317,28.9583147 42.6581981,28.9247319 42.8076408,28.9689943 L42.9605952,29.0416927 C43.0783025,29.0599638 43.1009335,29.0003897 43.2186407,29.0185321 C43.2756085,29.0136427 43.3933157,29.0317851 43.4543154,29.0553317 L42.9564332,29.2714969 L42.5745675,29.2193857 C42.6505244,29.3847263 42.6823899,29.4108463 42.5545377,29.5653787 L42.4843036,29.4570387 C42.4074362,29.549681 42.4141995,29.6066817 42.3373321,29.6995813 L42.2094799,29.8542424 C42.1869789,29.9136878 42.1101115,30.006716 42.0523634,30.0117342 C41.9662616,30.019583 41.868454,29.9133018 41.8042027,29.8617052 C41.6805126,29.7864334 41.6230246,29.7914515 41.4826863,29.8326258 C41.5877775,29.9956504 41.6421439,29.9620676 41.7941879,30.03438 C41.9186584,30.1095232 42.2362729,30.3682781 42.3347308,30.4745594 C42.3054666,30.4770041 42.2771128,30.4795775 42.2546118,30.5390229 C42.203627,30.6010418 42.2595542,30.8542639 42.3264067,30.9340392 C42.3898776,30.9861504 42.4508773,31.009311 42.5360687,31.0019768 L42.1943925,31.3194052 C42.3439653,31.3630242 42.3983317,31.3296987 42.5252735,31.4332779 L42.238614,31.4584972 L41.86026,31.1767104 L41.4659082,31.0105977 C41.6130097,31.0262954 41.8451727,31.0345303 41.9821293,30.9646626 C42.2278188,30.8282726 42.1108919,30.5518899 41.9204793,30.3964568 C41.7967891,30.321185 41.7106872,30.3290338 41.5644961,30.3133361 C41.4465288,30.2951937 41.2653506,30.22494 41.1499845,30.2352336 L40.8375725,30.2918483 L40.8576023,30.2038381 C40.7681188,30.183251 40.7363833,30.157131 40.6562644,30.2215946 C40.560928,30.143878 40.5584568,30.115828 40.4406195,30.0976856 L40.4557068,30.239351 L40.3253834,30.1075932 L40.3127673,30.252218 C40.2426632,30.143492 40.2394116,30.115442 40.118973,30.0687349 L40.2158701,30.4327417 L40.168267,30.5233252 C40.0088094,30.6522523 40.0103702,30.9391859 40.0296195,31.1098021 C40.0662974,31.450777 39.98943,31.5436766 39.9602958,31.8044902 C39.9527522,32.0057298 40.0196047,32.0860197 39.9644578,32.3781001 C39.9485901,32.4941603 39.8390769,32.8194375 39.7906933,32.910021 L39.6627111,33.0646821 L39.5667244,33.2452058 C39.5182108,33.3356606 39.4388722,33.4001242 39.3904887,33.4907077 C39.3453567,33.6092126 39.4088276,33.6613238 39.4439447,33.7154938 C39.4915478,33.8832792 39.3703289,33.8365721 39.570106,34.0774419 L39.4680064,34.2010936 L39.5825921,34.1908 C39.5182108,34.3974437 39.6485342,34.5295875 39.8458401,34.4833951 C39.9861784,34.4420921 40.1397831,34.2564216 40.1816635,34.108966 L40.2394116,34.1039479 L40.6253093,34.729669 C40.6921618,34.8098303 40.7080295,34.9520104 40.8258669,34.9701529 C40.9437042,34.988424 40.9879257,34.8697904 41.0364393,34.7792069 C41.0874241,34.7171881 41.1417905,34.6838626 41.1925152,34.6218438 C41.2636598,34.4722008 41.1241019,34.2548775 41.1374984,34.110124 C41.1532361,33.9940639 41.2336152,33.9294717 41.2468816,33.7848468 C41.2252911,33.586052 41.0755883,33.5419183 40.9771304,33.435637 C40.8784124,33.3298705 40.8667067,33.2162551 40.8509691,33.074075 C40.8167624,32.76115 40.9794716,32.6607876 41.0096462,32.4001026 C41.0196611,32.2267844 40.9210732,32.1210179 40.9085871,32.0070165 C40.8993526,31.9218371 40.918602,31.8342129 41.0047038,31.8263641 C41.2025301,31.780043 41.2268519,32.0077885 41.2427196,32.1495826 L41.2160567,32.4388322 C41.2001889,32.5555357 41.1518054,32.6456046 41.1675431,32.7875274 C41.208513,32.8988267 41.2753655,32.9791167 41.3129538,33.0617227 C41.3798063,33.1417553 41.3890408,33.2274493 41.4525117,33.2791746 C41.5126009,33.3022065 41.5443363,33.3276831 41.6020844,33.3227936 C41.6621737,33.3464689 41.7222629,33.3695008 41.780011,33.3646113 C41.9204793,33.3231797 42.0648495,33.0520724 42.1985546,32.9546694 C42.2788036,32.8898198 42.3966409,32.9083483 42.4826127,32.9003708 C42.4342292,32.9909543 42.306377,33.1458727 42.2553922,33.2076342 C42.1467894,33.2744138 41.9488331,33.3207349 41.9386882,33.4939245 C41.8776885,33.7291328 42.1928318,33.7009541 42.1860685,33.9021937 C42.172672,34.0469472 41.9503938,33.8659088 41.8827609,34.0439878 C41.7867743,34.2246401 41.913716,34.3284767 41.9579375,34.4680834 C41.967172,34.5532628 41.9195689,34.6432029 41.8995391,34.7313417 C41.7783201,34.9428749 41.6764806,34.8085436 41.5133813,34.9090347 C41.3764247,34.9789024 41.2260715,35.1930089 41.0856032,35.2343119 C40.9745292,35.2727842 40.8784124,35.194939 40.7924406,35.2024018 C40.6778549,35.2128241 40.5818682,35.3937338 40.3913255,35.2383007 C40.1975312,35.0544316 40.4181185,34.9491797 40.3705154,34.7808796 L40.2534584,34.5043682 C40.0906192,34.6048593 39.9310316,34.7341725 39.9844876,34.9589586 C40.0638262,35.1523493 40.2543689,35.3077824 40.1550005,35.45987 C40.0746214,35.5244623 39.9025477,35.5396453 39.7688427,35.6376917 C39.6060035,35.7384401 39.436401,36.0402994 39.3820345,36.0740109 C39.3019156,36.1384745 39.2158137,36.146066 39.1366052,36.2104009 L38.8482549,36.4943751 C38.8230226,36.5253845 38.8230226,36.5253845 38.79714,36.5563939 L38.4380354,36.4447085 L38.4596259,36.6435034 C38.315906,36.6563703 38.315906,36.6563703 38.1981987,36.6382279 C38.1096256,36.6171261 37.9340402,36.6042591 37.8890383,36.7228926 C37.8405247,36.8133475 38.079581,36.878197 38.1405807,36.9013576 C38.5055382,37.069915 38.5774632,37.4651886 38.4213873,37.6229377 C38.315906,37.7180247 38.1345978,37.6482857 38.0168905,37.6300146 C37.7520817,37.5960457 37.3350989,37.4895072 37.0744521,37.484103 C36.7301746,37.5143404 36.8404683,37.7342371 36.7737458,37.9123161 C36.7568376,38.0288909 36.6483648,38.0957992 36.6291155,38.183552 C36.6031028,38.2144327 36.6066145,38.2429974 36.6098661,38.2714334 C36.6066145,38.2429974 36.704292,38.6073902 36.7009104,38.5789542 C36.7418803,38.6899962 36.9432183,38.6723685 37.0611856,38.6905109 C37.2097179,38.7342586 37.2482166,38.817508 37.3717767,38.8926511 C37.4929957,38.9388436 37.5472321,38.9053894 37.6592165,38.8669172 C37.9166117,38.8438853 38.1621712,38.9657356 38.5449474,38.7594779 C38.6275375,38.723579 38.7079166,38.6591155 38.7302875,38.5995414 C38.8071549,38.5070278 38.7687862,38.4240358 38.8741375,38.3285628 C39.0053713,38.2019517 39.2601653,38.1507412 39.3946507,38.0528235 C39.4998719,37.9573505 39.4239149,37.7921385 39.6184896,37.7173813 C39.7589579,37.6763357 39.9142534,37.7773415 40.1089581,37.7024557 C40.2777803,37.6585793 40.4598688,37.470464 40.6294713,37.4267163 C40.801545,37.4114046 40.9085871,37.6027366 41.1475133,37.6677148 L42.0956745,37.8701124 C42.1249387,37.8676677 42.185158,37.8912142 42.2168935,37.9172055 C42.470907,38.1239779 42.1050391,38.213918 41.9647008,38.2553497 C41.8525863,38.2936933 41.8242325,38.2962667 41.7089964,38.3065603 C41.7415122,38.3322942 41.7439834,38.3607303 41.7758489,38.3867216 C41.8969378,38.4334287 42.1893201,38.4648241 42.2954517,38.3693511 C42.3464365,38.307461 42.3405836,38.2503316 42.3314792,38.1651522 C42.4425532,38.1268086 42.4967896,38.0933544 42.5420516,37.9743349 C42.5328172,37.8892842 42.4943184,37.8065495 42.5745675,37.7419573 C42.6255523,37.6800671 42.7400079,37.6697735 42.8268902,37.661796 C42.6931852,37.5019881 42.5845823,37.5687678 42.409127,37.5556434 C42.3205539,37.5350563 42.2854368,37.4803716 42.1960834,37.4599131 C42.1101115,37.4676333 42.0306429,37.5320969 41.909554,37.4853897 C41.8200705,37.4642879 41.7248641,37.3865713 41.6362911,37.3659842 C41.5434259,37.3167037 41.3080114,37.2804188 41.3212778,37.1356653 C41.3437788,37.0762198 41.3696614,37.0452104 41.426499,37.0401923 C41.4525117,37.0093115 41.4808655,37.0067381 41.5101297,37.0039074 L41.5510996,37.1155928 C41.8570084,37.0022347 41.75738,37.1544511 42.0223188,37.1882912 C42.2604647,37.2531408 42.5411412,37.1709208 42.7834491,37.264335 C42.9330218,37.3080828 42.8845082,37.3985376 43.0148316,37.5304242 C43.1737689,37.6601233 43.400079,37.6111001 43.6005065,37.593215 C43.5754043,37.6242244 43.5464002,37.6271838 43.5495217,37.6552338 C43.5010081,37.7456887 43.564609,37.797414 43.6256087,37.8204458 C43.8409935,37.9449982 44.1612092,37.6870153 43.887296,37.5681244 L44.3275601,37.3569773 C44.1145165,37.2609896 44.0090352,37.3564626 43.7291391,37.1804424 C43.8731191,37.1675754 43.9012128,37.1651306 44.0066941,37.0696577 L44.0233422,36.9530828 L44.4894889,36.7107977 C44.341737,36.9534689 44.5079579,36.8816711 44.5638851,37.1348933 C44.7077351,37.1221549 44.8855316,37.1634579 45.0293815,37.150977 C45.141366,37.1122474 45.4470147,36.999018 45.5271336,36.9345544 C45.6066023,36.8700908 45.626632,36.782338 45.7058406,36.7180032 L46.037762,36.5736357 C46.1722474,36.475718 46.274217,36.351809 46.376967,36.2279 C46.4278218,36.1657525 46.4789366,36.1038623 46.5684201,36.1248355 C46.6887287,36.1715426 46.7195537,36.4559028 46.7320397,36.5696469 C46.7704084,36.6522529 46.8113783,36.7630376 46.8207429,36.8484743 C46.8030543,37.2229034 46.4053208,37.2871096 46.1656142,37.4803716 C46.0060266,37.6094274 45.8840272,37.8209605 45.7178064,37.8932729 C45.5039824,38.0557829 44.8913844,38.2822417 44.6105778,38.3644617 L44.0148881,38.4747317 C43.8780615,38.5444707 43.7183438,38.6735265 43.6733419,38.79216 C43.6280799,38.9111796 43.7006552,39.0480842 43.5638287,39.1174372 C43.426742,39.1873049 42.8561544,39.2661795 42.7098333,39.2509965 C42.4744187,39.2141969 42.5536273,39.1497334 42.2094799,39.1802281 C41.8944666,39.2084068 41.5535708,39.2674662 41.2286728,39.2099508 C41.2795275,39.1480606 41.3822775,39.024023 41.4015269,38.9363989 C41.4240278,38.8768247 41.3922924,38.8508335 41.3857892,38.7942187 C41.3830579,38.7660401 41.3764247,38.709168 41.3446892,38.6831767 C41.2778367,38.6030155 41.0489254,38.6232166 40.9629535,38.6309368 C40.7647371,38.6772579 40.7999843,38.7315566 40.484971,38.7594779 L39.4263861,38.8822289 C38.9108153,38.927778 38.498905,39.1368664 38.2983474,39.1546228 C38.1546275,39.1673611 37.8329811,39.1385391 37.6834083,39.0942767 C37.5624495,39.0475695 37.4353777,38.9438617 37.298291,39.0137294 C37.1579527,39.0550324 37.1128208,39.1736659 36.9473803,39.2455923 C36.7811594,39.3179048 36.4661462,39.3459548 36.2772943,39.4773266 C36.0893529,39.6088271 36.1875507,39.7149797 35.9673536,39.8203603 C35.8557593,39.8592185 35.4802666,39.863722 35.3365467,39.8765889 C35.0182819,39.8762029 34.8585642,40.0051301 34.5808792,40.1159147 L34.2745802,40.2291441 C34.163116,40.2674877 33.9366758,40.3163823 33.8886825,40.4068371 C33.8405591,40.496906 33.910273,40.6056319 33.9196375,40.6911973 C33.928742,40.7762481 33.9094926,40.8640008 33.889853,40.9518823 C33.7398901,41.1659888 33.3534721,41.3436818 33.4165528,41.6540333 C33.4666272,41.8505121 33.5845946,41.8685258 33.8067426,42.0496929 C34.0987346,42.3394572 34.3171109,42.7505572 34.6317339,42.9807474 C35.0383117,43.2606042 35.6264578,43.6102 36.1294124,43.7088897 L37.0025271,43.7460753 C37.4703647,43.7903377 37.8297295,43.9024091 38.3211085,43.8870974 L39.4005035,43.705287 C39.6301953,43.6850858 39.9712211,43.6260264 40.2100173,43.6908759 C40.4489435,43.7555968 40.4958964,43.9237682 40.9260156,43.8854246 L41.525217,43.8035907 C41.6655553,43.7626737 41.7774097,43.7238154 41.9295837,43.7966425 C42.2988333,43.9933786 41.6729689,44.3644622 41.958848,44.5974832 C42.1175251,44.726925 42.6431108,44.7661693 42.8536832,44.8333349 C42.9998743,44.8491613 43.4610787,45.0951779 43.5596666,45.2013305 C43.6231375,45.2529271 43.6289904,45.3100565 43.6957128,45.3902177 C43.7617849,45.470379 43.9122681,45.5141267 43.9213726,45.5996921 C43.9306071,45.6848715 43.7451368,45.8448081 43.694152,45.9068269 C43.5371657,46.0641901 43.2329477,46.4642244 43.404241,46.7072816 C43.4710935,46.7874429 43.6524017,46.8573106 43.7451368,46.9064624 L44.5815737,47.147847 C44.94393,47.2879683 44.9750151,47.5723286 45.194822,47.7248022 C45.3501175,47.8259367 45.6081631,47.8029048 45.8122323,47.8137131 L46.6745518,48.0239595 C46.9743476,48.1124843 46.8490967,48.2955814 47.0846413,48.3318663 C47.5817431,48.37407 48.3448242,47.93299 48.7499713,47.6678015 L49.5730116,47.2503968 C49.9022018,47.0775932 50.198616,46.8787984 50.4954203,46.6805183 C51.0576838,46.2577094 51.5181078,45.7001832 51.7969634,45.0727894 C51.8932102,44.892137 52.1654327,44.4659827 52.1823409,44.3500512 C52.2207095,44.1742883 52.0358896,44.0759846 52.1070342,43.9264703 C52.1997694,43.7168672 52.5740914,43.4254302 52.663575,43.1881631 C52.7379711,43.0666988 52.7162506,42.867904 52.59165,42.7927609 C52.4713415,42.7460537 52.3910924,42.8105173 52.1521662,42.7456677 C52.332694,42.2706189 52.6592829,41.8111391 52.930985,41.3851135 C53.056236,41.2020164 53.2800748,40.8663169 53.2843669,40.6366413 C53.2852774,40.3782724 53.0519439,40.3700376 52.9542664,40.264271 C52.85893,40.1865544 52.8806505,40.127109 52.8205613,40.1035624 C52.7002528,40.0572413 52.5081494,40.1601771 52.3904421,40.141906 C52.3042102,40.1493689 52.2407393,40.0977723 52.1806501,40.0746117 C52.0879149,40.0254599 51.9765808,40.0638035 51.890609,40.071395 C51.7613261,39.6811395 52.0309472,38.9685663 52.1632216,38.5839723 C52.4203567,37.757655 52.7647642,36.9233601 52.6401636,36.0451889 L52.5081494,35.3681285 C52.4705611,35.2850078 52.4012374,35.1769252 52.2893829,35.2151401 C52.1205608,35.2590165 51.9716384,35.7600566 51.9016643,35.9095709 L51.5139458,36.6042591 C51.4145774,36.7563468 51.350066,36.9629904 51.2189623,37.0894728 C51.113481,37.1849458 50.9472601,37.2568722 50.8103035,37.3263539 C50.766082,37.1870045 50.6833617,37.2229034 50.5715073,37.2617617 L50.0516445,37.5373723 C49.9431717,37.604538 49.7293477,37.7667905 49.5854977,37.7796575 C49.471042,37.7899511 49.4041895,37.7097898 49.2354975,37.7532802 C49.1210418,37.7635738 48.9263371,37.8383309 48.8369836,37.8172291 C48.7191463,37.7990867 48.5922046,37.6957648 48.4742372,37.6776224 C48.3857942,37.6565205 48.2160616,37.7003969 48.1332113,37.7362958 C47.8465519,37.7617724 47.3978336,37.6291139 47.1014194,37.5696684 C47.1557859,37.5362143 47.2132738,37.5311962 47.207421,37.4741955 C47.2494314,37.3271259 47.02039,37.0890868 47.3010665,37.0067381 C47.3295504,37.0042934 47.3870383,36.999018 47.4155222,36.9965732 L47.9058607,36.9816475 L48.1903091,36.9278636 C48.3365002,36.94369 48.3748688,37.026296 48.5752963,37.0085395 L49.279719,36.8312326 C49.5671588,36.8054986 49.6831752,37.0825246 49.98076,36.8837298 C50.2230678,36.7187752 50.4511988,36.1531428 50.5380811,35.8871824 L50.7885829,35.2623619 L50.8857402,34.8234693 C50.9948633,34.4978061 51.0943617,34.3457184 51.0541721,33.9763075 L50.9957737,33.4360231 C50.9708016,33.2087922 50.9239788,33.0406208 50.6875238,33.2625762 C50.5046548,33.4510774 50.4402735,33.6575924 50.1478913,33.626197 C50.0702435,33.9774655 50.1194074,34.4321845 49.7651151,34.6358688 C49.6304996,34.7337865 49.481187,34.6895241 49.3416291,34.7309557 C49.2579984,34.7668546 49.1492655,34.8342776 49.0891763,34.810731 C49.0030744,34.8180652 48.9397336,34.7664686 48.9303691,34.6812892 C48.9463668,34.5652291 49.1410715,34.4904719 49.2245722,34.4543157 C49.5021272,34.3436597 49.6424654,34.3023567 49.8470549,34.054796 C49.9713954,33.8713129 49.9847919,33.7265594 50.0841603,33.5744717 C50.1862599,33.4505627 50.2756134,33.4712786 50.377583,33.3476269 C50.4544504,33.2545987 50.5956991,32.9550554 50.6690548,32.8339771 L51.0199655,31.7983141 C51.189568,31.4961974 51.4738863,31.4424135 51.5481524,31.0627089 L51.5923739,31.2023156 C51.8958115,31.0605216 51.8932102,30.7738453 51.8340315,30.4923158 C52.0059751,30.4770041 52.3561054,30.5031241 52.4964437,30.4622071 L53.1471502,30.060114 C53.3102495,29.9592369 53.57844,29.7632728 53.6169387,29.5876386 C53.6618105,29.469005 53.47569,29.0838964 53.4088375,29.0037351 C53.3745008,28.9495651 53.3427653,28.9235738 53.2817657,28.9002846 C53.1321929,28.8562795 52.935017,28.902472 52.8271945,28.7110113 C52.6936196,28.5508175 52.5456076,27.9899459 52.4355741,27.7700492 C52.1980785,27.1885905 52.1823409,27.3046506 52.0711368,27.0850113 C51.9984314,26.9481067 52.0118279,26.8033532 51.9958302,26.6611731 C51.9551204,26.5502597 51.8882678,26.4700984 51.882545,26.4129691 C51.8696688,26.2993536 51.9499178,26.2348901 52.0269153,26.1421192 C52.1481342,25.9303287 52.1295352,25.7598412 52.2608991,25.6333589 C52.3659902,25.5378859 52.4587253,25.5872951 52.5063285,25.4968402 C52.6828243,25.2517243 52.2567371,25.0600063 52.4003269,24.7888991 C52.4738127,24.6675635 52.6819139,24.4483102 52.8256338,24.4354432 C52.9368379,24.3970996 53.029573,24.4459941 53.140517,24.4076505 C53.2491198,24.3403562 53.2567935,24.138988 53.3019255,24.0202258 C53.4137799,23.723256 53.5892352,23.7365089 53.631896,23.3310705 C53.6452925,23.186317 53.6519257,22.9846914 53.582602,22.8762228 C53.448897,22.7156429 53.2608255,22.8472721 53.2158236,22.966163 C53.1164552,23.118122 53.1381758,23.3174315 53.1565147,23.4877903 C53.1463698,23.6608511 53.1137239,23.8932287 53.0144856,24.0455738 C52.8932667,24.2573642 52.645106,24.1072066 52.5750019,23.998738 C52.5406652,23.9443106 52.5632962,23.8849939 52.556663,23.8279932 C52.5606949,23.5980603 52.4939725,23.5180276 52.5523709,23.2546406 C52.5682386,23.1383231 52.6776218,22.8129172 52.6435452,22.7586186 C52.6334003,22.6733105 52.3701522,22.3813588 52.3042102,22.3009402 C52.1740168,22.1690537 51.9391226,21.8741425 51.722047,22.0083451 C51.5305939,22.1112809 51.5706533,22.4809492 51.5348859,22.6848908 C51.5153765,22.7726436 51.4762274,22.9482779 51.3901255,22.955998 C51.3366695,22.9894522 51.2408129,22.9117356 51.1781224,22.8600104 C51.0159335,22.7022612 50.9173456,22.5962373 50.8897721,22.3403131 C50.9783452,22.3611576 51.2172714,22.4261359 51.2337895,22.3098184 C51.2214335,22.196203 51.0853873,22.0073157 50.9700212,22.0176093 C50.8523139,21.9994669 50.8363161,22.115527 50.67985,22.0147786 C50.5529083,21.9111994 50.2713213,21.4483742 50.1377463,21.287923 C49.9699647,21.0733018 49.7192028,20.8947082 49.4735132,20.7729865 C49.3248509,20.7291101 48.8410156,20.5422816 48.7066602,20.640328 C48.6524239,20.6737821 48.6613982,20.7589615 48.6388973,20.8182783 C48.6072919,20.792673 48.5752963,20.766553 48.5185888,20.7716998 C48.311528,20.7327129 48.2503983,20.9676639 48.2370018,21.1124174 C48.2428546,21.1691608 48.2553407,21.2830336 48.1724904,21.3189324 C48.0891198,21.35496 48.0255189,21.3032347 47.961918,21.2515095 C47.8064924,21.1505037 47.8032408,21.1220677 47.5934487,21.0546447 C47.6342886,21.1658154 47.6753886,21.2771147 47.7447123,21.3855834 C47.9134044,21.6002046 48.0278601,21.589911 48.0011971,21.879418 C47.7596696,21.7860037 47.4865367,21.6669842 47.3210963,21.4805417 L47.5442848,21.4033398 L47.5381719,21.3467251 C47.4463472,21.2973159 47.131334,21.066997 47.1188479,20.9535102 C47.1096134,20.8682022 47.2240691,20.8577799 47.2150947,20.7726005 C47.2349944,20.6848477 47.1423893,20.6356959 47.1873912,20.5169337 C47.2642586,20.4237768 47.4303494,20.3517217 47.4178633,20.2381063 C47.4112301,20.1812342 47.3477592,20.1296376 47.28767,20.1062197 C47.1638498,20.0310766 46.9441729,19.8786029 46.8130692,20.0048279 C46.707848,20.1003009 46.7873166,20.2940776 46.7289182,20.5574647 C46.6393046,20.5368775 46.4864803,20.4641791 46.3979072,20.4434632 C46.2800699,20.4251921 46.1429832,20.4946738 45.9901589,20.4223614 C45.7797165,20.3548097 45.7045399,20.1893404 45.5231017,20.1192154 C45.1889692,19.9769066 44.9081626,20.0592553 44.5957506,20.1157413 C44.4528111,20.1283509 44.2229893,20.1488094 44.0860327,20.2181624 C43.9772998,20.2854567 43.9287862,20.3756543 43.881183,20.4659804 C43.753591,20.6208989 43.5010081,20.7005455 43.5263704,20.9277763 C43.5763147,21.1243837 43.7519001,21.137508 43.8152409,21.1889759 L43.99824,21.5460346 C43.8010641,21.5920984 43.7083289,21.5432038 43.5371657,21.5582582 L42.8578453,21.7045558 C42.5101861,21.7068718 42.4023637,21.5155398 42.1893201,21.4196809 C42.0690115,21.3729737 41.9830397,21.3804366 41.8903046,21.3314134 C41.7949682,21.2539542 41.7858638,21.1685174 41.7541284,21.1423975 C41.6872759,21.0626222 41.3948936,21.0309694 41.3087918,21.038561 C41.3146446,21.0956903 41.3180263,21.123869 41.2669114,21.1856305 C41.2185279,21.2762141 40.9729684,21.4128614 40.8583827,21.4230263 C40.8041463,21.4564804 40.7146628,21.4357646 40.6544435,21.4124754 L40.6704413,21.2960292 C40.6838378,21.1516617 40.5977359,21.1592532 40.4866619,21.1977255 C40.3170594,21.2414732 40.2152198,21.3652535 40.0804743,21.4632999 C40.1289879,21.3729737 40.1741198,21.2542115 40.2509872,21.1613119 C40.3562084,21.0659676 40.4968068,21.024536 40.6336333,20.9550543 L41.0672643,20.6870351 C41.1758671,20.6201268 41.3423481,20.5478144 41.4215566,20.4833509 C41.6613933,20.2898315 41.7114676,19.6830248 41.6487771,19.3729306 C41.2052614,19.5555131 41.3229687,19.5736555 41.0229127,19.7438856 C40.9144399,19.8109226 40.8566918,19.816198 40.7739716,19.8520969 C40.694633,19.9166891 40.6746033,20.0045706 40.6553539,20.0921947 L40.6553539,20.0921947 Z M52.6794427,18.5656564 C52.7647642,18.8165625 52.8247233,18.8399804 52.9644113,19.0570463 C53.0371167,19.1940797 53.0178673,19.2819611 53.1864293,19.2383421 C53.0856303,19.1038821 52.8040433,18.6409283 52.6794427,18.5656564 L52.6794427,18.5656564 Z M43.7919596,19.6415932 C43.7751815,19.7580393 43.7651666,19.9312288 43.6248283,19.9722745 C43.5964745,19.9748479 43.4786372,19.9565768 43.4466417,19.9305855 L43.3373885,20.25612 C43.2888749,20.3463175 43.198611,20.5839706 43.2086259,20.6694074 C43.1953594,20.8137749 43.395917,20.7958898 43.4978866,20.6722381 C43.6038881,20.5767651 43.6172847,20.4320116 43.6907704,20.3108047 C43.8093881,20.0707069 44.029195,19.9649403 44.055858,19.6758193 L43.7919596,19.6415932 Z M51.76939,19.249279 L51.7462387,19.566836 L51.3542281,19.4294167 C51.3477249,19.6311709 51.4386391,19.9386917 51.6009581,20.0963122 L51.9155811,20.3267597 C52.1697247,20.5337894 52.4271199,20.7692551 52.6552509,21.0071655 C52.8556784,21.247778 52.8647828,21.3330861 52.9342366,21.4415547 C52.9978375,21.4931513 53.0611784,21.5451339 53.1440287,21.5089777 C53.1983951,21.4753949 53.2116616,21.33077 53.2341625,21.2713246 L53.3302793,21.0906722 C53.3721596,20.943474 53.2617359,20.7238347 53.1890305,20.5866727 L52.9993983,20.1732567 C52.9199297,19.9793513 52.8723265,19.8113086 52.7394018,19.6511147 C52.5140022,19.4415116 52.3419285,19.4566947 52.1036526,19.3915878 L51.76939,19.249279 Z M53.354471,19.7110748 C53.3820444,19.966999 53.4858349,20.3883926 53.5967789,20.6079032 L53.8500121,21.0733018 L54.1488974,21.9649834 C54.3027623,21.7791842 54.2209525,21.5568428 54.1707481,21.3604928 C54.0413351,20.9702373 53.8549545,20.585 53.6996589,20.2258826 C53.5918365,20.0345507 53.5134083,19.8405166 53.354471,19.7110748 L53.354471,19.7110748 Z M49.0649845,20.2067108 C49.0707073,20.2634542 49.1025728,20.2894455 49.1376899,20.3436155 C49.1692953,20.3696068 49.2011608,20.3954694 49.2328962,20.421332 C49.417456,20.5197644 49.5137028,20.339112 49.4434686,20.2303861 C49.4093921,20.1760874 49.2914247,20.1578163 49.2338066,20.1630918 C49.176969,20.1682386 49.1192209,20.1732567 49.0649845,20.2067108 L49.0649845,20.2067108 Z M53.7087634,25.1032394 C53.8592466,24.8888755 53.899176,24.4551297 53.9569241,24.1914853 C54.0932304,23.5769584 54.3805401,23.2932415 54.2969094,22.5257263 C54.2784405,22.3553675 54.2126284,22.0168373 54.006218,21.977593 C53.6845716,21.9488997 53.8165858,22.3674625 53.7973364,22.4552153 C53.806701,22.540652 53.7839399,22.5999688 53.7613089,22.6594142 C53.6203203,22.9588288 53.6862624,23.297359 53.6912048,23.6125999 L53.6302051,24.6509651 L53.7087634,25.1032394 Z M27.5972622,24.3505211 C27.6248356,24.6064453 27.5923198,24.838823 27.5020559,25.0763474 C27.3866898,25.3450099 27.1084844,25.7140348 27.049956,25.9772932 L26.9836237,25.8970032 C26.8586329,26.0803577 26.844456,26.4834801 26.9239247,26.6771281 C27.0801306,26.5198936 27.1160281,26.3156947 27.2120148,26.1350423 C27.4012569,25.7453016 27.6539698,25.4074147 27.750997,24.9681361 C27.7676451,24.8519473 27.7910565,24.5341329 27.7209524,24.4256643 C27.6860954,24.371237 27.6573514,24.373939 27.5972622,24.3505211 L27.5972622,24.3505211 Z M26.581208,26.1911424 C26.6835678,26.067362 26.719075,25.8631631 26.7324715,25.7185382 C26.5411485,25.8218601 26.5596175,25.9920902 26.581208,26.1911424 L26.581208,26.1911424 Z M35.7989216,25.4877047 C35.8562795,25.4825579 35.9138976,25.4775397 35.968134,25.4440856 C36.0734852,25.3486126 36.0141764,25.0668258 35.9213112,25.0178026 C35.8323479,24.9969581 35.7844846,25.0872843 35.7907277,25.1440277 L35.7710881,25.2321665 L35.7864356,25.3740892 L35.7989216,25.4877047 Z M35.0566506,25.5824056 L35.1548484,25.6884295 C35.3524145,25.6421084 35.4160154,25.693705 35.5943321,25.735394 L35.5244882,25.6267967 L35.5979739,25.5055898 C35.7701777,25.4904067 35.7835742,25.3455246 35.7108688,25.2086199 C35.6791334,25.1826286 35.6185239,25.159468 35.5867885,25.1333481 C35.2781483,24.9601586 35.2488841,25.2209722 35.1752683,25.3421791 L35.0566506,25.5824056 Z M35.9088251,25.9657129 C35.8906162,25.7952254 35.9222216,25.8212167 36.0684127,25.8367858 L36.0663317,25.5499808 C35.9832213,25.5860084 35.8687656,25.5964306 35.7885166,25.6606368 C35.6606644,25.8154266 35.6766622,25.957864 35.9088251,25.9657129 L35.9088251,25.9657129 Z M26.5796472,26.7076229 L26.4467225,27.3509718 L26.5061615,27.6325012 L26.6255595,28.1956889 C26.6991753,28.0746106 26.8310595,27.689888 26.844456,27.5452631 L26.8771019,27.3124995 C26.8871168,27.1395673 26.9096177,27.0803792 26.8336608,26.9147812 L26.6480605,27.0747177 L26.636745,26.7027334 L26.5796472,26.7076229 Z M35.6117606,26.1645077 L35.468561,26.1771173 L35.5066695,26.2597233 C35.6757517,26.2161043 35.7903375,26.2058107 35.7973609,26.0043138 C35.6540312,26.0171808 35.6251571,26.0196255 35.6117606,26.1645077 L35.6117606,26.1645077 Z M34.2868061,26.2245965 C34.4802102,26.4083369 34.4835918,26.4365156 34.7417674,26.4136124 C34.7023583,26.5892467 34.4726665,26.8680741 34.284595,26.741463 C34.1610349,26.6661912 34.1484188,26.5524471 34.0883296,26.5291579 C33.9959847,26.480006 33.9888312,26.6815029 33.9378464,26.7432644 C33.815847,26.9550548 33.6120379,26.9446326 33.5921382,27.2906256 L33.700611,27.2232027 C33.8109046,27.443228 34.0156242,27.1956673 34.1531011,27.1259283 C34.1274786,27.1569377 34.0762337,27.2192139 34.0539929,27.2782733 C34.0339631,27.3662835 34.1296897,27.444 34.2128001,27.4075865 C34.2955204,27.3715589 34.3948887,27.2192139 34.4743574,27.1546217 C34.5546064,27.0904155 34.5829602,27.0878421 34.6660706,27.0515572 C34.7457994,26.987351 34.8511506,26.891878 34.9313997,26.8272858 C35.1711063,26.6340237 35.1832021,26.7475105 35.267223,26.453114 C35.2604597,26.3963707 35.2863423,26.3653612 35.2800993,26.3084892 C35.1660338,26.0602852 34.7551639,26.2689876 34.7227782,26.2433823 L34.5444615,26.2015646 C34.4842422,26.1782754 34.3723878,26.217005 34.2868061,26.2245965 L34.2868061,26.2245965 Z M35.4861195,26.6058451 C35.5622065,26.7713144 35.8419726,26.947206 36.0007798,27.0767765 C36.0550162,27.0433223 36.0805086,27.0123129 36.1031396,26.9529961 C36.173764,26.8030958 36.1428089,26.5188643 35.9899846,26.4462945 C35.8980299,26.3971427 35.7860454,26.4358723 35.7034552,26.4717711 C35.7000736,26.4434638 35.6623552,26.3607291 35.6306198,26.3347378 C35.4050901,26.1252634 35.1227227,26.7242213 35.4861195,26.6058451 L35.4861195,26.6058451 Z M35.232236,26.3988154 L35.2354876,26.4272514 L35.2032319,26.4015174 L35.232236,26.3988154 Z M35.0654949,28.5945652 L35.1610914,28.6721531 C35.3716638,28.4813358 35.4167958,28.3623162 35.5705306,28.1766457 C35.6982527,28.0217273 35.7844846,28.0142645 35.8642134,27.9499296 C35.9150681,27.8877821 35.9088251,27.8307814 35.9280745,27.7431573 C35.9732064,27.6241377 36.0563168,27.5882388 36.0349865,27.389444 C36.0451314,27.2162545 35.9310659,26.9681792 35.7334998,27.0145003 L35.6891483,26.8748936 C35.6031764,26.8824851 35.4627081,26.9236594 35.3829793,26.9879943 C35.3031205,27.0525865 35.3440904,27.1637572 35.2388692,27.2591015 C35.110887,27.4138913 34.8879585,27.4910932 34.8335921,27.5245473 C34.7504817,27.5609608 34.7884601,27.6435668 34.6539747,27.7414845 C34.4659032,27.8729851 34.3418229,27.7977132 34.2302286,27.8365715 C34.0898903,27.8776172 33.8819192,28.0969992 33.776698,28.1923435 C33.6228332,28.378014 33.5782215,28.4970335 33.5139702,28.7036772 C33.4913392,28.7627366 33.4433458,28.8531915 33.4780727,28.9077474 C33.5126696,28.9620461 33.5987714,28.9540686 33.653398,28.9206144 C33.7649923,28.8822708 34.0105517,28.7458809 34.1000353,28.766468 C34.1856169,28.7586192 34.220734,28.8131752 34.2812134,28.8363357 C34.3703067,28.8569229 34.4275346,28.8520334 34.488014,28.875194 C34.5482333,28.8987406 34.6150858,28.9789018 34.6785567,29.0306271 C34.8311209,29.1029395 34.9848557,28.917269 35.0298576,28.7987641 C35.0524886,28.73919 35.0745993,28.6796159 35.0654949,28.5945652 L35.0654949,28.5945652 Z M26.5959051,28.4565025 C26.5252808,28.6065315 26.5120143,28.7511563 26.6677,28.8520334 C26.6523526,28.7102393 26.6939728,28.5626551 26.5959051,28.4565025 L26.5959051,28.4565025 Z M53.703821,28.5185214 C53.5668643,28.588003 53.5183507,28.6784579 53.5340884,28.8201233 C53.5206919,28.9651342 53.6476336,29.068456 53.788102,29.0272817 C53.9826766,28.9529105 54.0162329,28.4619067 53.703821,28.5185214 L53.703821,28.5185214 Z M14.0866804,33.2403163 C14.0753649,33.6716174 14.1902107,33.6613238 14.2874981,34.0258453 C14.3380927,34.2221954 14.2583639,34.286659 14.4162607,34.6742124 C14.4923477,34.839939 14.5390404,35.0077244 14.7203486,35.0775921 C14.6681932,34.5944371 14.6083641,34.3130363 14.4446145,33.8684822 C14.3276876,33.5918422 14.2383341,33.571255 14.1437781,33.2347835 L14.0866804,33.2403163 Z M37.7186554,31.4296752 L37.7118922,31.6309147 L37.6450396,31.5507534 L37.6533637,31.8941731 C37.7043485,32.0909092 37.927407,32.0137073 37.9783918,31.9515598 C38.0327582,31.9181056 38.0486259,31.8016595 38.0427731,31.7449161 C38.0369203,31.6883014 38.0018032,31.6338741 37.9700677,31.6081401 C37.9090681,31.5845936 37.8805842,31.587167 37.8230962,31.5920564 L37.8046273,31.4218263 L37.7186554,31.4296752 Z M37.8881279,35.1160644 C37.8297295,35.3798374 37.9926987,35.2789603 38.0911566,35.3851129 C38.1546275,35.4367095 38.1639921,35.5218889 38.1730965,35.6074543 L37.9467864,35.6562201 L37.8471579,35.8083078 L37.7194358,35.9633549 L38.1079348,36.0724669 C37.9133602,36.146838 37.7955228,36.1285669 37.6709222,36.3121787 L38.1580092,36.2686883 C38.476404,36.269203 38.7153302,36.3340525 39.0153862,36.1636937 L38.9519153,36.1120972 L39.0387976,35.8460081 L38.8223723,35.7219704 L38.7462853,35.5566297 L38.3819781,35.1297034 L38.2608892,35.0829962 C38.3636392,34.9589586 38.57083,34.7395766 38.2750661,34.6800025 L38.1287449,34.6643048 L38.2565971,34.5093864 C38.0811418,34.4965194 37.9349507,34.4808217 37.8037168,34.6073041 C37.649982,34.7928459 37.64582,35.0226501 37.8881279,35.1160644 L37.8881279,35.1160644 Z M45.5841014,34.260925 L45.6149264,34.5448992 L45.5815001,34.7776629 C45.8940421,34.7210482 46.0862756,34.6181123 46.3635705,34.507199 C46.4464208,34.4713001 46.6117312,34.3991164 46.6759825,34.4507129 C46.7680673,34.5003795 46.7195537,34.5903197 46.6967926,34.6498938 C46.6519208,34.7685273 46.4730838,34.9854646 46.3960863,35.0784928 C46.163013,35.3284982 45.8188656,35.3591216 45.5280441,35.6145311 C45.371708,35.7720229 45.3302179,35.9189638 45.1729714,36.0765843 C45.0167654,36.2335614 44.9046509,36.2724197 44.8245319,36.3368833 C44.7477946,36.4299115 44.8119158,36.4815081 44.6492066,36.5819992 L44.7419417,36.3731681 C44.6533686,36.3520663 44.5380025,36.3624886 44.47115,36.2819413 C44.4335617,36.1997213 44.4243272,36.1141559 44.4434465,36.0265318 C44.4829858,35.8508975 44.5187532,35.3884583 44.6215031,35.2644206 C44.6475158,35.2334112 44.8705743,35.1560807 44.9531645,35.1201818 L44.9147958,35.2958161 C45.0007676,35.2883532 45.1438372,35.2756149 45.1979435,35.2420321 C45.3385419,35.2008578 45.4795305,34.9011858 45.5531463,34.7801076 L45.1638669,34.9293645 C45.2316299,34.7511569 45.4236033,34.3898521 45.5841014,34.260925 L45.5841014,34.260925 Z M37.2824233,35.1412837 C37.0718508,35.3318436 37.0878486,35.2160408 36.9800262,35.2830778 C36.8997771,35.3470266 36.9666296,35.4273166 36.8931439,35.5486522 C36.8705129,35.6082263 36.7870123,35.6442538 36.7937756,35.7012545 C36.7743961,35.7888787 36.8663509,35.8380305 36.9557043,35.8587464 C37.0735416,35.8768888 37.4178191,35.8467801 37.5255115,35.7798718 C37.6317732,35.6842701 37.5898928,35.5732281 37.6384064,35.4826446 C37.664289,35.4516352 37.7152738,35.389745 37.7411564,35.3587356 C37.7536425,35.2141108 37.4453925,35.0404066 37.2824233,35.1412837 L37.2824233,35.1412837 Z M40.739895,37.646613 C40.6086612,37.7725807 40.560928,37.8632929 40.7739716,37.9590232 L40.739895,37.646613 Z M40.5250305,38.0672345 L40.6009875,38.2327038 C40.6043691,38.2610112 40.6385758,38.3153098 40.66784,38.3128651 C40.8617643,38.4966055 41.1333364,38.0707086 40.8090887,38.0134505 C40.7798245,38.0160239 40.7197352,37.9923487 40.6938526,38.0234868 C40.6371451,38.0288909 40.579397,38.033909 40.5250305,38.0672345 L40.5250305,38.0672345 Z M54.7614954,39.8457082 C54.7772331,39.9873736 54.7280692,40.3361974 54.7949217,40.4163587 C54.8641153,40.524956 55.1225511,40.5017954 55.2344055,40.4634518 C55.5401842,40.3498364 55.8444022,39.9501881 55.9855208,39.6505161 C56.0850192,39.4984285 56.1518717,39.3203495 56.1300211,39.1211687 L55.916067,38.4801358 C55.862611,38.2553497 55.7908161,37.8602048 55.5485082,37.7667905 C55.5711393,37.7074738 55.6480066,37.6143169 55.6387722,37.5291375 C55.582845,37.2757867 55.1550669,37.3424376 55.0021125,37.5283654 C54.925115,37.6213937 54.9469656,37.8201885 54.9303175,37.9362486 C54.9260255,38.1665676 54.8609938,38.6313228 54.7682587,38.8405399 C54.6755236,39.0492423 54.4156572,39.3307717 54.4122756,39.5608333 C54.4304844,39.7310634 54.6153043,39.8296245 54.7614954,39.8457082 L54.7614954,39.8457082 Z" id="Fill-46" fill="#222222" mask="url(#mask-4)"></path>
                </g>
            </g>
            <text id="UNITED-NATIONS" font-family="AvenirNext-DemiBold, Avenir Next" font-size="15.504" font-weight="500" fill="#222222">
                <tspan x="0" y="85.36">UNITED NATIONS</tspan>
            </text>
        </g>
    </g>
</svg>