<?xml version="1.0" encoding="UTF-8"?>
<svg width="15px" height="15px" viewBox="0 0 15 15" version="1.1" xmlns="http://www.w3.org/2000/svg" xmlns:xlink="http://www.w3.org/1999/xlink">
    <title>003-coin-stack-white</title>
    <g id="Blog-Redesign" stroke="none" stroke-width="1" fill="none" fill-rule="evenodd">
        <g id="Artboard" transform="translate(-145.000000, -36.000000)" fill="#FFFFFF" fill-rule="nonzero">
            <g id="Group-8" transform="translate(145.000000, 34.000000)">
                <g id="Group-5" transform="translate(0.000000, 2.000000)">
                    <g id="003-coin-stack-white" transform="translate(0.000000, 0.023353)">
                        <path d="M7.23836435,0 C3.2407346,0 0,1.45988745 0,3.26082402 L0,3.96800033 C0,5.7689369 3.2407346,7.22882435 7.23836435,7.22882435 C11.2359321,7.22882435 14.4767287,5.7689369 14.4767287,3.96800033 L14.4767287,3.26082402 C14.4767287,1.45988745 11.2359321,0 7.23836435,0 Z" id="Path"></path>
                        <path d="M7.23836435,8.8264254 C3.74886739,8.8264254 0.836362631,7.71405685 0.152235121,6.23346615 C0.0526061053,6.44906342 0,6.6723628 0,6.90133092 L0,7.60850723 C0,9.40944381 3.2407346,10.8693313 7.23836435,10.8693313 C11.2359321,10.8693313 14.4767287,9.40944381 14.4767287,7.60850723 L14.4767287,6.90133092 C14.4767287,6.6723628 14.4241226,6.44906342 14.3244936,6.23346615 C13.6403661,7.71405685 10.7278613,8.8264254 7.23836435,8.8264254 Z" id="Path"></path>
                        <path d="M7.23836435,12.4669939 C3.74886739,12.4669939 0.836362631,11.3545638 0.152235121,9.87403467 C0.0526061053,10.0896319 0,10.3129313 0,10.5418994 L0,11.2490757 C0,13.0500739 3.2407346,14.5099614 7.23836435,14.5099614 C11.2359321,14.5099614 14.4767287,13.0500739 14.4767287,11.2490757 L14.4767287,10.5418994 C14.4767287,10.3129313 14.4241226,10.0896319 14.3244936,9.87403467 C13.6403661,11.3546254 10.7278613,12.4669939 7.23836435,12.4669939 Z" id="Path"></path>
                    </g>
                </g>
            </g>
        </g>
    </g>
</svg>