<?xml version="1.0" encoding="UTF-8"?>
<svg width="300px" height="200px" viewBox="0 0 300 200" version="1.1" xmlns="http://www.w3.org/2000/svg" xmlns:xlink="http://www.w3.org/1999/xlink">
    <title>Drupal</title>
    <g id="Drupal" stroke="none" stroke-width="1" fill="none" fill-rule="evenodd">
        <rect fill="#FFFFFF" x="0" y="0" width="300" height="200"></rect>
        <g id="Wordmark2_black_CMYK" transform="translate(23.000000, 69.000000)" fill="#222222" fill-rule="nonzero">
            <path d="M155.109959,23.8817542 L147.249999,23.8817542 L147.262818,38.5884662 C147.262818,42.8861086 145.420208,46.3629412 141.122563,46.3629412 C136.822782,46.3629412 134.963062,42.8861086 134.963062,38.5884662 L134.963062,23.8956498 L127.123394,23.8956498 L127.121259,38.5884662 C127.121259,47.0811715 132.580695,53.9642523 141.074462,53.9642523 C149.566079,53.9642523 155.107806,47.0811715 155.107806,38.5884662 L155.109959,23.8817542 Z" id="Path"></path>
            <rect id="Rectangle" x="225.984818" y="14.9200452" width="7.82147817" height="38.2855315"></rect>
            <polygon id="Path" points="239.581229 16.3325349 239.581229 14.957072 245.676505 14.957072 245.676505 16.3325349 243.447038 16.3325349 243.447038 22.394827 241.811895 22.394827 241.811895 16.3325349"></polygon>
            <polygon id="Path" points="248.832244 14.957072 250.572038 20.0715031 250.592428 20.0715031 252.237466 14.957072 254.541599 14.957072 254.541599 22.394827 253.010208 22.394827 253.010208 17.1235685 252.988618 17.1235685 251.166362 22.394827 249.905147 22.394827 248.082891 17.1760442 248.061601 17.1760442 248.061601 22.394827 246.531109 22.394827 246.531109 14.957072"></polygon>
            <path d="M120.729851,23.5620723 C113.987849,22.0059071 109.735093,28.7040906 109.557671,29.0631952 C109.471098,29.2395555 109.467893,29.342171 109.169699,29.3346685 C108.922802,29.329352 108.895026,29.0631952 108.895026,29.0631952 L108.058159,23.9393905 L101.051094,23.9393905 L101.051094,53.1806883 L108.90571,53.1806883 L108.90571,37.3528196 C108.90571,36.0595786 112.387868,29.8583909 119.136272,31.4540928 C122.548953,32.2621195 123.997183,33.7103557 123.997183,33.7103557 L123.997183,24.801887 C122.97123,24.2382509 121.871462,23.820934 120.72986,23.5620723" id="Path"></path>
            <path d="M173.380892,30.9711063 C176.550951,30.9704528 179.409199,32.8796338 180.622631,35.8082617 C181.836062,38.7368897 181.165665,42.1081094 178.924095,44.34968 C176.682524,46.5912505 173.311304,47.2616472 170.382676,46.048216 C167.454048,44.8347847 165.544867,41.9765367 165.545521,38.8064773 C165.546759,34.4796344 169.054049,30.9723446 173.380892,30.9711063 M165.767838,62.8117383 L165.767838,52.2904666 L165.769976,52.2926196 L165.772111,48.3519379 C165.772111,48.3519379 165.783872,48.0366609 166.068161,48.0334314 C166.321469,48.0302349 166.378124,48.1980552 166.440112,48.3519379 C167.035426,49.8343583 170.310242,55.4787039 177.578075,53.7087617 C185.278952,51.536572 190.055998,43.8542045 188.597933,35.9868055 C187.139868,28.1194064 179.927093,22.6591126 171.959248,23.3908072 C163.991404,24.1225018 157.893722,30.8051073 157.892901,38.8064773 L157.892901,62.8117383 L165.767838,62.8117383 Z" id="Shape"></path>
            <path d="M215.158741,38.8065762 C215.159395,41.9765374 213.25033,44.8347172 210.321835,46.0482117 C207.39334,47.2617062 204.022205,46.5915075 201.780549,44.3501608 C199.538894,42.1088141 198.86823,38.7377714 200.081321,35.8091089 C201.294412,32.8804463 204.152329,30.9709884 207.322291,30.9712055 C211.649451,30.9720991 215.157251,34.4794162 215.158741,38.8065762 M214.935344,53.1937022 L222.810267,53.1937022 L222.810267,38.8065762 C222.809609,30.80554 216.712355,24.1230707 208.744864,23.3911744 C200.777374,22.659278 193.564725,28.1190953 192.106423,35.986111 C190.648121,43.8531267 195.424638,51.5353654 203.125093,53.7078231 C210.39294,55.4788028 213.667741,49.8334197 214.263056,48.3520428 C214.325046,48.1981541 214.380625,48.0303399 214.635006,48.0324929 C214.919299,48.0367659 214.931056,48.3520428 214.931056,48.3520428" id="Shape"></path>
            <path d="M78.5805073,21.531236 L75.4232697,21.531236 L75.4232697,46.4994949 L78.6660157,46.5828563 C85.317163,46.5828563 89.6009218,45.9779375 89.6009218,34.0180522 C89.6009218,22.5498072 85.8195023,21.531236 78.5805103,21.531236 M76.448258,53.1324796 L67.5141482,53.1324796 L67.5141482,14.9046803 L77.100216,14.9046803 C88.7073957,14.9046803 97.5111139,17.0348157 97.5111139,34.0180762 C97.5111139,50.838839 88.1858203,53.1324796 76.44827,53.1324796" id="Shape"></path>
            <path d="M33.9555252,13.3896441 C29.5320821,8.96829098 25.3116929,4.75350323 24.0556497,0 C22.7995315,4.75350323 18.5784766,8.96829098 14.1557712,13.3896441 C7.52168004,20.0195462 0,27.5335468 0,38.8032268 C0,47.3977355 4.58511565,55.3393892 12.0281786,59.6366436 C19.4712415,63.9338981 28.6414732,63.9338981 36.0845361,59.6366436 C43.527599,55.3393892 48.1127147,47.3977355 48.1127147,38.8032268 C48.1127147,27.5342694 40.5916524,20.0195402 33.9555312,13.3896381 M10.224703,44.4087583 C8.74966825,44.3586815 3.30590574,34.9755957 13.404961,24.9849552 L20.0879085,32.284939 C20.2039324,32.3995602 20.2654313,32.5583079 20.2569081,32.7211788 C20.2483848,32.8840497 20.1706521,33.0355112 20.0432982,33.1373961 C18.4485828,34.7729675 11.6514962,41.5890684 10.8066765,43.9459137 C10.6322982,44.4323814 10.3776172,44.4139819 10.224712,44.4087523 M24.0564053,56.7753752 C21.8621059,56.7753752 19.7576746,55.9037103 18.2060703,54.3521066 C16.654466,52.8005029 15.7828056,50.6960719 15.7828056,48.5017725 C15.8133571,46.4956701 16.5426292,44.5630373 17.8449774,43.0368428 C19.3368104,41.2126168 24.0552958,36.0818073 24.0552958,36.0818073 C24.0552958,36.0818073 28.7015477,41.2879329 30.2544804,43.0194299 C31.6072705,44.5232037 32.3477529,46.4791352 32.3300021,48.5017725 C32.3299938,53.0711584 28.6257732,56.7753752 24.0563873,56.7753752 M39.8920224,43.3585368 C39.713704,43.7485241 39.3091914,44.3995916 38.7632253,44.4194634 C37.7900411,44.454907 37.6860522,43.9562559 36.9667574,42.891698 C35.3875479,40.5547155 21.6058924,26.151295 19.0281484,23.3656933 C16.7607726,20.9156301 18.7088623,19.1883282 19.6125147,18.2831284 C20.7462356,17.1473775 24.0555237,13.8401134 24.0555237,13.8401134 C24.0555237,13.8401134 33.9230352,23.2023769 38.0334683,29.5993979 C42.1439014,35.9964188 40.7273215,41.5318489 39.8920314,43.3585248" id="Shape"></path>
        </g>
    </g>
</svg>