<?xml version="1.0" encoding="UTF-8"?>
<svg width="300px" height="200px" viewBox="0 0 300 200" version="1.1" xmlns="http://www.w3.org/2000/svg" xmlns:xlink="http://www.w3.org/1999/xlink">
    <title>Fishbat</title>
    <g id="Fishbat" stroke="none" stroke-width="1" fill="none" fill-rule="evenodd">
        <rect fill="#FFFFFF" x="0" y="0" width="300" height="200"></rect>
        <g id="Fishbat-Logo-b" transform="translate(28.000000, 76.000000)" fill="#222222" fill-rule="nonzero">
            <path d="M92.8184052,13.7800008 C90.8839954,13.6552001 89.5268089,13.9359974 88.7468049,14.6224008 C87.966801,15.3088042 87.5768049,16.5099923 87.5768049,18.226001 L87.5768049,18.272801 L92.8184052,18.272801 L92.8184052,23.8420013 L87.5768049,23.8420013 L87.5768049,44.2000024 L80.9780045,44.2000024 L80.9780045,23.8420013 L77.6552043,23.8420013 L77.6552043,18.272801 L80.9780045,18.272801 L80.9780045,17.664401 C80.9780045,14.5755853 81.8593957,12.196609 83.6222047,10.5274006 C85.3850136,8.85819217 87.9979876,8.02360044 91.4612051,8.02360044 C92.0540081,8.02360044 92.5064036,8.03920031 92.8184052,8.07040044 L92.8184052,13.7800008 Z M96.0008053,10.8316006 C96.0008053,9.77079521 96.3752016,8.90500387 97.1240054,8.23420045 C97.8728092,7.56339706 98.8555994,7.2280004 100.072406,7.2280004 C101.289212,7.2280004 102.272002,7.56339706 103.020806,8.23420045 C103.76961,8.90500387 104.144006,9.77079521 104.144006,10.8316006 C104.144006,11.8612059 103.76961,12.7113973 103.020806,13.3822007 C102.272002,14.0530042 101.289212,14.3884008 100.072406,14.3884008 C98.8555994,14.3884008 97.8728092,14.0530042 97.1240054,13.3822007 C96.3752016,12.7113973 96.0008053,11.8612059 96.0008053,10.8316006 Z M103.348406,18.272801 L103.348406,44.2000024 L96.7496054,44.2000024 L96.7496054,18.272801 L103.348406,18.272801 Z M118.277607,17.945201 C121.428822,17.945201 123.955997,18.7407931 125.859207,20.3320011 C127.762417,21.9232091 128.948005,24.0447881 129.416007,26.6968015 L123.238407,26.6968015 C122.988806,25.4487952 122.427211,24.4504051 121.553607,23.7016013 C120.680002,22.9527975 119.541214,22.5784012 118.137207,22.5784012 C117.014001,22.5784012 116.14041,22.8435987 115.516406,23.3740013 C114.892403,23.9044039 114.580406,24.6219968 114.580406,25.5268014 C114.580406,26.2444051 114.830004,26.8215993 115.329206,27.2584015 C115.828409,27.6952037 116.452403,28.0384002 117.201207,28.2880016 C117.95001,28.5376029 119.0264,28.8339999 120.430407,29.1772016 C122.396017,29.6140038 123.995001,30.0741992 125.227407,30.5578017 C126.459813,31.0414042 127.520603,31.8057965 128.409807,32.8510018 C129.299011,33.8962071 129.743607,35.3079931 129.743607,37.086402 C129.743607,39.3016132 128.877816,41.0955954 127.146207,42.4684023 C125.414598,43.8412093 123.082422,44.5276024 120.149607,44.5276024 C116.77999,44.5276024 114.081216,43.7710099 112.053206,42.2578023 C110.025196,40.7445947 108.792808,38.5840162 108.356006,35.776002 L114.674006,35.776002 C114.830007,37.0552084 115.391602,38.0613985 116.358806,38.7946021 C117.326011,39.5278058 118.589599,39.8944022 120.149607,39.8944022 C121.272812,39.8944022 122.130804,39.6214049 122.723607,39.0754021 C123.31641,38.5293994 123.612807,37.8196065 123.612807,36.946002 C123.612807,36.1971982 123.355409,35.5888043 122.840607,35.1208019 C122.325804,34.6527996 121.686211,34.2940032 120.921807,34.0444019 C120.157403,33.7948006 119.073214,33.4984035 117.669207,33.1552018 C115.734797,32.7183996 114.167012,32.273804 112.965806,31.8214018 C111.7646,31.3689995 110.73501,30.6436066 109.877006,29.6452016 C109.019002,28.6467966 108.590006,27.2740102 108.590006,25.5268014 C108.590006,23.2803901 109.447997,21.4552082 111.164006,20.0512011 C112.880015,18.647194 115.251191,17.945201 118.277607,17.945201 Z M150.101608,17.898401 C153.096824,17.898401 155.4836,18.8811912 157.262009,20.8468011 C159.040418,22.8124111 159.929609,25.5735836 159.929609,29.1304016 L159.929609,44.2000024 L153.377608,44.2000024 L153.377608,29.8792016 C153.377608,27.8199913 152.847214,26.2210072 151.786408,25.0822014 C150.725603,23.9433956 149.274817,23.3740013 147.434008,23.3740013 C145.561999,23.3740013 144.064413,23.9823952 142.941208,25.1992014 C141.818003,26.4160076 141.256408,28.1631901 141.256408,30.4408017 L141.256408,44.2000024 L134.657607,44.2000024 L134.657607,9.56800053 L141.256408,9.56800053 L141.256408,23.4676013 C141.942812,21.7203925 143.0738,20.3554061 144.649408,19.3726011 C146.225016,18.3897961 148.042398,17.898401 150.101608,17.898401 Z M180.33441,18.179201 C182.612022,18.179201 184.640001,18.7095957 186.41841,19.7704011 C188.19682,20.8312065 189.593005,22.3599912 190.607011,24.3568013 C191.621016,26.3536115 192.128011,28.6935882 192.128011,31.3768017 C192.128011,34.0600153 191.621016,36.3921921 190.607011,38.3734021 C189.593005,40.3546121 188.19682,41.875597 186.41841,42.9364024 C184.640001,43.9972078 182.612022,44.5276024 180.33441,44.5276024 C177.838397,44.5276024 175.724619,43.8958088 173.99301,42.6322023 C172.2614,41.3685959 171.068013,39.7072125 170.412809,37.6480021 L170.412809,44.2000024 L166.154009,44.2000024 L166.154009,9.56800053 L170.412809,9.56800053 L170.412809,25.0588014 C171.068013,22.999591 172.2614,21.3382075 173.99301,20.0746011 C175.724619,18.8109947 177.838397,18.179201 180.33441,18.179201 Z M179.11761,21.9700012 C177.464002,21.9700012 175.966416,22.3521975 174.62481,23.1166013 C173.283203,23.8810051 172.238013,24.9807942 171.489209,26.4160015 C170.740406,27.8512087 170.366009,29.5047923 170.366009,31.3768017 C170.366009,33.2488112 170.740406,34.8945948 171.489209,36.314202 C172.238013,37.7338092 173.283203,38.8335982 174.62481,39.6136022 C175.966416,40.3936061 177.464002,40.7836022 179.11761,40.7836022 C181.769623,40.7836022 183.883402,39.9490105 185.45901,38.2798021 C187.034618,36.6105937 187.82241,34.3096166 187.82241,31.3768017 C187.82241,28.4439869 187.034618,26.1430098 185.45901,24.4738013 C183.883402,22.8045929 181.769623,21.9700012 179.11761,21.9700012 Z M208.227212,18.179201 C210.723225,18.179201 212.837003,18.8031948 214.568612,20.0512011 C216.300221,21.2992074 217.509208,22.9683909 218.195612,25.0588014 L218.195612,18.506801 L222.454412,18.506801 L222.454412,44.2000024 L218.195612,44.2000024 L218.195612,37.6480021 C217.509208,39.7384126 216.300221,41.407596 214.568612,42.6556023 C212.837003,43.9036087 210.723225,44.5276024 208.227212,44.5276024 C205.9496,44.5276024 203.92162,43.9972078 202.143211,42.9364024 C200.364802,41.875597 198.968616,40.3546121 197.954611,38.3734021 C196.940606,36.3921921 196.433611,34.0600153 196.433611,31.3768017 C196.433611,28.6935882 196.940606,26.3536115 197.954611,24.3568013 C198.968616,22.3599912 200.364802,20.8312065 202.143211,19.7704011 C203.92162,18.7095957 205.9496,18.179201 208.227212,18.179201 Z M209.444012,21.9700012 C206.823198,21.9700012 204.725019,22.8045929 203.149411,24.4738013 C201.573803,26.1430098 200.786011,28.4439869 200.786011,31.3768017 C200.786011,34.3096166 201.573803,36.6105937 203.149411,38.2798021 C204.725019,39.9490105 206.823198,40.7836022 209.444012,40.7836022 C211.128819,40.7836022 212.634205,40.3936061 213.960212,39.6136022 C215.286218,38.8335982 216.323608,37.7338092 217.072412,36.314202 C217.821216,34.8945948 218.195612,33.2488112 218.195612,31.3768017 C218.195612,29.5047923 217.821216,27.8512087 217.072412,26.4160015 C216.323608,24.9807942 215.286218,23.8810051 213.960212,23.1166013 C212.634205,22.3521975 211.128819,21.9700012 209.444012,21.9700012 Z M241.502013,40.4560022 L241.502013,44.2000024 L238.319613,44.2000024 C235.6988,44.2000024 233.741019,43.5760086 232.446213,42.3280023 C231.151406,41.079996 230.504013,38.9896168 230.504013,36.056802 L230.504013,22.2040012 L226.666413,22.2040012 L226.666413,18.506801 L230.504013,18.506801 L230.504013,12.0952007 L234.809613,12.0952007 L234.809613,18.506801 L241.455213,18.506801 L241.455213,22.2040012 L234.809613,22.2040012 L234.809613,36.150402 C234.809613,37.8040104 235.11381,38.9349992 235.722213,39.5434022 C236.330616,40.1518052 237.383605,40.4560022 238.881213,40.4560022 L241.502013,40.4560022 Z" id="fishbat"></path>
            <path d="M47.5035584,4.44785024 C46.7665737,3.0600386 46.0773996,1.64097515 45.0628794,0.418682339 C44.5637822,-0.183204278 44.1894591,-0.162369736 43.9900536,0.652492136 C43.4874579,2.70122158 42.9860284,4.74879354 42.4776021,6.79520804 C42.0006611,8.7200877 42.5184162,10.4296772 43.7953122,11.8603154 C44.6652342,12.8360662 44.1661369,13.182151 43.2903844,13.5178186 C41.9493521,14.0305797 40.7867352,13.518976 39.6147896,12.9263492 C36.5758934,11.3903808 33.5801437,9.75718473 30.3173535,8.70272568 C25.6587236,7.19453665 20.8893127,6.78710571 16.1094068,7.78484853 C9.4718794,9.17034519 5.24704426,13.5490703 2.49034808,19.4452442 C1.02454136,22.5796845 0.111473208,25.9016356 0.0843309552,29.3972079 C0.0624963726,32.3973812 1.18546525,34.9426671 3.35094105,37.0307506 C6.79681127,40.3538593 11.1662447,41.6849547 15.6884392,42.7428862 C19.4841439,43.6318264 23.2541942,43.4107487 27.0265766,42.6989021 C28.2486653,42.4685647 29.4136143,42.1190074 30.311523,43.4327408 C30.555241,43.7892428 31.1441291,43.9130925 31.5767578,44.1434299 C32.8268333,44.3807122 33.9346427,43.8123923 35.092595,43.5322835 C37.2790608,42.4118484 39.6077928,41.5692072 41.6776472,40.2242221 C42.1196049,39.9371686 42.7737955,39.6535873 42.7166558,39.081795 C42.6571839,38.4799084 41.9260297,38.4532865 41.4374275,38.2680907 C39.8270225,37.6557867 38.211953,37.0562151 36.4511191,36.3964547 C38.7425354,33.6509258 40.6537981,30.7630275 42.2280535,27.6563666 C44.2022865,23.7626232 45.8196881,19.7126208 47.6003459,15.7343817 C47.9595094,14.9299371 48.1857358,14.3616173 49.3390236,14.6752927 C50.8164915,15.0746214 51.9682995,14.1324374 52.7216099,12.9263492 C53.8958878,11.046611 54.8006387,9.20284351 55.6204176,7.15874393 C55.775511,6.77214753 56.6162742,5.35762501 55.915913,4.67240024 C54.3217632,4.09436199 52.7813954,5.35762501 51.2829376,5.88774822 C48.745471,6.78479076 48.7792884,6.84960932 47.5035584,4.44785024 Z" id="Fill-1"></path>
        </g>
    </g>
</svg>