<?xml version="1.0" encoding="UTF-8"?>
<svg width="300px" height="200px" viewBox="0 0 300 200" version="1.1" xmlns="http://www.w3.org/2000/svg" xmlns:xlink="http://www.w3.org/1999/xlink">
    <title>GA</title>
    <g id="GA" stroke="none" stroke-width="1" fill="none" fill-rule="evenodd">
        <rect fill="#FFFFFF" x="0" y="0" width="300" height="200"></rect>
        <g id="google-analytics" transform="translate(54.000000, 64.000000)" fill="#222222" stroke-linecap="round" stroke-linejoin="round">
            <g id="Group" transform="translate(0.880000, 0.880000)">
                <g transform="translate(60.940001, 0.000000)" id="Shape">
                    <path d="M11.2059202,43.2608009 L15.4088003,54.2960012 L7.26528016,54.2960012 L11.2076802,43.2608009 L11.2059202,43.2608009 Z M9.62896021,39.5648009 L0.434720009,63.7296014 L3.84912008,63.7296014 L6.21280013,57.1648012 L16.4560004,57.1648012 L18.8196804,63.7296014 L22.2340805,63.7296014 L13.0398403,39.5648009 L9.62544021,39.5648009 L9.62896021,39.5648009 Z M59.2609613,63.7507214 L62.4289614,63.7507214 L62.4289614,39.5824009 L59.2609613,39.5824009 L59.2609613,63.7472014 L59.2609613,63.7507214 Z M26.9649606,49.5475211 C28.0156806,47.970561 30.1329607,46.657601 32.2185607,46.657601 C36.4214408,46.657601 38.5228808,49.5475211 38.5228808,53.7504012 L38.5228808,63.9936014 L35.3548808,63.9936014 L35.3548808,54.2784012 C35.3548808,50.8640011 33.5156807,49.5492811 31.1520007,49.5492811 C28.5243206,49.5492811 26.6868806,52.1769611 26.6868806,54.5406412 L26.6868806,63.7348814 L23.5188805,63.7348814 L23.5188805,46.944481 L26.6868806,46.944481 L26.9508806,49.5721611 L26.9649606,49.5475211 Z M41.1505609,58.7593613 C41.1505609,55.0633612 44.564961,52.9795211 48.5073611,52.9795211 C50.8710411,52.9795211 52.4497611,53.5075212 52.9724811,54.0302412 L52.9724811,53.5022412 C52.9724811,50.8745611 50.8710411,49.5598411 48.7696011,49.5598411 C46.930401,49.5598411 45.355201,50.3483211 44.827201,51.9235211 L41.9372809,50.6105611 C42.4652809,49.0336011 44.564961,46.668161 48.7660811,46.668161 C52.7084811,46.668161 56.1228812,49.0318411 56.1228812,53.7609612 L56.1228812,63.7436814 L53.2312012,63.7436814 L53.2312012,61.3800013 L52.9672011,61.3800013 C52.1787211,62.6929614 50.3395211,64.2699214 47.451361,64.2699214 C44.036961,64.2699214 41.1470409,62.1684813 41.1470409,58.7540813 M52.9672011,56.6720012 C52.9672011,56.6720012 51.6542411,55.6212812 49.0248011,55.6212812 C45.856801,55.6212812 44.559681,57.4604812 44.559681,58.7892813 C44.559681,60.6284813 46.398881,61.4169613 47.974081,61.4169613 C50.3377611,61.4169613 52.9654411,59.3155213 52.9654411,56.6878412"></path>
                    <path d="M66.8958414,71.1092815 L70.5918415,62.4412814 L64.0270414,47.204961 L67.1950415,47.204961 L72.1864016,58.7628813 L77.1777617,47.204961 L80.3457617,47.204961 L70.1025615,71.1092815 L66.9345615,71.1092815 L66.8958414,71.1092815 Z M113.131042,52.7172811 C112.342562,50.6158411 110.503362,49.3028811 108.665922,49.3028811 C106.038242,49.3028811 103.674562,51.6665611 103.674562,55.0827212 C103.674562,58.4988813 106.038242,60.8625613 108.665922,60.8625613 C110.505122,60.8625613 112.361922,59.5496013 113.131042,57.6945613 L115.758723,59.2715213 C114.445762,62.1614413 111.816322,64.0006414 108.665922,64.0006414 C104.200802,64.0006414 100.522402,60.0582413 100.522402,55.0686412 C100.522402,49.8150411 104.218402,46.136641 108.665922,46.136641 C111.833922,46.136641 114.445762,47.975841 115.758723,50.8657611 L113.131042,52.7049611 L113.131042,52.7172811 Z"></path>
                    <path d="M124.423203,64.2752014 C128.626083,64.2752014 130.727523,61.9115213 130.727523,59.0216013 C130.727523,52.7172811 121.533283,55.0792012 121.533283,51.4043211 C121.533283,50.0913611 122.584003,49.3028811 124.423203,49.3028811 C126.262403,49.3028811 128.119203,50.0913611 128.888323,51.4043211 L130.727523,49.5651211 C129.676803,48.252161 126.785123,46.397121 124.162723,46.397121 C120.220323,46.397121 118.120643,48.7608011 118.120643,51.6507211 C118.120643,57.6928013 127.577123,55.5931212 127.577123,58.7435213 C127.577123,60.3204813 126.526403,61.3712013 124.409123,61.3712013 C122.291843,61.3712013 121.241123,60.0582413 120.206243,58.7435213 L117.872483,60.6003213 C119.449443,62.1772813 121.814883,64.2963214 124.437283,64.2963214 L124.423203,64.2752014 Z M94.476802,63.7507214 L97.6448021,63.7507214 L97.6448021,46.939201 L94.476802,46.939201 L94.476802,63.7507214 Z"></path>
                    <path d="M16.4067204,12.8656003 L16.4067204,16.8080004 L25.6009606,16.8080004 C25.3369605,18.9094404 24.5502405,20.5040004 23.4995205,21.5371205 C22.1865605,22.8500805 20.0851204,24.4270405 16.4067204,24.4270405 C10.8908802,24.4270405 6.42400014,19.9619204 6.42400014,14.1838403 C6.42400014,8.66800019 10.8891202,3.94064009 16.4067204,3.94064009 C19.5747204,3.94064009 21.6603205,5.25360011 23.2355205,6.56832014 L25.8632006,3.94240009 C23.4995205,1.84096004 20.6096004,0 16.4067204,0 C8.78944019,0 2.22112005,6.30432014 2.22112005,13.9040003 C2.22112005,21.5036805 8.78592019,27.8080006 16.4067204,27.8080006 C20.6096004,27.8080006 23.7635205,26.4950406 26.1254406,23.8656005 C28.7531206,21.2379205 29.5398406,17.8235204 29.5398406,14.9336003 C29.5398406,14.1451203 29.5398406,13.0944003 29.2758406,12.5699203 L16.4049604,12.5699203 L16.4067204,12.8656003 Z M39.7830409,9.69760021 C34.7916808,9.69760021 30.8510407,13.3936003 30.8510407,18.6296004 C30.8510407,23.8656005 34.7934408,27.5616006 39.7830409,27.5616006 C42.1584347,27.5829484 44.4427485,26.6487579 46.1224734,24.9690329 C47.8021983,23.289308 48.7363889,21.0049942 48.7150411,18.6296004 C48.7150411,13.3760003 44.772641,9.69760021 39.7830409,9.69760021 L39.7830409,9.69760021 Z M39.7830409,24.1296005 C37.1553608,24.1296005 34.7916808,21.7659205 34.7916808,18.6137604 C34.7916808,15.4616003 37.1553608,13.1155203 39.7830409,13.1155203 C42.4107209,13.1155203 44.776161,15.2275203 44.776161,18.6243204 C44.776161,22.0211205 42.4124809,24.1401605 39.7848009,24.1401605 L39.7830409,24.1296005 Z M82.8520018,11.5368003 C81.8012818,10.4860802 80.2243217,9.4353602 77.8606417,9.4353602 C73.3955216,9.4353602 69.4548815,13.3777603 69.4548815,18.3673604 C69.4548815,23.3569605 73.3972816,27.2993606 77.8606417,27.2993606 C79.9620817,27.2993606 81.8030418,26.2486406 82.5897618,25.1979205 L82.8537618,25.1979205 L82.8537618,26.5108806 C82.8537618,29.9252806 81.0145618,31.7644807 78.1246417,31.7644807 C75.7609616,31.7644807 74.1822416,29.9252806 73.6595216,28.5964806 L70.2451215,29.9094406 C71.2958415,32.2731207 73.9411216,35.1630408 78.1264017,35.1630408 C82.8555218,35.1630408 86.7944019,32.5353607 86.7944019,25.7065606 L86.7944019,9.4212802 L83.0984018,9.4212802 L83.0984018,11.5227202 L82.8520018,11.5368003 Z M78.3868817,24.1454405 C75.7592016,24.1454405 73.6577616,21.7817605 73.6577616,18.6296004 C73.6577616,15.4774403 75.7592016,13.1120003 78.3851217,13.1120003 C81.0110418,13.1120003 83.1142418,15.4756803 83.1142418,18.6278404 C83.1142418,21.7800005 81.0128018,24.1436805 78.3851217,24.1436805 L78.3868817,24.1454405 Z M59.2081613,9.71344021 C54.2168012,9.71344021 50.2761611,13.4094403 50.2761611,18.6454404 C50.2761611,23.8814405 54.2185612,27.5774406 59.2081613,27.5774406 C61.5835551,27.5987884 63.8678689,26.6645979 65.5475938,24.9848729 C67.2273187,23.305148 68.1615093,21.0208342 68.1401615,18.6454404 C68.4200015,13.3936003 64.1960014,9.71520021 59.2064013,9.71520021 L59.2081613,9.71344021 Z M59.2081613,24.1454405 C56.5804812,24.1454405 54.2168012,21.7817605 54.2168012,18.6296004 C54.2168012,15.4774403 56.5804812,13.1137603 59.2081613,13.1137603 C61.8358413,13.1137603 64.1960014,15.2152003 64.1960014,18.6296004 C64.1960014,22.0440005 61.8323213,24.1454405 59.2046413,24.1454405 L59.2081613,24.1454405 Z M89.7160019,0.258720006 L93.658402,0.258720006 L93.658402,27.5792006 L89.7160019,27.5792006 L89.7160019,0.258720006 Z M104.426082,24.1630405 C102.324642,24.1630405 101.011682,23.1123205 99.9609622,21.5353605 L112.043362,16.5440004 L111.515362,15.4932803 C110.726882,13.3918403 108.347362,9.71344021 103.898082,9.71344021 C99.1689621,9.71344021 95.4923221,13.4094403 95.4923221,18.6454404 C95.4709742,21.0208342 96.4051648,23.305148 98.0848897,24.9848729 C99.7646146,26.6645979 102.048928,27.5987884 104.424322,27.5774406 C108.627202,27.5774406 110.989122,24.9497605 112.041602,23.6350405 L108.873602,21.5336005 C107.822882,23.1105605 106.509922,24.1612805 104.408482,24.1612805 L104.426082,24.1630405 Z M104.162082,13.1278403 C105.739042,13.1278403 107.052002,13.9163203 107.576482,15.2292803 L99.4329622,18.6436804 C99.4329622,14.7012803 102.060642,13.1278403 104.162082,13.1278403 Z"></path>
                </g>
                <path d="M38.4524808,8.84400019 L38.4524808,54.9859212 C38.4524808,60.1497613 42.0182409,63.0256014 45.791681,63.0256014 C49.2870411,63.0256014 53.1308812,60.5616013 53.1308812,54.9859212 L53.1308812,9.1942402 C53.1308812,4.4598401 49.6355211,1.50304003 45.791681,1.50304003 C41.9478409,1.50304003 38.4524808,4.7643201 38.4524808,8.84224019 L38.4524808,8.84400019 Z" id="Path" fill-rule="nonzero"></path>
                <path d="M19.2262404,32.2643207 L19.2262404,54.9683212 C19.2262404,60.1321613 22.7920005,63.0080014 26.5654406,63.0080014 C30.0608007,63.0080014 33.9046407,60.5440013 33.9046407,54.9683212 L33.9046407,32.6128007 C33.9046407,27.8608006 30.4092807,24.9216005 26.5654406,24.9216005 C22.7216005,24.9216005 19.2262404,28.1828806 19.2262404,32.2608007 L19.2262404,32.2643207 Z M-2.5701098e-05,55.6864012 C-0.00515918659,53.7378805 0.766604331,51.8676795 2.14442137,50.4898624 C3.52223842,49.1120454 5.39243944,48.3402819 7.34096016,48.3454153 C11.3952605,48.3454153 14.6819203,51.6321009 14.6819203,55.6864012 C14.6819203,59.7407016 11.3952605,63.0273871 7.34096016,63.0273871 C5.39243944,63.0325206 3.52223842,62.260757 2.14442137,60.88294 C0.766604331,59.505123 -0.00515918659,57.6349219 -2.5701098e-05,55.6864012 L-2.5701098e-05,55.6864012 Z" id="Shape" fill-rule="nonzero"></path>
            </g>
            <g id="Shape" transform="translate(143.000003, 39.820001)">
                <path d="M14.8315203,0.093280002 C16.1444803,0.093280002 16.9329604,1.14400002 16.9329604,2.19472005 C16.9329604,3.50768008 15.8822403,4.29616009 14.8315203,4.29616009 C13.7808003,4.29616009 12.7300803,3.24544007 12.7300803,2.19472005 C12.7300803,1.14400002 13.7808003,0.093280002 14.8315203,0.093280002 Z M10.3664002,22.4224005 L10.8944002,24.7860805 L7.72640017,24.7860805 C4.8364801,24.7860805 3.52352008,22.6846405 3.52352008,19.5324804 L3.52352008,11.3572802 L0.355520008,11.3572802 L0.355520008,8.18928018 L3.52352008,8.18928018 L3.52352008,3.22960007 L6.69152015,3.22960007 L6.69152015,8.22096018 L10.3875202,8.22096018 L10.3875202,11.3889602 L6.69152015,11.3889602 L6.69152015,20.0569604 C6.69152015,22.4206405 8.53072018,22.4206405 10.3875202,22.4206405 L10.3664002,22.4224005 Z"></path>
            </g>
        </g>
    </g>
</svg>