<?xml version="1.0" encoding="UTF-8"?>
<svg width="300px" height="200px" viewBox="0 0 300 200" version="1.1" xmlns="http://www.w3.org/2000/svg" xmlns:xlink="http://www.w3.org/1999/xlink">
    <title>Hotjar</title>
    <g id="Hotjar" stroke="none" stroke-width="1" fill="none" fill-rule="evenodd">
        <rect fill="#FFFFFF" x="0" y="0" width="300" height="200"></rect>
        <g id="hotjar-2" transform="translate(59.000000, 56.000000)" fill="#222222" fill-rule="nonzero">
            <path d="M11.203254,34.1454968 C14.4514344,32.5439889 18.0473312,31.7858283 21.6601898,31.9306455 C28.6484421,32.169168 32.4902846,35.7384859 32.6429406,42.723786 C32.8125584,50.0413137 32.7616731,57.2992109 32.7362304,64.60822 C32.7362304,67.5812318 31.9559887,68.2712432 29.030082,68.2712432 L24.9762172,68.2712432 C22.3895462,68.2712432 21.5838618,67.4790079 21.5329764,64.8637797 L21.5329764,45.2708649 C21.5329764,42.2382224 20.1081871,40.9944983 17.0550672,41.1137595 C16.5207712,41.1222782 15.9949561,41.1733901 15.469141,41.2670954 C11.4661615,42.0848866 11.2371775,42.374521 11.2371775,46.4719958 L11.2371775,63.9352459 C11.2371775,67.6664184 10.6011109,68.2967991 6.93736696,68.2967991 L2.87502127,68.2967991 C0.966821313,68.2967991 0.127213331,67.3938213 0,65.4174925 L0,19.2804375 C0,15.9070487 0.712394651,15.2 4.01994125,15.2 L7.59887628,15.2 C10.3721269,15.2 11.2286966,15.9837166 11.279582,18.7948739 C11.35591,23.01161 11.279582,27.228346 11.279582,31.4365633 C11.203254,32.2117613 11.203254,33.0465898 11.203254,34.1454968 Z M70.9680767,51.2424446 C70.7221309,53.1846988 70.5864367,55.6721471 70.0691025,58.0999648 C69.2634181,63.5689436 65.0314546,67.8964222 59.6036858,68.7994 C55.8890566,69.6001539 52.047214,69.549042 48.3580274,68.6545828 C43.6850577,67.751605 39.9534667,64.1993244 38.8170276,59.5566554 C37.1293308,53.7043369 37.1293308,47.4857162 38.8170276,41.624879 C40.6064951,35.4744075 45.2879457,32.1776866 52.1489847,31.9391642 C54.6254042,31.8028656 57.1018237,31.9647202 59.5443196,32.3991717 C66.0152377,33.7025265 69.6874625,38.106673 70.5185896,45.3049395 C70.7221309,47.1279325 70.7814972,48.8912948 70.9680767,51.2424446 Z M59.6630521,51.3872618 C59.5358387,49.385377 59.4679916,48.013873 59.3407783,46.6679249 C59.2644503,45.9608763 59.1202752,45.2623463 58.908253,44.5808536 C58.5011703,42.3148904 56.4403144,40.7219012 54.1589553,40.900793 C51.9284816,40.7304199 49.9269918,42.2808157 49.5283901,44.495667 C48.5106834,48.5420298 48.5106834,52.7758032 49.5283901,56.8136473 C49.9439536,59.0625732 52.0302522,60.6044504 54.2946495,60.3488907 C56.4403144,60.4937079 58.3569952,59.0199799 58.7725587,56.8988339 C59.1711605,55.075841 59.4679916,53.2358107 59.6715329,51.3787431 L59.6715329,51.3872618 L59.6630521,51.3872618 Z M142.57222,45.7905031 C143.064112,42.0337746 142.232985,40.8752371 138.628607,41.0456102 C135.685738,41.2926513 132.768313,41.7271029 129.884811,42.348965 C127.442315,42.7919353 125.652847,42.1700732 125.313612,40.2618936 C124.762354,37.1185086 124.974376,34.4180938 127.484719,33.6599332 C133.294128,31.743235 139.5191,31.4280447 145.489646,32.7569554 C150.917415,34.0603102 153.54649,37.6637028 153.54649,43.5500959 L153.54649,64.3782162 C153.54649,65.954168 153.54649,67.5727132 151.680695,68.1860566 C149.611358,68.9442172 147.279113,68.3053178 145.888248,66.5845488 L145.311547,65.7497202 C142.139695,68.2967991 138.136715,69.5831166 134.07437,69.3445942 C125.254245,69.0208851 120.191155,60.5788944 124.024516,52.5457994 C125.813984,48.7209217 129.392919,47.5197908 133.090586,46.9234847 C136.279401,46.4464398 139.442772,46.1482867 142.57222,45.7905031 L142.57222,45.7905031 Z M142.741838,51.9239373 C140.604654,52.2476463 138.721897,52.4265381 136.898506,52.8269151 C134.990306,53.0739562 133.557035,54.6839827 133.514631,56.6091995 C133.116029,58.542935 134.133736,60.5022265 135.948646,61.2689058 C137.738114,61.9674358 141.546033,61.2689058 142.419564,60.042219 C142.589182,59.8036965 142.682472,59.5225808 142.690953,59.2329464 C142.741838,56.8647593 142.741838,54.5136095 142.741838,51.8983813 L142.741838,51.9239373 Z M78.6348001,33.191407 L78.6348001,28.5402194 C78.4736632,27.1176034 79.3895992,25.7886927 80.7719841,25.4479463 C82.5953751,24.8346029 84.4526898,24.3149647 86.335447,23.8805131 C87.6923892,23.4290242 89.159583,24.1616289 89.6090701,25.5246142 C89.7278025,25.8909166 89.770207,26.2742562 89.7193216,26.6575958 C89.7786879,28.6594806 89.7193216,30.6528467 89.7193216,32.8762166 L95.028358,32.8762166 C97.615029,32.9358472 98.5055223,33.7791944 98.607293,36.4710906 C98.7514681,41.9400694 98.454637,42.2467411 93.0777536,42.2467411 L89.9567865,42.2467411 C89.8719776,42.7323046 89.8126114,43.2263868 89.7871688,43.720469 L89.7871688,55.2547328 C89.7871688,58.8496067 90.8642416,59.9485137 94.341406,60.2040735 C97.3945259,60.4255586 98.225653,61.1070513 98.225653,63.6030183 C98.3359046,67.5897505 97.5302201,68.9356985 94.341406,69.123109 C91.8141012,69.3105195 89.2698345,69.1827396 86.7764533,68.7397694 C81.5946303,67.6834557 78.8044179,64.3100669 78.6263192,58.8070135 C78.4736632,54.00249 78.566953,49.1979665 78.5499912,44.4189991 L78.5499912,42.2637784 L75.4205433,42.2637784 C73.9448686,42.3830396 72.6557736,41.2841327 72.5285602,39.8018861 L72.5285602,39.554845 C72.0960349,35.8747845 72.7490633,34.8951387 76.2347086,33.9069743 L78.6348001,33.191407 Z M117.57056,55.5528859 C117.57056,61.7800253 117.689293,68.0156834 117.57056,74.2428229 C117.536637,81.4325707 111.718747,87.2337773 104.560877,87.199852 C103.882406,87.199852 103.203935,87.140072 102.525464,87.0293294 C100.032082,86.7141391 99.141589,85.7259747 99.1076654,83.1277838 L99.1076654,80.8192273 C99.217917,78.6469694 99.8879072,77.8888088 102.033572,77.4884318 C105.3496,76.8665697 106.426672,75.6143269 106.435153,72.1387142 L106.435153,36.7010943 C106.435153,33.6940079 107.198433,32.8932539 110.192187,32.7995487 L114.263014,32.7995487 C116.671586,32.9102913 117.579041,33.7877131 117.596003,36.2240495 L117.596003,55.4336246 L117.57056,55.5528859 Z M167.57388,35.3466276 C170.508267,33.2340003 174.002394,32.0499067 177.606771,31.9391642 C181.185706,31.9391642 182.008353,32.6973248 181.999936,36.2581241 L181.999936,37.8596319 C181.999936,40.1596697 181.050012,40.977461 178.811058,41.2159834 C176.707797,41.4715432 174.613018,41.8463641 172.543681,42.323409 C171.152815,42.6215621 170.627,43.4649093 170.652443,45.0238238 C170.762694,51.5235603 170.652443,57.9721849 170.652443,64.4378468 C170.652443,67.6153065 169.965491,68.2797618 166.768196,68.3393924 L162.154592,68.3393924 C160.831573,68.450135 159.669692,67.4534519 159.55944,66.1245412 C159.542478,65.9626867 159.550959,65.8008322 159.567921,65.6389777 L159.567921,35.7299673 C159.46615,34.4010565 160.458414,33.2340003 161.781433,33.1317764 L161.789914,33.1317764 L161.900165,33.1317764 C164.13912,32.7484367 166.488326,32.3991717 167.57388,35.3466276 L167.57388,35.3466276 Z" id="Shape"></path>
            <path d="M116.625425,26.8236167 C118.674343,19.5119629 117.937075,15.8262751 114.345039,15.1181453 C114.893703,17.6008655 115.510951,20.1518393 112.88765,21.8752396 C111.515989,22.7795981 110.427234,22.4297991 107.992536,20.5698918 C106.869489,22.864915 107.246696,25.1514065 107.769641,27.6 C104.28048,26.9942504 101.528586,25.5523957 100.251227,22.1994436 C98.9310036,19.1451005 99.6596983,15.6044513 102.060104,13.3008964 C102.900246,12.447728 103.808971,11.6713447 104.777707,10.9717465 C108.704085,8.03684699 109.467071,5.1872643 107.392435,0.776383308 C107.298133,0.520432767 107.220977,0.264482226 107.16954,0 C111.533135,0.656939722 115.665262,2.40593509 119.180143,5.06782071 C126.835723,11.2959505 125.909852,22.4980526 117.456994,26.6103246 C117.165516,26.6273879 116.891184,26.6956414 116.625425,26.8236167 L116.625425,26.8236167 Z" id="Path"></path>
        </g>
    </g>
</svg>