<?xml version="1.0" encoding="UTF-8"?>
<svg width="300px" height="200px" viewBox="0 0 300 200" version="1.1" xmlns="http://www.w3.org/2000/svg" xmlns:xlink="http://www.w3.org/1999/xlink">
    <title>Hubspot</title>
    <g id="Hubspot" stroke="none" stroke-width="1" fill="none" fill-rule="evenodd">
        <rect fill="#FFFFFF" x="0" y="0" width="300" height="200"></rect>
        <g id="hubspot" transform="translate(30.000000, 65.000000)" fill="#222222" fill-rule="nonzero">
            <path d="M0.0281137545,12.9693435 L8.39289284,12.9693435 L8.39289284,31.5534724 L26.0347424,31.5534724 L26.0347424,12.9693435 L34.4102984,12.9693435 L34.4102984,58.5876587 L26.0347424,58.5876587 L26.0347424,39.6132172 L8.39289284,39.6132172 L8.39289284,58.5876587 L0.0281137545,58.5876587 L0.0281137545,12.9693435 Z M60.9098548,43.7290709 C60.9098548,47.5478559 57.7985993,50.6553629 53.9807514,50.6553629 C50.1614979,50.6553629 47.0521167,47.5478559 47.0521167,43.7290709 L47.0521167,24.088802 L39.1193523,24.088802 L39.1193523,43.7290709 C39.1193523,51.9228246 45.7865291,58.5876587 53.9807514,58.5876587 C62.1730995,58.5876587 68.8398078,51.9228246 68.8398078,43.7290709 L68.8398078,24.088802 L60.9098548,24.088802 L60.9098548,43.7290709 M90.9850122,24.3188662 C87.0500237,24.3188662 84.3033099,25.4607532 81.6507772,28.0645554 L81.6507772,12.9693435 L73.6922419,12.9693435 L73.6922419,40.9448721 C73.6922419,51.4163085 81.2632759,58.5876587 89.7690924,58.5876587 C99.2251537,58.5876587 107.510277,51.2883909 107.510277,41.453731 C107.510277,31.7437088 99.8703644,24.3188662 90.9850122,24.3188662 L90.9850122,24.3188662 Z M91.1827457,51.2251349 C85.790059,51.2251349 81.6662398,46.7213115 81.6662398,41.453731 C81.6662398,36.1852134 85.790059,31.6799843 91.1827457,31.6799843 C95.7521679,31.6799843 99.8783299,36.1852134 99.8783299,41.453731 C99.8783299,46.7213115 95.7521679,51.2251349 91.1827457,51.2251349 L91.1827457,51.2251349 Z M120.876962,26.3238455 C120.876962,22.3232582 123.542614,21.0548593 126.460822,21.0548593 C128.810195,21.0548593 131.919107,22.8316486 133.947983,24.9898478 L139.150434,18.8980658 C136.55038,15.4082117 131.284205,12.9960516 126.968744,12.9960516 C118.337353,12.9960516 112.118122,18.0096711 112.118122,26.3238455 C112.118122,41.7442398 131.0935,36.856195 131.0935,45.4889919 C131.0935,48.1513645 128.492509,50.5016743 125.511514,50.5016743 C120.813706,50.5016743 119.28994,48.2169632 117.133147,45.8048031 L111.357176,51.7691361 C115.040078,56.2753024 119.607626,58.5609506 125.065911,58.5609506 C133.251699,58.5609506 139.851872,53.4840751 139.851872,45.5503736 C139.851872,28.4169145 120.876962,33.7482195 120.876962,26.3238455 M160.803179,23.8718575 C152.298299,23.8718575 144.726328,31.0389907 144.726328,41.5127699 L144.726328,69.5604571 L152.684395,69.5604571 L152.684395,54.3935551 C155.337396,56.9954831 158.082704,58.1392443 162.019099,58.1392443 C170.903982,58.1392443 178.544832,50.7153389 178.544832,41.0053166 C178.544832,31.169251 170.257366,23.8718575 160.803179,23.8718575 L160.803179,23.8718575 Z M162.217301,50.7790634 C156.825082,50.7790634 152.700795,46.2691486 152.700795,41.0053166 C152.700795,35.736799 156.825082,31.2315699 162.217301,31.2315699 C166.785786,31.2315699 170.912416,35.736799 170.912416,41.0053166 C170.912416,46.2691486 166.785786,50.7790634 162.217301,50.7790634 L162.217301,50.7790634 Z M237.124994,51.2251349 C232.430934,51.2251349 231.098342,49.1953219 231.098342,46.0845349 L231.098342,32.314418 L238.394798,32.314418 L238.394798,25.3347099 L231.098342,25.3347099 L231.098342,16.1321409 L223.041408,19.7485068 L223.041408,47.7980683 C223.041408,54.969887 227.989429,58.5876587 234.776558,58.5876587 C235.791933,58.5876587 237.189655,58.5220599 237.952007,58.3341663 L239.919501,51.1004973 C239.031106,51.161879 238.0162,51.2251349 237.124994,51.2251349" id="Shape"></path>
            <path d="M216.137607,32.7201932 C214.611968,30.0953056 212.465951,27.9909911 209.782962,26.406781 C207.777983,25.2395917 205.69897,24.4987942 203.356158,24.1806402 L203.356158,15.8402264 C205.69897,14.8454681 207.15292,12.6436925 207.15292,10.0750325 C207.15292,6.57393293 204.345293,3.73678654 200.847005,3.73678654 C197.345905,3.73678654 194.489079,6.57393293 194.489079,10.0750325 C194.489079,12.6436925 195.859156,14.8454681 198.201969,15.8402264 L198.201969,24.1843887 C196.327719,24.4552179 194.384121,25.0395154 192.609206,25.9372813 C188.983938,23.1840076 177.096505,14.1515269 170.142568,8.87598086 C170.307502,8.28137495 170.434482,7.6684951 170.434482,7.02187875 C170.434482,3.14405488 167.294176,0.00093712515 163.414947,0.00093712515 C159.535717,0.00093712515 156.396816,3.14405488 156.396816,7.02187875 C156.396816,10.8992341 159.538997,14.0432889 163.418226,14.0432889 C164.741447,14.0432889 165.965333,13.6562562 167.021473,13.0199483 L168.489011,14.1332529 L188.65407,28.6624413 C187.58809,29.6412685 186.595206,30.7545732 185.800992,32.003761 C184.19148,34.5503986 183.207967,37.3524028 183.207967,40.4088365 L183.207967,41.0465501 C183.207967,43.1920982 183.615616,45.2176942 184.310026,47.1205268 C184.9215,48.7820497 185.815518,50.2926954 186.922731,51.6585553 L180.230252,58.3674343 C178.249341,57.6301393 176.0203,58.1189673 174.529719,59.6175592 C173.509033,60.6332208 172.937353,62.0151755 172.942229,63.4550867 C172.942698,64.9043508 173.507316,66.2664622 174.532531,67.2912085 C175.547529,68.3126501 176.929138,68.8853396 178.369121,68.881529 C179.809487,68.8851926 181.191479,68.3125544 182.207117,67.2912085 C183.227136,66.2756003 183.799013,64.8944919 183.795544,63.4550867 C183.795544,62.8942173 183.70886,62.3469362 183.5458,61.8268318 L190.46319,54.9085053 C191.41156,55.5635558 192.435838,56.115054 193.53696,56.590645 C195.708748,57.5296444 198.105914,58.1017593 200.729396,58.1017593 L201.210141,58.1017593 C204.110543,58.1017593 206.84648,57.4204693 209.41842,56.0269642 C212.128586,54.554272 214.249769,52.5403901 215.852253,49.9693872 C217.463171,47.391356 218.35016,44.5429641 218.35016,41.4092176 L218.35016,41.2527177 C218.35016,38.1700445 217.636539,35.3258697 216.137607,32.7201932 L216.137607,32.7201932 Z M207.685676,47.2329818 C205.808145,49.319491 203.649946,50.6047581 201.210141,50.6047581 L200.808114,50.6047581 C199.414609,50.6047581 198.051561,50.2195997 196.717094,49.5190986 C195.213009,48.7478446 194.069716,47.6476597 193.133996,46.2546232 C192.166883,44.8873576 191.642093,43.3945172 191.642093,41.8117128 L191.642093,41.3309676 C191.642093,39.7748713 191.940568,38.2993678 192.693079,36.9058627 C193.497601,35.3825657 194.584198,34.1980395 196.029245,33.2562288 C197.448052,32.3209779 198.963383,31.8622551 200.651146,31.8622551 L200.808114,31.8622551 C202.33844,31.8622551 203.787235,32.1640094 205.154501,32.8635733 C206.547537,33.6095249 207.685676,34.6286485 208.567979,35.9692061 C209.42498,37.3102322 209.934776,38.7566848 210.098773,40.3324608 C210.124544,40.659986 210.137664,40.9954768 210.137664,41.3159736 C210.137664,43.4544932 209.320491,45.4351072 207.685676,47.2329818 Z" id="Shape"></path>
        </g>
    </g>
</svg>