<?xml version="1.0" encoding="UTF-8"?>
<svg width="300px" height="200px" viewBox="0 0 300 200" version="1.1" xmlns="http://www.w3.org/2000/svg" xmlns:xlink="http://www.w3.org/1999/xlink">
    <title>Klaviyo</title>
    <g id="Klaviyo" stroke="none" stroke-width="1" fill="none" fill-rule="evenodd">
        <rect fill="#FFFFFF" x="0" y="0" width="300" height="200"></rect>
        <g id="klaviyo-gradient-horiz-RBG-12-17" transform="translate(29.000000, 72.000000)" fill="#222222" fill-rule="nonzero">
            <path d="M1.6666001,25.1766632 L38.5772839,0.699335143 C40.0328068,-0.233111714 42.3031931,-0.233111714 43.758716,0.699335143 L80.6691609,25.1766632 C82.8814792,26.6337011 82.8814792,29.0231859 80.6691609,30.4799846 L75.7204787,33.7435486 C68.4431032,22.2625873 55.635171,14.6862772 41.138727,14.6862772 C26.5839761,14.6862772 13.8341118,22.320955 6.55697537,33.7435486 L1.60829316,30.4799846 C-0.545718213,29.0231859 -0.545718213,26.5755727 1.6666001,25.1766632 Z M41.138966,24.8853034 C30.1356814,24.8853034 20.5296127,30.7132159 15.0571239,39.3384689 L23.5570334,44.9915177 C27.1665676,39.0471092 33.6288407,35.0840904 41.080898,35.0840904 C48.4746484,35.0840904 54.9952284,39.0471092 58.6047626,44.9915177 L67.1046721,39.3384689 C61.8063872,30.7132159 52.1422506,24.8853034 41.138966,24.8853034 Z M41.138966,45.3414843 C37.2964429,45.3414843 33.9198975,47.4977378 32.1150109,50.6448057 L37.8204885,54.3745931 C38.7519658,55.1321763 39.858125,55.5983997 41.138966,55.5983997 C42.419807,55.5983997 43.5842731,55.1321763 44.4574434,54.3745931 L50.1629211,50.6448057 C48.4744094,47.5558662 45.039557,45.3414843 41.138966,45.3414843 Z" id="Shape"></path>
            <path d="M105.224884,27.7589769 L114.465577,40.9804626 L107.956276,40.9804626 L100.982042,30.7163644 C100.982042,34.0798125 100.982042,37.6170145 100.982042,40.9804626 L95.6933995,40.9804626 L95.6933995,14.7693218 L100.982042,14.7693218 C100.982042,18.2486852 100.982042,21.7280486 100.982042,25.207174 L107.607517,14.7693218 L113.709852,14.7693218 L105.224884,27.7589769 Z M123.590335,14.8273984 L118.301692,14.8273984 L118.301692,41.0383013 L131.843194,41.0383013 L131.843194,35.7614175 L123.474161,35.7614175 L123.590335,14.8273984 L123.590335,14.8273984 Z M147.476775,13.8995999 L158.519232,41.0383013 L152.591277,41.0383013 L151.545237,38.1968291 L142.827445,38.1968291 L141.781405,41.0383013 L135.795244,41.0383013 L146.837701,13.8995999 L147.476775,13.8995999 Z M149.62706,33.2676913 L147.244189,26.4829564 L144.803351,33.2676913 L149.62706,33.2676913 Z M165.958161,29.3825053 L160.553105,14.8273984 L154.62515,14.8273984 L165.667607,41.9660998 L166.190746,41.9660998 L177.233204,14.8273984 L171.247042,14.8273984 L165.958161,29.3825053 Z M181.243221,41.0383013 L186.531864,41.0383013 L186.531864,14.8273984 L181.243221,14.8273984 L181.243221,41.0383013 Z M207.512533,14.8273984 L202.165684,23.8735529 L196.818835,14.8273984 L190.425946,14.8273984 L199.550465,29.2085133 L199.550465,41.0383013 L204.781141,41.0383013 L204.781141,29.2085133 L213.963866,14.8273984 L207.512533,14.8273984 L207.512533,14.8273984 Z M241.104599,27.4688316 C241.104599,34.9492963 235.002264,41.0380633 227.504891,41.0380633 C220.007518,41.0380633 213.905183,34.9492963 213.905183,27.4688316 C213.905183,19.9883669 220.007518,13.8995999 227.504891,13.8995999 C235.002264,13.8995999 241.104599,19.9305282 241.104599,27.4688316 Z M235.990336,27.4688316 C235.990336,22.7717624 232.212665,19.0024917 227.505129,19.0024917 C222.797593,19.0024917 219.019923,22.7717624 219.019923,27.4688316 C219.019923,32.1659008 222.797593,35.9351715 227.505129,35.9351715 C232.212665,35.9351715 235.990336,32.1080622 235.990336,27.4688316 Z" id="Shape"></path>
        </g>
    </g>
</svg>