<?xml version="1.0" encoding="UTF-8"?>
<svg width="300px" height="200px" viewBox="0 0 300 200" version="1.1" xmlns="http://www.w3.org/2000/svg" xmlns:xlink="http://www.w3.org/1999/xlink">
    <title>Mailchimp</title>
    <g id="Mailchimp" stroke="none" stroke-width="1" fill="none" fill-rule="evenodd">
        <rect fill="#FFFFFF" x="0" y="0" width="300" height="200"></rect>
        <g id="mailchimp-vector-logo" transform="translate(30.000000, 68.000000)" fill="#222222" fill-rule="nonzero">
            <g id="Group">
                <path d="M45.7237937,30.5490849 C46.1630616,30.5490849 46.6023295,30.5490849 47.0415973,30.5490849 C47.3211314,29.9500832 47.3211314,29.0715474 47.0415973,28.0732113 C46.7620632,26.5956739 46.3227953,25.5973378 45.4442596,25.7171381 C44.5657238,25.8768719 44.5657238,27.0349418 44.8452579,28.5124792 C44.9650582,29.391015 45.2845258,30.109817 45.7237937,30.5490849 L45.7237937,30.5490849 Z" id="Path"></path>
                <g transform="translate(31.946755, 29.550749)" id="Path">
                    <path d="M6.02995008,2.31613977 C6.62895175,2.59567388 7.06821963,2.75540765 7.18801997,2.59567388 C7.34775374,2.4359401 7.18801997,2.31613977 7.02828619,1.99667221 C6.74875208,1.39767055 5.99001664,0.958402662 5.43094842,0.678868552 C3.95341098,0.0798668885 2.35607321,0.239600666 1.03826955,1.27787022 C0.599001664,1.55740433 0.159733777,1.99667221 0.319467554,2.31613977 C0.319467554,2.47587354 0.479201331,2.47587354 0.599001664,2.47587354 C0.878535774,2.47587354 2.19633943,1.87687188 3.67387687,1.75707155 C4.55241265,1.7171381 5.43094842,2.03660566 6.02995008,2.31613977 L6.02995008,2.31613977 Z"></path>
                    <path d="M4.71214642,3.03494176 C3.83361065,3.19467554 3.39434276,3.47420965 3.11480865,3.75374376 C2.83527454,4.03327787 2.67554077,4.19301165 2.67554077,4.35274542 L2.67554077,4.5124792 L2.83527454,4.5124792 C2.99500832,4.5124792 3.43427621,4.35274542 3.43427621,4.35274542 C4.59234609,3.91347754 5.35108153,3.91347754 6.06988353,4.07321131 C6.50915141,4.07321131 6.66888519,4.23294509 6.78868552,4.07321131 C6.78868552,4.07321131 6.78868552,3.91347754 6.78868552,3.7936772 C6.74875208,3.35440932 5.87021631,2.91514143 4.71214642,3.03494176 L4.71214642,3.03494176 Z"></path>
                </g>
                <path d="M37.0981697,33.6239601 C37.3777038,33.0249584 37.3777038,31.7071547 37.0981697,30.7088186 C36.8186356,29.2312812 36.3793677,28.3527454 35.3410982,28.3527454 C34.4625624,28.5124792 34.4625624,29.6705491 34.7420965,31.2678869 C34.9018303,32.3061564 35.3410982,32.8652246 35.4608985,33.3044925 C36.2196339,34.5024958 36.6589018,34.1830283 37.0981697,33.6239601 L37.0981697,33.6239601 Z" id="Path"></path>
                <path d="M43.0881864,35.2212978 C43.687188,35.5008319 44.2462562,35.3810316 44.5657238,34.9417637 C44.7254576,34.5024958 44.40599,33.9034942 43.8469218,33.6239601 C43.2479201,33.344426 42.6888519,33.4642263 42.3693844,33.9034942 C42.0499168,34.3427621 42.4891847,34.9417637 43.0881864,35.2212978 Z" id="Path"></path>
                <path d="M46.7221298,32.0266223 C46.2828619,32.0266223 45.843594,32.4658902 45.843594,33.1846922 C45.843594,33.7836938 46.1231281,34.3427621 46.7221298,34.3427621 C47.1613977,34.3427621 47.6006656,33.9034942 47.6006656,33.1846922 C47.4808652,32.5856905 47.1613977,32.0266223 46.7221298,32.0266223 Z" id="Path"></path>
                <path d="M15.7737105,43.4076539 C15.6139767,43.2479201 15.4941764,43.2479201 15.3344426,43.4076539 C15.1747088,43.4076539 15.0549085,43.4076539 14.8951747,43.4076539 C14.6156406,43.4076539 14.296173,43.2479201 14.1763727,42.968386 C14.0565724,42.6888519 14.0166389,42.249584 14.1763727,41.6505824 L14.3361065,41.3710483 C14.7753744,40.4925125 15.374376,39.1747088 14.6156406,37.8569052 C14.0166389,36.8186356 13.2978369,36.2595674 12.2595674,36.0998336 C11.2212978,35.9400998 10.2229617,36.3793677 9.62396007,37.1381032 C8.58569052,38.296173 8.46589018,39.7737105 8.58569052,40.3327787 C8.58569052,40.4925125 8.74542429,40.6123128 8.86522463,40.6123128 C9.0249584,40.6123128 9.30449251,40.452579 9.46422629,40.0133111 L9.46422629,39.8535774 C9.46422629,39.5740433 9.62396007,39.2545757 9.90349418,38.8153078 C10.1830283,38.3760399 10.6222962,38.0965058 11.0615641,38.0965058 C11.5008319,37.936772 12.0998336,38.0965058 12.5391015,38.3760399 C13.2579035,38.8153078 13.577371,39.6938436 13.2579035,40.5723794 C12.8186356,41.0116473 12.6589018,41.7304493 12.6589018,42.4891847 C12.8186356,43.8069884 13.6971714,44.40599 14.4159734,44.5257903 C15.1347754,44.5257903 15.733777,44.0865225 15.733777,43.8069884 C15.8935108,43.5673877 15.7737105,43.5673877 15.7737105,43.4076539 L15.7737105,43.4076539 Z" id="Path"></path>
                <path d="M58.2628952,40.9317804 C58.2628952,40.7720466 58.1031614,40.2129784 57.8236273,39.3344426 L57.2246256,38.0166389 C58.2628952,36.5391015 58.2628952,35.1014975 58.1031614,34.3826955 C57.9434276,33.5041597 57.5041597,32.625624 56.7853577,31.7470882 C56.0665557,30.8685524 54.3094842,29.9900166 52.1131448,29.391015 L50.9550749,29.1114809 C50.9550749,29.1114809 50.9550749,26.3161398 50.7953411,25.1580699 C50.7953411,24.2795341 50.6356073,22.9617304 50.1963394,21.6439268 C49.7570715,19.8868552 48.8785358,18.2895175 47.7204659,17.2512479 C50.6356073,14.1763727 52.5524126,10.6622296 52.5524126,7.74708819 C52.5524126,2.19633943 45.6838602,0.439267887 37.0582363,3.95341098 L35.3011647,4.67221298 C35.3011647,4.67221298 32.1064892,1.47753744 31.9467554,1.47753744 C22.4825291,-6.98835275 -7.74708819,26.7554077 1.87687188,34.9417637 L3.91347754,36.6988353 C3.31447587,38.1763727 3.19467554,39.7737105 3.31447587,41.530782 C3.59400998,43.7271215 4.79201331,45.9234609 6.50915141,47.6805324 C8.26622296,49.2778702 10.5823627,50.3161398 12.9384359,50.3161398 C16.7321131,59.1014975 25.3577371,64.3327787 35.4209651,64.6522463 C46.2429285,64.9317804 55.4276206,59.8202995 59.2212978,50.7554077 C59.5008319,50.156406 60.5391015,47.2412646 60.5391015,44.6056572 C60.7787022,41.9301165 59.3011647,40.9317804 58.2628952,40.9317804 L58.2628952,40.9317804 Z M13.8569052,47.8003328 C13.577371,47.8003328 13.1381032,47.9600666 12.8186356,47.8003328 C9.62396007,47.640599 5.95008319,44.7254576 5.67054908,41.2113145 C5.39101498,37.4176373 7.26788686,34.5024958 10.78203,33.7437604 C11.2212978,33.5840266 11.6605657,33.5840266 12.2595674,33.5840266 C14.1763727,33.7437604 17.0915141,35.1813644 17.8103161,39.4143095 C18.3693844,43.4076539 17.530782,47.2013311 13.8569052,47.8003328 Z M10.2229617,31.4276206 C8.0266223,31.8668885 6.14975042,33.0249584 4.95174709,34.78203 C4.23294509,34.1830283 2.91514143,33.0249584 2.75540765,32.5856905 C0.838602329,29.0715474 4.79201331,22.0831947 7.58735441,18.249584 C14.296173,8.62562396 24.9584027,1.31780366 29.7903494,2.59567388 C30.6688852,2.87520799 33.3044925,5.95008319 33.3044925,5.95008319 C33.3044925,5.95008319 28.3527454,8.74542429 23.8003328,12.5391015 C17.6505824,17.0915141 12.9783694,23.9600666 10.2229617,31.4276206 Z M44.6855241,46.3227953 L44.8452579,46.1630616 C44.8452579,46.0033278 44.6855241,46.0033278 44.6855241,46.0033278 C44.6855241,46.0033278 39.5740433,46.7221298 34.7420965,44.9650582 C35.3410982,43.2079867 36.6589018,43.8069884 38.8153078,44.0865225 C42.608985,44.3660566 46.1231281,43.8069884 48.5990017,43.0482529 C50.7953411,42.4492512 53.7104825,41.1314476 55.906822,39.4143095 C56.625624,41.0116473 56.9450915,42.9284526 56.9450915,42.9284526 C56.9450915,42.9284526 57.5440932,42.7687188 57.9833611,43.0881864 C58.422629,43.3677205 58.7021631,43.9667221 58.5823627,45.4442596 C58.1430948,48.359401 56.8252912,50.5557404 54.9484193,52.7520799 C53.7903494,54.0698835 52.1530782,55.2279534 50.4359401,56.1064892 C49.5574043,56.5457571 48.5191348,56.985025 47.5207987,57.2645591 C39.6139767,59.7404326 31.7470882,57.1048253 29.2712146,51.1148087 C29.1114809,50.6755408 28.8319468,50.2362729 28.8319468,49.6372712 C27.7936772,45.6838602 28.672213,41.0116473 31.6272879,38.0965058 L31.6272879,38.0965058 C31.7870216,37.936772 31.906822,37.6572379 31.906822,37.3777038 C31.906822,37.0981697 31.7470882,36.9384359 31.6272879,36.7787022 C30.5890183,35.3011647 27.1148087,32.8252912 27.8336106,27.9933444 C28.2728785,24.4792013 31.3477537,22.1630616 34.1031614,22.2828619 L34.8219634,22.2828619 C35.9800333,22.2828619 37.1780366,22.562396 38.0166389,22.562396 C39.6139767,22.562396 41.2113145,22.4026622 42.968386,20.9650582 C43.5673877,20.5257903 44.0066556,20.0865225 44.8851913,19.9267887 C45.0449251,19.9267887 45.1647255,19.7670549 45.6039933,19.9267887 C46.0432612,19.9267887 46.4825291,20.0865225 46.7620632,20.3660566 C48.2396007,21.4043261 48.359401,23.5607321 48.5191348,25.3178037 C48.5191348,26.3560732 48.6788686,28.672213 48.6788686,29.2712146 C48.8386023,30.7487521 49.1181364,31.0282862 49.9966722,31.3078203 C50.4359401,31.4675541 50.875208,31.5873544 51.4742097,31.7470882 C53.391015,32.3460899 54.5490849,32.7853577 55.2678869,33.5041597 C55.7071547,33.9434276 55.8668885,34.3826955 55.9866889,34.8219634 C56.266223,36.4193012 54.6688852,38.4559068 50.7154742,40.3727121 C46.3227953,42.4093178 41.2113145,42.8485857 37.577371,42.4093178 L36.2595674,42.249584 C33.344426,41.8103161 31.7470882,45.6039933 33.4642263,48.0798669 C34.6222962,49.6772047 37.6971714,50.875208 40.6123128,50.875208 C47.640599,50.875208 53.031614,47.9600666 54.9484193,45.3244592 L55.1081531,45.0449251 C55.2678869,44.8851913 55.1081531,44.765391 54.9484193,44.8851913 C53.3510815,46.0432612 46.0432612,50.4359401 38.296173,49.1181364 C38.296173,49.1181364 37.4176373,48.9584027 36.5391015,48.6788686 C35.8202995,48.3993344 34.5024958,47.8003328 34.1830283,46.3227953 C40.7321131,48.2396007 44.6855241,46.3227953 44.6855241,46.3227953 L44.6855241,46.3227953 Z M22.7620632,18.2895175 C25.1181364,15.4941764 28.1530782,13.0183028 30.7886855,11.7004992 C30.9484193,11.7004992 30.9484193,11.7004992 30.9484193,11.8602329 C30.7886855,12.2995008 30.3494176,13.0183028 30.2296173,13.6173045 C30.2296173,13.7770383 30.3893511,13.7770383 30.3893511,13.7770383 C31.9866889,12.6189684 34.9018303,11.4209651 37.4176373,11.3011647 C37.577371,11.3011647 37.577371,11.4608985 37.577371,11.4608985 C37.1381032,11.7404326 36.8585691,12.1797005 36.4193012,12.6189684 C36.4193012,12.6189684 36.4193012,12.7787022 36.5790349,12.7787022 C38.3361065,12.7787022 40.81198,13.3777038 42.4093178,14.3760399 C42.5690516,14.3760399 42.4093178,14.655574 42.249584,14.655574 C39.7737105,14.0565724 35.8202995,13.6173045 31.5873544,14.655574 C27.7936772,15.5341098 24.9983361,17.0116473 22.9617304,18.4492512 C22.7620632,18.4093178 22.6422629,18.4093178 22.7620632,18.2895175 L22.7620632,18.2895175 Z" id="Shape"></path>
            </g>
            <g id="Group" transform="translate(70.282862, 18.768719)">
                <path d="M161.570715,6.06988353 C157.936772,6.06988353 156.299501,8.70549085 155.580699,10.3028286 C155.141431,11.3410982 155.141431,11.6206323 154.861897,11.6206323 C154.422629,11.6206323 154.702163,10.7420965 155.021631,9.86356073 C155.460899,7.94675541 155.181364,6.50915141 155.181364,6.50915141 L150.069884,6.50915141 L150.069884,31.0682196 L157.09817,31.0682196 L157.09817,23.3211314 C157.976705,24.7986689 159.454243,26.2362729 161.770383,26.2362729 C166.881864,26.2362729 169.357737,22.0033278 169.357737,16.1730449 C169.317804,9.58402662 166.242928,6.06988353 161.570715,6.06988353 L161.570715,6.06988353 L161.570715,6.06988353 Z M159.693844,21.5640599 C158.096506,21.5640599 156.898502,19.5274542 156.898502,16.7321131 C156.898502,13.936772 158.056572,11.9001664 159.693844,11.9001664 C161.610649,11.9001664 162.489185,13.6572379 162.489185,16.7321131 C162.449251,19.9667221 161.730449,21.5640599 159.693844,21.5640599 L159.693844,21.5640599 Z" id="Shape"></path>
                <path d="M22.6422629,6.06988353 C19.5673877,6.06988353 18.1297837,8.54575707 17.3710483,10.0232945 C16.9317804,10.9018303 16.9317804,11.6206323 16.4925125,11.6206323 C16.0532446,11.6206323 16.3327787,11.0216306 16.0532446,9.70382696 C15.6139767,7.94675541 14.1364393,6.06988353 11.1014975,6.06988353 C7.90682196,6.06988353 6.42928453,8.86522463 5.83028286,10.3028286 C5.39101498,11.3410982 5.39101498,11.6206323 5.11148087,11.6206323 C4.67221298,11.6206323 4.95174709,10.7420965 5.27121464,9.86356073 C5.71048253,7.94675541 5.43094842,6.50915141 5.43094842,6.50915141 L0.319467554,6.50915141 L0.319467554,25.797005 L7.18801997,25.797005 L7.18801997,16.1730449 C7.18801997,14.2562396 7.90682196,11.9400998 9.3843594,11.9400998 C10.9816972,11.9400998 11.3011647,13.0981697 11.3011647,15.2945092 L11.3011647,25.797005 L18.3294509,25.797005 L18.3294509,16.1730449 C18.3294509,14.4159734 19.0482529,11.9400998 20.5257903,11.9400998 C22.1231281,11.9400998 22.4425957,13.6971714 22.4425957,15.2945092 L22.4425957,25.6772047 L29.1514143,25.6772047 L29.1514143,14.296173 C29.0715474,9.30449251 27.3144759,6.06988353 22.6422629,6.06988353 L22.6422629,6.06988353 Z M141.284526,6.06988353 C138.209651,6.06988353 136.772047,8.54575707 136.013311,10.0232945 C135.574043,10.9018303 135.574043,11.6206323 135.134775,11.6206323 C134.695507,11.6206323 134.975042,10.9018303 134.695507,9.70382696 C134.096506,7.94675541 132.938436,6.06988353 129.74376,6.06988353 C126.549085,6.06988353 125.071547,8.86522463 124.472546,10.3028286 C124.033278,11.3410982 124.033278,11.6206323 123.753744,11.6206323 C123.314476,11.6206323 123.59401,10.7420965 123.913478,9.86356073 C124.352745,7.94675541 124.073211,6.50915141 124.073211,6.50915141 L118.96173,6.50915141 L118.96173,25.797005 L125.990017,25.797005 L125.990017,16.1730449 C125.990017,14.2562396 126.708819,11.9400998 128.186356,11.9400998 C129.783694,11.9400998 130.103161,13.0981697 130.103161,15.2945092 L130.103161,25.797005 L137.131448,25.797005 L137.131448,16.1730449 C137.131448,14.4159734 137.85025,11.9400998 139.327787,11.9400998 C140.925125,11.9400998 141.244592,13.6971714 141.244592,15.2945092 L141.244592,25.6772047 L148.113145,25.6772047 L148.113145,14.296173 C147.71381,9.30449251 145.956739,6.06988353 141.284526,6.06988353 L141.284526,6.06988353 Z M41.0515807,6.06988353 C35.6605657,6.06988353 31.8269551,7.98668885 31.8269551,7.98668885 L31.8269551,13.8169717 C31.8269551,13.8169717 36.0599002,11.3410982 39.5740433,11.3410982 C42.3693844,11.3410982 42.6489185,12.8186356 42.4891847,14.1364393 C42.4891847,14.1364393 41.7703827,13.9767055 39.2945092,13.9767055 C33.5840266,13.9767055 30.6688852,16.6123128 30.6688852,20.6855241 C30.6688852,24.6389351 33.8635607,26.2362729 36.6589018,26.2362729 C40.6123128,26.2362729 42.3693844,23.6006656 42.9284526,22.2828619 C43.3677205,21.4043261 43.3677205,20.8053245 43.6472546,20.8053245 C44.0865225,20.8053245 43.9267887,21.2445923 43.9267887,22.1231281 C43.9267887,23.6006656 43.9267887,24.7587354 44.2063228,25.7570715 L49.5174709,25.7570715 L49.5174709,16.2529118 C49.3577371,10.3028286 47.3211314,6.06988353 41.0515807,6.06988353 L41.0515807,6.06988353 Z M39.2945092,21.2845258 C37.6971714,21.7237937 36.8186356,21.124792 36.8186356,20.1264559 C36.8186356,18.6489185 38.4159734,17.9301165 40.6123128,17.9301165 C41.6505824,17.9301165 42.5291181,18.0898502 42.5291181,18.0898502 C42.4891847,18.6489185 41.0515807,20.8452579 39.2945092,21.2845258 Z M60.8985025,0.678868552 L67.9267887,0.678868552 L67.9267887,25.797005 L60.8985025,25.797005 C60.8985025,25.6772047 60.8985025,0.678868552 60.8985025,0.678868552 Z M75.6738769,16.1730449 C75.6738769,14.4159734 77.2712146,12.8186356 80.1863561,12.8186356 C83.3810316,12.8186356 86.0166389,14.4159734 86.6156406,14.7354409 L86.6156406,7.98668885 C86.6156406,7.98668885 84.5790349,6.06988353 79.5873544,6.06988353 C74.3161398,6.06988353 69.9633943,9.14475874 69.9633943,15.8535774 C69.9633943,22.562396 73.9168053,26.2362729 79.5873544,26.2362729 C83.9800333,26.2362729 86.7354409,23.7603993 86.7354409,23.7603993 L86.7354409,17.3311148 C85.8569052,17.7703827 83.5407654,19.3677205 80.3061564,19.3677205 C76.8319468,19.5274542 75.6738769,17.9301165 75.6738769,16.1730449 L75.6738769,16.1730449 Z M100.792013,6.06988353 C96.718802,6.06988353 95.2412646,9.86356073 94.9617304,10.5823627 C94.6821963,11.3011647 94.5224626,11.6206323 94.2429285,11.6206323 C93.8036606,11.6206323 94.0831947,10.7420965 94.2429285,10.3028286 C94.5224626,9.26455907 95.281198,6.78868552 95.281198,3.59400998 C95.281198,1.39767055 95.0016639,0.678868552 95.0016639,0.678868552 L89.0116473,0.678868552 L89.0116473,25.797005 L96.0399334,25.797005 L96.0399334,16.1730449 C96.0399334,14.5757072 96.6389351,11.9400998 98.3960067,11.9400998 C99.8735441,11.9400998 100.312812,12.9783694 100.312812,15.1347754 L100.312812,25.797005 L107.341098,25.797005 L107.341098,15.5740433 C107.061564,10.6222962 106.342762,6.06988353 100.792013,6.06988353 L100.792013,6.06988353 Z M109.417637,6.50915141 L109.417637,25.797005 L116.445923,25.797005 L116.445923,6.50915141 C116.445923,6.50915141 115.287854,7.22795341 112.93178,7.22795341 C110.575707,7.10815308 109.417637,6.50915141 109.417637,6.50915141 L109.417637,6.50915141 Z" id="Shape"></path>
                <ellipse id="Oval" cx="112.93178" cy="3.1547421" rx="4.23294509" ry="2.7953411"></ellipse>
                <path d="M51.7138103,6.50915141 L51.7138103,25.797005 L58.7021631,25.797005 L58.7021631,6.50915141 C58.7021631,6.50915141 57.5440932,7.22795341 55.18802,7.22795341 C55.18802,7.10815308 51.7138103,6.50915141 51.7138103,6.50915141 Z" id="Path"></path>
                <ellipse id="Oval" cx="55.18802" cy="3.1547421" rx="4.23294509" ry="2.7953411"></ellipse>
            </g>
        </g>
    </g>
</svg>