<?xml version="1.0" encoding="UTF-8"?>
<svg width="300px" height="200px" viewBox="0 0 300 200" version="1.1" xmlns="http://www.w3.org/2000/svg" xmlns:xlink="http://www.w3.org/1999/xlink">
    <title>Pantheon</title>
    <g id="Pantheon" stroke="none" stroke-width="1" fill="none" fill-rule="evenodd">
        <rect fill="#FFFFFF" x="0" y="0" width="300" height="200"></rect>
        <g id="pantheon-vector-logo" transform="translate(32.000000, 61.000000)" fill="#222222" fill-rule="nonzero">
            <polygon id="Path" points="3.17440585 0 10.3612431 16.8717073 1.2 16.8717073 4.24058501 24.3 22.8 24.3"></polygon>
            <polygon id="Path" points="27.6 61.3860798 24.5221622 53.9392016 20.3 53.9392016 14.2232432 39.6 10.4351351 39.6 16.4724324 53.9392016 5.7 53.9392016 25.627027 78.3 18.4454054 61.3860798"></polygon>
            <g id="Group" transform="translate(0.000000, 25.500000)">
                <path d="M30.0890908,5.95982143 C30.3260128,5.95982143 30.8393437,5.68169643 30.8393437,3.09910714 C30.8393437,0.516517857 30.3260128,0.238392857 30.0890908,0.238392857 L17.3347912,0.238392857 L19.7434979,5.95982143 L30.0890908,5.95982143 Z" id="Path"></path>
                <path d="M22.6655356,12.8732143 L31.2342137,12.8732143 C31.4711357,12.8732143 31.9844666,12.5950893 31.9844666,10.0125 C31.9844666,7.42991071 31.4711357,7.15178571 31.2342137,7.15178571 L20.2173419,7.15178571 L22.6655356,12.8732143 Z" id="Path"></path>
                <path d="M30.0890908,20.8991071 L18.558888,20.8991071 L20.9675948,26.6602679 L30.0890908,26.6602679 C30.3260128,26.6602679 30.8393437,26.3821429 30.8393437,23.7995536 C30.8393437,21.1772321 30.3260128,20.8991071 30.0890908,20.8991071" id="Path"></path>
                <path d="M31.2342137,13.9857143 L15.6368503,13.9857143 L18.0455571,19.746875 L31.1947267,19.746875 C31.4316487,19.746875 31.9449796,19.46875 31.9449796,16.8861607 C31.9844666,14.2638393 31.4711357,13.9857143 31.2342137,13.9857143" id="Path"></path>
                <path d="M30.0890908,20.8991071 L18.558888,20.8991071 L20.9675948,26.6602679 L30.0890908,26.6602679 C30.3260128,26.6602679 30.8393437,26.3821429 30.8393437,23.7995536 C30.8393437,21.1772321 30.3260128,20.8991071 30.0890908,20.8991071" id="Path"></path>
                <path d="M31.2342137,13.9857143 L15.6368503,13.9857143 L18.0455571,19.746875 L31.1947267,19.746875 C31.4316487,19.746875 31.9449796,19.46875 31.9449796,16.8861607 C31.9844666,14.2638393 31.4711357,13.9857143 31.2342137,13.9857143" id="Path"></path>
                <path d="M13.7809615,12.8334821 L10.8589239,5.95982143 L12.2409687,5.95982143 L15.1630064,12.8732143 L21.3229777,12.8732143 L15.9922333,0.238392857 L2.68511572,0.238392857 C1.65845382,0.238392857 1.10563588,0.238392857 0.631791933,1.74821429 C0.0789739917,3.53616071 0,6.91339286 0,13.4691964 C0,20.025 0.0789739917,23.4022321 0.631791933,25.1901786 C1.10563588,26.7 1.65845382,26.7 2.68511572,26.7 L14.3732665,26.7 L8.56867809,12.9129464 L13.7809615,12.8334821 Z" id="Path"></path>
                <path d="M80.5139845,1.946875 L74.2355522,1.946875 L65.1140561,25.4683036 L71.5109494,25.4683036 L73.1299163,21.4553571 L81.4616724,21.4553571 L82.9621782,25.4683036 L89.3985586,25.4683036 L80.5139845,1.946875 Z M74.7883701,16.8861607 L77.2760508,9.33705357 L77.3550248,9.33705357 L79.8032186,16.8861607 L74.7883701,16.8861607 Z" id="Shape"></path>
                <path d="M56.663839,1.946875 L47.423882,1.946875 L47.423882,25.5080357 L53.7023143,25.5080357 L53.7023143,17.4821429 L56.861274,17.4821429 C62.1130444,17.4821429 65.0745691,15.1776786 65.0745691,9.65491071 C65.0745691,4.25133929 61.6392005,1.946875 56.663839,1.946875 M54.4525672,12.8334821 L53.6628273,12.8334821 L53.6628273,7.07229391 L54.4525672,7.07229391 C56.7823,7.07229391 58.7961368,7.03258929 58.7961368,9.97276786 C58.7961368,12.8334821 56.663839,12.8334821 54.4525672,12.8334821" id="Shape"></path>
                <polygon id="Path" points="174.729957 16.2901786 181.008389 16.2901786 181.008389 11.125 174.729957 11.125 174.729957 7.11205357 183.259148 7.11205357 183.259148 1.946875 168.451524 1.946875 168.451524 25.5080357 183.259148 25.5080357 183.259148 19.746875 174.729957 19.746875"></polygon>
                <polygon id="Path" points="119.922006 8.26428571 125.608134 8.26428571 125.647621 25.4683036 131.886566 25.4683036 131.886566 8.26428571 137.61218 8.26428571 137.61218 1.946875 119.922006 1.946875"></polygon>
                <polygon id="Path" points="157.000295 11.125 148.471104 11.125 148.471104 1.946875 142.153185 1.946875 142.153185 25.4683036 148.471104 25.4683036 148.471104 16.2901786 157.000295 16.2901786 157.000295 25.4683036 163.278728 25.4683036 163.278728 1.946875 157.000295 1.946875"></polygon>
                <path d="M198.422154,8.26428571 C201.423166,8.26428571 203.831872,10.7276786 203.831872,13.7075893 C203.831872,16.7272321 201.383679,19.1508929 198.422154,19.1508929 C195.421142,19.1508929 193.012436,16.6875 193.012436,13.7075893 C192.972949,10.6879464 195.421142,8.26428571 198.422154,8.26428571 M198.422154,1.946875 C191.946287,1.946875 186.734003,7.23125 186.734003,13.7075893 C186.734003,20.1839286 191.985774,25.4683036 198.422154,25.4683036 C204.898021,25.4683036 210.110305,20.1839286 210.110305,13.7075893 C210.110305,7.23125 204.858534,1.946875 198.422154,1.946875" id="Shape"></path>
                <polygon id="Path" points="230.643543 15.1379464 220.574359 1.946875 214.690796 1.946875 214.690796 25.5080357 220.969229 25.5080357 220.969229 12.2772321 230.564569 25.5080357 236.961462 25.5080357 236.961462 1.946875 230.643543 1.946875"></polygon>
                <polygon id="Path" points="109.023595 15.1379464 98.9938985 1.946875 93.0708492 1.946875 93.0708492 25.5080357 99.3887685 25.5080357 99.3492815 12.2772321 108.984108 25.5080357 115.341515 25.5080357 115.341515 1.946875 109.063082 1.946875"></polygon>
            </g>
        </g>
    </g>
</svg>