<?xml version="1.0" encoding="UTF-8"?>
<svg width="300px" height="200px" viewBox="0 0 300 200" version="1.1" xmlns="http://www.w3.org/2000/svg" xmlns:xlink="http://www.w3.org/1999/xlink">
    <title>Quirk</title>
    <defs>
        <path d="M53,154.758955 L53,154.684642 C53.002207,154.30723 53.038217,153.941151 53.1131608,153.596752 C53.8738132,150.099076 55.0319035,146.619644 56.5279483,143.362174 C59.1883984,137.56785 62.1726452,131.920487 65.1191039,126.260962 C66.3136582,123.968368 67.7917765,121.823748 69.0860468,119.58183 C69.4157511,119.010202 69.5369585,118.319991 69.8743019,117.331804 C68.8209185,117.516266 64.2809399,120.276095 63.5785484,120.438259 C59.256743,121.439622 56.4794654,118.551075 56.9598131,114.069266 C57.4819213,109.203331 60.1351397,105.389436 62.6477983,101.543107 C64.5815137,98.5836137 66.9835579,95.890677 69.4264459,93.3132823 C70.7266237,91.9429961 72.5013436,90.9791336 74.1621896,90.0010817 C75.3474751,89.3037763 76.5952996,89.5206707 77.5876719,90.5696694 C78.7467807,91.7960349 79.8927502,93.0355763 81.4406392,94.6957307 C82.0005356,93.0477386 82.5110324,91.69975 82.9094888,90.3203421 C83.2411283,89.1780992 83.2556936,87.910179 83.7574308,86.8632074 C84.1771749,85.9865081 85.1050731,84.7489937 85.7963623,84.7571019 C86.671907,84.7662237 87.7693936,85.7077886 88.3617818,86.5378658 C90.3818701,89.3686419 89.410378,92.2835406 88.1412659,95.0585728 C86.367972,98.9383475 84.4525905,102.753257 82.3205637,107.171213 C86.1090568,105.67525 89.4205635,104.398208 92.7039582,103.055287 C93.8519648,102.587038 94.8811067,101.736691 96.0576327,101.455944 C97.6632734,101.073845 97.8644368,99.8870072 98.1669459,98.6869932 C98.6871189,96.6275099 99.0880198,94.5345802 99.6770467,92.4953674 C100.222378,90.6071698 102.652636,89.8997292 104.187895,91.1321759 C107.117853,93.4876086 107.286117,94.5568778 106.193927,98.5005046 C106.015477,99.1430796 106.282134,99.9093047 106.343654,100.618772 C106.960793,100.457622 107.649637,100.422149 108.181931,100.116064 C111.179827,98.3910439 113.269176,95.7984462 115.223874,92.9950353 C116.852228,90.6588596 119.415712,90.2990581 121.242887,92.1223901 C122.658365,93.5352443 123.915458,95.3028324 123.419934,97.575156 C122.798517,100.427216 122.096024,103.261033 121.456681,106.108025 C121.26662,106.950265 121.17057,107.812775 120.945165,109.196237 C122.116904,108.701636 123.051525,108.569878 123.585245,108.038791 C125.984437,105.647885 128.570227,103.355291 130.517082,100.62384 C132.700545,97.5589396 134.276139,94.063291 136.101786,90.7480498 C136.852661,89.3858718 137.385464,87.8524081 138.365715,86.686854 C138.95515,85.984481 140.364414,85.3165679 141.144419,85.540557 C143.886353,86.324012 145.137538,88.290251 144.692534,91.1777845 C144.507362,92.3798255 143.472313,93.482541 142.724799,94.5609319 C140.607338,97.61367 138.676373,100.717084 139.052115,104.660711 C139.074931,104.903957 139.120969,105.145176 139.178212,105.538424 C143.282761,105.613425 147.084902,105.157339 150.178236,102.073181 C152.304457,99.9538998 154.704158,98.1092838 156.828444,95.9869619 C158.111205,94.705866 158.915859,93.1916592 158.548468,91.1098783 C157.898837,87.4358492 159.686697,84.6385195 163.209552,83.2114759 C165.049255,82.4665348 167.125568,83.2053947 168.584334,85.1422415 C169.863631,86.8419234 170.656775,88.5476864 169.278067,90.6598731 C168.981771,91.1139324 169.193222,92.2835406 169.600846,92.7446946 C171.960314,95.4051984 172.923556,98.3575975 172.400429,101.922166 C172.033446,104.428614 172.072253,106.99486 171.929758,109.534754 C172.10668,109.633066 172.283602,109.732392 172.460116,109.831717 C173.498527,109.109074 174.643987,108.501972 175.552533,107.64453 C179.283376,104.124556 183.01809,100.602556 186.597679,96.932581 C188.63274,94.8447189 190.748368,92.6788154 192.157632,90.175408 C194.470961,86.0675901 196.364953,81.7084179 198.210055,77.3603945 C201.272832,70.1430811 205.323194,63.5308422 210.221396,57.4405689 C211.082375,56.3692726 212.466889,55.5260196 213.780614,55.0770279 C213.924104,55.0281221 214.086714,55.0036736 214.260925,55 L214.3554,55 C215.108875,55.0153745 216.045889,55.3907359 216.597207,55.8473071 C221.327145,59.7645823 220.130248,59.9855308 218.153347,64.2970673 C216.419776,68.076503 213.719501,71.42215 211.399348,74.9299609 C209.566469,77.6999255 207.705376,80.4536736 205.777874,83.1597861 C204.180585,85.4047446 202.426135,87.5382153 200.835161,89.7872278 C200.342591,90.4825062 200.154974,91.3916383 199.827714,92.2024586 C200.706213,92.1771204 201.647556,92.3484062 202.449459,92.0909708 C205.244663,91.1929874 207.94005,89.934189 210.780783,89.2581677 C212.018931,88.9632318 214.007037,89.3118845 214.765652,90.1591916 C215.617465,91.1108918 215.931586,93.0771309 215.590779,94.3693756 C215.349892,95.2805348 213.71563,96.1055444 212.550716,96.4450753 C208.76701,97.5437367 204.981878,98.6201006 201.947213,101.250199 C201.126975,101.961693 200.684314,103.154613 200.215578,104.192463 C200.066768,104.522872 200.24318,105.242475 200.528272,105.486734 C203.875122,108.362105 207.858566,110.014152 212.161936,110.559428 C216.773111,111.142205 221.445908,111.250652 226.092529,111.535453 C227.271499,111.6064 228.461674,111.495926 229.635755,111.593224 C230.508752,111.667123 230.996964,112.021319 231,112.525186 L231,112.53466 C231,112.83036 230.830367,113.176948 230.476364,113.548314 C229.561605,114.507109 228.405857,115.51354 227.178404,115.844963 C224.581511,116.547336 221.864328,117.22437 219.205813,117.192951 C212.492557,117.111869 205.898572,116.168277 200.112297,112.339179 C199.239197,111.762483 198.524684,110.954703 197.703938,110.291858 C196.729084,109.505362 195.719702,108.761434 194.295465,107.669868 C193.740865,109.507389 193.149496,110.719565 193.062715,111.966201 C192.972472,113.268581 192.621989,114.415892 191.365914,114.480758 C190.490471,114.526366 189.162182,113.89494 188.749567,113.166215 C187.860985,111.592211 187.431972,109.76077 186.646162,107.565475 C185.857907,107.938452 184.628518,108.140143 184.040917,108.86076 C181.563297,111.901336 178.475667,114.194943 175.317859,116.423685 C172.313242,118.544994 166.958831,116.316252 165.843826,112.384787 C165.352783,110.653686 165.095396,108.814138 165.040088,107.013103 C164.97317,104.801591 165.318865,102.579944 165.299004,100.363364 C165.292179,99.5292327 164.761312,98.7021961 164.27801,97.3268423 C162.725741,98.9880102 161.419758,100.374513 160.126404,101.773178 C156.153146,106.064444 152.147906,110.288817 146.130827,111.768564 C145.056055,112.033094 144.033228,112.599655 143.05593,113.147972 C140.180668,114.760491 137.493124,113.353717 134.772987,112.675669 C134.363836,112.573303 133.972102,112.0635 133.741401,111.648968 C132.510993,109.439483 131.418803,109.620904 129.707539,111.390519 C127.676349,113.490543 125.15544,115.135495 122.763072,116.863555 C121.79983,117.558834 120.601507,117.922689 119.534475,118.484182 C117.991883,119.295003 116.972417,118.515602 115.989823,117.439238 C113.350151,114.551704 112.566275,111.142205 113.049577,107.354661 C113.087467,107.051617 113.007409,106.73337 112.939574,105.868833 C111.777511,106.580328 110.848289,107.098239 109.973661,107.695206 C107.713195,109.236778 105.520972,110.882743 103.216912,112.354382 C101.505648,113.447975 99.0143787,113.361826 97.5125282,111.492885 C97.0786263,110.95369 96.73344,110.222938 96.6515487,109.542862 C96.429505,107.703314 96.409134,107.714463 94.684323,108.576973 C89.9921732,110.924297 89.0841367,110.53105 84.3517542,112.83986 C86.57158,117.014571 88.2590102,121.690976 88.4951098,126.7434 C88.5818902,128.591056 88.2779552,130.514727 87.8194044,132.319816 C86.8449585,136.160063 85.0808316,139.641522 82.9700924,143.037846 C79.3590305,148.851426 74.3972707,153.279518 68.7710096,156.839019 C65.5510705,158.877218 61.6355643,159.957636 57.8954522,160.960013 C56.859486,161.238732 54.7899981,160.007299 54.1607385,158.915732 C53.4846278,157.741983 53.0082272,156.175941 53,154.758955 L53,154.758955 Z M66.0004487,111.538308 C66.1716768,111.691873 66.3412447,111.845438 66.51203,112 C70.0384212,109.53299 73.5658086,107.066977 77,104.664783 C76.0860825,102.776134 75.4133453,101.388067 74.7416043,100 C72.3600174,100.399867 65.9382443,108.876849 66.0004487,111.538308 Z M82.6709536,114 L83.5367464,114.236759 C83.8048891,115.477736 84.20841,116.706675 84.3153535,117.959691 C84.6133945,121.470945 85.2940485,125.052424 84.858225,128.49245 C84.4900383,131.403781 83.0630797,134.306084 81.5977553,136.954572 C77.8333026,143.751357 71.8307725,148.37618 64.8625103,151.941608 C64.5799412,152.085068 64.2938177,152.237556 63.9918043,152.328849 C63.7286097,152.409441 63.4643581,152.486131 63.1995141,152.560815 L61.6070585,153 C61.4055071,152.849518 61.2025968,152.699035 61,152.548553 C65.6899373,138.373119 74.7365411,126.47699 82.6709536,114 L82.6709536,114 Z M241.105289,112 C243.363707,111.996906 246.00428,114.358148 246,116.376613 C245.99571,118.321773 244.405413,119.940675 242.440629,119.999525 C240.892731,120.045986 238.007012,116.670865 238,114.805205 C237.994044,113.190433 239.308974,112.0031 241.105289,112 Z M145.975644,78.3279828 C146.208787,80.2434822 144.724206,80.9631947 143.400867,81.6465015 C141.862476,82.4390253 140.502956,81.8126608 139.38669,80.6234082 C138.994995,80.20801 138.665181,79.7291351 138.338799,79.2567946 C138.184329,79.0327596 137.935229,78.6472327 138.015572,78.5230799 C138.940258,77.0864554 139.681621,75.3903236 140.946697,74.3494943 C142.576471,73.0099516 145.984922,75.7758505 145.975644,78.3279828 Z" id="path-1"></path>
    </defs>
    <g id="Quirk" stroke="none" stroke-width="1" fill="none" fill-rule="evenodd">
        <rect fill="#FFFFFF" x="0" y="0" width="300" height="200"></rect>
        <mask id="mask-2" fill="white">
            <use xlink:href="#path-1"></use>
        </mask>
        <use id="Quirk-Creative-Logo" fill="#222222" xlink:href="#path-1"></use>
    </g>
</svg>