<?xml version="1.0" encoding="UTF-8"?>
<svg width="300px" height="200px" viewBox="0 0 300 200" version="1.1" xmlns="http://www.w3.org/2000/svg" xmlns:xlink="http://www.w3.org/1999/xlink">
    <title>Shopify Plus</title>
    <g id="Shopify-Plus" stroke="none" stroke-width="1" fill="none" fill-rule="evenodd">
        <rect fill="#FFFFFF" x="0" y="0" width="300" height="200"></rect>
        <g id="shopify-plus-vector-logo" transform="translate(26.000000, 75.000000)" fill="#222222" fill-rule="nonzero">
            <path d="M192.643997,19.2964675 C189.510904,19.2964675 186.913734,20.4097253 185.058614,22.4713137 L185.429638,20.6158841 C185.553312,20.0386394 185.141063,19.5438582 184.563915,19.5438582 C183.986766,19.5438582 183.368392,20.0386394 183.285943,20.6158841 L177.844255,48.8596454 C177.72058,49.4368901 178.132829,49.9316714 178.709978,49.9316714 C179.287126,49.9316714 179.9055,49.4368901 179.98795,48.8596454 L182.00797,38.3455445 C182.750019,39.7061928 184.481465,41.5203906 188.356606,41.5203906 C191.407249,41.5203906 193.921969,40.57206 195.900764,38.7578622 C197.96201,36.8612008 199.363657,34.0162088 200.06448,30.3465814 C200.765304,26.6769541 200.476729,23.8731938 199.157532,21.9765325 C197.87956,20.2035664 195.69464,19.2964675 192.643997,19.2964675 L192.643997,19.2964675 Z M188.72763,39.5824975 C184.110441,39.5824975 182.296545,36.4076514 183.450842,30.3878132 C184.60514,24.3267433 187.532108,21.2343606 192.108073,21.2343606 C197.137512,21.2343606 198.992633,24.2442797 197.79711,30.3878132 C196.601588,36.6962737 193.715844,39.5824975 188.72763,39.5824975 L188.72763,39.5824975 Z M239.599167,29.2333237 C236.878323,28.2025295 234.281154,27.2541988 234.775853,24.6978292 C235.023203,23.4196444 236.053825,21.2755924 240.258766,21.2755924 C242.608586,21.2755924 244.092682,21.9353007 245.370655,23.5433397 C245.618004,23.831962 245.906578,23.831962 245.989028,23.831962 C246.566177,23.7907303 247.060876,23.3784126 247.18455,22.8423996 C247.225775,22.595009 247.18455,22.3476184 247.060876,22.1414596 L247.060876,22.1002278 C245.741679,20.2447982 243.597983,19.2964675 240.62979,19.2964675 C236.3424,19.2964675 233.250531,21.358056 232.632158,24.6978292 C231.848885,28.6973107 235.394227,30.0167273 238.52732,31.2124486 C241.206939,32.2432428 243.762883,33.1915734 243.309409,35.6242478 C242.649811,39.0877163 239.022019,39.5824975 236.919548,39.5824975 C234.033805,39.5824975 232.261134,38.7990939 230.941937,36.9436644 L230.941937,36.9436644 C230.777037,36.7375055 230.570912,36.655042 230.323563,36.655042 C229.746414,36.6962737 229.251715,37.1085914 229.128041,37.6446044 C229.086816,37.891995 229.128041,38.1393856 229.251715,38.3455445 C230.117438,39.9535834 232.714608,41.6028542 236.548524,41.6028542 C241.413063,41.6028542 244.752281,39.3763387 245.453104,35.6654795 C246.195153,31.665998 242.691035,30.3465814 239.599167,29.2333237 L239.599167,29.2333237 Z M233.085632,13.6889471 L230.818262,13.6889471 L231.271736,11.4211998 C231.395411,10.8439551 230.983161,10.3491738 230.406013,10.3491738 C229.828864,10.3491738 229.251715,10.8439551 229.128041,11.4211998 L228.674567,13.6889471 L226.407197,13.6889471 C225.830048,13.6889471 225.252899,14.1837283 225.129225,14.760973 C225.00555,15.3382178 225.417799,15.832999 225.994948,15.832999 L228.262318,15.832999 L227.808844,18.1007463 C227.685169,18.677991 228.097418,19.1727722 228.674567,19.1727722 C229.251715,19.1727722 229.828864,18.677991 229.952539,18.1007463 L230.406013,15.832999 L232.673383,15.832999 C233.250531,15.832999 233.82768,15.3382178 233.951355,14.760973 C234.07503,14.3074236 233.786455,13.8126424 233.291756,13.6889471 C233.250531,13.7301788 233.168082,13.6889471 233.085632,13.6889471 Z M52.2731838,35.6242478 C53.3862563,36.2014925 55.3650519,36.9848961 57.2613977,36.9436644 C58.9928439,36.9436644 59.8997918,35.9953337 59.8997918,34.8820759 C59.8997918,33.7688182 59.2401933,33.0266464 57.3850724,31.9546204 C55.0764776,30.6352038 53.3450314,28.7797742 53.3450314,26.3470999 C53.3450314,22.058996 57.0140483,19.0078452 62.3732863,19.0078452 C64.7231061,19.0078452 66.5370021,19.4613946 67.5263999,20.0386394 L66.124753,24.367975 C64.9292307,23.831962 63.6512585,23.5433397 62.3320614,23.5433397 C60.6006153,23.5433397 59.4875428,24.3267433 59.4875428,25.5636963 C59.4875428,26.5532588 60.270816,27.2541988 61.8373625,28.0788342 C64.2284072,29.4394825 66.2072028,31.2949121 66.2072028,33.9337453 C66.2072028,38.7990939 62.2496116,41.5616224 56.7666988,41.5203906 C54.2519794,41.4791589 51.9021596,40.8194506 50.7478622,39.9948152 C50.7890871,39.9948152 52.2731838,35.6242478 52.2731838,35.6242478 Z M67.4439501,41.3554636 L73.3803369,10.3491738 L79.4816233,10.3491738 L77.1318035,22.3476184 L77.2142533,22.2651549 C78.8632497,20.3272617 80.96572,18.9666134 83.686564,18.9666134 C86.8608819,18.9666134 88.6747779,21.0282018 88.6747779,24.4504386 C88.6747779,25.5224645 88.5098782,27.212967 88.2213039,28.5736154 L85.8302592,41.3142318 L79.7289728,41.3142318 L82.0375676,28.9447013 C82.2024673,28.1200659 82.2849171,27.0068082 82.2849171,26.1821728 C82.2849171,24.8627563 81.7489933,23.8731938 80.3885713,23.8731938 C78.4510006,23.8731938 76.3485303,26.4707952 75.565257,30.5115085 L73.5452365,41.3142318 L67.4439501,41.3554636 L67.4439501,41.3554636 Z M110.771329,27.5015894 C110.771329,35.0882348 105.90679,41.5203906 98.6924306,41.5203906 C93.2095178,41.5203906 90.2825493,37.7270679 90.2825493,32.9854146 C90.2825493,25.6049281 95.1470885,18.9666134 102.485122,18.9666134 C108.215384,18.9666134 110.771329,23.131022 110.771329,27.5015894 L110.771329,27.5015894 Z M96.5487354,32.8617193 C96.5487354,35.0882348 97.4144584,36.8612008 99.5169288,36.8612008 C102.732472,36.8612008 104.546368,31.0887533 104.546368,27.3366624 C104.546368,25.5224645 103.845544,23.667035 101.660624,23.667035 C98.3626313,23.6258032 96.5487354,29.357019 96.5487354,32.8617193 Z M109.328457,49.9729031 L113.574623,27.6252847 C114.069321,25.1101469 114.56402,21.8528372 114.81137,19.5438582 L120.211833,19.5438582 L119.840809,23.0073267 L119.923258,23.0073267 C121.572255,20.6983477 123.963299,19.1727722 126.395569,19.1727722 C130.847859,19.1727722 132.661755,22.7599361 132.661755,26.8418811 C132.661755,34.2635994 127.962116,41.6028542 120.788981,41.6028542 C119.304885,41.6028542 117.903238,41.3554636 117.202414,40.7782188 L117.07874,40.7782188 L115.388518,49.9729031 L109.328457,49.9729031 L109.328457,49.9729031 Z M118.026913,36.0365655 C118.686511,36.5725784 119.428559,36.9024326 120.541632,36.9024326 C123.963299,36.9024326 126.313119,31.2949121 126.313119,27.3366624 C126.313119,25.6873916 125.73597,23.9556574 123.88085,23.9556574 C121.737154,23.9556574 119.758359,26.4707952 119.057535,30.3053497 L118.026913,36.0365655 Z M132.86788,41.3554636 L136.99037,19.5438582 L143.132882,19.5438582 L138.969166,41.3554636 L132.86788,41.3554636 L132.86788,41.3554636 Z M140.783062,17.2761109 C139.051616,17.2761109 137.897318,15.7917672 137.897318,13.9775694 C137.897318,11.9984446 139.463865,10.3079421 141.401436,10.3079421 C143.256557,10.3079421 144.452079,11.751054 144.452079,13.52402 C144.410854,15.7917672 142.761858,17.2348791 140.865512,17.2348791 C140.865512,17.2761109 140.783062,17.2761109 140.783062,17.2761109 Z M144.287179,41.3554636 L147.502722,24.1205844 L144.658203,24.1205844 L145.523926,19.5438582 L148.368445,19.5438582 L148.533345,18.4306004 C149.028044,15.8742308 149.976217,13.2353976 152.078687,11.5036633 C153.727683,10.1017832 155.871378,9.44207493 158.056299,9.44207493 C159.540395,9.44207493 160.653468,9.64823377 161.354291,9.97808792 L160.158769,14.760973 C159.540395,14.5548142 158.880797,14.4311189 158.221198,14.4311189 C156.201178,14.4311189 154.96443,16.369012 154.593406,18.4718322 L154.387282,19.5850899 L158.633447,19.5850899 L157.808949,24.1618162 L153.604009,24.1618162 L150.388466,41.3966953 L144.287179,41.3554636 L144.287179,41.3554636 Z M166.260055,19.5438582 L167.249453,29.3157872 C167.455578,31.0475215 167.620477,32.738024 167.785377,34.4697583 L167.867827,34.4697583 C168.362526,33.3152687 168.816,31.6247662 169.681723,29.2745555 L173.391965,19.5438582 L179.781825,19.5438582 L172.320117,35.5005525 C169.681723,40.9843776 167.084554,44.9838592 164.322485,47.5814606 C162.137565,49.6018172 159.58162,50.6326114 158.344873,50.880002 L156.654652,45.6847992 C157.685274,45.3137133 158.963247,44.7777003 160.117544,43.953065 C161.519191,42.9635025 162.714713,41.6440859 163.456762,40.2834376 C163.621661,39.9535834 163.662886,39.7474246 163.580436,39.3351069 L159.911419,19.5026264 C159.82897,19.5438582 166.260055,19.5438582 166.260055,19.5438582 Z M228.097418,21.6054466 C227.520269,21.6054466 226.94312,22.1002278 226.819446,22.6774725 L224.7582,33.3977323 C223.645128,38.8403257 220.30591,39.5824975 217.131592,39.5824975 C211.48378,39.5824975 211.31888,36.3664196 211.937254,33.1915734 L214.369523,20.6158841 C214.493198,20.0386394 214.080949,19.5438582 213.5038,19.5438582 C212.926652,19.5438582 212.349503,20.0386394 212.225828,20.6158841 L209.793559,33.1915734 C209.29886,35.7479431 209.463759,37.6033726 210.329482,38.964021 C211.40133,40.6545235 213.545025,41.5203906 216.760568,41.5203906 C219.976111,41.5203906 222.449605,40.6545235 224.181052,38.964021 C225.541474,37.6033726 226.448422,35.7067113 226.94312,33.1915734 L228.963141,22.6362408 C229.086816,22.1002278 228.674567,21.6054466 228.097418,21.6054466 L228.097418,21.6054466 Z M208.598036,10.3904056 C208.020888,10.3904056 207.402514,10.8851868 207.320064,11.4624316 L201.795926,40.200974 C201.672252,40.7782188 202.084501,41.273 202.661649,41.273 C203.238798,41.273 203.815947,40.7782188 203.939622,40.200974 L209.463759,11.4624316 C209.587434,10.8851868 209.175185,10.3904056 208.598036,10.3904056 Z M29.8880586,5.85491109 L28.4039619,6.30846054 C28.2390622,5.68998402 27.9917128,5.11273926 27.7031384,4.53549451 C26.6312908,2.51513786 25.1059692,1.44311189 23.2508483,1.44311189 L23.2508483,1.44311189 C23.1271736,1.44311189 23.0034989,1.44311189 22.8798241,1.48434366 C22.8385992,1.40188012 22.7561494,1.36064835 22.7149245,1.27818482 C21.8904263,0.412317683 20.8598036,0 19.6230564,0 C17.1907868,0.0824635365 14.7997421,1.8141978 12.8621714,4.90658042 C11.5017494,7.09186414 10.4299018,9.81316084 10.1413275,11.9572128 L5.40046299,13.4415564 C3.99881611,13.8951059 3.9575912,13.9363377 3.79269157,15.2557543 C3.66901684,16.2453167 0,44.5715415 0,44.5715415 L30.3827575,49.807976 L30.3827575,5.81367932 C30.135408,5.81367932 30.0117333,5.81367932 29.8880586,5.85491109 L29.8880586,5.85491109 Z M22.8798241,8.04019481 L17.7679355,9.64823377 C18.2626344,7.75157243 19.2108073,5.85491109 20.3651047,4.61795804 C20.7773538,4.16440859 21.3957274,3.62839561 22.0965509,3.33977323 C22.7561494,4.74165335 22.8798241,6.67954646 22.8798241,8.04019481 Z M19.5818315,1.64927073 C20.0765304,1.60803896 20.6124542,1.77296603 21.0247033,2.02035664 C20.3238798,2.39144256 19.7055062,2.88622378 19.1695824,3.46346853 C17.6442608,5.11273926 16.4487384,7.66910889 15.9952644,10.143015 L11.7490989,11.4624316 C12.614822,7.58664536 15.8303648,1.77296603 19.5818315,1.64927073 L19.5818315,1.64927073 Z M14.8821919,23.7494985 C15.0470915,26.3470999 21.8492014,26.8831129 22.2202256,32.9441828 C22.5088,37.7270679 19.7055062,40.9843776 15.6242403,41.2317683 C10.7184762,41.5616224 8.03885713,38.6753986 8.03885713,38.6753986 L9.06947984,34.2635994 C9.06947984,34.2635994 11.7903238,36.3251878 13.934019,36.1602608 C15.3356659,36.0777972 15.8715897,34.9233077 15.7891399,34.0986723 C15.5830154,30.7176673 10.0588776,30.9238262 9.68785346,25.3987692 C9.3992791,20.7395794 12.4499223,15.9979261 19.2108073,15.5856084 C21.8079765,15.4206813 23.1271736,16.0803896 23.1271736,16.0803896 L21.601852,21.8528372 C21.601852,21.8528372 19.8704058,21.0694336 17.8503853,21.1931289 C14.8821919,21.3992877 14.840967,23.2959491 14.8821919,23.7494985 Z M24.4875956,7.54541359 C24.4875956,6.30846054 24.3226959,4.61795804 23.7455472,3.13361439 C25.5594432,3.46346853 26.4663912,5.56628871 26.8786402,6.80324176 C26.8374153,6.80324176 24.4875956,7.54541359 24.4875956,7.54541359 Z M31.2484805,49.7255125 L43.8633025,46.5918981 C43.8633025,46.5918981 38.4216146,9.89562438 38.4216146,9.64823377 C38.3803897,9.44207493 38.21549,9.27714786 37.9681406,9.23591609 C37.803241,9.23591609 34.2578988,9.15345255 34.2578988,9.15345255 C34.2578988,9.15345255 32.1142036,7.05063237 31.2897054,6.26722877 L31.2897054,49.7255125 L31.2484805,49.7255125 Z" id="Shape"></path>
        </g>
    </g>
</svg>