<?xml version="1.0" encoding="UTF-8"?>
<svg width="300px" height="200px" viewBox="0 0 300 200" version="1.1" xmlns="http://www.w3.org/2000/svg" xmlns:xlink="http://www.w3.org/1999/xlink">
    <title>VWO</title>
    <g id="VWO" stroke="none" stroke-width="1" fill="none" fill-rule="evenodd">
        <rect fill="#FFFFFF" x="0" y="0" width="300" height="200"></rect>
        <g id="vwo-logo-color" transform="translate(62.000000, 71.000000)" fill="#222222" fill-rule="nonzero">
            <path d="M147.792795,0 C146.708613,0 145.407829,0 144.323647,0.216196358 L138.035741,11.2321961 C140.854498,9.50380338 144.323647,8.64019613 147.792795,8.64019613 C159.067823,8.64019613 168.391087,17.9278032 168.391087,29.1599992 C168.391087,40.3921953 159.067823,49.6798023 147.792795,49.6798023 C136.517768,49.6798023 127.411105,40.6078026 127.194504,29.3761956 L120.689997,40.3921953 C125.026139,50.9758023 135.650775,58.3199985 147.576194,58.3199985 C163.621155,58.3199985 176.847358,45.1438024 176.847358,29.1599992 C177.064548,13.176196 163.837756,0 147.792795,0 Z" id="Path"></path>
            <path d="M59.1299984,30.4559992 L64.1263043,21.8158031 L75.4220951,41.0401953 L88.4550648,18.7919995 L101.488035,41.0401953 L123.862616,3.23999991 C124.948795,1.29599997 127.121153,0 129.510511,0 L135.809996,0 L101.488624,58.3199985 L88.4556545,36.0718027 L75.4220951,58.3199985 L59.1299984,30.4559992 L59.1299984,30.4559992 Z" id="Path"></path>
            <path d="M68.3099982,0 L34.0466827,58.3199985 L0,0 L6.28882894,0 C8.67414532,0 10.8428288,1.29599997 11.9271706,3.23999991 L34.0466827,41.2558025 L56.3828276,3.23999991 C57.4671694,1.29599997 59.6352642,0 62.0211692,0 L68.3099982,0 Z" id="Path"></path>
        </g>
    </g>
</svg>