<?xml version="1.0" encoding="UTF-8"?>
<svg width="300px" height="200px" viewBox="0 0 300 200" version="1.1" xmlns="http://www.w3.org/2000/svg" xmlns:xlink="http://www.w3.org/1999/xlink">
    <title>Wordpress</title>
    <g id="Wordpress" stroke="none" stroke-width="1" fill="none" fill-rule="evenodd">
        <rect fill="#FFFFFF" x="0" y="0" width="300" height="200"></rect>
        <g id="WordPress_logo" transform="translate(35.000000, 74.000000)" fill="#222222" fill-rule="nonzero">
            <path d="M132.905409,20.5 L123.872589,20.5 L123.872589,21.4551702 C126.697975,21.4551702 127.152229,22.05877 127.152229,25.6303864 L127.152229,32.0692077 C127.152229,35.6404006 126.6984,36.2944062 123.872589,36.2944062 C121.703302,35.9928181 120.239404,34.8356008 118.220968,32.6224016 L115.899979,30.1076143 C119.028343,29.5535732 120.693234,27.5924034 120.693234,25.3787806 C120.693234,22.612811 118.322103,20.5 113.881118,20.5 L105,20.5 L105,21.4551702 C107.825385,21.4551702 108.27964,22.05877 108.27964,25.6303864 L108.27964,32.0692077 C108.27964,35.6404006 107.825385,36.2944062 105,36.2944062 L105,37.25 L115.041613,37.25 L115.041613,36.2944062 C112.216227,36.2944062 111.761973,35.6404006 111.761973,32.0692077 L111.761973,30.2588319 L112.61949,30.2588319 L118.220968,37.25 L132.905409,37.25 C140.121212,37.25 143.25,33.4276249 143.25,28.8495853 C143.25,24.2723928 140.121637,20.5 132.905409,20.5 Z M111.762398,28.6983676 L111.762398,22.0092113 L113.830976,22.0092113 C116.101398,22.0092113 117.111041,23.5684048 117.111041,25.3792042 C117.111041,27.1400212 116.101398,28.6987912 113.830976,28.6987912 L111.762398,28.6987912 L111.762398,28.6983676 Z M133.057111,35.6908064 L132.703566,35.6908064 C130.887398,35.6908064 130.634987,35.2384243 130.634987,32.9244133 L130.634987,22.0092113 C130.634987,22.0092113 132.855267,22.0092113 133.057111,22.0092113 C138.305044,22.0092113 139.26327,25.8315863 139.26327,28.799603 C139.26327,31.8675842 138.304619,35.6908064 133.057111,35.6908064 Z" id="Shape"></path>
            <path d="M77.1912617,30.6670924 L80.6780033,20.3531971 C81.6890477,17.3706095 81.2341628,16.5115084 78.0001824,16.5115084 L78.0001824,15.5 L87.5,15.5 L87.5,16.5115084 C84.3166569,16.5115084 83.5587991,17.2697141 82.2954191,20.9602725 L76.5342531,38.25 L75.8776699,38.25 L70.7228753,22.4260231 L65.4680825,38.25 L64.8110739,38.25 L59.2022454,20.9602725 C57.9895027,17.2697141 57.1810076,16.5115084 54.25,16.5115084 L54.25,15.5 L65.4680825,15.5 L65.4680825,16.5115084 C62.4864376,16.5115084 61.677517,17.2190535 62.7391987,20.3531971 L66.1246657,30.6670924 L71.2283975,15.5 L72.1888046,15.5 L77.1912617,30.6670924 Z" id="Path"></path>
            <path d="M94.125,38.25 C88.5564632,38.25 84,34.1328021 84,29.0995297 C84,24.1180541 88.5568895,20 94.125,20 C99.6939632,20 104.25,24.1180541 104.25,29.0995297 C104.25,34.1328021 99.6939632,38.25 94.125,38.25 Z M94.125,21.5770178 C89.4679263,21.5770178 87.8475,25.7956688 87.8475,29.0999578 C87.8475,32.4556154 89.4679263,36.6237539 94.125,36.6237539 C98.8336579,36.6237539 100.453658,32.4556154 100.453658,29.0999578 C100.453658,25.7956688 98.8336579,21.5770178 94.125,21.5770178 Z" id="Shape"></path>
            <path d="M155.63725,36.245425 L155.63725,37.25 L144.25,37.25 L144.25,36.245425 C147.581924,36.245425 148.17863,35.3918535 148.17863,30.3681327 L148.17863,22.3319558 C148.17863,17.308235 147.581924,16.504998 144.25,16.504998 L144.25,15.5 L154.543079,15.5 C159.664703,15.5 162.5,18.1622294 162.5,21.7292108 C162.5,25.1951003 159.664703,27.9072412 154.543079,27.9072412 L151.708619,27.9072412 L151.708619,30.3677097 C151.708619,35.3918535 152.305325,36.245425 155.63725,36.245425 Z M154.543079,17.308235 L151.708619,17.308235 L151.708619,26.0486717 L154.543079,26.0486717 C157.328127,26.0486717 158.620781,24.0898563 158.620781,21.7292108 C158.620781,19.3182309 157.328127,17.308235 154.543079,17.308235 Z" id="Shape"></path>
            <path d="M197.498165,32.5220135 L197.247693,33.4272013 C196.797351,35.0872067 196.245808,35.6908064 192.690718,35.6908064 L191.989483,35.6908064 C189.3861,35.6908064 188.935336,35.0872067 188.935336,31.5160138 L188.935336,29.2024264 C192.841254,29.2024264 193.141904,29.5539968 193.141904,32.1700195 L194.093189,32.1700195 L194.093189,24.6747926 L193.141904,24.6747926 C193.141904,27.2903917 192.841254,27.6423857 188.935336,27.6423857 L188.935336,22.0092113 L191.688833,22.0092113 C195.244766,22.0092113 195.795044,22.612811 196.245808,24.2728164 L196.496701,25.2279865 L197.29745,25.2279865 L196.947465,20.5 L182.22532,20.5 L182.22532,21.4551702 C185.028996,21.4551702 185.480182,22.05877 185.480182,25.6303864 L185.480182,32.0692077 C185.480182,35.336271 185.097306,36.1592846 182.886497,36.2766159 C180.785321,35.9542725 179.342792,34.8029853 177.36896,32.6224016 L175.065383,30.1076143 C178.170131,29.5535732 179.822651,27.5924034 179.822651,25.3787806 C179.822651,22.612811 177.469317,20.5 173.062878,20.5 L164.25,20.5 L164.25,21.4551702 C167.053676,21.4551702 167.50444,22.05877 167.50444,25.6303864 L167.50444,32.0692077 C167.50444,35.6404006 167.054098,36.2944062 164.25,36.2944062 L164.25,37.25 L174.214877,37.25 L174.214877,36.2944062 C171.411202,36.2944062 170.960016,35.6404006 170.960016,32.0692077 L170.960016,30.2588319 L171.811365,30.2588319 L177.369382,37.25 L197.94935,37.25 L198.25,32.522437 L197.498165,32.522437 L197.498165,32.5220135 Z M170.959594,28.6983676 L170.959594,22.0092113 L173.012278,22.0092113 C175.265676,22.0092113 176.267561,23.5684048 176.267561,25.3792042 C176.267561,27.1400212 175.265676,28.6987912 173.012278,28.6987912 L170.959594,28.6987912 L170.959594,28.6983676 Z" id="Shape"></path>
            <path d="M207.576071,38.25 C205.551763,38.25 203.780173,37.1827911 203.021164,36.5214041 C202.768018,36.776113 202.312869,37.5385274 202.211866,38.25 L201.25,38.25 L201.25,31.2354452 L202.262154,31.2354452 C202.667442,34.5903253 204.994758,36.572774 207.980933,36.572774 C209.60038,36.572774 210.916394,35.6579623 210.916394,34.1331336 C210.916394,32.8116438 209.752523,31.7945205 207.6775,30.8287671 L204.792753,29.4563356 C202.768018,28.489726 201.25,26.8120719 201.25,24.5757705 C201.25,22.1357021 203.527454,20.0517979 206.665346,20.0517979 C208.335507,20.0517979 209.752097,20.6618151 210.612961,21.3732877 C210.86568,21.1699486 211.118825,20.6104452 211.270968,20 L212.232408,20 L212.232408,25.9991438 L211.169539,25.9991438 C210.814965,23.609589 209.499378,21.6271404 206.817488,21.6271404 C205.400472,21.6271404 204.084032,22.4404966 204.084032,23.7119007 C204.084032,25.0333904 205.146901,25.744863 207.576498,26.8634418 L210.359389,28.2358733 C212.788986,29.4049658 213.75,31.2868151 213.75,32.8116438 C213.75,36.0136986 210.966682,38.25 207.576071,38.25 Z" id="Path"></path>
            <path d="M223.076498,38.25 C221.051763,38.25 219.280173,37.1827911 218.52159,36.5214041 C218.268445,36.776113 217.813295,37.5385274 217.712292,38.25 L216.750426,38.25 L216.750426,31.2354452 L217.762581,31.2354452 C218.167442,34.5903253 220.495184,36.572774 223.481359,36.572774 C225.100806,36.572774 226.41682,35.6579623 226.41682,34.1331336 C226.41682,32.8116438 225.252949,31.7945205 223.1775,30.8287671 L220.292753,29.4563356 C218.268445,28.489726 216.75,26.8120719 216.75,24.5757705 C216.75,22.1357021 219.027454,20.0517979 222.165346,20.0517979 C223.835507,20.0517979 225.252097,20.6618151 226.112961,21.3732877 C226.36568,21.1699486 226.618825,20.6104452 226.770115,20 L227.731982,20 L227.731982,25.9991438 L226.669539,25.9991438 C226.314965,23.609589 224.999378,21.6271404 222.317488,21.6271404 C220.900472,21.6271404 219.584032,22.4404966 219.584032,23.7119007 C219.584032,25.0333904 220.646901,25.744863 223.076498,26.8634418 L225.859389,28.2358733 C228.288986,29.4049658 229.25,31.2868151 229.25,32.8116438 C229.25,36.0136986 226.466682,38.25 223.076498,38.25 Z" id="Path"></path>
            <g id="Group">
                <path d="M3.69913008,26.0230488 C3.69913008,34.8596707 8.83449797,42.4962419 16.281185,46.1150854 L5.63195528,16.9374959 C4.39324797,19.7139675 3.69913008,22.7865224 3.69913008,26.0230488 Z" id="Path"></path>
                <path d="M41.0948374,24.8964878 C41.0948374,22.1374329 40.1037866,20.2266972 39.2537683,18.7394837 C38.1221098,16.9005386 37.0613923,15.3432337 37.0613923,13.5042886 C37.0613923,11.4520955 38.6178476,9.54178455 40.8102236,9.54178455 C40.9092012,9.54178455 41.0030813,9.55410366 41.0995102,9.55962602 C37.1276606,5.92081707 31.8359675,3.69913008 26.0238984,3.69913008 C18.2246301,3.69913008 11.3628882,7.70071545 7.37107317,13.7617154 C7.89484756,13.7774329 8.38846138,13.7884776 8.80773577,13.7884776 C11.1428435,13.7884776 14.757439,13.5051382 14.757439,13.5051382 C15.9608882,13.4341972 16.1027703,15.2017764 14.9005955,15.3440833 C14.9005955,15.3440833 13.6911992,15.4863902 12.3454431,15.5569065 L20.4752033,39.7384614 L25.3607907,25.0859472 L21.8825549,15.5560569 C20.6803801,15.4855407 19.5415,15.3432337 19.5415,15.3432337 C18.3384756,15.2727175 18.4795081,13.4333476 19.6825325,13.5042886 C19.6825325,13.5042886 23.3693435,13.787628 25.5629939,13.787628 C27.8976768,13.787628 31.5126972,13.5042886 31.5126972,13.5042886 C32.7169959,13.4333476 32.8584533,15.2009268 31.6558537,15.3432337 C31.6558537,15.3432337 30.4439085,15.4855407 29.1007012,15.5560569 L37.1684411,39.5545244 L39.3952256,32.1133598 C40.3603638,29.0255122 41.0948374,26.8076484 41.0948374,24.8964878 Z" id="Path"></path>
                <path d="M26.415561,27.9758394 L19.7173659,47.4396016 C21.7173089,48.0275203 23.832372,48.3490915 26.0238984,48.3490915 C28.6236545,48.3490915 31.1167866,47.8996565 33.4374512,47.083622 C33.3775549,46.9880427 33.3231809,46.8865163 33.2785772,46.7760691 L26.415561,27.9758394 Z" id="Path"></path>
                <path d="M45.6129756,15.3122236 C45.7089797,16.0233333 45.7633537,16.7866931 45.7633537,17.6078252 C45.7633537,19.8732663 45.3402561,22.4199228 44.0658659,25.6041992 L37.2466037,45.3202907 C43.883628,41.4499675 48.3478172,34.2594329 48.3478172,26.0234736 C48.3482419,22.1421057 47.3567663,18.492252 45.6129756,15.3122236 Z" id="Path"></path>
                <path d="M26.0238984,0 C11.674689,0 0,11.6738394 0,26.0230488 C0,40.3739573 11.674689,52.047372 26.0238984,52.047372 C40.3726829,52.047372 52.0490711,40.3739573 52.0490711,26.0230488 C52.0490711,11.6738394 40.3726829,0 26.0238984,0 Z M26.0238984,50.8545427 C12.3326992,50.8545427 1.19325407,39.7150976 1.19325407,26.0230488 C1.19325407,12.3318496 12.3322744,1.19325407 26.0238984,1.19325407 C39.7146728,1.19325407 50.8532683,12.3318496 50.8532683,26.0230488 C50.8532683,39.7150976 39.7146728,50.8545427 26.0238984,50.8545427 Z" id="Shape"></path>
            </g>
        </g>
    </g>
</svg>