<?xml version="1.0" encoding="UTF-8"?>
<svg width="300px" height="200px" viewBox="0 0 300 200" version="1.1" xmlns="http://www.w3.org/2000/svg" xmlns:xlink="http://www.w3.org/1999/xlink">
    <title>WP Engine</title>
    <g id="WP-Engine" stroke="none" stroke-width="1" fill="none" fill-rule="evenodd">
        <rect fill="#FFFFFF" x="0" y="0" width="300" height="200"></rect>
        <g id="wp-engine-1" transform="translate(25.000000, 76.000000)" fill="#222222" fill-rule="nonzero">
            <path d="M16.1489988,47.606875 L31.4578762,47.606875 L31.4578762,36.0318701 L27.7240037,32.2979975 L19.7895245,32.2979975 L16.1489988,36.0318701 L16.1489988,47.606875 Z M35.9385233,16.1489988 L32.2979975,19.7895245 L32.2979975,27.8173505 L35.9385233,31.4578762 L47.606875,31.4578762 L47.606875,16.1489988 L35.9385233,16.1489988 Z M31.4578762,0 L16.1489988,0 L16.1489988,11.6683517 L19.7895245,15.3088775 L27.7240037,15.3088775 L31.4578762,11.6683517 L31.4578762,0 Z M47.606875,47.606875 L47.606875,36.0318701 L43.9663493,32.2979975 L32.2979975,32.2979975 L32.2979975,47.606875 L47.606875,47.606875 Z M3.64052574,0 L0,3.64052574 L0,15.3088775 L15.3088775,15.3088775 L15.3088775,0 L3.64052574,0 Z M32.2979975,0 L32.2979975,11.6683517 L35.9385233,15.3088775 L47.606875,15.3088775 L47.606875,0 L32.2979975,0 Z M23.8034375,26.043761 C22.5899289,26.043761 21.6564608,25.0169461 21.6564608,23.8967843 C21.6564608,22.6832757 22.6832757,21.7498076 23.8034375,21.7498076 C25.0169461,21.7498076 25.9504142,22.7766225 25.9504142,23.8967843 C25.9504142,25.0169461 25.0169461,26.043761 23.8034375,26.043761 Z M15.3088775,16.1489988 L0,16.1489988 L0,31.4578762 L11.5750049,31.4578762 L15.3088775,27.8173505 L15.3088775,16.1489988 Z M15.3088775,36.0318701 L11.5750049,32.2979975 L0,32.2979975 L0,47.606875 L11.5750049,47.606875 L15.3088775,43.9663493 L15.3088775,36.0318701 Z" id="Shape"></path>
            <path d="M80.1849319,35.9620061 C79.9048113,35.9620061 79.8114378,35.8683315 79.7180642,35.5873075 L75.8897496,22.004481 L75.7963761,22.004481 L71.9680615,35.5873075 C71.874688,35.8683315 71.7813144,35.9620061 71.5011939,35.9620061 L67.0192645,35.9620061 C66.739144,35.9620061 66.6457704,35.8683315 66.5523969,35.5873075 L60.01625,11.9812919 C60.01625,11.7939425 60.01625,11.6065932 60.2963706,11.6065932 L66.1789028,11.6065932 C66.4590234,11.6065932 66.6457704,11.7939425 66.6457704,11.9812919 L69.7270968,26.1261663 L69.8204704,26.1261663 L73.5554115,11.9812919 C73.648785,11.7002679 73.7421585,11.6065932 74.0222791,11.6065932 L77.6638466,11.6065932 C77.9439672,11.6065932 78.0373408,11.7002679 78.1307143,11.9812919 L82.0524024,26.1261663 L82.145776,26.1261663 L85.1337288,11.9812919 C85.1337288,11.7939425 85.3204759,11.6065932 85.6005965,11.6065932 L91.4831287,11.6065932 C91.6698757,11.6065932 91.7632493,11.7939425 91.7632493,11.9812919 L85.2271024,35.5873075 C85.1337288,35.8683315 85.0403553,35.9620061 84.7602347,35.9620061 L80.1849319,35.9620061 L80.1849319,35.9620061 Z M96.4319256,35.9620061 C96.2451786,35.9620061 96.0584315,35.7746568 96.0584315,35.5873075 L96.0584315,11.9812919 C96.0584315,11.7939425 96.2451786,11.6065932 96.4319256,11.6065932 L106.142772,11.6065932 C112.025305,11.6065932 115.106631,14.9788811 115.106631,19.6626144 C115.106631,24.3463477 112.025305,27.8123103 106.142772,27.8123103 L102.594578,27.8123103 C102.407831,27.8123103 102.407831,27.9059849 102.407831,27.9996596 L102.407831,35.4936328 C102.407831,35.6809821 102.221084,35.8683315 102.034337,35.8683315 L96.4319256,35.8683315 L96.4319256,35.9620061 Z M108.850605,19.7562891 C108.850605,18.0701451 107.730122,17.0397238 105.769278,17.0397238 L102.594578,17.0397238 C102.407831,17.0397238 102.407831,17.1333984 102.407831,17.2270731 L102.407831,22.285505 C102.407831,22.4728544 102.501205,22.4728544 102.594578,22.4728544 L105.769278,22.4728544 C107.730122,22.4728544 108.850605,21.3487584 108.850605,19.7562891 Z M123.416875,29.9668276 C122.950007,28.6553823 122.76326,27.0629129 122.76326,23.8779743 C122.76326,20.7867104 123.043381,19.1005664 123.416875,17.7891211 C124.630731,13.9484598 127.618684,11.9812919 131.446998,11.9812919 C135.368686,11.9812919 138.26326,13.9484598 139.477122,17.7891211 C139.943989,19.1005664 140.130736,20.599361 140.130736,23.5032757 C140.130736,23.7842997 139.943989,23.971649 139.570495,23.971649 L124.35061,23.971649 C124.163863,23.971649 124.07049,24.1589983 124.07049,24.3463477 C124.07049,26.8755636 124.257237,28.2806836 124.630731,29.4984542 C125.751213,32.9644169 128.272298,34.4632115 131.633745,34.4632115 C134.808445,34.4632115 137.142784,33.0580915 138.543386,31.1845982 C138.730133,30.9035742 139.010254,30.9035742 139.197001,31.0909235 L139.477122,31.3719475 C139.757242,31.5592969 139.757242,31.8403209 139.570495,32.0276702 C137.983145,34.2758622 135.275313,35.8683315 131.727119,35.8683315 C127.52531,35.8683315 124.724104,33.9011635 123.416875,29.9668276 L123.416875,29.9668276 Z M138.543386,22.6602037 C138.730133,22.6602037 138.823507,22.566529 138.823507,22.3791797 C138.823507,20.7867104 138.63676,19.4752651 138.263266,18.3511691 C137.236157,15.0725558 134.808445,13.3864118 131.540372,13.3864118 C128.272298,13.3864118 125.844587,14.9788811 124.817478,18.3511691 C124.443984,19.4752651 124.257237,20.6930357 124.257237,22.3791797 C124.257237,22.566529 124.35061,22.6602037 124.537357,22.6602037 L138.543386,22.6602037 L138.543386,22.6602037 Z M161.793389,35.3999581 C161.513274,35.3999581 161.326527,35.2126088 161.326527,34.9315848 L161.326527,21.2550837 C161.326527,15.8219531 159.085562,13.4800865 154.697007,13.4800865 C150.868692,13.4800865 147.693992,16.1029771 147.693992,20.599361 L147.693992,35.0252595 C147.693992,35.3062835 147.507245,35.4936328 147.227124,35.4936328 L146.760257,35.4936328 C146.480136,35.4936328 146.293389,35.3062835 146.293389,35.0252595 L146.293389,13.1053878 C146.293389,12.8243638 146.480136,12.6370145 146.760257,12.6370145 L147.227124,12.6370145 C147.507245,12.6370145 147.693992,12.8243638 147.693992,13.1053878 L147.693992,16.2903265 L147.787366,16.2903265 C148.907848,13.6674358 151.522307,12.0749665 154.79038,12.0749665 C159.925924,12.0749665 162.820503,14.9788811 162.820503,20.880385 L162.820503,34.9315848 C162.820503,35.2126088 162.633756,35.3999581 162.353636,35.3999581 L161.793389,35.3999581 Z M169.636771,41.3014621 C169.450024,41.0204381 169.450024,40.7394141 169.730145,40.6457394 L170.103639,40.3647154 C170.383759,40.1773661 170.570506,40.2710407 170.757253,40.5520647 C172.064483,42.2382087 174.025327,43.26863 176.826533,43.26863 C181.121715,43.26863 183.922915,41.1141127 183.922915,35.4936328 L183.922915,31.6529715 L183.829547,31.6529715 C182.709065,34.1821875 180.748221,35.9620061 176.733159,35.9620061 C172.904844,35.9620061 170.290386,33.9011635 169.169903,30.5288756 C168.609662,28.9364063 168.422915,26.8755636 168.422915,24.0653237 C168.422915,21.2550837 168.703036,19.1942411 169.169903,17.6017718 C170.290386,14.2294838 172.904844,12.1686412 176.733159,12.1686412 C180.748221,12.1686412 182.709065,13.9484598 183.829547,16.4776758 L183.922915,16.4776758 L183.922915,13.1990625 C183.922915,12.9180385 184.109668,12.7306892 184.389788,12.7306892 L184.856656,12.7306892 C185.136777,12.7306892 185.323524,12.9180385 185.323524,13.1990625 L185.323524,35.5873075 C185.323524,41.86351 181.962077,44.67375 176.733159,44.67375 C173.465086,44.5800753 170.757253,43.0812807 169.636771,41.3014621 L169.636771,41.3014621 Z M183.269306,29.9668276 C183.736174,28.5617076 183.922921,26.8755636 183.922921,23.971649 C183.922921,21.161409 183.736174,19.3815904 183.269306,17.9764704 C182.148824,14.6041825 179.721112,13.3864118 176.919906,13.3864118 C173.83858,13.3864118 171.597615,14.8852065 170.66388,17.8827958 C170.197012,19.2879157 169.916892,21.2550837 169.916892,23.8779743 C169.916892,26.500865 170.197012,28.4680329 170.66388,29.8731529 C171.690989,32.8707422 173.83858,34.3695368 176.919906,34.3695368 C179.721112,34.5568862 182.242197,33.3391155 183.269306,29.9668276 L183.269306,29.9668276 Z M193.1669,5.51773996 C192.886779,5.51773996 192.700032,5.33039062 192.700032,5.04936663 L192.700032,3.17587333 C192.700032,2.89484933 192.886779,2.7075 193.1669,2.7075 L194.287382,2.7075 C194.567503,2.7075 194.75425,2.89484933 194.75425,3.17587333 L194.75425,5.14304129 C194.75425,5.42406529 194.567503,5.61141462 194.287382,5.61141462 L193.1669,5.61141462 L193.1669,5.51773996 Z M193.540394,35.3999581 C193.260273,35.3999581 193.073526,35.2126088 193.073526,34.9315848 L193.073526,13.1053878 C193.073526,12.8243638 193.260273,12.6370145 193.540394,12.6370145 L194.007262,12.6370145 C194.287382,12.6370145 194.474129,12.8243638 194.474129,13.1053878 L194.474129,34.9315848 C194.474129,35.2126088 194.287382,35.3999581 194.007262,35.3999581 L193.540394,35.3999581 L193.540394,35.3999581 Z M217.724132,35.3999581 C217.444017,35.3999581 217.25727,35.2126088 217.25727,34.9315848 L217.25727,21.2550837 C217.25727,15.8219531 215.016305,13.4800865 210.627749,13.4800865 C206.799435,13.4800865 203.624735,16.1029771 203.624735,20.599361 L203.624735,35.0252595 C203.624735,35.3062835 203.437988,35.4936328 203.157867,35.4936328 L202.691,35.4936328 C202.410879,35.4936328 202.224132,35.3062835 202.224132,35.0252595 L202.224132,13.1053878 C202.224132,12.8243638 202.410879,12.6370145 202.691,12.6370145 L203.157867,12.6370145 C203.437988,12.6370145 203.624735,12.8243638 203.624735,13.1053878 L203.624735,16.2903265 L203.718108,16.2903265 C204.838591,13.6674358 207.45305,12.0749665 210.721123,12.0749665 C215.856667,12.0749665 218.751246,14.9788811 218.751246,20.880385 L218.751246,34.9315848 C218.751246,35.2126088 218.564499,35.3999581 218.284379,35.3999581 L217.724132,35.3999581 L217.724132,35.3999581 Z M225.100646,29.9668276 C224.633779,28.6553823 224.447031,27.0629129 224.447031,23.8779743 C224.447031,20.7867104 224.727152,19.1005664 225.100646,17.7891211 C226.314502,13.9484598 229.302455,11.9812919 233.13077,11.9812919 C237.052458,11.9812919 239.947031,13.9484598 241.160893,17.7891211 C241.62776,19.1005664 241.814508,20.599361 241.814508,23.5032757 C241.814508,23.7842997 241.62776,23.971649 241.254266,23.971649 L226.034381,23.971649 C225.847634,23.971649 225.754261,24.1589983 225.754261,24.3463477 C225.754261,26.8755636 225.941008,28.2806836 226.314502,29.4984542 C227.434984,32.9644169 229.95607,34.4632115 233.317517,34.4632115 C236.492216,34.4632115 238.826555,33.0580915 240.227158,31.1845982 C240.413905,30.9035742 240.694025,30.9035742 240.880772,31.0909235 L241.160893,31.3719475 C241.441013,31.5592969 241.441013,31.8403209 241.254266,32.0276702 C239.666916,34.2758622 236.959084,35.8683315 233.41089,35.8683315 C229.209081,35.8683315 226.314502,33.9011635 225.100646,29.9668276 L225.100646,29.9668276 Z M240.133784,22.6602037 C240.320531,22.6602037 240.413905,22.566529 240.413905,22.3791797 C240.413905,20.7867104 240.227158,19.4752651 239.853663,18.3511691 C238.826555,15.0725558 236.398843,13.3864118 233.13077,13.3864118 C229.862696,13.3864118 227.434984,14.9788811 226.407876,18.3511691 C226.034381,19.4752651 225.847634,20.6930357 225.847634,22.3791797 C225.847634,22.566529 225.941008,22.6602037 226.127755,22.6602037 L240.133784,22.6602037 Z M244.615713,14.8852065 C244.615713,13.2927372 245.829569,12.0749665 247.416919,12.0749665 C249.004269,12.0749665 250.218125,13.2927372 250.218125,14.8852065 C250.218125,16.4776758 249.004269,17.6954464 247.416919,17.6954464 C245.829569,17.6954464 244.615713,16.4776758 244.615713,14.8852065 Z M249.751257,14.8852065 C249.751257,13.4800865 248.724149,12.5433398 247.416919,12.5433398 C246.016316,12.5433398 245.082581,13.5737612 245.082581,14.8852065 C245.082581,16.2903265 246.10969,17.2270731 247.416919,17.2270731 C248.724149,17.2270731 249.751257,16.2903265 249.751257,14.8852065 Z M246.483184,16.4776758 C246.38981,16.4776758 246.38981,16.4776758 246.38981,16.3840011 L246.38981,13.4800865 C246.38981,13.3864118 246.38981,13.3864118 246.483184,13.3864118 L247.603666,13.3864118 C248.257281,13.3864118 248.630775,13.7611105 248.630775,14.3231585 C248.630775,14.6978571 248.444028,15.0725558 247.97716,15.1662305 L248.630775,16.3840011 C248.724149,16.4776758 248.630775,16.5713504 248.537402,16.5713504 L248.257281,16.5713504 C248.163907,16.5713504 248.163907,16.4776758 248.070534,16.4776758 L247.416919,15.2599051 L246.763304,15.2599051 L246.763304,16.3840011 C246.763304,16.4776758 246.669931,16.4776758 246.669931,16.4776758 L246.483184,16.4776758 L246.483184,16.4776758 Z M248.163907,14.2294838 C248.163907,13.9484598 247.97716,13.7611105 247.603666,13.7611105 L246.856678,13.7611105 L246.856678,14.6978571 L247.603666,14.6978571 C247.97716,14.6978571 248.163907,14.5105078 248.163907,14.2294838 Z" id="Shape"></path>
        </g>
    </g>
</svg>