<?xml version="1.0" encoding="UTF-8"?>
<svg width="1070px" height="260px" viewBox="0 0 1070 260" version="1.1" xmlns="http://www.w3.org/2000/svg" xmlns:xlink="http://www.w3.org/1999/xlink">
    <!-- Generator: Sketch 64 (93537) - https://sketch.com -->
    <title>shopify</title>
    <desc>Created with Sketch.</desc>
    <g id="shopify" stroke="none" stroke-width="1" fill="none" fill-rule="evenodd">
        <g id="Shopify_logo_2018" transform="translate(156.000000, 22.000000)" fill-rule="nonzero">
            <path d="M162.197665,41.2325718 C162.074414,40.1148213 161.08841,39.6180434 160.348907,39.6180434 C159.609404,39.6180434 143.463588,38.3760984 143.463588,38.3760984 C143.463588,38.3760984 132.247792,27.0743995 130.892036,25.9566491 C129.659531,24.7147042 127.317772,25.0872876 126.331768,25.3356766 C126.208517,25.3356766 123.866758,26.0808436 120.045992,27.3227885 C116.225226,16.2694786 109.69295,6.20972466 97.9841516,6.20972466 L96.8748971,6.20972466 C93.6703839,1.98711189 89.4798668,0 86.0288526,0 C58.9137415,0 45.8491879,34.1534856 41.7819213,51.5407147 C31.1823778,54.893966 23.664097,57.1294669 22.8013435,57.5020504 C16.8853192,59.3649678 16.7620687,59.4891623 16.0225657,65.0779145 C15.4063131,69.3005272 0,189.396602 0,189.396602 L119.922742,212 L184.999506,197.841828 C185.122259,197.593439 162.320915,42.3503222 162.197665,41.2325718 Z M113.390465,29.0615114 C110.432453,29.9308729 106.858188,31.0486233 103.283923,32.2905682 L103.283923,30.0550674 C103.283923,23.3485647 102.42117,17.884007 100.818913,13.5371998 C106.981438,14.2823667 110.802204,21.1130639 113.390465,29.0615114 Z M93.3006324,14.9033392 C94.902889,19.125952 96.0121435,25.0872876 96.0121435,33.2841242 L96.0121435,34.5260691 C89.3566163,36.6373755 82.3313375,38.7486819 75.0595577,41.1083773 C79.1268243,25.4598711 86.8916062,17.7598125 93.3006324,14.9033392 Z M85.4126001,7.20328061 C86.6451051,7.20328061 87.8776102,7.70005858 88.8636142,8.44522554 C80.1128284,12.5436438 70.8690405,22.8517868 67.0482748,43.7164616 C61.2555011,45.579379 55.7092283,47.1939074 50.4094566,48.9326303 C54.8464748,33.0357352 65.9390203,7.20328061 85.4126001,7.20328061 L85.4126001,7.20328061 Z" id="Shape" fill="#222222"></path>
            <path d="M161.00947,39.3266932 C160.270833,39.3266932 144.143939,38.0916335 144.143939,38.0916335 C144.143939,38.0916335 132.941288,26.8525896 131.587121,25.7410359 C131.094697,25.247012 130.479167,25 129.986742,25 L121,211 L186,196.920319 C186,196.920319 163.225379,42.2908367 163.102273,41.1792829 C162.609848,40.0677291 161.748106,39.5737052 161.00947,39.3266932 L161.00947,39.3266932 Z" id="Path" fill="#000000"></path>
            <path d="M98,75.0958638 L90.1563055,98.969076 C90.1563055,98.969076 83.0479574,95.1345186 74.5914742,95.1345186 C61.9680284,95.1345186 61.3552398,103.17472 61.3552398,105.153846 C61.3552398,116.039041 89.5435169,120.244685 89.5435169,145.849633 C89.5435169,166.011983 76.920071,179 59.8845471,179 C39.294849,179 29,166.135678 29,166.135678 L34.5150977,147.828759 C34.5150977,147.828759 45.3001776,157.22961 54.3694494,157.22961 C60.374778,157.22961 62.8259325,152.529184 62.8259325,149.065713 C62.8259325,134.840742 39.7850799,134.222265 39.7850799,110.720139 C39.7850799,91.0525704 53.7566607,72.0034788 82.0674956,72.0034788 C92.60746,71.8797834 98,75.0958638 98,75.0958638 L98,75.0958638 Z" id="Path" fill="#FFFFFF"></path>
            <path d="M262.414707,120.213371 C255.854761,116.748222 252.512902,113.654339 252.512902,109.570413 C252.512902,104.372688 257.216259,101.031294 264.51884,101.031294 C273.059146,101.031294 280.609272,104.496444 280.609272,104.496444 L286.550354,86.3044097 C286.550354,86.3044097 281.104362,82.0967283 265.01393,82.0967283 C242.611098,82.0967283 227.015757,94.9672831 227.015757,113.035562 C227.015757,123.307255 234.318338,131.103841 243.972596,136.672831 C251.89404,141.004267 254.617036,144.221906 254.617036,148.924609 C254.617036,153.751067 250.656314,157.711238 243.353734,157.711238 C232.585522,157.711238 222.3124,152.142248 222.3124,152.142248 L216,170.334282 C216,170.334282 225.406714,176.645804 241.2496,176.645804 C264.271295,176.645804 280.980589,165.260313 280.980589,144.840683 C280.733044,133.702703 272.440283,126.029872 262.414707,120.213371 L262.414707,120.213371 Z M354.253939,81.8492176 C342.866865,81.8492176 333.955241,87.2944523 327.147751,95.4623044 L326.900206,95.3385491 L336.80201,43.85633 L311.181092,43.85633 L286.179036,175.036984 L311.799954,175.036984 L320.34026,130.237553 C323.682119,113.283073 332.46997,102.763869 340.638959,102.763869 C346.456269,102.763869 348.684174,106.72404 348.684174,112.29303 C348.684174,115.758179 348.436629,120.213371 347.570222,123.678521 L337.915963,175.036984 L363.536881,175.036984 L373.562457,122.069701 C374.67641,116.500711 375.419045,109.817923 375.419045,105.238976 C375.295273,90.512091 367.745147,81.8492176 354.253939,81.8492176 L354.253939,81.8492176 Z M433.344599,81.8492176 C402.401462,81.8492176 381.978991,109.694168 381.978991,140.756757 C381.978991,160.55761 394.232473,176.645804 417.254168,176.645804 C447.578443,176.645804 468.000913,149.543385 468.000913,117.738265 C468.124686,99.2987198 457.480247,81.8492176 433.344599,81.8492176 Z M420.719799,157.092461 C411.931948,157.092461 408.342544,149.667141 408.342544,140.261735 C408.342544,125.534851 415.89267,101.650071 429.878968,101.650071 C438.914364,101.650071 442.008678,109.570413 442.008678,117.119488 C442.008678,132.836415 434.211007,157.092461 420.719799,157.092461 Z M533.724138,81.8492176 C516.395981,81.8492176 506.617949,97.1948791 506.617949,97.1948791 L506.370404,97.1948791 L507.855675,83.458037 L485.081525,83.458037 C483.967573,92.7396871 481.863439,106.97155 479.883078,117.490754 L462.183604,211.421053 L487.804522,211.421053 L494.98333,173.428165 L495.602192,173.428165 C495.602192,173.428165 500.924412,176.769559 510.578671,176.769559 C540.779173,176.769559 560.459009,145.830725 560.459009,114.644381 C560.335236,97.3186344 552.537566,81.8492176 533.724138,81.8492176 L533.724138,81.8492176 Z M509.217173,157.339972 C502.533455,157.339972 498.572734,153.503556 498.572734,153.503556 L502.781,129.618777 C505.751541,113.530583 514.168075,103.01138 523.079699,103.01138 C531.001142,103.01138 533.35282,110.312945 533.35282,117.119488 C533.476593,133.702703 523.574789,157.339972 509.217173,157.339972 L509.217173,157.339972 Z M596.971911,45.0938834 C588.802923,45.0938834 582.242978,51.6529161 582.242978,59.9445235 C582.242978,67.4935989 587.070107,72.8150782 594.372688,72.8150782 L594.620233,72.8150782 C602.665449,72.8150782 609.472939,67.3698435 609.596712,57.9644381 C609.720484,50.4153627 604.64581,45.0938834 596.971911,45.0938834 L596.971911,45.0938834 Z M561.077872,174.913229 L586.69879,174.913229 L604.026947,83.829303 L578.282256,83.829303 M669.378854,83.7055477 L651.555606,83.7055477 L652.422014,79.4978663 C653.907285,70.7112376 659.105732,63.0384068 667.76981,63.0384068 C672.349395,63.0384068 675.938799,64.3997155 675.938799,64.3997155 L680.889701,44.227596 C680.889701,44.227596 676.557662,42 666.903403,42 C657.868006,42 648.708838,44.598862 641.777575,50.5391181 C632.989724,57.9644381 628.90523,68.7311522 626.924869,79.6216216 L626.182233,83.829303 L614.176296,83.829303 L610.339347,103.25889 L622.345284,103.25889 L608.730304,175.036984 L634.351222,175.036984 L647.966202,103.25889 L665.665677,103.25889 L669.378854,83.7055477 L669.378854,83.7055477 Z M731.141356,83.829303 C731.141356,83.829303 715.050925,124.297297 707.995889,146.449502 L707.748344,146.449502 C707.253254,139.271693 701.435944,83.829303 701.435944,83.829303 L674.453528,83.829303 L689.925097,167.240398 C690.172642,169.096728 690.04887,170.210526 689.306234,171.44808 C686.335693,177.26458 681.261018,182.83357 675.319936,186.917496 C670.492807,190.382646 665.046814,192.733997 660.714775,194.219061 L667.893583,216 C673.09203,214.886202 683.984015,210.554765 693.019411,202.015647 C704.654031,191.125178 715.546015,174.170697 726.685545,151.152205 L758,83.7055477 L731.141356,83.7055477 L731.141356,83.829303 Z" id="Shape" fill="#222222"></path>
        </g>
    </g>
</svg>