<?xml version="1.0" encoding="UTF-8"?>
<svg width="300px" height="200px" viewBox="0 0 300 200" version="1.1" xmlns="http://www.w3.org/2000/svg" xmlns:xlink="http://www.w3.org/1999/xlink">
    <title>Aerotech</title>
    <defs>
        <polygon id="path-1" points="0 0.0695799988 222.448236 0.0695799988 222.448236 41.1305993 0 41.1305993"></polygon>
        <polygon id="path-3" points="0.377789994 0.122009998 23.6885596 0.122009998 23.6885596 9.77059983 0.377789994 9.77059983"></polygon>
        <polygon id="path-5" points="0.264599995 0.122009998 29.3985295 0.122009998 29.3985295 9.77059983 0.264599995 9.77059983"></polygon>
        <polygon id="path-7" points="0.218049996 0.122009998 29.4048995 0.122009998 29.4048995 9.77059983 0.218049996 9.77059983"></polygon>
    </defs>
    <g id="Aerotech" stroke="none" stroke-width="1" fill="none" fill-rule="evenodd">
        <rect fill="#FFFFFF" x="0" y="0" width="300" height="200"></rect>
        <g id="Group" transform="translate(38.000000, 79.000000)">
            <path d="M55.996709,20.4070297 L52.7078291,14.0291898 L51.6700091,14.0291898 L48.3821092,20.4070297 L55.996709,20.4070297 Z M59.284609,26.9436295 L57.821469,24.0996696 L46.5313792,24.0996696 L45.0677492,26.9436295 L39.1313993,26.9436295 L48.1831692,10.1150698 L56.259349,10.1150698 L65.1871489,26.9436295 L59.284609,26.9436295 L59.284609,26.9436295 Z" id="Fill-1" fill="#222222"></path>
            <polyline id="Fill-2" fill="#222222" points="66.0230889 10.1140898 84.9351286 10.1140898 84.9351286 14.0610398 71.1381988 14.0610398 71.1381988 16.4924197 84.2403086 16.4924197 84.2403086 20.1875097 71.1381988 20.1875097 71.1381988 22.9334696 85.0311686 22.9334696 85.0311686 26.9426495 66.0230889 26.9426495 66.0230889 10.1140898"></polyline>
            <path d="M91.9401684,18.4813297 L99.2514583,18.4813297 C100.512228,18.4548697 101.263398,18.4323297 101.505948,18.4127297 C101.750948,18.3916597 101.958218,18.3269797 102.132168,18.2177097 C102.355118,18.0814897 102.511918,17.8771597 102.601588,17.6003097 C102.692238,17.3224797 102.737318,16.9030397 102.737318,16.3405197 C102.737318,15.7775097 102.684398,15.3619897 102.582968,15.0875897 C102.479088,14.8146597 102.300728,14.6196398 102.044948,14.5025298 C101.864628,14.4182498 101.647068,14.3677798 101.395208,14.3511198 C101.144818,14.3334798 100.425008,14.3217198 99.2382283,14.3138798 L91.9401684,14.3138798 L91.9401684,18.4813297 Z M86.7314685,26.9421595 L86.7314685,10.1135998 L99.3004583,10.1135998 C102.248298,10.1229098 104.012298,10.1518198 104.594908,10.2017998 C105.177518,10.2532498 105.738078,10.4433698 106.280998,10.7795098 C106.930738,11.1631798 107.375168,11.6972798 107.616738,12.3759298 C107.858798,13.0589898 107.978848,14.1242498 107.978848,15.5795497 C107.978848,16.8069997 107.901428,17.7100697 107.748548,18.2887597 C107.594198,18.8645097 107.305098,19.3275597 106.880758,19.6783997 C106.423588,20.0458997 105.731218,20.3006997 104.808548,20.4427997 C105.895858,20.5260997 106.679368,20.8333296 107.153688,21.3654696 C107.428088,21.6834796 107.602038,22.0695996 107.677008,22.5272596 C107.750998,22.9858996 107.789218,23.9379696 107.789218,25.3839596 L107.789218,26.9421595 L102.675578,26.9421595 L102.675578,26.0591796 C102.675578,25.1188696 102.639808,24.4505096 102.568268,24.0511596 C102.495748,23.6527896 102.366878,23.3499696 102.174308,23.1417196 C101.983208,22.9422896 101.718118,22.8148896 101.380998,22.7619696 C101.044368,22.7090496 100.336808,22.6801396 99.2637083,22.6801396 L91.9401684,22.6801396 L91.9401684,26.9421595 L86.7314685,26.9421595 L86.7314685,26.9421595 Z" id="Fill-3" fill="#222222"></path>
            <path d="M121.244618,14.2506698 C118.488858,14.2506698 116.831678,14.3217198 116.272588,14.4628398 C115.633138,14.6225798 115.211248,14.9890997 115.012308,15.5609297 C114.812388,16.1332497 114.713408,17.2764197 114.713408,18.9884797 C114.713408,20.0169897 114.765838,20.7608096 114.875598,21.2218996 C115.081888,22.0813596 115.711538,22.5703796 116.760628,22.6865096 C117.535808,22.7884296 119.037658,22.8393896 121.269118,22.8393896 C123.358968,22.8393896 124.751058,22.8016596 125.441958,22.7247296 C126.132368,22.6512296 126.643928,22.4865896 126.977618,22.2357096 C127.277008,22.0024696 127.481338,21.6609396 127.590608,21.2140596 C127.697918,20.7671796 127.752798,20.0302197 127.752798,19.0017097 C127.752798,17.7982697 127.710658,16.9108797 127.627848,16.3390497 C127.544548,15.7642797 127.394118,15.3369997 127.178028,15.0523097 C126.902158,14.6936297 126.449398,14.4706798 125.816318,14.3824798 C125.182258,14.2942798 123.660808,14.2506698 121.244618,14.2506698 M121.232368,9.86173983 C124.915698,9.86173983 127.450958,9.95434983 128.835208,10.1371198 C130.827058,10.3973098 132.047648,11.3268398 132.498938,12.9296298 C132.807148,14.0331098 132.961498,15.8985397 132.961498,18.5283697 C132.961498,21.1665296 132.807148,23.0373496 132.498938,24.1393596 C132.047648,25.7426396 130.827058,26.6785395 128.835208,26.9450995 C127.450958,27.1126795 124.932848,27.1945095 121.282348,27.1945095 C117.564718,27.1945095 115.012308,27.1126795 113.629528,26.9450995 C111.636208,26.6785395 110.415618,25.7426396 109.965798,24.1393596 C109.657588,23.0373496 109.503238,21.1336996 109.503238,18.4284097 C109.503238,15.8578697 109.657588,14.0237998 109.965798,12.9296298 C110.415618,11.3268398 111.636208,10.3973098 113.629528,10.1371198 C115.004468,9.95434983 117.539728,9.86173983 121.232368,9.86173983" id="Fill-4" fill="#222222"></path>
            <polyline id="Fill-5" fill="#222222" points="134.014018 10.1140898 154.665067 10.1140898 154.665067 14.4094298 147.085747 14.4094298 147.085747 26.9426495 141.623718 26.9426495 141.623718 14.4094298 134.014018 14.4094298 134.014018 10.1140898"></polyline>
            <g id="Group-14">
                <mask id="mask-2" fill="white">
                    <use xlink:href="#path-1"></use>
                </mask>
                <g id="Clip-9"></g>
                <polyline id="Fill-8" fill="#222222" mask="url(#mask-2)" points="199.779367 10.1140898 205.242377 10.1140898 205.242377 16.1440297 216.987676 16.1440297 216.987676 10.1140898 222.448236 10.1140898 222.448236 26.9426495 216.987676 26.9426495 216.987676 20.8494996 205.242377 20.8494996 205.242377 26.9426495 199.779367 26.9426495 199.779367 10.1140898"></polyline>
                <polyline id="Fill-10" fill="#222222" mask="url(#mask-2)" points="17.1764597 0.0695799988 34.5748894 17.3107197 8.99737985 17.3121897 12.9379598 13.3912098 25.0247896 13.3990498 17.2176197 5.6144199 5.55953991 17.3107197 0 17.3077797 17.1764597 0.0695799988"></polyline>
                <polyline id="Fill-11" fill="#222222" mask="url(#mask-2)" points="17.1764597 36.9881394 34.5748894 19.7455297 8.99737985 19.7440597 12.9379598 23.6660196 25.0247896 23.6571996 17.2176197 31.4442795 5.55953991 19.7469997 0 19.7479797 17.1764597 36.9881394"></polyline>
                <path d="M38.7173493,31.5858895 L49.0357692,31.5858895 L49.0357692,33.6267394 L41.2285993,33.6267394 L41.2285993,35.2746094 C41.5951193,34.9095594 41.9871193,34.6870994 43.0337593,34.6870994 L46.3162692,34.6870994 C48.3306592,34.6870994 49.4934292,35.3407594 49.4934292,37.4325694 L49.4934292,38.0357594 C49.4934292,40.9105893 48.0170592,41.1595093 44.9423092,41.1595093 L42.6672393,41.1595093 C39.8036793,41.1595093 38.4037493,40.8723693 38.4037493,38.6482593 L38.4037493,38.0984794 L41.0717993,38.0984794 C41.0717993,38.8971793 41.2947493,39.1201293 42.6275493,39.1201293 L45.3485192,39.1201293 C46.6827892,39.1201293 46.8253792,38.7536093 46.8253792,37.8373094 C46.8253792,36.7656794 46.4730692,36.6480794 45.1387992,36.6480794 L42.0792393,36.6480794 C41.6333393,36.6480794 41.3212093,36.8435894 41.2285993,37.2747894 L38.7173493,37.2747894 L38.7173493,31.5858895" id="Fill-12" fill="#222222" mask="url(#mask-2)"></path>
                <path d="M53.2669191,37.3409394 C53.2669191,38.3214293 53.5805191,38.8055493 54.9412491,38.8055493 L57.634289,38.8055493 C58.995019,38.8055493 59.308619,38.3214293 59.308619,37.3409394 L59.308619,35.3010694 C59.308619,34.3200894 58.995019,33.8364594 57.634289,33.8364594 L54.9412491,33.8364594 C53.5805191,33.8364594 53.2669191,34.3200894 53.2669191,35.3010694 L53.2669191,37.3409394 Z M50.4415791,35.1962094 C50.4415791,32.3179494 51.4882191,31.4820095 54.5874691,31.4820095 L57.989049,31.4820095 C61.087319,31.4820095 62.1339589,32.3179494 62.1339589,35.1962094 L62.1339589,37.8377994 C62.1339589,40.2966193 61.009409,41.1590193 58.745609,41.1590193 L53.8299291,41.1590193 C51.5661291,41.1590193 50.4415791,40.2966193 50.4415791,37.8377994 L50.4415791,35.1962094 L50.4415791,35.1962094 Z" id="Fill-13" fill="#222222" mask="url(#mask-2)"></path>
            </g>
            <polyline id="Fill-15" fill="#222222" points="69.6226288 37.0537994 64.1948989 31.5863795 65.9216589 31.5863795 70.2630588 35.9816794 74.6054387 31.5863795 76.3312187 31.5863795 70.9039788 37.0537994 70.9039788 41.0551393 69.6226288 41.0551393 69.6226288 37.0537994"></polyline>
            <polyline id="Fill-16" fill="#222222" points="77.5018287 31.5858895 86.7995785 31.5858895 86.7995785 32.6325294 78.7841587 32.6325294 78.7841587 35.6543594 86.4859785 35.6543594 86.4859785 36.7009994 78.7841587 36.7009994 78.7841587 40.0089893 86.8524985 40.0089893 86.8524985 41.0556293 77.5018287 41.0556293 77.5018287 31.5858895"></polyline>
            <path d="M93.8423484,32.6325294 L90.6637185,38.0073394 L97.0195083,38.0073394 L93.8423484,32.6325294 Z M93.0446284,31.5858895 L94.6400684,31.5858895 L100.263798,41.0556293 L98.8124183,41.0556293 L97.6349483,39.0544693 L90.0497485,39.0544693 L88.8722785,41.0556293 L87.4208985,41.0556293 L93.0446284,31.5858895 L93.0446284,31.5858895 Z" id="Fill-17" fill="#222222"></path>
            <g id="Group-21" transform="translate(100.939998, 31.359999)">
                <mask id="mask-4" fill="white">
                    <use xlink:href="#path-3"></use>
                </mask>
                <g id="Clip-19"></g>
                <path d="M7.80520987,4.90832992 C9.23159984,4.90832992 9.83282983,4.52906992 9.83282983,3.53583994 L9.83282983,2.67245995 C9.83282983,1.61258997 9.37369984,1.27252998 7.49111987,1.27252998 L1.65913997,1.27252998 L1.65913997,4.90832992 L7.80520987,4.90832992 Z M0.377789994,0.225399996 L7.94877986,0.225399996 C10.6829798,0.225399996 11.1141798,1.12993998 11.1141798,2.90716995 L11.1141798,3.67793994 C11.1141798,5.01269991 10.3561498,5.37921991 9.37369984,5.47133991 L9.37369984,5.49632991 C10.6829798,5.7325099 10.9955998,6.41213989 10.9955998,7.27600988 L10.9955998,9.69562983 L9.79313983,9.69562983 L9.79313983,7.61606987 C9.79313983,6.1382299 9.07332985,5.9549699 7.91055987,5.9549699 L1.65913997,5.9549699 L1.65913997,9.69562983 L0.377789994,9.69562983 L0.377789994,0.225399996 L0.377789994,0.225399996 Z" id="Fill-18" fill="#222222" mask="url(#mask-4)"></path>
                <path d="M12.8081098,6.71348989 L14.0105698,6.71348989 L14.0105698,7.38037987 C14.0105698,8.30892986 14.5084098,8.75433985 16.1038497,8.75433985 L20.0787297,8.75433985 C21.9363196,8.75433985 22.4846296,8.36135986 22.4846296,7.00258988 C22.4846296,5.8104199 22.0142296,5.51004991 20.4187897,5.51004991 L17.9864297,5.51004991 C14.0762298,5.51004991 12.7948798,5.27484991 12.7948798,2.76359995 C12.7948798,0.60563999 14.0762298,0.122009998 16.7183097,0.122009998 L19.4774997,0.122009998 C22.6556396,0.122009998 23.4533596,0.932469984 23.4533596,2.62002996 L23.4533596,2.94832995 L22.2499196,2.94832995 C22.2239496,1.44255998 22.0666596,1.16815998 18.7062397,1.16815998 L17.3459997,1.16815998 C14.8739497,1.16815998 13.9973398,1.29898998 13.9973398,2.85473995 C13.9973398,3.98075993 14.3501398,4.36001993 16.3517897,4.36001993 L20.1443897,4.36001993 C22.6414296,4.36001993 23.6885596,5.07884991 23.6885596,6.68702989 L23.6885596,7.30148988 C23.6885596,9.62947984 21.7790296,9.79950983 19.8832197,9.79950983 L16.3253297,9.79950983 C14.4559798,9.79950983 12.8081098,9.47267984 12.8081098,7.40585987 L12.8081098,6.71348989" id="Fill-20" fill="#222222" mask="url(#mask-4)"></path>
            </g>
            <polygon id="Fill-22" fill="#222222" points="129.712308 41.0551393 130.993168 41.0551393 130.993168 31.5853995 129.712308 31.5853995"></polygon>
            <polyline id="Fill-23" fill="#222222" points="133.140348 31.5858895 135.048898 31.5858895 143.719938 39.9046193 143.719938 31.5858895 145.001288 31.5858895 145.001288 41.0556293 143.092738 41.0556293 134.421698 32.7368994 134.421698 41.0556293 133.140348 41.0556293 133.140348 31.5858895"></polyline>
            <polyline id="Fill-6" fill="#222222" points="155.869977 10.1140898 174.781037 10.1140898 174.781037 14.0610398 160.983617 14.0610398 160.983617 16.4924197 174.085237 16.4924197 174.085237 20.1875097 160.983617 20.1875097 160.983617 22.9334696 174.876587 22.9334696 174.876587 26.9426495 155.869977 26.9426495 155.869977 10.1140898"></polyline>
            <path d="M192.727777,20.4378997 L197.930107,20.4378997 C197.955097,21.2581596 197.968327,21.7863796 197.968327,22.0303996 C197.968327,23.3342896 197.773307,24.3534896 197.380817,25.0894696 C196.948147,25.9082596 196.102897,26.4639195 194.844087,26.7569395 C193.585767,27.0494695 191.412127,27.1945095 188.322187,27.1945095 C185.073487,27.1945095 182.758727,27.1347295 181.380847,27.0205595 C180.001987,26.9034495 178.963187,26.6657995 178.262977,26.3061396 C177.638227,25.9905796 177.171257,25.5613396 176.863047,25.0203796 C176.554837,24.4764796 176.355407,23.7326596 176.264757,22.7805896 C176.189297,22.0210896 176.152547,20.6407596 176.152547,18.6425397 C176.152547,16.6898897 176.189297,15.2830997 176.264757,14.4211898 C176.338257,13.5573198 176.484767,12.8879798 176.701837,12.4131698 C177.176647,11.3469298 178.138027,10.6545598 179.586957,10.3370398 C181.035397,10.0219698 183.959717,9.86222983 188.358937,9.86222983 C190.556587,9.86222983 192.155457,9.90975983 193.155057,10.0048198 C194.154657,10.1008598 194.950907,10.2870598 195.542827,10.5609698 C196.318007,10.9181798 196.862397,11.4547298 197.176977,12.1666998 C197.493517,12.8786698 197.651787,13.9253098 197.651787,15.3085797 C197.651787,15.3820797 197.651787,15.6628497 197.653257,16.1440297 L192.453867,16.1440297 C192.427407,15.5864097 192.393107,15.2135197 192.347047,15.0224197 C192.303437,14.8313197 192.207397,14.6769698 192.066277,14.5593698 C191.867337,14.3854198 191.363127,14.2589998 190.554137,14.1796198 C189.745637,14.1007298 188.523577,14.0600598 186.880117,14.0600598 C185.258217,14.0600598 184.133667,14.0953398 183.510387,14.1678598 C182.885147,14.2379298 182.443657,14.3726798 182.185427,14.5740698 C181.879667,14.8229897 181.663087,15.2424297 181.543037,15.8250397 C181.422007,16.4091197 181.362717,17.3386497 181.362717,18.6160797 C181.362717,19.8935097 181.414167,20.7926596 181.523437,21.3120596 C181.632707,21.8353796 181.839977,22.2136596 182.149657,22.4444496 C182.436797,22.6620096 182.903767,22.8094996 183.540277,22.8820196 C184.178257,22.9584596 185.304277,22.9956996 186.919317,22.9956996 C188.909697,22.9956996 190.236127,22.9623796 190.898117,22.8952496 C191.561577,22.8266496 192.008457,22.6845496 192.241207,22.4669896 C192.548437,22.1715196 192.710627,21.4982596 192.727777,20.4378997" id="Fill-7" fill="#222222"></path>
            <g id="Group-27" transform="translate(150.919997, 31.359999)">
                <mask id="mask-6" fill="white">
                    <use xlink:href="#path-5"></use>
                </mask>
                <g id="Clip-25"></g>
                <polyline id="Fill-24" fill="#222222" mask="url(#mask-6)" points="0.264599995 0.225889996 2.26624996 0.225889996 7.79785987 8.16486986 13.3279998 0.225889996 15.3306297 0.225889996 15.3306297 9.69562983 14.0482998 9.69562983 14.0482998 1.37689998 14.0228198 1.37689998 8.25551986 9.69562983 7.33921988 9.69562983 1.57142997 1.37689998 1.54594997 1.37689998 1.54594997 9.69562983 0.264599995 9.69562983 0.264599995 0.225889996"></polyline>
                <path d="M28.1161995,3.18205995 C28.1161995,1.53516997 27.1219895,1.16864998 25.8935596,1.16864998 L20.7015196,1.16864998 C19.4701497,1.16864998 18.4764297,1.53516997 18.4764297,3.18205995 L18.4764297,6.73847989 C18.4764297,8.38683986 19.4701497,8.75482985 20.7015196,8.75482985 L25.8935596,8.75482985 C27.1219895,8.75482985 28.1161995,8.38683986 28.1161995,6.73847989 L28.1161995,3.18205995 Z M17.1965497,3.66568994 C17.1965497,1.27301998 18.0070097,0.122009998 20.5701996,0.122009998 L26.0238996,0.122009998 C28.5865995,0.122009998 29.3985295,1.27301998 29.3985295,3.66568994 L29.3985295,6.25631989 C29.3985295,8.64800985 28.5865995,9.79999983 26.0238996,9.79999983 L20.5701996,9.79999983 C18.0070097,9.79999983 17.1965497,8.64800985 17.1965497,6.25631989 L17.1965497,3.66568994 L17.1965497,3.66568994 Z" id="Fill-26" fill="#222222" mask="url(#mask-6)"></path>
            </g>
            <polyline id="Fill-28" fill="#222222" points="186.013797 32.6325294 181.226987 32.6325294 181.226987 31.5858895 192.083427 31.5858895 192.083427 32.6325294 187.296617 32.6325294 187.296617 41.0556293 186.013797 41.0556293 186.013797 32.6325294"></polyline>
            <g id="Group-33" transform="translate(193.059997, 31.359999)">
                <mask id="mask-8" fill="white">
                    <use xlink:href="#path-7"></use>
                </mask>
                <g id="Clip-30"></g>
                <polygon id="Fill-29" fill="#222222" mask="url(#mask-8)" points="0.218049996 9.69513983 1.50135997 9.69513983 1.50135997 0.225399996 0.218049996 0.225399996"></polygon>
                <path d="M14.3976698,3.18205995 C14.3976698,1.53516997 13.4024798,1.16864998 12.1735598,1.16864998 L6.98200988,1.16864998 C5.7516199,1.16864998 4.75789992,1.53516997 4.75789992,3.18205995 L4.75789992,6.73847989 C4.75789992,8.38683986 5.7516199,8.75482985 6.98200988,8.75482985 L12.1735598,8.75482985 C13.4024798,8.75482985 14.3976698,8.38683986 14.3976698,6.73847989 L14.3976698,3.18205995 Z M3.47801994,3.66568994 C3.47801994,1.27301998 4.28847993,0.122009998 6.85019988,0.122009998 L12.3038998,0.122009998 C14.8685597,0.122009998 15.6790197,1.27301998 15.6790197,3.66568994 L15.6790197,6.25631989 C15.6790197,8.64800985 14.8685597,9.79999983 12.3038998,9.79999983 L6.85019988,9.79999983 C4.28847993,9.79999983 3.47801994,8.64800985 3.47801994,6.25631989 L3.47801994,3.66568994 L3.47801994,3.66568994 Z" id="Fill-31" fill="#222222" mask="url(#mask-8)"></path>
                <polyline id="Fill-32" fill="#222222" mask="url(#mask-8)" points="17.5429797 0.225889996 19.4515297 0.225889996 28.1225695 8.54461985 28.1225695 0.225889996 29.4053895 0.225889996 29.4053895 9.69562983 27.4958595 9.69562983 18.8253097 1.37689998 18.8253097 9.69562983 17.5429797 9.69562983 17.5429797 0.225889996"></polyline>
            </g>
        </g>
    </g>
</svg>