<?xml version="1.0" encoding="UTF-8"?>
<svg width="300px" height="200px" viewBox="0 0 300 200" version="1.1" xmlns="http://www.w3.org/2000/svg" xmlns:xlink="http://www.w3.org/1999/xlink">
    <title>BAC</title>
    <defs>
        <polygon id="path-1" points="0 47.5709492 207.391796 47.5709492 207.391796 0.000349999994 0 0.000349999994"></polygon>
    </defs>
    <g id="BAC" stroke="none" stroke-width="1" fill="none" fill-rule="evenodd">
        <rect fill="#FFFFFF" x="0" y="0" width="300" height="200"></rect>
        <g id="Group-36" transform="translate(46.000000, 76.000000)">
            <path d="M62.9702489,21.2347096 L64.4542489,21.2347096 C64.7615489,21.2347096 65.8311489,21.2347096 65.8311489,20.1112097 C65.8311489,18.9485097 64.7349489,18.9485097 64.3737489,18.9485097 L62.9702489,18.9485097 L62.9702489,21.2347096 Z M62.9569489,17.2377097 L64.2134489,17.2377097 C64.6411489,17.2377097 64.9218489,17.2377097 65.1500489,17.1166097 C65.4566489,16.9423097 65.6575489,16.5951097 65.6575489,16.1800097 C65.6575489,15.8867097 65.5504489,15.5388097 65.2830489,15.3246097 C64.9890489,15.0971097 64.6943489,15.0971097 64.4143489,15.0971097 L62.9569489,15.0971097 L62.9569489,17.2377097 Z M60.362749,13.3464098 L64.2267489,13.3464098 C65.4440489,13.3464098 66.6872489,13.3464098 67.5699488,14.1353098 C67.8772488,14.4153098 68.3049488,14.9375097 68.3049488,15.7936097 C68.3049488,17.5044097 66.7271489,17.8663097 66.2462489,17.9860097 L66.2462489,18.0126097 C66.8475489,18.1197097 68.5723488,18.4270097 68.5723488,20.4059097 C68.5723488,21.1549096 68.2916488,22.0369096 67.2353489,22.5990096 C66.4730489,22.9994096 65.4965489,22.9994096 64.6278489,22.9994096 L60.362749,22.9994096 L60.362749,13.3464098 Z" id="Fill-1" fill="#222222"></path>
            <path d="M76.2859987,19.2824097 L75.0427987,15.2308097 L75.0028987,15.2308097 L73.6651987,19.2824097 L76.2859987,19.2824097 Z M73.5181987,13.3464098 L76.7808987,13.3464098 L80.5909986,23.0001096 L77.5690987,23.0001096 L76.9005987,21.0618096 L73.0372988,21.0618096 L72.3820988,23.0001096 L69.7073988,23.0001096 L73.5181987,13.3464098 Z" id="Fill-3" fill="#222222"></path>
            <polygon id="Fill-5" fill="#222222" points="82.2985086 13.3464098 85.0124086 13.3464098 85.0124086 21.1010096 89.3447085 21.1010096 89.3447085 23.0001096 82.2985086 23.0001096"></polygon>
            <polygon id="Fill-7" fill="#222222" points="91.7751784 15.2583897 88.8337785 15.2583897 88.8337785 13.3466898 97.4843783 13.3466898 97.4843783 15.2583897 94.4757784 15.2583897 94.4757784 22.9996896 91.7751784 22.9996896"></polygon>
            <mask id="mask-2" fill="white">
                <use xlink:href="#path-1"></use>
            </mask>
            <g id="Clip-10"></g>
            <polygon id="Fill-9" fill="#222222" mask="url(#mask-2)" points="99.0849983 23.0002496 101.839498 23.0002496 101.839498 13.3465498 99.0849983 13.3465498"></polygon>
            <polygon id="Fill-11" fill="#222222" mask="url(#mask-2)" points="104.244278 13.3464098 108.456178 13.3464098 110.061278 19.8844097 111.584478 13.3464098 115.783078 13.3324098 115.796378 23.0001096 113.269378 23.0001096 113.390478 14.8969097 111.103578 23.0001096 108.696978 23.0001096 106.490578 14.8304097 106.557778 23.0001096 104.244278 23.0001096"></polygon>
            <path d="M122.957658,21.2613796 C124.868658,21.2613796 125.189958,19.4966797 125.189958,18.1589797 C125.189958,16.8086797 124.868658,16.1408797 124.575358,15.7131797 C124.187558,15.1776797 123.559658,15.0173797 122.971658,15.0173797 C121.206258,15.0173797 120.724658,16.5412797 120.724658,18.1988797 C120.724658,19.7367797 121.178958,21.2613796 122.957658,21.2613796 M119.294558,14.4153798 C120.511158,13.1861798 122.355658,13.0790798 123.064058,13.0790798 C126.915458,13.0790798 127.958458,15.8468797 127.958458,18.1988797 C127.958458,22.0502796 125.230558,23.2269796 122.930358,23.2269796 C120.363458,23.2269796 117.970158,21.8094796 117.970158,18.2135797 C117.970158,17.5709797 118.077258,15.6459797 119.294558,14.4153798" id="Fill-12" fill="#222222" mask="url(#mask-2)"></path>
            <path d="M132.793568,17.4913897 L133.795968,17.4913897 C134.383968,17.4913897 134.678668,17.4913897 134.906168,17.4108897 C135.494168,17.2239897 135.614568,16.6219897 135.614568,16.3139897 C135.614568,15.1246897 134.571568,15.1246897 133.795968,15.1246897 L132.793568,15.1246897 L132.793568,17.4913897 Z M130.106268,13.3466898 L134.571568,13.3466898 C136.309668,13.3466898 136.964868,13.4530898 137.540268,14.0417898 C137.834268,14.3357898 138.208068,14.8698897 138.208068,15.9135897 C138.208068,16.9698897 137.780368,17.4241897 137.326068,17.7048897 C136.710768,18.0926897 136.122768,18.1591897 135.856068,18.1990897 L135.856068,18.2529897 C137.727168,18.3068897 137.834268,19.1356897 138.047768,20.6196896 C138.141568,21.2748896 138.275268,22.3178896 138.502068,22.9996896 L135.601268,22.9996896 C135.440968,22.4116896 135.374468,21.6759896 135.279968,20.8198896 C135.160268,19.6571897 135.120368,19.2294897 133.917068,19.2294897 L132.793568,19.2294897 L132.793568,22.9996896 L130.106268,22.9996896 L130.106268,13.3466898 Z" id="Fill-13" fill="#222222" mask="url(#mask-2)"></path>
            <polygon id="Fill-14" fill="#222222" mask="url(#mask-2)" points="140.478168 13.3730798 147.725267 13.3730798 147.725267 15.2182797 143.125568 15.2182797 143.125568 17.2237797 147.457167 17.2237797 147.457167 19.0689797 143.125568 19.0689797 143.125568 21.1276796 147.831667 21.1276796 147.831667 22.9994796 140.478168 22.9994796"></polygon>
            <path d="M65.6448089,33.4296894 L64.4009089,29.3780895 L64.3610089,29.3780895 L63.0240089,33.4296894 L65.6448089,33.4296894 Z M62.8770089,27.4929895 L66.1404089,27.4929895 L69.9491088,37.1473894 L66.9279089,37.1473894 L66.2594089,35.2083894 L62.3954089,35.2083894 L61.7402089,37.1473894 L59.066209,37.1473894 L62.8770089,27.4929895 Z" id="Fill-15" fill="#222222" mask="url(#mask-2)"></path>
            <polygon id="Fill-16" fill="#222222" mask="url(#mask-2)" points="71.5637988 37.1472494 74.3175987 37.1472494 74.3175987 27.4928495 71.5637988 27.4928495"></polygon>
            <path d="M79.4363486,31.6373395 L80.4394486,31.6373395 C81.0281486,31.6373395 81.3214486,31.6373395 81.5489486,31.5582395 C82.1376486,31.3699395 82.2580486,30.7693395 82.2580486,30.4613395 C82.2580486,29.2720395 81.2150486,29.2720395 80.4394486,29.2720395 L79.4363486,29.2720395 L79.4363486,31.6373395 Z M76.7490487,27.4926395 L81.2150486,27.4926395 C82.9524486,27.4926395 83.6083486,27.5997395 84.1830486,28.1884395 C84.4770486,28.4824395 84.8522486,29.0179395 84.8522486,30.0602395 C84.8522486,31.1165395 84.4238486,31.5715395 83.9695486,31.8522395 C83.3535486,32.2393395 82.7655486,32.3065394 82.4988486,32.3471394 L82.4988486,32.3996394 C84.3706486,32.4535394 84.4770486,33.2830394 84.6912486,34.7677394 C84.7850486,35.4215394 84.9187486,36.4645394 85.1455485,37.1470394 L82.2440486,37.1470394 C82.0844486,36.5583394 82.0172486,35.8226394 81.9234486,34.9672394 C81.8037486,33.8038394 81.7638486,33.3761394 80.5598486,33.3761394 L79.4363486,33.3761394 L79.4363486,37.1470394 L76.7490487,37.1470394 L76.7490487,27.4926395 Z" id="Fill-17" fill="#222222" mask="url(#mask-2)"></path>
            <path d="M93.2305484,30.5278395 C93.1101484,29.5520395 92.4283484,29.1915395 91.6667484,29.1915395 C90.0490485,29.1915395 89.5541485,30.6755395 89.5541485,32.4402394 C89.5541485,33.0282394 89.5674485,35.4621394 91.6401484,35.4621394 C93.0569484,35.4621394 93.2039484,34.4317394 93.2578484,34.0579394 L96.0382484,34.0579394 C96.0256484,37.0791394 92.9505484,37.3346394 91.6933484,37.3346394 C90.7574485,37.3346394 89.0998485,37.1729394 88.0295485,36.0501394 C86.9739485,34.9266394 86.7856485,33.3894394 86.7856485,32.3870394 C86.7856485,31.0633395 87.0936485,29.7396395 88.0029485,28.7092395 C88.9920485,27.5864395 90.2625485,27.2931395 91.6667484,27.2931395 C93.2305484,27.2931395 94.4212484,27.6669395 95.1828484,28.4698395 C95.9577484,29.2979395 95.9724484,30.1666395 95.9850484,30.5278395 L93.2305484,30.5278395 Z" id="Fill-18" fill="#222222" mask="url(#mask-2)"></path>
            <path d="M102.522278,35.4087294 C104.434678,35.4087294 104.755278,33.6440294 104.755278,32.3063294 C104.755278,30.9567295 104.434678,30.2875295 104.139978,29.8598295 C103.752878,29.3257295 103.124278,29.1640295 102.536278,29.1640295 C100.770878,29.1640295 100.289978,30.6886295 100.289978,32.3469294 C100.289978,33.8841294 100.744278,35.4087294 102.522278,35.4087294 M98.8591783,28.5634295 C100.075778,27.3328295 101.920278,27.2257295 102.629378,27.2257295 C106.480078,27.2257295 107.523078,29.9942295 107.523078,32.3469294 C107.523078,36.1976294 104.795178,37.3743294 102.495678,37.3743294 C99.9280783,37.3743294 97.5354783,35.9561294 97.5354783,32.3602294 C97.5354783,31.7190295 97.6418783,29.7926295 98.8591783,28.5634295" id="Fill-19" fill="#222222" mask="url(#mask-2)"></path>
            <polygon id="Fill-20" fill="#222222" mask="url(#mask-2)" points="109.604598 37.1472494 112.358398 37.1472494 112.358398 27.4928495 109.604598 27.4928495"></polygon>
            <polygon id="Fill-21" fill="#222222" mask="url(#mask-2)" points="114.816378 27.4927095 117.529578 27.4927095 117.529578 35.2473094 121.861878 35.2473094 121.861878 37.1471094 114.816378 37.1471094"></polygon>
            <path d="M134.906518,30.5278395 C134.786818,29.5520395 134.105018,29.1915395 133.342718,29.1915395 C131.724318,29.1915395 131.230118,30.6755395 131.230118,32.4402394 C131.230118,33.0282394 131.244118,35.4621394 133.316118,35.4621394 C134.732918,35.4621394 134.879918,34.4317394 134.933818,34.0579394 L137.714218,34.0579394 C137.700918,37.0791394 134.625818,37.3346394 133.369318,37.3346394 C132.433418,37.3346394 130.775818,37.1729394 129.705518,36.0501394 C128.649218,34.9266394 128.462318,33.3894394 128.462318,32.3870394 C128.462318,31.0633395 128.769618,29.7396395 129.679618,28.7092395 C130.668018,27.5864395 131.938518,27.2931395 133.342718,27.2931395 C134.906518,27.2931395 136.096518,27.6669395 136.858818,28.4698395 C137.633718,29.2979395 137.647718,30.1666395 137.661018,30.5278395 L134.906518,30.5278395 Z" id="Fill-22" fill="#222222" mask="url(#mask-2)"></path>
            <path d="M144.197968,35.4087294 C146.109668,35.4087294 146.430968,33.6440294 146.430968,32.3063294 C146.430968,30.9567295 146.109668,30.2875295 145.816368,29.8598295 C145.427868,29.3257295 144.799968,29.1640295 144.211968,29.1640295 C142.446568,29.1640295 141.964968,30.6886295 141.964968,32.3469294 C141.964968,33.8841294 142.419268,35.4087294 144.197968,35.4087294 M140.534868,28.5634295 C141.751468,27.3328295 143.596668,27.2257295 144.305068,27.2257295 C148.155767,27.2257295 149.198767,29.9942295 149.198767,32.3469294 C149.198767,36.1976294 146.471568,37.3743294 144.171368,37.3743294 C141.603768,37.3743294 139.211168,35.9561294 139.211168,32.3602294 C139.211168,31.7190295 139.318268,29.7926295 140.534868,28.5634295" id="Fill-23" fill="#222222" mask="url(#mask-2)"></path>
            <polygon id="Fill-24" fill="#222222" mask="url(#mask-2)" points="151.320327 27.4927095 155.532227 27.4927095 157.137327 34.0314094 158.660527 27.4927095 162.859127 27.4801095 162.872427 37.1471094 160.345427 37.1471094 160.466527 29.0446095 158.178927 37.1471094 155.772327 37.1471094 153.565927 28.9774095 153.633827 37.1471094 151.320327 37.1471094"></polygon>
            <path d="M168.175347,31.8246595 L169.365347,31.8246595 C170.020547,31.8246595 171.076847,31.8246595 171.076847,30.5275595 C171.076847,29.3515595 170.126947,29.2850595 169.351347,29.2850595 L168.175347,29.2850595 L168.175347,31.8246595 Z M165.487347,27.4930595 L169.926047,27.4930595 C170.675747,27.4930595 171.651547,27.4930595 172.440447,27.9879595 C173.255947,28.4828595 173.804047,29.3515595 173.804047,30.6080595 C173.804047,32.3062594 172.721147,33.0412594 172.346647,33.2428594 C171.598347,33.6572594 170.434947,33.6572594 169.912747,33.6572594 L168.175347,33.6698594 L168.175347,37.1474594 L165.487347,37.1474594 L165.487347,27.4930595 Z" id="Fill-25" fill="#222222" mask="url(#mask-2)"></path>
            <path d="M180.245587,33.4296894 L179.002387,29.3780895 L178.962487,29.3780895 L177.624787,33.4296894 L180.245587,33.4296894 Z M177.477787,27.4929895 L180.740487,27.4929895 L184.549887,37.1473894 L181.528687,37.1473894 L180.860187,35.2083894 L176.996187,35.2083894 L176.340287,37.1473894 L173.666987,37.1473894 L177.477787,27.4929895 Z" id="Fill-26" fill="#222222" mask="url(#mask-2)"></path>
            <polygon id="Fill-27" fill="#222222" mask="url(#mask-2)" points="186.258097 27.4927095 189.948497 27.4927095 193.211197 34.6866094 193.183897 27.4927095 195.523297 27.4927095 195.523297 37.1471094 191.913397 37.1471094 188.584197 29.6459095 188.610797 37.1471094 186.258097 37.1471094"></polygon>
            <polygon id="Fill-28" fill="#222222" mask="url(#mask-2)" points="200.345597 27.4927095 202.458197 31.5443095 204.637997 27.4927095 207.391796 27.4927095 203.621597 33.7374094 203.621597 37.1471094 200.920297 37.1471094 200.920297 33.6170094 197.243897 27.4927095"></polygon>
            <path d="M46.7567792,23.1518696 C46.7567792,35.6034694 36.6613794,45.6988692 24.2097796,45.6988692 C11.7574798,45.6988692 1.66347997,35.6034694 1.66347997,23.1518696 C1.66347997,10.6995698 11.7574798,0.60486999 24.2097796,0.60486999 C36.6613794,0.60486999 46.7567792,10.6995698 46.7567792,23.1518696" id="Fill-29" fill="#FEFEFE" mask="url(#mask-2)"></path>
            <path d="M23.7859996,45.6434992 C11.7130998,45.6427992 1.92709997,35.8574994 1.92709997,23.7859996 C1.92709997,11.7137998 11.7130998,1.92849997 23.7859996,1.92849997 C35.8574994,1.92849997 45.6427992,11.7137998 45.6427992,23.7859996 C45.6427992,35.8574994 35.8574994,45.6427992 23.7859996,45.6434992 M23.7852996,0 C10.6490998,0 0,10.6490998 0,23.7859996 C0,36.9221994 10.6490998,47.5712992 23.7852996,47.5712992 C36.9228994,47.5712992 47.5712992,36.9221994 47.5712992,23.7859996 C47.5712992,10.6490998 36.9228994,0 23.7852996,0" id="Fill-30" fill="#222222" mask="url(#mask-2)"></path>
            <path d="M13.7323898,18.3714997 C14.0347898,18.1999997 14.2307898,17.8597997 14.2307898,17.4530997 C14.2307898,17.1639997 14.1257898,16.8237997 13.8632898,16.6137997 C13.5748898,16.3904997 13.2864898,16.3904997 13.0113898,16.3904997 L11.5819898,16.3904997 L11.5819898,18.4890997 L12.8146898,18.4890997 C13.2339898,18.4890997 13.5090898,18.4890997 13.7323898,18.3714997" id="Fill-31" fill="#222222" mask="url(#mask-2)"></path>
            <polygon id="Fill-32" fill="#222222" mask="url(#mask-2)" points="22.7411096 20.9582096 21.4286096 24.9328096 24.0004096 24.9328096 22.7810096 20.9582096"></polygon>
            <path d="M12.9715598,20.1676297 L11.5946598,20.1676297 L11.5946598,22.4111296 L13.0499598,22.4111296 C13.3516598,22.4111296 14.4016598,22.4111296 14.4016598,21.3093296 C14.4016598,20.1676297 13.3257598,20.1676297 12.9715598,20.1676297" id="Fill-33" fill="#222222" mask="url(#mask-2)"></path>
            <path d="M34.5136394,33.0824894 C33.5966394,33.0824894 31.9705395,32.9249894 30.9205395,31.8231895 C29.8845395,30.7220895 29.7011395,29.2135895 29.7011395,28.2300895 C29.7011395,26.9329895 30.0021395,25.6337896 30.8946395,24.6236896 C31.8648395,23.5218896 33.1108394,23.2341896 34.4877394,23.2341896 C36.0221394,23.2341896 37.1897394,23.6009896 37.9373394,24.3877896 C38.6982393,25.2011896 38.7108393,26.0537896 38.7241393,26.4086896 L36.0221394,26.4086896 C35.9045394,25.4503896 35.2353394,25.0961896 34.4877394,25.0961896 C32.9008394,25.0961896 32.4150394,26.5507895 32.4150394,28.2825895 C32.4150394,28.8600895 32.4283394,31.2463895 34.4618394,31.2463895 C35.8520394,31.2463895 35.9962394,30.2376895 36.0480394,29.8701895 L38.7759393,29.8701895 C38.7633393,32.8339894 35.7470394,33.0824894 34.5136394,33.0824894 L34.5136394,33.0824894 Z M25.2589396,28.5779895 L24.6030396,26.6760895 L20.8125396,26.6760895 L20.1706397,28.5779895 L17.5484397,28.5779895 L21.2864396,19.1090897 L24.4861396,19.1090897 L28.2220395,28.5779895 L25.2589396,28.5779895 Z M15.7781397,23.7486896 C15.0305397,24.1413896 14.0736398,24.1413896 13.2217398,24.1413896 L9.03713985,24.1413896 L9.03713985,14.6724898 L12.8276398,14.6724898 C14.0211398,14.6724898 15.2405397,14.6724898 16.1057397,15.4466897 C16.4081397,15.7217897 16.8281397,16.2334897 16.8281397,17.0727897 C16.8281397,18.7513897 15.2797397,19.1055897 14.8079397,19.2231897 L14.8079397,19.2490897 C15.3973397,19.3547897 17.0892397,19.6557897 17.0892397,21.5982896 C17.0892397,22.3318896 16.8141397,23.1970896 15.7781397,23.7486896 L15.7781397,23.7486896 Z M23.7854396,3.46058994 C12.5602398,3.46058994 3.46023994,12.5605898 3.46023994,23.7857896 C3.46023994,35.0109894 12.5602398,44.1109892 23.7854396,44.1109892 C35.0120394,44.1109892 44.1106392,35.0109894 44.1106392,23.7857896 C44.1106392,12.5605898 35.0120394,3.46058994 23.7854396,3.46058994 L23.7854396,3.46058994 Z" id="Fill-34" fill="#222222" mask="url(#mask-2)"></path>
            <path d="M39.5954293,32.9177094 L39.7123293,32.9177094 C39.8495293,32.9177094 39.9594293,32.8722094 39.9594293,32.7616094 C39.9594293,32.6643094 39.8880293,32.5992094 39.7312293,32.5992094 C39.6668293,32.5992094 39.6220293,32.6062094 39.5954293,32.6125094 L39.5954293,32.9177094 Z M39.5884293,33.5155094 L39.3413293,33.5155094 L39.3413293,32.4501094 C39.4393293,32.4368094 39.5758293,32.4165094 39.7515293,32.4165094 C39.9531293,32.4165094 40.0441293,32.4501094 40.1155293,32.5012094 C40.1806293,32.5467094 40.2254293,32.6251094 40.2254293,32.7287094 C40.2254293,32.8596094 40.1288293,32.9443094 40.0049293,32.9835094 L40.0049293,32.9954094 C40.1092293,33.0283094 40.1610293,33.1130094 40.1932293,33.2558094 C40.2254293,33.4189094 40.2520293,33.4770094 40.2716293,33.5155094 L40.0119293,33.5155094 C39.9783293,33.4770094 39.9594293,33.3860094 39.9272293,33.2558094 C39.9069293,33.1452094 39.8425293,33.0934094 39.7060293,33.0934094 L39.5884293,33.0934094 L39.5884293,33.5155094 Z M38.9318293,32.9632094 C38.9318293,33.4385094 39.2895293,33.8151094 39.7648293,33.8151094 C40.2254293,33.8214094 40.5768293,33.4385094 40.5768293,32.9695094 C40.5768293,32.4949094 40.2254293,32.1120095 39.7515293,32.1120095 C39.2895293,32.1120095 38.9318293,32.4949094 38.9318293,32.9632094 L38.9318293,32.9632094 Z M40.8505293,32.9632094 C40.8505293,33.5624094 40.3689293,34.0370094 39.7578293,34.0370094 C39.1467293,34.0370094 38.6588293,33.5624094 38.6588293,32.9632094 C38.6588293,32.3647094 39.1467293,31.8964095 39.7648293,31.8964095 C40.3689293,31.8964095 40.8505293,32.3647094 40.8505293,32.9632094 L40.8505293,32.9632094 Z" id="Fill-35" fill="#FEFEFE" mask="url(#mask-2)"></path>
        </g>
    </g>
</svg>