<?xml version="1.0" encoding="UTF-8"?>
<svg width="300px" height="200px" viewBox="0 0 300 200" version="1.1" xmlns="http://www.w3.org/2000/svg" xmlns:xlink="http://www.w3.org/1999/xlink">
    <title>Build NYC</title>
    <g id="Build-NYC" stroke="none" stroke-width="1" fill="none" fill-rule="evenodd">
        <rect fill="#FFFFFF" x="0" y="0" width="300" height="200"></rect>
        <g id="buildnyc-logo" transform="translate(104.000000, 60.000000)">
            <path d="M0,14.92 C0.121185185,14.6142222 0.212740741,14.2965926 0.425481481,14.0314074 C0.990222222,13.3274074 1.90607407,13.0527407 2.75466667,13.344 C3.60918519,13.6373333 4.1522963,14.3925926 4.15348148,15.3197037 C4.15733333,18.5161481 4.15437037,21.7131852 4.15614815,24.9096296 C4.15644444,25.0628148 4.15703704,25.2195556 4.18874074,25.368 C4.2402963,25.6112593 4.42222222,25.7336296 4.65748148,25.7099259 C4.888,25.6868148 5.04888889,25.5475556 5.05866667,25.2906667 C5.06251852,25.1842963 5.06014815,25.0776296 5.06014815,24.970963 C5.06014815,20.4482963 5.06074074,15.9256296 5.05925926,11.402963 C5.05925926,10.7158519 5.20177778,10.0814815 5.73896296,9.60355556 C6.40148148,9.01392593 7.16681481,8.86162963 7.98044444,9.21274074 C8.79022222,9.56207407 9.23940741,10.2074074 9.24088889,11.1016296 C9.24859259,15.4702222 9.24444444,19.8391111 9.24444444,24.2077037 C9.24444444,24.3025185 9.24237037,24.3973333 9.24503704,24.4918519 C9.25303704,24.786963 9.36207407,25.0023704 9.69333333,25.0177778 C9.99111111,25.032 10.1656296,24.8438519 10.1665185,24.4835556 C10.1691852,23.4536296 10.1585185,22.4237037 10.1582222,21.3937778 C10.157037,17.6764444 10.1552593,13.9588148 10.1594074,10.2408889 C10.1602963,9.17066667 10.9377778,8.30192593 11.9831111,8.17777778 C13.0192593,8.05481481 13.9736296,8.69748148 14.2524444,9.70548148 C14.322963,9.95940741 14.3238519,10.2195556 14.3238519,10.48 C14.3238519,14.8488889 14.3235556,19.2177778 14.325037,23.5863704 C14.325037,23.7277037 14.3244444,23.8725926 14.3531852,24.0094815 C14.4005926,24.237037 14.5700741,24.3579259 14.7902222,24.3499259 C15.0254815,24.3413333 15.1872593,24.2017778 15.2207407,23.9558519 C15.2364444,23.8394074 15.2284444,23.7197037 15.2284444,23.6014815 C15.229037,20.0376296 15.2254815,16.4737778 15.2314074,12.9102222 C15.2325926,12.0456296 15.6020741,11.3721481 16.3905185,10.9851852 C17.1437037,10.616 17.8915556,10.6811852 18.5712593,11.1739259 C19.1576296,11.5991111 19.4142222,12.2041481 19.4139259,12.925037 C19.4124444,16.4533333 19.4068148,19.9816296 19.4171852,23.5096296 C19.4204444,24.6127407 19.7031111,25.6465185 20.4032593,26.5214815 C21.2465185,27.5748148 22.4204444,28.013037 23.7146667,28.0497778 C25.704,28.1066667 27.6957037,28.0717037 29.6862222,28.074963 C30.9496296,28.0767407 31.8714074,28.9383704 31.8884345,30.1348148 C31.9045926,31.3398519 30.9813333,32.2474074 29.7054815,32.2533333 C27.7857778,32.2622222 25.8660741,32.2551111 23.9463704,32.256 C23.1641481,32.2562963 22.424,32.4441481 21.7146667,32.7659259 C20.7377778,33.2085926 20.1757037,33.978963 19.9128889,35.0020741 C19.5608889,36.3748148 19.445037,37.7742222 19.4154074,39.1834074 C19.4032593,39.7517037 19.4165926,40.32 19.4127407,40.8882963 C19.4041481,42.1022222 18.5105185,42.9943704 17.3001481,42.9946667 C12.2521481,42.9961481 7.20414815,42.9956577 2.15585185,42.9952593 C1.08118519,42.994963 0.378074074,42.4717037 0.056,41.437037 C0.0462222222,41.405037 0.0192592593,41.378963 0,41.3499259 C0,32.5401481 0,23.7300741 0,14.92" id="Fill-4" fill="#222222" fill-rule="nonzero"></path>
            <path d="M79.7493333,44.0862222 C81.704,44.0832593 83.658963,44.0785185 85.6133333,44.0862222 C86.7493333,44.090963 87.8515556,44.2764444 88.8705185,44.8088889 C90.5460741,45.6838519 91.4379259,47.1202963 91.8088889,48.928 C91.845037,49.1031111 91.8186667,49.2974815 91.9466667,49.4494815 L91.9466667,57.3357037 L91.9466667,57.3357037 C91.7757037,57.5484444 91.8085926,57.8195556 91.7499259,58.0619259 C91.0951111,60.7742222 89.0835556,62.4654815 86.2951111,62.5896296 C84,62.6921481 81.7028148,62.602963 79.3834074,62.6352593 L79.3834074,44.12 L79.3834074,44.12 C79.4906667,44.0453333 79.6242963,44.0865185 79.7493333,44.0862222 Z M82.7454815,47.3893333 L82.7454815,59.2539259 L82.7454815,59.2539259 L83.2392533,59.2536225 C83.4025481,59.2534495 83.5646459,59.2532338 83.725843,59.2530631 L84.2070281,59.2527739 L84.2070281,59.2527739 L84.6845867,59.2532812 L84.6845867,59.2532812 L85.1602963,59.2551111 C85.5751111,59.2568889 85.9905185,59.256 86.3958519,59.1588148 C87.512,58.8912593 88.2151111,57.9922963 88.2358519,56.6482963 L88.2358519,56.6482963 C88.272,54.3176296 88.2693333,51.9854815 88.2397037,49.6545185 C88.2228148,48.3404444 87.5300741,47.6222222 86.2148148,47.4397037 C85.5784513,47.351219 84.9381206,47.3857093 84.2986916,47.3922507 L84.0855887,47.393189 L84.0855887,47.393189 L83.8725926,47.3908148 L83.8725926,47.3908148 C83.4977778,47.3825185 83.1226667,47.3893333 82.7454815,47.3893333 Z" id="Combined-Shape" fill="#222222" fill-rule="nonzero"></path>
            <path d="M36.2666667,80 C35.8788148,79.4485926 35.370963,79.0053333 34.9108148,78.5202963 C32.4734815,75.9552593 30.026963,73.3988148 27.5837037,70.8391111 C27.4874074,70.7380741 27.392,70.6361481 27.2426667,70.4779259 C27.2426667,73.5146667 27.2426667,76.4761481 27.2426667,79.4645926 C26.7896296,79.4645926 26.3697778,79.4645926 25.9226667,79.4645926 C25.9226667,75.4328889 25.9226667,71.3914074 25.9226667,67.2687407 C28.9611852,70.4500741 31.9677037,73.5973333 35.0263704,76.7994074 C35.0263704,73.7564444 35.0263704,70.784 35.0263704,67.7893333 C35.4797037,67.7893333 35.8980741,67.7893333 36.3499259,67.7893333 C36.3499259,67.8613333 36.3499259,67.9288889 36.3499259,67.9961481 C36.3500473,71.890963 36.3500473,75.7860741 36.3496296,79.6808889 C36.3496296,79.7872593 36.3419259,79.8936296 36.3377778,80 C36.3140741,80 36.2903704,80 36.2666667,80" id="Fill-7" fill="#222222" fill-rule="nonzero"></path>
            <path d="M52.7223704,14.8782222 C52.7223704,19.1525926 52.7241481,23.426963 52.7205926,27.7013333 C52.7197037,28.7460741 51.9934815,29.5842963 50.965037,29.7528889 C50.0005926,29.9114074 49.0225185,29.3256296 48.6853333,28.3893333 C48.5958519,28.1413333 48.5665185,27.8871111 48.5668148,27.6237037 C48.5700741,24.426963 48.5688889,21.2299259 48.5685926,18.0331852 C48.5685926,17.914963 48.5795556,17.7931852 48.5558519,17.6791111 C48.5037037,17.4281481 48.3327407,17.2761481 48.08,17.2874074 C47.8435556,17.2980741 47.6921481,17.4571852 47.653037,17.6939259 C47.6337778,17.8094815 47.6447407,17.9300741 47.6447407,18.0482963 C47.6444444,22.6542222 47.6453333,27.2601481 47.6438519,31.8660741 C47.6432593,32.9336296 46.8885926,33.7946667 45.8308148,33.946963 C44.8488889,34.0882963 43.8814815,33.4708148 43.573037,32.5028148 C43.4788148,32.2068148 43.4592593,31.9001481 43.4595556,31.5917037 C43.4595556,27.2936296 43.4595556,22.9955556 43.4592593,18.6974815 C43.4592593,18.5908148 43.4648889,18.4838519 43.4557037,18.3780741 C43.4355556,18.1475556 43.3054815,18.0062222 43.0773333,17.9777778 C42.8314074,17.9472593 42.6648889,18.0654815 42.5940741,18.2995556 C42.5638519,18.3994074 42.5552593,18.5093333 42.554963,18.6148148 C42.5525926,20.296 42.5291852,21.9777778 42.5585185,23.6586667 C42.6112593,26.6773333 42.5768889,29.696 42.5801481,32.7146667 C42.5813333,34.1706667 41.245037,35.1525926 39.8731852,34.7425185 C38.9857778,34.477037 38.4011852,33.6752593 38.4008889,32.7078519 C38.3991111,28.3034074 38.4,23.8986667 38.4,19.4942222 C38.4,19.4112593 38.4008889,19.3282963 38.4,19.2453333 C38.3961481,18.8752593 38.2204444,18.6462222 37.9434074,18.6494815 C37.6551111,18.6527407 37.4874074,18.8663704 37.4874074,19.2488889 C37.4859259,22.8838519 37.4894815,26.5188148 37.4841481,30.1537778 C37.482963,31.0311111 37.0663704,31.674963 36.2776296,32.0441481 C35.485037,32.4151111 34.7247407,32.2962963 34.0521481,31.7457778 C33.5235556,31.3128889 33.3176296,30.7294815 33.3191111,30.0491852 C33.3262222,26.5682963 33.3253333,23.0871111 33.3202963,19.6062222 C33.3191111,18.7312593 33.1445926,17.8888889 32.736,17.1084444 C32.0557037,15.8091852 30.901037,15.2213333 29.5131852,14.992 C29.1377778,14.9300741 28.7597037,14.9182222 28.3801481,14.9188148 C26.5671111,14.9214815 24.7537778,14.9211852 22.9404444,14.9194074 C21.8186667,14.9185185 20.8915556,14.061037 20.8367407,12.978963 C20.7783704,11.8346667 21.5608889,10.9051852 22.6977778,10.7742222 C22.8971852,10.7511111 23.098963,10.7404444 23.2998519,10.7401481 C25.1365926,10.7377778 26.9736296,10.7374815 28.8103704,10.7392593 C29.6071111,10.7401481 30.3534815,10.5380741 31.072,10.2077037 C32.2097778,9.68474074 32.6782222,8.70222222 32.922963,7.55437037 C33.2933333,5.81807407 33.3306667,4.05777778 33.3226667,2.29362963 C33.3214815,2.03348148 33.3188148,1.77362963 33.392,1.51911111 C33.6580741,0.59437037 34.4471111,0.000592592593 35.4234074,0.000296296296 C40.4957037,-0.000203703704 45.568,-0.000203703704 50.64,0.000296296296 C51.8337778,0.000592592593 52.7205926,0.888 52.7211852,2.09066667 C52.7235556,6.35318519 52.7223704,10.6157037 52.7223704,14.8782222" id="Fill-9" fill="#222222" fill-rule="nonzero"></path>
            <path d="M29.3851852,47.6213333 C30.9386667,47.6213333 32.4764444,47.6251852 34.0142222,47.6171852 C34.2604444,47.6157037 34.5096296,47.5771852 34.752,47.5288889 C36.3205926,47.2154074 37.3031111,45.9887407 37.2963664,44.3638519 C37.2900741,42.7801481 36.3437037,41.6675556 34.7422222,41.3466667 C33.9792593,41.1937778 33.2085926,41.2533333 32.4405926,41.2465185 C31.4257778,41.2376296 30.4103704,41.2441481 29.3851852,41.2441481 C29.3851852,43.3884444 29.3851852,45.5028148 29.3851852,47.6213333 Z" id="Path"></path>
            <path d="M29.3973333,50.8402963 C29.3973333,53.6903704 29.3973333,56.4971852 29.3973333,59.3128889 C30.7398519,59.3128889 32.0542222,59.3111111 33.3685926,59.3135082 C33.8311111,59.3143704 34.2882963,59.2714074 34.7437037,59.1887407 C36.8068148,58.813037 38.1543704,57.2213333 38.1863704,55.1158519 C38.2192593,52.9525926 37.0272593,51.432 34.8868148,51.0145185 C33.072,50.6604444 31.2296296,50.9517037 29.3973333,50.8402963 Z" id="Path"></path>
            <path d="M34.8376296,37.9528889 C37.8826667,38.0198519 40.3543704,40.4201481 40.6903704,43.4515556 C40.9377778,45.68 40.2568889,47.5223704 38.5564444,48.9940741 C38.5635556,49.1232593 38.6906667,49.1437037 38.7674074,49.2023704 C40.8512593,50.7991111 41.7226667,52.9404444 41.6171852,55.5205926 C41.5442963,57.3057778 40.9659259,58.8968889 39.7552593,60.2311111 C38.5706667,61.5368889 37.0681481,62.245037 35.3445926,62.5208889 C34.7819259,62.610963 34.2145185,62.6302222 33.6456296,62.6302222 L29.9307037,62.6295926 L25.802963,62.6296296 L25.802963,37.9487407 C25.8468148,37.941037 25.8814815,37.9288889 25.9161481,37.9288889 C28.8897778,37.9318519 31.8648889,37.8874074 34.8376296,37.9528889 Z M34.8868148,51.0145185 C33.072,50.6604444 31.2296296,50.9517037 29.3973333,50.8402963 L29.3973333,50.8402963 L29.3973333,59.3128889 C30.7398519,59.3128889 32.0542222,59.3111111 33.3685926,59.3135082 C33.8311111,59.3143704 34.2882963,59.2714074 34.7437037,59.1887407 C36.8068148,58.813037 38.1543704,57.2213333 38.1863704,55.1158519 C38.2192593,52.9525926 37.0272593,51.432 34.8868148,51.0145185 Z M32.4405926,41.2465185 C31.6794815,41.2398519 30.918037,41.2418519 30.1523843,41.2432684 L29.3851852,41.2441481 L29.3851852,47.6213333 C30.9386667,47.6213333 32.4764444,47.6251852 34.0142222,47.6171852 C34.2604444,47.6157037 34.5096296,47.5771852 34.752,47.5288889 C36.3205926,47.2154074 37.3031111,45.9887407 37.2963664,44.3638519 C37.2900741,42.7801481 36.3437037,41.6675556 34.7422222,41.3466667 C33.9792593,41.1937778 33.2085926,41.2533333 32.4405926,41.2465185 Z" id="Combined-Shape" fill="#222222" fill-rule="nonzero"></path>
            <path d="M43.9614815,44.1057778 C45.1117037,44.1057778 46.2548148,44.1057778 47.4198519,44.1057778 C47.4198519,44.2557037 47.4198519,44.3842963 47.4198519,44.5131852 C47.4198519,48.5851852 47.4213333,52.6571852 47.4177778,56.7291852 C47.4174815,57.1706667 47.4663704,57.602963 47.6035556,58.0213333 C47.9715556,59.1434074 48.8802963,59.7816296 50.2343704,59.8808889 C50.6859259,59.9137778 51.136,59.8885926 51.5774815,59.7976296 C52.9558519,59.5122963 53.7813333,58.5194074 53.8251852,57.0482963 C53.8571852,55.9842963 53.8414815,54.9182222 53.8417778,53.853037 C53.8435556,50.7395556 53.8423704,47.6263704 53.8423704,44.5134815 C53.8423704,44.3845926 53.8423704,44.256 53.8423704,44.1057778 C54.9961481,44.1057778 56.1282963,44.1057778 57.2625185,44.1057778 C57.3395556,44.2174815 57.3025185,44.3386667 57.3025185,44.4515556 C57.3045926,48.6062222 57.3111111,52.7614815 57.301037,56.9161481 C57.2968889,58.5872593 56.8260741,60.0882963 55.5620741,61.2604444 C54.514963,62.2314074 53.2364444,62.6945185 51.8471111,62.8613333 C50.1745185,63.0625185 48.5336296,62.9288889 47.0014815,62.1617778 C45.0308148,61.1754074 43.9967407,59.5197037 43.9653333,57.36 C43.9019259,52.9928889 43.9463704,48.6242963 43.946963,44.256 C43.946963,44.2100741 43.9558519,44.1641481 43.9614815,44.1057778" id="Fill-11" fill="#222222" fill-rule="nonzero"></path>
            <path d="M67.4245926,62.608 C67.4245926,56.4408889 67.4245926,50.2859259 67.4245926,44.1078519 C68.5573333,44.1078519 69.6871111,44.1078519 70.850963,44.1078519 C70.850963,49.1247407 70.850963,54.1383704 70.850963,59.1739259 C73.0026667,59.1739259 75.1208889,59.1739259 77.2631111,59.1739259 C77.2631111,60.3262222 77.2631111,61.456 77.2631111,62.608 C73.989037,62.608 70.7122963,62.608 67.4245926,62.608" id="Fill-12" fill="#222222" fill-rule="nonzero"></path>
            <path d="M64.0628148,62.6124444 C62.9128889,62.6124444 61.792,62.6124444 60.6622222,62.6124444 C60.6622222,56.434963 60.6622222,50.2746667 60.6622222,44.0992593 C61.8,44.0992593 62.9211852,44.0992593 64.0628148,44.0992593 C64.0628148,50.2696296 64.0628148,56.429037 64.0628148,62.6124444" id="Fill-13" fill="#222222" fill-rule="nonzero"></path>
            <path d="M30.0503704,17.2820741 C29.4207407,18.3742222 28.8198519,19.4171852 28.1905185,20.509037 C29.4438519,20.509037 30.653037,20.509037 31.8897778,20.509037 C31.8897778,21.2139259 31.8897778,21.8808889 31.8897778,22.5878519 C30.6841481,22.5878519 29.472,22.5878519 28.1677037,22.5878519 C28.8154074,23.7128889 29.4237037,24.7688889 30.0488889,25.8545185 C29.4471111,26.2032593 28.8672593,26.5395556 28.2444444,26.9007407 C27.6234074,25.832 27.0097778,24.7762963 26.3662222,23.669037 C25.7297778,24.7674074 25.1226667,25.8151111 24.4939259,26.9004444 C23.8871111,26.5505185 23.298963,26.2112593 22.6835556,25.856 C23.3072593,24.7721481 23.9164444,23.7137778 24.5487407,22.6148148 C23.2903704,22.6148148 22.0877037,22.6148148 20.8545185,22.6148148 C20.8545185,21.9253333 20.8545185,21.2574815 20.8545185,20.5442963 C22.0562963,20.5442963 23.277037,20.5442963 24.5611852,20.5442963 C23.9155556,19.4231111 23.3054815,18.3632593 22.682963,17.2817778 C23.293037,16.9315556 23.8844444,16.592 24.4945185,16.2420741 C25.1176296,17.317037 25.7262222,18.3665185 26.3665185,19.4705185 C27.0023704,18.3757037 27.6112593,17.3274074 28.2414815,16.2426667 C28.8468148,16.5905185 29.4346667,16.9282963 30.0503704,17.2820741" id="Fill-14" fill="#222222" fill-rule="nonzero"></path>
            <path d="M57.2331852,70.3534815 C54.7857778,68.0693333 51.8767407,68.5982222 50.3380741,70.1934815 C48.6112593,71.9837037 48.4965926,75.0068148 50.0755556,76.8020741 C51.5407407,78.4678519 54.5339259,79.3777778 57.2325926,76.9220741 C57.2325926,77.4521481 57.2296296,77.9407407 57.2343704,78.4293333 C57.2358519,78.5653333 57.1345185,78.6077037 57.0494815,78.6648889 C53.7117037,80.9066667 48.5768889,79.4097778 47.7220741,74.8358519 C47.2077037,72.0841481 48.3602963,69.5303704 50.7102222,68.3134815 C52.808,67.2272593 54.9303704,67.2257778 56.9757037,68.5386667 C57.1641481,68.6595556 57.2524444,68.7878519 57.2397037,69.0228148 C57.2165926,69.4447407 57.2331852,69.8684444 57.2331852,70.3534815" id="Fill-16" fill="#222222" fill-rule="nonzero"></path>
            <path d="M37.9922963,67.7674074 C38.4868148,67.7674074 38.9134815,67.7813333 39.3386667,67.7617778 C39.5484444,67.752 39.5961481,67.8942222 39.6687407,68.0213333 C40.5484444,69.5588148 41.4251852,71.0980741 42.3031111,72.6367407 C42.3555556,72.7282963 42.4106667,72.8183704 42.4894815,72.9511111 C42.624,72.7259259 42.7437037,72.530963 42.8580741,72.3333333 C43.6912593,70.8918519 44.5271111,69.4521481 45.3511111,68.0056296 C45.4524444,67.8275556 45.5579259,67.7540741 45.7641481,67.7623704 C46.1659259,67.7792593 46.5688889,67.7674074 46.973037,67.7674074 C47.0017778,67.9134815 46.8986667,67.9961481 46.8438519,68.090963 C45.6705185,70.1128889 44.4942222,72.1333333 43.3131852,74.1511111 C43.2020741,74.341037 43.1481481,74.5285926 43.1493333,74.7505185 C43.1564444,76.3125926 43.1531852,77.8743704 43.1531852,79.464 C42.7191111,79.464 42.2995556,79.464 41.8645926,79.464 C41.7816296,79.362963 41.8272593,79.2275556 41.826963,79.1031111 C41.8234074,77.6471111 41.8216296,76.1911111 41.8278519,74.7351111 C41.8287407,74.5259259 41.7801481,74.3484444 41.6752593,74.1674074 C40.5202963,72.1757037 39.3715556,70.1804444 38.2219259,68.1857778 C38.1528889,68.0663704 38.0888889,67.9437037 37.9922963,67.7674074" id="Fill-18" fill="#222222" fill-rule="nonzero"></path>
        </g>
    </g>
</svg>