<?xml version="1.0" encoding="UTF-8"?>
<svg width="300px" height="200px" viewBox="0 0 300 200" version="1.1" xmlns="http://www.w3.org/2000/svg" xmlns:xlink="http://www.w3.org/1999/xlink">
    <title>Centivo</title>
    <g id="Centivo" stroke="none" stroke-width="1" fill="none" fill-rule="evenodd">
        <rect fill="#FFFFFF" x="0" y="0" width="300" height="200"></rect>
        <g id="Centivo-Logo-6" transform="translate(46.000000, 87.000000)" fill="#222222" fill-rule="nonzero">
            <g id="Group" transform="translate(36.378458, 1.762075)">
                <path d="M21.100453,18.0893125 C20.8993714,18.3745625 20.6912956,18.6536875 20.4788486,18.9258125 C20.2664014,19.2005625 20.0382175,19.4595625 19.7942969,19.7028125 C19.125482,20.4133125 18.3351439,21.0310625 17.4224084,21.5586875 C16.99664,21.8220625 16.5507634,22.0548125 16.0839044,22.2578125 C15.6170454,22.4616875 15.1318268,22.6340625 14.6247514,22.7766875 C13.591367,23.0593125 12.5571081,23.2019375 11.5237236,23.2019375 C9.94304749,23.2019375 8.45154665,22.8974375 7.05359247,22.2893125 C5.65388975,21.6803125 4.42816632,20.8481875 3.37467365,19.7938125 C2.34128912,18.7595625 1.51947741,17.5424375 0.911861298,16.1415625 C0.304245188,14.7415625 0,13.2514375 0,11.6694375 C0,10.0865625 0.304245188,8.5946875 0.911861298,7.1938125 C1.51947741,5.8156875 2.34128912,4.5880625 3.37467365,3.5135625 C4.44827447,2.4775625 5.67487218,1.6559375 7.05359247,1.0478125 C8.45154665,0.4388125 9.94304749,0.1351875 11.5237236,0.1351875 C12.5571081,0.1351875 13.591367,0.2769375 14.6247514,0.5604375 C15.6380278,0.8456875 16.5699973,1.2403125 17.4224084,1.7486875 C17.8682849,2.0120625 18.289682,2.3008125 18.684851,2.6149375 C19.0791459,2.9308125 19.4498353,3.2589375 19.7942969,3.6045625 C20.3013722,4.1313125 20.7376318,4.6676875 21.100453,5.2163125 C21.2438329,5.4403125 21.273558,5.6590625 21.1931253,5.8716875 C21.1118184,6.0843125 20.9500789,6.2418125 20.7061581,6.3433125 L18.4566671,7.2559375 C18.2337289,7.3574375 17.9854368,7.3731875 17.7109167,7.3014375 C17.4372709,7.2305625 17.218704,7.0931875 17.0569644,6.8901875 C16.9555494,6.7904375 16.8550086,6.6836875 16.7535935,6.5708125 C16.6521785,6.4588125 16.5507634,6.3538125 16.4493483,6.2505625 C16.2255358,6.0283125 15.9982262,5.8253125 15.7656709,5.6433125 C15.5322414,5.4595625 15.2830751,5.2889375 15.0199205,5.1253125 C14.7567659,4.9643125 14.4822459,4.8216875 14.198983,4.7000625 C13.914846,4.5784375 13.630709,4.4673125 13.3474463,4.3658125 C12.759064,4.1820625 12.1523222,4.0910625 11.5237236,4.0910625 C10.5305554,4.0910625 9.57760356,4.2931875 8.66399372,4.7000625 C7.77311486,5.1253125 7.01337615,5.6835625 6.38477762,6.3739375 C5.73694519,7.0826875 5.21850439,7.8841875 4.83470084,8.7766875 C4.44827447,9.6910625 4.25680983,10.6553125 4.25680983,11.6694375 C4.25680983,12.7028125 4.44827447,13.6661875 4.83470084,14.5586875 C5.21850439,15.4529375 5.73694519,16.2535625 6.38477762,16.9640625 C7.01337615,17.6736875 7.77311486,18.2223125 8.66399372,18.6055625 C9.53738724,19.0325625 10.4885906,19.2451875 11.5237236,19.2451875 C12.1523222,19.2451875 12.759064,19.1541875 13.3474463,18.9721875 C13.630709,18.8706875 13.914846,18.7595625 14.198983,18.6379375 C14.4822459,18.5163125 14.7567659,18.3745625 15.0199205,18.2109375 C15.2830751,18.0490625 15.5322414,17.8705625 15.7656709,17.6780625 C15.9982262,17.4855625 16.2255358,17.2773125 16.4493483,17.0550625 C16.5507634,16.9535625 16.6521785,16.8476875 16.7535935,16.7348125 C16.8550086,16.6236875 16.9555494,16.5169375 17.0569644,16.4154375 C17.218704,16.2124375 17.4372709,16.0706875 17.7109167,15.9901875 C17.9854368,15.9088125 18.2337289,15.9193125 18.4566671,16.0208125 L20.7061581,16.9334375 C20.9500789,17.0349375 21.1118184,17.1968125 21.1931253,17.4190625 C21.273558,17.6439375 21.2438329,17.8661875 21.100453,18.0893125" id="Fill-1"></path>
                <path d="M31.863651,5.2164 L31.863651,8.90015 C31.863651,9.163525 31.9537006,9.385775 32.1364225,9.56865 C32.3191446,9.7524 32.5420828,9.8434 32.8052375,9.8434 L41.684301,9.8434 C41.9474556,9.8434 42.1712682,9.9344 42.3522416,10.1164 C42.5358379,10.299275 42.6276359,10.523275 42.6276359,10.78665 L42.6276359,12.763275 C42.6276359,13.0284 42.5358379,13.251525 42.3522416,13.433525 C42.1712682,13.615525 41.9474556,13.706525 41.684301,13.706525 L32.8052375,13.706525 C32.5420828,13.706525 32.3191446,13.7984 32.1364225,13.98215 C31.9537006,14.16415 31.863651,14.387275 31.863651,14.65065 L31.863651,17.9984 C31.863651,18.261775 31.9537006,18.484025 32.1364225,18.667775 C32.3191446,18.85065 32.5420828,18.94165 32.8052375,18.94165 L43.0516559,18.94165 C43.316559,18.94165 43.538623,19.03265 43.721345,19.2164 C43.9049412,19.397525 43.995865,19.621525 43.995865,19.8849 L43.995865,21.83265 C43.995865,22.0969 43.9049412,22.320025 43.721345,22.502025 C43.538623,22.684025 43.316559,22.776775 43.0516559,22.776775 L28.5484276,22.776775 C28.285273,22.776775 28.0623348,22.684025 27.880487,22.502025 C27.6968908,22.320025 27.605967,22.0969 27.605967,21.83265 L27.605967,1.4434 C27.605967,1.180025 27.6968908,0.9569 27.880487,0.77315 C28.0623348,0.592025 28.285273,0.501025 28.5484276,0.501025 L43.0516559,0.501025 C43.316559,0.501025 43.538623,0.592025 43.721345,0.77315 C43.9049412,0.9569 43.995865,1.180025 43.995865,1.4434 L43.995865,3.3299 C43.995865,3.59415 43.9049412,3.817275 43.721345,4.00015 C43.538623,4.18215 43.316559,4.27315 43.0516559,4.27315 L32.8052375,4.27315 C32.5420828,4.27315 32.3191446,4.3659 32.1364225,4.5479 C31.9537006,4.7299 31.863651,4.953025 31.863651,5.2164" id="Fill-3"></path>
                <path d="M55.8372976,10.4813625 L55.8372976,21.8318625 C55.8372976,22.0969875 55.7472481,22.3201125 55.5636518,22.5021125 C55.3809298,22.6841125 55.1588658,22.7768625 54.8939626,22.7768625 L52.4932233,22.7768625 C52.2501769,22.7768625 52.0359813,22.6841125 51.8550079,22.5021125 C51.6714116,22.3201125 51.5796135,22.0969875 51.5796135,21.8318625 L51.5796135,1.0182375 C51.5796135,0.7531125 51.7063823,0.5964875 51.9607942,0.5448625 C52.2143319,0.4958625 52.4320246,0.5501125 52.6147465,0.7128625 L65.963067,13.3426125 C66.1650229,13.5246125 66.332008,13.5858625 66.4648968,13.5246125 C66.596037,13.4642375 66.6624813,13.3014875 66.6624813,13.0389875 L66.6624813,1.4732375 C66.6624813,1.2098625 66.7534051,0.9876125 66.9361271,0.8047375 C67.1179748,0.6209875 67.340913,0.5299875 67.6040677,0.5299875 L69.9759562,0.5299875 C70.2391108,0.5299875 70.4629233,0.6209875 70.644771,0.8047375 C70.827493,0.9876125 70.9192911,1.2098625 70.9192911,1.4732375 L70.9192911,22.2571125 C70.9192911,22.5222375 70.7916481,22.6797375 70.5398589,22.7296125 C70.2854469,22.7794875 70.057263,22.7252375 69.854433,22.5624875 L56.5367118,10.1471125 C56.3338817,9.9852375 56.1668965,9.9344875 56.0348821,9.9948625 C55.9028677,10.0561125 55.8372976,10.2179875 55.8372976,10.4813625" id="Fill-5"></path>
                <path d="M93.3670781,4.2730625 L88.896947,4.2730625 C88.632918,4.2730625 88.4099798,4.3658125 88.2281321,4.5478125 C88.0454101,4.7306875 87.9544863,4.9529375 87.9544863,5.2163125 L87.9544863,21.8325625 C87.9544863,22.0968125 87.8635625,22.3199375 87.6799662,22.5019375 C87.4981185,22.6839375 87.2751802,22.7766875 87.0120256,22.7766875 L84.6401371,22.7766875 C84.3769826,22.7766875 84.1540442,22.6839375 83.9713223,22.5019375 C83.7886002,22.3199375 83.6976764,22.0968125 83.6976764,21.8325625 L83.6976764,5.2163125 C83.6976764,4.9529375 83.6067526,4.7306875 83.4240306,4.5478125 C83.2404344,4.3658125 83.0183703,4.2730625 82.7552158,4.2730625 L78.2544853,4.2730625 C77.9904564,4.2730625 77.767518,4.1820625 77.5865447,4.0000625 C77.4029484,3.8171875 77.3111502,3.5949375 77.3111502,3.3298125 L77.3111502,1.4433125 C77.3111502,1.1799375 77.4029484,0.9568125 77.5865447,0.7730625 C77.767518,0.5928125 77.9904564,0.5009375 78.2544853,0.5009375 L93.3670781,0.5009375 C93.6302327,0.5009375 93.8522967,0.5928125 94.035893,0.7730625 C94.2186149,0.9568125 94.3095388,1.1799375 94.3095388,1.4433125 L94.3095388,3.3298125 C94.3095388,3.5949375 94.2186149,3.8171875 94.035893,4.0000625 C93.8522967,4.1820625 93.6302327,4.2730625 93.3670781,4.2730625" id="Fill-7"></path>
                <path d="M104.6238,22.7770375 L102.223061,22.7770375 C101.959906,22.7770375 101.739591,22.6842875 101.569109,22.5022875 C101.396878,22.3194125 101.310326,22.0971625 101.310326,21.8320375 L101.310326,1.4734125 C101.310326,1.2100375 101.396878,0.9877875 101.569109,0.8049125 C101.739591,0.6211625 101.959906,0.5301625 102.223061,0.5301625 L104.6238,0.5301625 C104.888703,0.5301625 105.110768,0.6211625 105.294363,0.8049125 C105.476212,0.9877875 105.567135,1.2100375 105.567135,1.4734125 L105.567135,21.8320375 C105.567135,22.0971625 105.476212,22.3194125 105.294363,22.5022875 C105.110768,22.6842875 104.888703,22.7770375 104.6238,22.7770375" id="Fill-9"></path>
                <path d="M133.159726,1.3824125 L123.429125,22.3806625 C123.328585,22.6037875 123.136246,22.7149125 122.852983,22.7149125 C122.567972,22.7149125 122.375633,22.6037875 122.274218,22.3806625 L112.574217,1.3824125 C112.472802,1.1391625 112.472802,0.9370375 112.574217,0.7734125 C112.677381,0.6124125 112.847863,0.5301625 113.091783,0.5301625 L115.919165,0.5301625 C116.182319,0.5301625 116.445475,0.6124125 116.708629,0.7734125 C116.973532,0.9370375 117.15538,1.1391625 117.256795,1.3824125 L122.45694,12.5815375 C122.55748,12.8037875 122.689495,12.9157875 122.852983,12.9157875 C123.012974,12.9157875 123.145863,12.8037875 123.247278,12.5815375 L128.447423,1.3824125 C128.547964,1.1391625 128.730686,0.9370375 128.994714,0.7734125 C129.256995,0.6124125 129.520149,0.5301625 129.785053,0.5301625 L132.61156,0.5301625 C132.876464,0.5301625 133.057436,0.6124125 133.159726,0.7734125 C133.261141,0.9370375 133.261141,1.1391625 133.159726,1.3824125" id="Fill-11"></path>
                <path d="M147.909497,23.128875 C146.328821,23.128875 144.83907,22.8235 143.439367,22.21625 C142.041413,21.606375 140.82006,20.780375 139.776185,19.73475 C138.731435,18.69175 137.905252,17.469375 137.298509,16.0685 C136.689145,14.667625 136.385774,13.166125 136.385774,11.564 C136.385774,9.982875 136.689145,8.486625 137.298509,7.076125 C137.905252,5.6665 138.731435,4.43975 139.776185,3.394125 C140.82006,2.349375 142.041413,1.521625 143.439367,0.9135 C144.83907,0.3045 146.328821,0 147.909497,0 C149.510282,0 151.0114,0.3045 152.410228,0.9135 C153.808182,1.521625 155.029535,2.349375 156.074285,3.394125 C157.117286,4.43975 157.943469,5.6665 158.551959,7.076125 C159.16045,8.486625 159.46382,9.982875 159.46382,11.564 C159.46382,13.166125 159.16045,14.667625 158.551959,16.0685 C157.943469,17.469375 157.117286,18.69175 156.074285,19.73475 C155.029535,20.780375 153.808182,21.606375 152.410228,22.21625 C151.0114,22.8235 149.510282,23.128875 147.909497,23.128875 M147.925235,3.987375 C146.914581,3.987375 145.967749,4.195625 145.087361,4.610375 C144.207848,5.026875 143.439367,5.579875 142.781043,6.27025 C142.123593,6.95975 141.603404,7.765625 141.218726,8.68875 C140.834048,9.611875 140.643459,10.57 140.643459,11.564 C140.643459,12.579 140.834048,13.542375 141.218726,14.455 C141.603404,15.3685 142.123593,16.17525 142.781043,16.874375 C143.439367,17.574375 144.207848,18.1335 145.087361,18.54825 C145.967749,18.963875 146.914581,19.172125 147.925235,19.172125 C148.935888,19.172125 149.881846,18.963875 150.760485,18.54825 C151.640873,18.1335 152.410228,17.574375 153.067678,16.874375 C153.724253,16.17525 154.246191,15.3685 154.630869,14.455 C155.014672,13.542375 155.207885,12.579 155.207885,11.564 C155.207885,10.57 155.014672,9.611875 154.630869,8.68875 C154.246191,7.765625 153.724253,6.95975 153.067678,6.27025 C152.410228,5.579875 151.640873,5.026875 150.760485,4.610375 C149.881846,4.195625 148.935888,3.987375 147.925235,3.987375" id="Fill-13"></path>
                <path d="M167.686572,0 C169.9212,0 171.749294,1.829625 171.749294,4.066125 C171.749294,6.302625 169.9212,8.120875 167.686572,8.120875 C165.451943,8.120875 163.635215,6.302625 163.635215,4.066125 C163.635215,1.829625 165.451943,0 167.686572,0 L167.686572,0 Z M167.686572,7.34125 C169.5033,7.34125 170.958956,5.873 170.958956,4.066125 C170.958956,2.247875 169.5033,0.791 167.686572,0.791 C165.880335,0.791 164.414187,2.247875 164.414187,4.066125 C164.414187,5.873 165.880335,7.34125 167.686572,7.34125 L167.686572,7.34125 Z M166.230916,2.202375 C166.230916,2.0895 166.320965,1.988 166.445112,1.988 L168.115837,1.988 C168.815252,1.988 169.5033,2.46225 169.5033,3.320625 C169.5033,4.123 168.983984,4.438875 168.645643,4.563125 C168.848473,4.981375 169.052178,5.410125 169.243642,5.816125 C169.323201,5.964 169.21042,6.1215 169.052178,6.1215 L168.544229,6.1215 C168.454179,6.1215 168.37462,6.04275 168.341398,5.964 L167.776621,4.6305 L167.077206,4.6305 L167.077206,5.907125 C167.077206,6.02 166.987157,6.1215 166.863012,6.1215 L166.445112,6.1215 C166.320965,6.1215 166.230916,6.02 166.230916,5.907125 L166.230916,2.202375 Z M168.05901,3.885 C168.397352,3.885 168.622913,3.637375 168.622913,3.332 C168.622913,3.003875 168.397352,2.778125 168.05901,2.778125 L167.054476,2.778125 L167.054476,3.885 L168.05901,3.885 Z" id="Fill-31"></path>
            </g>
            <path d="M9.08040747,7.17675 L9.08040747,9.46225 L13.025978,9.46225 L13.025978,6.7725 L9.1013899,6.7725 C9.08740161,6.9055 9.08040747,7.04025 9.08040747,7.17675" id="Fill-15"></path>
            <path d="M13.0257157,20.026825 L16.9275728,20.026825 C16.9415611,19.893825 16.9485553,19.759075 16.9485553,19.622575 L16.9485553,17.337075 L13.0257157,17.337075 L13.0257157,20.026825 Z" id="Fill-17"></path>
            <path d="M19.6361418,13.4283625 L19.6361418,9.4829875 C19.5032531,9.4698625 19.3686158,9.4628625 19.2322301,9.4628625 L16.9486426,9.4628625 L16.9486426,13.4283625 L19.6361418,13.4283625 Z" id="Fill-19"></path>
            <path d="M6.39247117,9.48325 L6.39247117,13.428625 L9.07997033,13.428625 L9.07997033,9.46225 L9.07997033,7.17675 C9.07997033,7.04025 9.08783875,6.9055 9.10095276,6.7725 C9.30378289,4.790625 10.9815028,3.240125 13.0141753,3.240125 C15.0477222,3.240125 16.7245678,4.790625 16.927398,6.7725 L19.2319678,6.7725 C19.3622337,6.7725 19.4890025,6.78475 19.6166457,6.79175 C19.4155641,3.317125 16.535726,0.5495 13.0141753,0.5495 C9.49262473,0.5495 6.61278665,3.317125 6.41170506,6.79175 C6.40471092,6.9195 6.39247117,7.04725 6.39247117,7.17675 L6.39247117,9.48325 Z" id="Fill-21"></path>
            <path d="M6.39247117,13.4283625 L6.39247117,17.3159875 C6.52535987,17.3299875 6.65999711,17.3369875 6.79638289,17.3369875 L9.07997033,17.3369875 L9.07997033,13.4283625 L6.39247117,13.4283625 Z" id="Fill-23"></path>
            <path d="M19.6361418,17.3159 L19.6361418,13.428275 L16.9486426,13.428275 L16.9486426,17.3369 L16.9486426,19.6224 C16.9486426,19.7589 16.9407742,19.89365 16.9276603,20.02665 C16.7248301,22.008525 15.0471103,23.5599 13.0144376,23.5599 C10.981765,23.5599 9.30404517,22.008525 9.10121504,20.02665 L6.79664517,20.02665 C6.66637927,20.02665 6.53961044,20.0144 6.41196734,20.0074 C6.61304893,23.482025 9.49288701,26.24965 13.0144376,26.24965 C16.5359883,26.24965 19.4158264,23.482025 19.616908,20.0074 C19.623902,19.87965 19.6361418,19.752775 19.6361418,19.6224 L19.6361418,17.3159 Z" id="Fill-25"></path>
            <path d="M19.616733,6.7918375 C19.48909,6.7848375 19.3623212,6.7725875 19.2320553,6.7725875 L16.9274853,6.7725875 L13.0256283,6.7725875 L13.0256283,9.4623375 L16.9484678,9.4623375 L19.2320553,9.4623375 C19.368441,9.4623375 19.5030783,9.4693375 19.6359669,9.4833375 C21.6161835,9.6863375 23.1662603,11.3645875 23.1662603,13.3998375 C23.1662603,15.4342125 21.6161835,17.1124625 19.6359669,17.3154625 L19.6359669,19.6228375 C19.6359669,19.7523375 19.6237272,19.8792125 19.616733,20.0069625 C23.0884504,19.8065875 25.8537594,16.9243375 25.8537594,13.3998375 C25.8537594,9.8753375 23.0884504,6.9930875 19.616733,6.7918375" id="Fill-27"></path>
            <path d="M9.10104019,20.026825 L13.0256283,20.026825 L13.0256283,17.337075 L9.08005776,17.337075 L6.79647031,17.337075 C6.66008454,17.337075 6.52544731,17.3292 6.3925586,17.316075 C4.41234207,17.113075 2.86313956,15.43395 2.86313956,13.399575 C2.86313956,11.3652 4.41234207,9.686075 6.3925586,9.483075 L6.3925586,7.176575 C6.3925586,7.047075 6.40479835,6.9202 6.41179249,6.791575 C2.94007513,6.992825 0.17476613,9.875075 0.17476613,13.399575 C0.17476613,16.924075 2.94007513,19.806325 6.41179249,20.007575 C6.54030986,20.014575 6.66707868,20.026825 6.79647031,20.026825 L9.10104019,20.026825 Z" id="Fill-29"></path>
        </g>
    </g>
</svg>