<?xml version="1.0" encoding="UTF-8"?>
<svg width="300px" height="200px" viewBox="0 0 300 200" version="1.1" xmlns="http://www.w3.org/2000/svg" xmlns:xlink="http://www.w3.org/1999/xlink">
    <title>Ironside</title>
    <g id="Ironside" stroke="none" stroke-width="1" fill="none" fill-rule="evenodd">
        <rect fill="#FFFFFF" x="0" y="0" width="300" height="200"></rect>
        <g id="Ironside-Computers-grey3" transform="translate(44.000000, 87.000000)" fill="#222222" fill-rule="nonzero">
            <path d="M83.04,9.2 C83.36,8.96 84.08,9.6 84.4,10 C88,14.64 91.68,19.2 95.28,23.84 C95.76,24.4 96.32,24.96 96.88,25.44 C101.04,25.44 105.12,25.36 109.28,25.36 C109.28,17.04 109.28,8.72 109.28,0.32 C106.56,0.32 104,0.32 101.2,0.32 C101.2,5.68 101.2,10.96 101.2,16.16 C100.16,15.68 99.6,14.96 99.04,14.32 C95.68,10.08 92.4,5.84 88.96,1.68 C88.48,1.12 87.84,0.32 87.2,0.32 C83.12,0.24 79.04,0.24 74.72,0.24 C74.72,8.96 74.72,17.36 74.72,25.76 C77.28,25.76 80.32,25.76 82.88,25.76 C82.88,24.72 82.96,24 82.96,23.12 C83.04,18.56 83.04,13.92 83.04,9.2 Z" id="Path"></path>
            <path d="M184.24,18.32 C184.32,14.64 184.32,10.96 184.24,7.28 C184.08,2.64 181.6,0.32 176.96,0.24 C169.44,0.24 161.92,0.24 154.4,0.24 C153.76,0.24 153.2,0.32 152.4,0.32 C152.4,8.72 152.4,17.04 152.4,25.28 C159.92,25.28 177.76,25.52 178.56,25.36 C182.72,24.4 184.16,22.48 184.24,18.32 Z M176.56,17.04 C176.56,17.6 175.6,18.48 175.12,18.48 C170.64,18.64 166.16,18.56 161.76,18.48 C161.36,18.48 160.56,17.76 160.56,17.28 C160.48,14 160.48,10.64 160.48,7.04 C165.68,7.04 170.48,6.96 175.28,7.12 C175.76,7.12 176.64,8 176.64,8.48 C176.72,11.44 176.72,14.24 176.56,17.04 Z" id="Shape"></path>
            <path d="M73.52,18.16 C73.52,14.4 73.6,10.64 73.52,6.88 C73.44,2.8 70.88,0.24 66.8,0.24 C60.56,0.24 54.32,0.24 48.08,0.24 C44.08,0.24 41.44,2.72 41.28,6.64 C41.12,10.72 41.2,14.88 41.28,18.96 C41.36,22.08 43.84,25.6 47.2,25.76 C47.68,25.76 46.8,25.52 47.2,25.76 C53.84,25.76 60.56,25.76 67.2,25.76 C67.44,25.6 66.96,25.76 67.2,25.76 C71.84,25.6 73.52,22.56 73.52,18.16 Z M63.92,18.56 C61.76,18.48 59.52,18.56 57.36,18.56 C55.28,18.56 53.28,18.48 51.2,18.56 C49.76,18.64 49.12,18.16 49.2,16.64 C49.28,14.08 49.28,11.52 49.2,8.96 C49.2,7.6 49.68,7.04 51.04,7.04 C55.36,7.12 59.68,7.12 64,7.04 C65.36,7.04 65.84,7.6 65.84,8.96 C65.76,11.52 65.76,14.08 65.84,16.64 C65.84,18 65.28,18.56 63.92,18.56 Z" id="Shape"></path>
            <path d="M29.6,22.16 C30.72,23.2 31.92,24.24 33.04,25.36 C36.16,25.44 39.76,25.52 42.88,25.52 C42.4,25.04 41.76,24.4 41.28,23.92 C38.8,21.68 36.32,19.44 33.68,17.04 C38.88,15.12 39.84,13.84 39.84,8.64 C39.84,8.32 39.84,8.08 39.84,7.76 C39.76,2.32 37.6,0.16 32.16,0.16 C25.52,0.16 18.8,0.16 12.16,0.16 C11.52,0.16 10.96,0.24 10.32,0.24 C10.32,8.8 10.32,17.28 10.32,25.68 C13.2,25.68 16,25.68 18.88,25.68 C18.88,21.36 18.88,17.12 18.88,12.32 C22.64,15.84 26.16,19.04 29.6,22.16 Z M18.96,7.44 C22.8,7.44 26.48,7.36 30.24,7.52 C30.88,7.52 32.08,8.24 32.08,9.2 C32.08,10.4 30.88,10.96 30.16,11.04 C28.24,11.28 26.24,11.2 24.24,11.2 C22.56,11.2 20.88,11.2 19.04,11.2 C18.96,9.76 18.96,8.8 18.96,7.44 Z" id="Shape"></path>
            <path d="M8.8,2 C8.8,1.44 8.8,0.96 8.8,0.24 C5.92,0.24 2.96,0.24 0.24,0.24 C0.24,8.8 0.24,17.28 0.24,25.84 C2.96,25.84 6.16,25.84 8.8,25.84 C8.8,25.12 8.8,24.4 8.8,23.6 C8.8,16.4 8.8,9.2 8.8,2 Z" id="Path"></path>
            <path d="M135.36,25.44 C138.96,24.8 140.48,23.52 140.96,19.92 C141.12,19.04 141.12,18.16 141.12,17.36 C141.12,16.48 141.04,15.6 141.12,14.72 C140.88,10.96 138.24,9.76 134.24,9.68 C130.24,9.6 126.32,9.6 122.32,9.52 C121.76,9.52 121.12,9.6 120.64,9.36 C120.08,9.04 119.36,8.4 119.36,8 C119.36,7.52 120.16,6.88 120.72,6.64 C121.36,6.4 122.08,6.48 122.8,6.48 C128.08,6.48 133.28,6.4 138.56,6.48 C140.4,6.48 140.56,5.68 140.32,4.24 C139.84,1.84 137.52,0.16 134.56,0.16 C128.88,0.16 123.2,0.16 117.52,0.16 C113.36,0.16 111.44,1.92 110.96,6.08 C110.88,7.12 110.88,8.24 110.88,9.28 C111.04,13.2 113.04,15.36 116.96,15.52 C121.2,15.76 125.44,15.76 129.68,15.92 C130.88,16 132.64,15.6 132.64,17.44 C132.64,19.28 130.88,18.96 129.68,18.96 C124.88,19.04 120,18.96 115.2,18.96 C114.56,18.96 114,18.96 113.28,18.96 C111.52,18.88 111.2,19.6 111.36,21.12 C111.52,22.32 111.84,23.2 112.56,23.84 C112.88,24.16 114.08,25.36 116,25.36 C122.48,25.44 128.96,25.44 135.36,25.44 Z" id="Path"></path>
            <path d="M185.76,25.36 C194.8,25.36 203.76,25.36 212.8,25.36 C212.8,23.28 212.8,21.12 212.8,18.88 C211.84,18.88 211.04,18.88 210.32,18.88 C205.6,18.88 200.8,18.88 196.08,18.8 C195.44,18.8 194.32,18.8 194.32,18.8 C194.24,15.2 194.24,10.8 194.24,6.96 C200.56,6.96 206.64,6.96 212.72,6.96 C212.72,4.64 212.72,2.56 212.72,0.4 C203.68,0.4 194.8,0.4 185.76,0.4 C185.76,4.56 185.76,8.8 185.76,12.88 C185.76,17.04 185.76,21.2 185.76,25.36 L185.76,25.36 Z" id="Path"></path>
            <path d="M142.4,25.28 L142.4,25.28 C145.2,25.36 148.16,25.36 150.96,25.44 C151.04,24.88 150.96,24.32 150.96,23.76 C150.96,16.48 150.96,9.12 150.96,1.84 C150.96,1.36 150.88,0.88 150.96,0.4 C148.16,0.4 145.28,0.4 142.24,0.4 C142.24,2.8 142.24,5.2 142.24,7.6 C142.24,10 142.24,12.32 142.24,14.72 L142.24,14.72 L142.24,14.72 C142.24,18.24 142.32,21.76 142.4,25.28 Z" id="Path"></path>
            <path d="M196,15.84 C200.24,15.84 204.32,15.84 208.56,15.84 C208.56,13.76 208.56,11.92 208.56,9.92 C204.32,9.92 200.16,9.92 196,9.92 C196,12 196,13.84 196,15.84 Z" id="Path"></path>
        </g>
    </g>
</svg>