<?xml version="1.0" encoding="UTF-8"?>
<svg width="300px" height="200px" viewBox="0 0 300 200" version="1.1" xmlns="http://www.w3.org/2000/svg" xmlns:xlink="http://www.w3.org/1999/xlink">
    <title>Ortho</title>
    <defs>
        <polygon id="path-1" points="0.387072 0.629352 12.703392 0.629352 12.703392 21.6 0.387072 21.6"></polygon>
        <polygon id="path-3" points="0.474984 0.629352 12.792024 0.629352 12.792024 21.6 0.474984 21.6"></polygon>
        <polygon id="path-5" points="0 0.0996720949 38.1191597 0.0996720949 38.1191597 39.7840457 0 39.7840457"></polygon>
    </defs>
    <g id="Ortho" stroke="none" stroke-width="1" fill="none" fill-rule="evenodd">
        <rect fill="#FFFFFF" x="0" y="0" width="300" height="200"></rect>
        <g id="Group-24" transform="translate(95.000000, 66.000000)">
            <path d="M10.01484,47.190168 L14.48172,47.190168 L14.48172,67.067928 L11.58948,67.067928 L11.58948,53.622648 C11.58948,53.236008 11.59236,52.694568 11.59956,51.997608 C11.60532,51.300648 11.60892,50.763528 11.60892,50.386248 L8.79372,67.067928 L5.77692,67.067928 L2.98116,50.386248 C2.98116,50.763528 2.98476,51.300648 2.99196,51.997608 C2.99772,52.694568 3.00132,53.236008 3.00132,53.622648 L3.00132,67.067928 L0.10908,67.067928 L0.10908,47.190168 L4.62636,47.190168 L7.33068,62.819928 L10.01484,47.190168 Z" id="Fill-1" fill="#222222"></path>
            <path d="M21.39804,59.556384 L25.20324,59.556384 L23.3262,51.735024 L21.39804,59.556384 Z M21.60252,47.190384 L25.1154,47.190384 L30.3714,67.068144 L27.0054,67.068144 L26.02476,62.981424 L20.55348,62.981424 L19.5462,67.068144 L16.299,67.068144 L21.60252,47.190384 Z" id="Fill-3" fill="#222222"></path>
            <polygon id="Fill-5" fill="#222222" points="41.534496 47.190168 41.534496 50.709528 37.089216 50.709528 37.089216 67.067928 33.965136 67.067928 33.965136 50.709528 29.499696 50.709528 29.499696 47.190168"></polygon>
            <polygon id="Fill-7" fill="#222222" points="54.14328 47.190168 54.14328 50.709528 49.698 50.709528 49.698 67.067928 46.57392 67.067928 46.57392 50.709528 42.10848 50.709528 42.10848 47.190168"></polygon>
            <path d="M59.062032,50.642136 L59.062032,55.982376 L62.402832,55.982376 C63.066672,55.982376 63.564192,55.875096 63.896112,55.659096 C64.482912,55.281096 64.776672,54.535176 64.776672,53.419896 C64.776672,52.216056 64.492272,51.406776 63.924912,50.992776 C63.605952,50.759496 63.127152,50.642136 62.489232,50.642136 L59.062032,50.642136 Z M65.477952,47.702376 C66.025152,48.017016 66.488832,48.479976 66.868992,49.091256 C67.182912,49.595256 67.432032,50.152536 67.615632,50.763816 C67.799232,51.375096 67.891392,52.072056 67.891392,52.853976 C67.891392,53.797896 67.713552,54.725976 67.357152,55.638936 C67.000752,56.551176 66.412512,57.196296 65.593152,57.573576 C66.277872,57.942936 66.763872,58.466376 67.049712,59.145336 C67.334832,59.823576 67.477392,60.859656 67.477392,62.253576 L67.477392,63.588456 C67.477392,64.497096 67.505472,65.112696 67.560192,65.435976 C67.641552,65.948616 67.833072,66.325896 68.133312,66.569256 L68.133312,67.067496 L64.706112,67.067496 C64.611792,66.627576 64.544832,66.271896 64.504512,66.002616 C64.423872,65.445336 64.379952,64.874376 64.373472,64.289736 L64.353312,62.442216 C64.340352,61.174296 64.176912,60.329736 63.862272,59.907096 C63.547632,59.484456 62.957952,59.272776 62.093952,59.272776 L59.062032,59.272776 L59.062032,67.067496 L56.027952,67.067496 L56.027952,47.190456 L63.133632,47.190456 C64.149552,47.217096 64.930752,47.387736 65.477952,47.702376 L65.477952,47.702376 Z" id="Fill-9" fill="#222222"></path>
            <polygon id="Fill-11" fill="#222222" points="81.850968 50.709672 73.989288 50.709672 73.989288 54.931032 81.205848 54.931032 81.205848 58.383432 73.989288 58.383432 73.989288 63.493992 82.213848 63.493992 82.213848 67.068072 70.955208 67.068072 70.955208 47.190312 81.850968 47.190312"></polygon>
            <g id="Group-15" transform="translate(83.520000, 45.980424)">
                <mask id="mask-2" fill="white">
                    <use xlink:href="#path-1"></use>
                </mask>
                <g id="Clip-14"></g>
                <path d="M3.349872,14.951592 C3.446352,15.859512 3.634992,16.538472 3.915792,16.987752 C4.430592,17.805672 5.312592,18.214632 6.561072,18.214632 C7.308432,18.214632 7.916112,18.107352 8.381952,17.891352 C9.267552,17.478072 9.710352,16.709112 9.710352,15.585192 C9.710352,14.929272 9.492912,14.420952 9.060192,14.061672 C8.626032,13.711032 7.938432,13.400712 6.996672,13.130712 L5.388912,12.659112 C3.807792,12.191832 2.722032,11.683512 2.130912,11.134872 C1.129392,10.217592 0.628992,8.784072 0.628992,6.832872 C0.628992,5.053032 1.117872,3.574152 2.097792,2.396232 C3.077712,1.218312 4.516272,0.629352 6.414192,0.629352 C7.998912,0.629352 9.350352,1.184472 10.469952,2.294712 C11.588112,3.405672 12.175632,5.017032 12.229632,7.129512 L9.245952,7.129512 C9.191232,5.934312 8.792352,5.084712 8.047152,4.580712 C7.551792,4.248792 6.934752,4.081752 6.198192,4.081752 C5.378112,4.081752 4.723632,4.297752 4.234752,4.729032 C3.745872,5.161032 3.501072,5.762952 3.501072,6.536232 C3.501072,7.246872 3.742272,7.776792 4.224672,8.127432 C4.534992,8.361432 5.192352,8.635752 6.198192,8.950392 L8.805312,9.773352 C9.947952,10.132632 10.804752,10.613592 11.374992,11.216232 C12.260592,12.150792 12.703392,13.504392 12.703392,15.274872 C12.703392,17.091432 12.179232,18.599112 11.129472,19.799352 C10.080432,20.999592 8.597952,21.600072 6.682752,21.600072 C4.726512,21.600072 3.187872,21.008952 2.067552,19.826712 C0.947232,18.644472 0.387072,17.019432 0.387072,14.951592 L3.349872,14.951592 Z" id="Fill-13" fill="#222222" mask="url(#mask-2)"></path>
            </g>
            <g id="Group-18" transform="translate(97.200000, 45.980424)">
                <mask id="mask-4" fill="white">
                    <use xlink:href="#path-3"></use>
                </mask>
                <g id="Clip-17"></g>
                <path d="M3.438504,14.951592 C3.534264,15.859512 3.723624,16.538472 4.004424,16.987752 C4.519224,17.805672 5.400504,18.214632 6.648984,18.214632 C7.397064,18.214632 8.004024,18.107352 8.470584,17.891352 C9.356184,17.478072 9.798264,16.709112 9.798264,15.585192 C9.798264,14.929272 9.581544,14.420952 9.148104,14.061672 C8.713944,13.711032 8.027064,13.400712 7.085304,13.130712 L5.476824,12.659112 C3.896424,12.191832 2.809944,11.683512 2.218824,11.134872 C1.217304,10.217592 0.716904,8.784072 0.716904,6.832872 C0.716904,5.053032 1.206504,3.574152 2.186424,2.396232 C3.165624,1.218312 4.604184,0.629352 6.502104,0.629352 C8.086824,0.629352 9.438984,1.184472 10.558584,2.294712 C11.676744,3.405672 12.263544,5.017032 12.318264,7.129512 L9.334584,7.129512 C9.279144,5.934312 8.880264,5.084712 8.135784,4.580712 C7.639704,4.248792 7.023384,4.081752 6.286824,4.081752 C5.466024,4.081752 4.812264,4.297752 4.323384,4.729032 C3.833784,5.161032 3.589704,5.762952 3.589704,6.536232 C3.589704,7.246872 3.830904,7.776792 4.313304,8.127432 C4.622904,8.361432 5.280984,8.635752 6.286824,8.950392 L8.893944,9.773352 C10.036584,10.132632 10.893384,10.613592 11.463624,11.216232 C12.349224,12.150792 12.792024,13.504392 12.792024,15.274872 C12.792024,17.091432 12.267144,18.599112 11.218104,19.799352 C10.168344,20.999592 8.685864,21.600072 6.770664,21.600072 C4.815144,21.600072 3.276504,21.008952 2.156184,19.826712 C1.035144,18.644472 0.474984,17.019432 0.474984,14.951592 L3.438504,14.951592 Z" id="Fill-16" fill="#222222" mask="url(#mask-4)"></path>
            </g>
            <g id="Group-21" transform="translate(0.000000, 0.620424)">
                <mask id="mask-6" fill="white">
                    <use xlink:href="#path-5"></use>
                </mask>
                <g id="Clip-20"></g>
                <path d="M7.591896,27.408528 C8.815896,21.792528 12.631896,17.544528 15.583896,12.936528 L19.399896,8.760528 C20.263896,8.112528 21.055896,7.392528 21.919896,6.744528 L23.863896,5.016528 C25.591896,4.440528 27.319896,3.648528 29.119896,3.216528 C32.431896,2.496528 34.375896,4.080528 34.591896,7.392528 C34.663896,9.192528 34.447896,10.920528 33.871896,12.648528 C30.631896,21.792528 25.159896,29.280528 17.095896,34.752528 C14.503896,36.480528 11.479896,38.568528 8.455896,36.192528 C5.503896,33.888528 6.943896,30.432528 7.591896,27.408528 M0.031896,25.680528 C0.103896,33.240528 3.127896,37.704528 9.391896,39.432528 C11.263896,39.936528 13.135896,39.864528 15.007896,39.432528 C19.471896,38.568528 23.287896,36.552528 26.311896,33.168528 L29.983896,29.496528 C33.943896,25.680528 36.319896,21.000528 37.471896,15.672528 C37.543896,15.096528 37.615896,14.520528 37.687896,13.944528 C39.847896,4.584528 33.655896,-1.679472 24.439896,0.552528 C17.239896,2.280528 10.831896,5.376528 6.079896,11.064528 C1.255896,16.536528 0.247896,21.864528 0.031896,24.312528 L0.031896,24.456528 C-0.040104,25.248528 0.031896,25.680528 0.031896,25.680528" id="Fill-19" fill="#222222" mask="url(#mask-6)"></path>
            </g>
            <path d="M61.375968,17.51688 C61.375968,17.51688 61.447968,17.51688 61.375968,17.51688 C62.383968,16.79688 63.607968,17.37288 64.615968,16.94088 C65.551968,17.58888 64.903968,18.16488 64.543968,18.74088 C61.087968,24.06888 57.559968,29.39688 54.103968,34.72488 C53.383968,35.80488 52.663968,36.66888 50.647968,36.74088 C53.815968,29.82888 58.207968,23.99688 61.375968,17.51688 M71.959968,28.24488 C71.887968,28.38888 71.887968,28.46088 71.815968,28.60488 C71.815968,28.46088 71.887968,28.38888 71.959968,28.24488 M74.119968,36.52488 C74.983968,34.43688 75.775968,32.42088 76.639968,30.33288 C76.711968,30.26088 76.711968,30.11688 76.783968,30.04488 C76.855968,29.97288 77.215968,29.61288 77.719968,29.18088 C77.791968,29.10888 77.935968,29.03688 78.007968,28.96488 C78.655968,28.46088 79.375968,27.95688 80.095968,27.66888 C79.375968,27.45288 78.943968,27.38088 78.583968,27.38088 C79.015968,24.78888 82.039968,22.12488 84.415968,22.41288 C85.567968,22.55688 85.927968,23.34888 86.071968,24.35688 C86.647968,28.31688 80.599968,38.46888 76.783968,39.98088 C75.415968,40.48488 74.623968,40.05288 73.975968,38.82888 C74.047968,38.10888 74.119968,37.31688 74.119968,36.52488 M28.975968,35.22888 L28.975968,35.44488 C29.551968,35.51688 30.127968,35.66088 30.631968,35.73288 C31.927968,35.94888 33.151968,35.94888 34.015968,34.65288 C34.015968,34.65288 34.303968,34.22088 34.807968,33.50088 C35.167968,32.92488 35.671968,32.20488 36.319968,31.26888 C36.967968,30.26088 37.759968,29.10888 38.551968,27.88488 C39.415968,26.51688 40.351968,25.14888 41.215968,23.63688 C41.287968,23.49288 41.359968,23.34888 41.431968,23.20488 C41.791968,22.62888 42.223968,22.12488 42.799968,21.76488 C43.735968,21.11688 44.887968,20.39688 45.967968,21.18888 C47.263968,22.19688 46.183968,23.27688 45.679968,24.21288 C44.455968,26.37288 43.015968,28.46088 41.791968,30.62088 C40.711968,32.56488 41.143968,34.29288 43.375968,34.72488 C44.815968,35.01288 46.327968,35.01288 46.975968,36.09288 C46.903968,37.02888 46.975968,37.89288 47.479968,38.54088 C47.839968,38.97288 48.703968,39.26088 49.351968,39.40488 C52.447968,40.19688 55.759968,38.97288 57.631968,36.23688 C59.575968,33.42888 61.303968,30.54888 63.463968,27.88488 C64.399968,26.73288 65.551968,24.35688 67.063968,25.29288 C68.431968,26.15688 66.487968,27.74088 65.911968,28.96488 C63.895968,33.35688 64.183968,34.22088 68.575968,36.52488 C69.439968,36.95688 70.015968,37.46088 70.519968,38.39688 C72.319968,41.78088 75.127968,43.00488 78.655968,41.27688 C84.199968,38.54088 89.167968,33.28488 89.023968,26.30088 C88.879968,21.18888 84.991968,18.59688 80.167968,20.32488 C78.295968,20.97288 76.639968,22.12488 75.271968,23.49288 C75.055968,23.70888 74.119968,24.42888 73.039968,25.94088 C72.679968,26.44488 72.247968,27.02088 71.887968,27.74088 C71.599968,28.24488 71.383968,28.74888 71.095968,29.32488 C71.023968,29.39688 70.951968,29.54088 70.879968,29.61288 C70.807968,29.82888 70.807968,29.97288 70.735968,30.18888 C70.519968,30.76488 70.303968,31.34088 70.159968,32.06088 C70.159968,32.13288 70.087968,32.13288 70.087968,32.13288 L70.015968,32.13288 C70.015968,32.13288 69.943968,32.20488 69.871968,32.20488 L69.799968,32.20488 L69.727968,32.20488 C69.655968,32.20488 69.583968,32.20488 69.439968,32.13288 C69.367968,32.06088 69.295968,32.06088 69.223968,31.98888 C69.151968,31.91688 68.935968,31.48488 69.367968,30.54888 C69.799968,29.82888 70.591968,28.53288 71.311968,27.16488 C71.743968,26.44488 72.103968,25.65288 72.463968,24.93288 C72.679968,24.50088 72.823968,24.06888 73.039968,23.70888 C73.255968,23.27688 73.399968,22.91688 73.543968,22.48488 C73.687968,21.90888 73.687968,21.33288 73.255968,20.75688 C72.823968,20.18088 72.391968,19.96488 71.959968,19.89288 C71.095968,19.46088 67.783968,21.04488 67.783968,21.04488 C68.359968,18.38088 69.583968,17.08488 72.463968,17.37288 C76.279968,17.80488 80.167968,17.80488 84.055968,17.94888 C85.711968,18.02088 87.295968,18.09288 88.951968,18.16488 L89.023968,18.16488 L98.239968,18.59688 C98.671968,18.59688 99.175968,18.52488 99.607968,18.52488 C90.895968,13.91688 81.391968,15.57288 71.815968,14.49288 C72.967968,12.69288 73.903968,11.25288 74.911968,9.81288 C75.847968,8.51688 76.135968,7.14888 74.767968,6.21288 C73.399968,5.27688 72.751968,6.78888 72.103968,7.65288 C70.735968,9.52488 69.511968,11.46888 68.143968,13.26888 C66.703968,15.21288 65.047968,14.92488 63.895968,12.90888 C62.959968,11.32488 61.303968,10.82088 60.151968,12.54888 C58.999968,14.27688 57.631968,14.42088 55.903968,14.42088 C54.895968,14.42088 53.887968,14.27688 52.807968,14.27688 C51.295968,14.20488 49.567968,14.20488 49.423968,14.34888 C49.351968,14.42088 49.423968,14.56488 49.567968,14.70888 C50.143968,15.28488 51.799968,16.22088 52.159968,16.36488 L52.231968,16.36488 C53.599968,16.94088 55.471968,16.79688 57.055968,16.94088 C54.247968,21.40488 51.151968,26.15688 48.991968,30.69288 C48.559968,31.55688 47.983968,32.20488 47.047968,31.77288 C45.607968,31.05288 46.759968,30.18888 47.119968,29.46888 C48.055968,27.81288 49.135968,26.30088 50.071968,24.64488 C51.439968,22.26888 51.655968,21.04488 50.359968,20.18088 C50.143968,20.03688 49.855968,19.89288 49.567968,19.74888 C48.559968,19.17288 46.759968,18.38088 45.319968,18.38088 C45.247968,18.23688 45.175968,18.02088 45.175968,17.73288 C45.175968,16.36488 44.671968,15.50088 43.303968,15.28488 C41.719968,15.06888 40.711968,15.93288 40.063968,17.30088 C37.111968,23.56488 33.223968,29.25288 29.191968,34.86888 C29.119968,35.08488 29.047968,35.15688 28.975968,35.22888" id="Fill-22" fill="#222222"></path>
        </g>
    </g>
</svg>