<?xml version="1.0" encoding="UTF-8"?>
<svg width="300px" height="200px" viewBox="0 0 300 200" version="1.1" xmlns="http://www.w3.org/2000/svg" xmlns:xlink="http://www.w3.org/1999/xlink">
    <title>Oui</title>
    <defs>
        <polygon id="path-1" points="0.0115584 0.247296 108.551923 0.247296 108.551923 47.023872 0.0115584 47.023872"></polygon>
        <polygon id="path-3" points="0.0489216 0.1077888 56.3907456 0.1077888 56.3907456 31.433472 0.0489216 31.433472"></polygon>
    </defs>
    <g id="Oui" stroke="none" stroke-width="1" fill="none" fill-rule="evenodd">
        <rect fill="#FFFFFF" x="0" y="0" width="300" height="200"></rect>
        <g id="Group" transform="translate(72.000000, 68.000000)">
            <path d="M88.0992,22.7394048 C87.6629376,23.4482304 86.5385472,24.6567552 84.72576,24.6567552 C82.862976,24.6567552 81.3359232,23.7221376 81.3359232,20.9510784 C81.3359232,20.9510784 81.3359232,17.906112 81.3359232,16.5685632 L80.6647296,16.5685632 L80.6647296,16.3594368 L81.3359232,16.3594368 C82.795776,16.3594368 84.72576,15.7793664 85.5985536,13.6206336 C85.5985536,13.6206336 85.5985536,14.8611456 85.5985536,16.3594368 L87.4444032,16.3594368 L87.4444032,16.5685632 L85.5985536,16.5685632 C85.5985536,18.7598208 85.5985536,21.4343808 85.5985536,21.595392 C85.5985536,23.2872192 86.9076096,23.5613952 87.9478656,22.7394048 L88.0992,22.7394048" id="Fill-1" fill="#222222"></path>
            <g id="Group-6" transform="translate(1.768704, 15.918605)">
                <mask id="mask-2" fill="white">
                    <use xlink:href="#path-1"></use>
                </mask>
                <g id="Clip-4"></g>
                <path d="M103.030234,4.275264 L104.960486,4.275264 C105.178483,2.5675776 105.010483,0.3604608 103.919693,0.3604608 C102.996902,0.3604608 102.49344,1.9552512 103.030234,4.275264 Z M108.551923,6.2568576 C107.77993,7.8841728 106.051277,8.7220224 104.037158,8.7381504 C101.385715,8.7381504 99.0025344,7.3202304 99.0025344,4.484928 C99.0192,2.1485184 100.462656,0.247296 104.003558,0.247296 C107.594995,0.247296 108.451123,2.1485184 108.484723,4.484928 L103.080499,4.484928 C103.768627,7.2398592 106.890202,7.7228928 108.383923,6.2568576 L108.551923,6.2568576 L108.551923,6.2568576 Z" id="Fill-3" fill="#222222" mask="url(#mask-2)"></path>
                <path d="M16.6916736,26.57088 C16.6916736,22.1641728 15.9914496,17.674944 14.2205952,17.3453952 C13.3967232,17.1808896 12.8201472,17.9219712 12.1613184,18.828096 C12.1613184,18.828096 12.1613184,26.6942592 12.1613184,27.3536256 C12.1613184,27.3536256 12.1613184,31.554432 12.1613184,33.407808 C12.1613184,34.6843392 12.9026688,35.7963648 13.6851456,35.6313216 C15.456,35.21952 16.6916736,31.1426304 16.6916736,26.57088 Z M27.5643648,26.57088 C27.5643648,33.9018624 23.0340096,37.4024448 17.5977984,37.4024448 C15.4148736,37.4024448 13.3555968,36.7433472 12.1613184,34.8905088 L12.1613184,41.7268992 C12.1613184,45.9691008 13.8087936,47.04 13.8087936,47.04 L0.0115584,47.04 C0.0115584,47.04 1.70016,45.9691008 1.70016,41.7268992 C1.70016,41.7268992 1.70016,22.6173696 1.70016,21.4639488 C1.70016,17.222016 0.0529536,16.1922432 0.0529536,16.1922432 C0.0529536,16.1922432 7.7957376,16.1922432 11.0492928,16.1922432 L12.0376704,18.375168 C13.5203712,16.4395392 15.4148736,15.6981888 17.5977984,15.6981888 C23.9815296,15.6981888 27.5643648,20.3930496 27.5643648,26.57088 L27.5643648,26.57088 Z" id="Fill-5" fill="#222222" mask="url(#mask-2)"></path>
            </g>
            <path d="M42.1013376,41.9129088 L46.8375936,41.9129088 C47.3730432,37.5470592 46.9612416,31.9049472 44.2839936,31.9049472 C42.018816,31.9049472 40.7834112,35.9823744 42.1013376,41.9129088 Z M55.6512768,46.9784448 C53.7567744,51.1381248 49.5145728,53.2799232 44.572416,53.3210496 C38.0650368,53.3210496 32.2167552,49.697088 32.2167552,42.4480896 C32.2581504,36.47616 35.7998592,31.6167936 44.4901632,31.6167936 C53.3035776,31.6167936 55.4042496,36.47616 55.4865024,42.4480896 L42.2249856,42.4480896 C43.9133184,49.4909184 51.5738496,50.7263232 55.2394752,46.9784448 L55.6512768,46.9784448 L55.6512768,46.9784448 Z" id="Fill-7" fill="#222222"></path>
            <g id="Group-11" transform="translate(58.485504, 31.509005)">
                <mask id="mask-4" fill="white">
                    <use xlink:href="#path-3"></use>
                </mask>
                <g id="Clip-9"></g>
                <path d="M16.399488,10.98048 C16.3172352,6.49152 16.1935872,0.4368 13.4340864,0.4368 C10.633728,0.4368 10.51008,6.49152 10.4278272,10.98048 C10.51008,15.4283136 10.633728,21.482496 13.4340864,21.482496 C16.1935872,21.482496 16.3172352,15.4283136 16.399488,10.98048 Z M26.7781248,10.98048 C26.7369984,16.9521408 22.1243904,21.8120448 13.4340864,21.8120448 C4.7029248,21.8120448 0.0903168,16.9521408 0.0489216,10.98048 C0.0903168,4.9671552 4.7029248,0.1077888 13.4340864,0.1077888 C22.1243904,0.1077888 26.7369984,4.9671552 26.7781248,10.98048 L26.7781248,10.98048 Z" id="Fill-8" fill="#222222" mask="url(#mask-4)"></path>
                <path d="M45.5177856,10.98048 C45.5177856,6.5737728 44.8175616,2.084544 43.046976,1.7549952 C42.2228352,1.5904896 41.646528,2.3315712 40.9874304,3.237696 C40.9874304,3.237696 40.9874304,11.1038592 40.9874304,11.7632256 C40.9874304,11.7632256 40.9874304,15.964032 40.9874304,17.817408 C40.9874304,19.0939392 41.7287808,20.2059648 42.5112576,20.0409216 C44.282112,19.62912 45.5177856,15.5522304 45.5177856,10.98048 Z M56.3907456,10.98048 C56.3907456,18.3114624 51.8606592,21.8120448 46.4239104,21.8120448 C44.2409856,21.8120448 42.1819776,21.1529472 40.9874304,19.3001088 L40.9874304,26.1364992 C40.9874304,30.3787008 42.6349056,31.4496 42.6349056,31.4496 L28.8376704,31.4496 C28.8376704,31.4496 30.526272,30.3787008 30.526272,26.1364992 C30.526272,26.1364992 30.526272,7.0269696 30.526272,5.8735488 C30.526272,1.631616 28.8793344,0.6018432 28.8793344,0.6018432 C28.8793344,0.6018432 36.6218496,0.6018432 39.8756736,0.6018432 L40.8637824,2.784768 C42.3464832,0.8491392 44.2409856,0.1077888 46.4239104,0.1077888 C52.8076416,0.1077888 56.3907456,4.8026496 56.3907456,10.98048 L56.3907456,10.98048 Z" id="Fill-10" fill="#222222" mask="url(#mask-4)"></path>
            </g>
            <path d="M20.6148096,12.446784 C20.6148096,6.7923072 19.4272512,0.310464 15.8258688,0.310464 C12.2242176,0.310464 10.9982208,6.7923072 10.9982208,12.446784 C10.9982208,18.135936 12.2242176,24.5833728 15.8258688,24.5833728 C19.4272512,24.5833728 20.6148096,18.135936 20.6148096,12.446784 Z M31.4955648,12.446784 C31.4189568,19.3081728 25.4040192,24.8591616 15.8258688,24.8938368 C6.2095488,24.8591616 0.1943424,19.3081728 0.155904,12.446784 C0.1943424,5.585664 6.2095488,0.0344064 15.8258688,0 C25.4040192,0.0344064 31.4189568,5.585664 31.4955648,12.446784 L31.4955648,12.446784 Z" id="Fill-14" fill="#222222"></path>
            <path d="M58.657536,0.3792768 C56.9716224,2.3791488 57.0866688,5.9649408 57.0866688,10.2402048 C57.0866688,11.6882304 57.0866688,14.9294208 57.0866688,14.9294208 C57.0866688,18.4117248 55.860672,24.4454784 47.699904,24.8938368 C41.8381824,25.204032 34.1757696,23.6869248 34.1757696,14.6880384 L34.1757696,4.8615168 C34.1757696,1.3101312 32.643072,0.3792768 32.643072,0.3792768 L46.4739072,0.3792768 C46.4739072,0.3792768 44.9414784,1.3101312 44.9414784,4.8615168 L44.9414784,16.34304 C44.9414784,19.9632384 46.8953856,22.618176 49.577472,22.9974528 C53.7535488,23.6525184 56.626752,19.51488 56.626752,14.9982336 C56.626752,14.9982336 56.626752,11.8952064 56.626752,10.2402048 C56.626752,5.7923712 55.5539712,1.999872 51.9525888,0.3792768 L58.657536,0.3792768" id="Fill-15" fill="#222222"></path>
            <path d="M74.4022272,24.5142912 L60.571392,24.5142912 C60.571392,24.5142912 62.1038208,23.618112 62.1038208,20.0667264 L62.1038208,4.8615168 C62.1038208,1.3101312 60.571392,0.3792768 60.571392,0.3792768 L74.4022272,0.3792768 C74.4022272,0.3792768 72.8697984,1.3101312 72.8697984,4.8615168 L72.8697984,20.0667264 C72.8697984,23.618112 74.4022272,24.5142912 74.4022272,24.5142912" id="Fill-16" fill="#222222"></path>
            <path d="M95.1651456,22.4012544 L95.1651456,19.17888 C95.1651456,18.2284032 95.0979456,16.9878912 94.3090176,16.9714944 C93.8391552,16.9553664 93.3692928,17.5515648 93.3692928,18.3412992 L93.3692928,22.4012544 C93.3692928,24.04416 94.0404864,24.479616 94.0404864,24.479616 L88.4352,24.479616 C88.4352,24.479616 89.1066624,24.04416 89.1066624,22.4012544 L89.1066624,14.4582144 C89.1066624,12.81504 88.4352,12.3798528 88.4352,12.3798528 L93.3692928,12.3798528 L93.3692928,17.4550656 C93.9232896,16.3594368 95.14848,16.1659008 96.0376704,16.1659008 C98.4208512,16.1659008 99.427776,17.5515648 99.427776,19.3237632 L99.427776,22.4012544 C99.427776,24.04416 100.099238,24.479616 100.099238,24.479616 L94.4936832,24.479616 C94.4936832,24.479616 95.1651456,24.04416 95.1651456,22.4012544" id="Fill-2" fill="#222222"></path>
            <path d="M131.103706,52.8681216 L117.347866,52.8681216 C117.347866,52.8681216 118.995072,51.850176 118.995072,48.0041856 L118.995072,29.4532224 C118.995072,25.5696 117.347866,24.5516544 117.347866,24.5516544 L131.103706,24.5516544 C131.103706,24.5516544 129.45623,25.5696 129.45623,29.4532224 L129.45623,48.0041856 C129.45623,51.850176 131.103706,52.8681216 131.103706,52.8681216" id="Fill-12" fill="#222222"></path>
            <path d="M143.047565,41.9129088 L147.783821,41.9129088 C148.31927,37.5470592 147.907469,31.9049472 145.230221,31.9049472 C142.965043,31.9049472 141.729638,35.9823744 143.047565,41.9129088 Z M156.597504,46.9784448 C154.703002,51.1381248 150.4608,53.2799232 145.518643,53.3210496 C139.011264,53.3210496 133.162982,49.697088 133.162982,42.4480896 C133.204646,36.47616 136.746086,31.6167936 145.436659,31.6167936 C154.250074,31.6167936 156.350477,36.47616 156.43273,42.4480896 L143.171213,42.4480896 C144.859546,49.4909184 152.520077,50.7263232 156.185702,46.9784448 L156.597504,46.9784448 L156.597504,46.9784448 Z" id="Fill-13" fill="#222222"></path>
        </g>
    </g>
</svg>