<?xml version="1.0" encoding="UTF-8"?>
<svg width="300px" height="200px" viewBox="0 0 300 200" version="1.1" xmlns="http://www.w3.org/2000/svg" xmlns:xlink="http://www.w3.org/1999/xlink">
    <title>STV</title>
    <g id="STV" stroke="none" stroke-width="1" fill="none" fill-rule="evenodd">
        <rect fill="#FFFFFF" x="0" y="0" width="300" height="200"></rect>
        <g id="STV-Inc-grey" transform="translate(52.000000, 69.000000)" fill="#2B2B2B" fill-rule="nonzero">
            <g id="Group">
                <path d="M30.6719992,0.35999999 L38.951999,8.63999977 L22.3919994,8.63999977 L30.6719992,0.35999999 L0.0719999981,0.35999999 L0.0719999981,30.9599992 L8.27999978,22.7519994 L8.27999978,39.239999 L0.0719999981,30.9599992 L0.0719999981,61.4879984 L30.6719992,61.4879984 L22.3919994,53.2079986 L38.879999,53.2079986 L30.6719992,61.4879984 L195.047995,61.4879984 L195.047995,0.35999999 L30.6719992,0.35999999 Z M53.0639986,39.239999 L53.0639986,22.6799994 L61.2719984,30.9599992 L53.0639986,39.239999 Z M193.247995,59.3279984 L61.3439984,59.3279984 L61.3439984,2.51999993 L193.247995,2.51999993 L193.247995,59.3279984 Z" id="Shape"></path>
                <path d="M75.167998,51.1199986 C75.239998,51.5519986 75.311998,51.8399986 75.887998,51.8399986 C76.391998,51.8399986 76.751998,51.7679986 76.895998,51.1919986 C77.111998,50.1839987 77.9759979,49.6079987 78.9839979,49.8239987 C80.0639979,50.0399987 81.1439979,50.3999987 82.1519978,50.7599987 C83.9519978,51.4079986 85.7519977,51.8399986 87.9119977,51.7679986 C90.2159976,51.9119986 92.5919975,51.4799986 94.8239975,50.3279987 C98.0639974,48.6719987 100.079997,46.0799988 100.727997,42.5519989 C101.375997,39.023999 100.223997,35.999999 97.8479974,33.4079991 C95.6879975,31.1039992 93.0239975,29.5199992 90.3599976,27.9359993 C88.0559977,26.5679993 85.7519977,25.3439993 83.7359978,23.6159994 C82.4399978,22.5359994 81.3599978,21.2399994 80.8559979,19.5119995 C79.9919979,16.2719996 81.9359978,13.1759997 85.3199977,12.6719997 C88.9919976,12.0959997 92.0879976,13.3919996 94.6079975,16.1999996 C96.2639974,17.9999995 97.2719974,20.0879995 97.8479974,22.4639994 C97.9199974,22.6079994 97.9919974,22.8959994 98.1359974,22.9679994 C98.9279974,23.3279994 99.5039974,22.9679994 99.4319974,22.1039994 C99.4319974,22.0319994 99.4319974,21.9599994 99.4319974,21.9599994 C99.0719974,18.2879995 98.7119974,14.5439996 98.2799974,10.8719997 C98.2079974,10.1519997 98.1359974,10.0799997 97.4159974,10.0799997 C96.9119974,10.0799997 96.7679974,10.3679997 96.6959974,10.7279997 C96.3359974,11.7359997 95.5439975,12.2399997 94.4639975,12.0239997 C93.8879975,11.8799997 93.3119975,11.7359997 92.7359975,11.5199997 C91.0079976,10.8719997 89.2799976,10.2239997 87.4079977,10.0799997 C85.2479977,9.86399974 83.1599978,10.1519997 81.1439979,11.0879997 C78.4799979,12.3119997 76.607998,14.2559996 75.743998,17.1359995 C75.167998,19.2239995 75.095998,21.3119994 75.671998,23.3999994 C76.247998,25.6319993 77.5439979,27.3599993 79.3439979,28.7279992 C81.0719979,30.0239992 82.8719978,31.1759992 84.7439978,32.2559991 C87.3359977,33.8399991 89.9999976,35.3519991 92.2319976,37.439999 C94.1039975,39.167999 94.8959975,41.1839989 94.5359975,43.7039988 C94.1759975,46.4399988 92.5919975,48.2399987 90.0719976,49.1759987 C88.1279977,49.8959987 86.1119977,49.7519987 84.1679978,49.1759987 C81.5039978,48.3839987 79.4879979,46.7279988 77.9039979,44.5679988 C76.751998,43.0559989 75.959998,41.3279989 75.167998,39.599999 C74.879998,38.951999 74.735998,38.879999 73.943998,38.951999 C73.5839981,38.951999 73.4399981,39.095999 73.5119981,39.527999 C74.087998,43.3439989 74.591998,47.2319987 75.167998,51.1199986 Z" id="Path"></path>
                <path d="M140.543996,12.0959997 C141.983996,12.2399997 143.135996,12.8879997 143.783996,14.1119996 C144.863996,16.1279996 145.943996,18.1439995 146.879996,20.1599995 C148.391996,23.4719994 149.831996,26.8559993 151.343996,30.1679992 C153.215996,34.3439991 155.087996,38.447999 156.959996,42.5519989 C158.255996,45.4319988 159.551996,48.3119987 160.847996,51.1199986 C160.991996,51.4799986 161.207996,51.6239986 161.567996,51.5519986 C161.783996,51.4799986 162.143996,51.3359986 162.215996,51.1199986 C162.863996,49.5359987 163.439996,47.9519987 164.087996,46.4399988 C165.095996,43.8479988 166.103996,41.3279989 167.111996,38.735999 C167.759996,37.151999 168.407996,35.4959991 168.983996,33.9119991 C169.631996,32.2559991 170.279995,30.5999992 170.927995,29.0159992 C171.791995,26.7839993 172.727995,24.5519993 173.591995,22.3199994 C174.527995,19.9439995 175.535995,17.4959995 176.543995,15.1199996 C177.191995,13.5359996 178.271995,12.2399997 180.143995,12.0959997 C180.287995,12.0959997 180.503995,12.0959997 180.647995,12.0239997 C180.791995,11.8799997 181.007995,11.7359997 181.079995,11.5199997 C181.151995,10.9439997 181.007995,10.7999997 180.359995,10.7999997 C177.479995,10.7999997 174.671995,10.7999997 171.791995,10.7999997 C170.855995,10.7999997 169.991995,10.7999997 169.055996,10.7999997 C168.767996,10.7999997 168.551996,10.8719997 168.479996,11.2319997 C168.479996,11.5919997 168.479996,11.8799997 168.911996,11.9519997 C169.127996,12.0239997 169.343996,12.0239997 169.559996,12.0239997 C170.423995,12.1679997 171.215995,12.1679997 172.007995,12.6719997 C172.871995,13.2479996 173.231995,14.5439996 172.799995,15.8399996 C172.079995,17.8559995 171.359995,19.7999997 170.639995,21.8159994 C169.775996,24.0479994 168.839996,26.2799993 167.975996,28.5119992 C167.111996,30.6719992 166.247996,32.8319991 165.383996,34.9919991 C164.663996,36.719999 164.015996,38.447999 163.295996,40.1759989 C163.223996,40.3919989 163.007996,40.6079989 162.863996,40.8959989 C162.719996,40.6799989 162.647996,40.5359989 162.647996,40.4639989 C161.495996,37.943999 160.415996,35.3519991 159.263996,32.8319991 C158.399996,30.8159992 157.463996,28.8719992 156.599996,26.8559993 C155.591996,24.6239993 154.583996,22.3919994 153.647996,20.1599995 C152.927996,18.4319995 152.279996,16.7039996 151.559996,15.0479996 C151.055996,13.7519996 151.631996,12.4559997 153.359996,12.3119997 C154.079996,12.2399997 154.727996,12.1679997 155.447996,12.0959997 C155.951996,12.0239997 155.951996,11.7359997 155.951996,11.3759997 C155.951996,10.9439997 155.735996,10.8719997 155.375996,10.8719997 C150.407996,10.8719997 145.367996,10.8719997 140.399996,10.8719997 C140.183996,10.8719997 139.895996,11.0159997 139.823996,11.1599997 C139.751996,11.3759997 139.751996,11.7359997 139.895996,11.8799997 C139.967996,12.0239997 140.255996,12.0959997 140.543996,12.0959997 Z" id="Path"></path>
                <path d="M103.391997,21.1679994 C103.535997,21.1679994 103.607997,21.1679994 103.751997,21.1679994 C104.111997,21.1679994 104.183997,21.0239994 104.327997,20.7359995 C104.687997,19.5119995 104.975997,18.2879995 105.407997,17.1359995 C106.127997,15.2639996 107.639997,14.1839996 109.583997,13.8239996 C111.887997,13.3919996 114.191997,13.5359996 116.495997,13.5359996 C116.855997,13.5359996 117.071997,13.6799996 117.071997,14.1119996 C117.071997,14.3279996 117.071997,14.4719996 117.071997,14.6879996 C117.071997,24.6959993 117.071997,34.7039991 117.071997,44.7119988 C117.071997,45.5039988 116.999997,46.3679988 116.855997,47.1599988 C116.639997,48.3839987 115.919997,49.1759987 114.767997,49.4639987 C113.903997,49.6799987 112.967997,49.7519987 112.103997,49.8959987 C111.527997,49.9679987 111.383997,50.1119987 111.383997,50.6879987 C111.383997,51.2639986 111.815997,51.1199986 112.175997,51.1199986 C117.071997,51.1199986 122.039997,51.1199986 126.935997,51.1199986 C127.439997,51.1199986 128.015997,51.1199986 128.519997,51.1199986 C129.167997,51.1199986 129.311997,50.9039987 129.167997,50.3279987 C129.095997,50.1119987 128.879997,49.8959987 128.735997,49.8959987 C128.159997,49.7519987 127.511997,49.7519987 126.935997,49.6799987 C125.495997,49.4639987 124.199997,49.0319987 123.695997,47.4479987 C123.479997,46.7279988 123.407997,45.8639988 123.407997,45.1439988 C123.407997,34.8479991 123.407997,24.5519993 123.407997,14.2559996 C123.407997,13.6079996 123.479997,13.5359996 124.127997,13.5359996 C126.359997,13.5359996 128.591997,13.4639996 130.823997,13.8239996 C132.407996,14.1119996 133.703996,14.8319996 134.567996,16.1999996 C135.359996,17.4959995 135.719996,18.8639995 136.007996,20.3759995 C136.223996,21.3119994 136.223996,21.3839994 137.159996,21.3119994 C137.519996,21.3119994 137.735996,21.1679994 137.735996,20.7359995 C137.663996,20.0159997 137.663996,19.2239995 137.591996,18.5039995 C137.519996,16.3439996 137.447996,14.1119996 137.447996,11.9519997 C137.447996,11.0159997 137.375996,11.0159997 136.439996,11.0159997 C131.039997,11.0159997 125.639997,11.0159997 120.167997,11.0159997 C120.167997,11.0159997 120.167997,11.0159997 120.167997,11.0159997 C114.911997,11.0159997 109.583997,11.0159997 104.327997,11.0159997 C104.039997,11.0159997 103.823997,11.0159997 103.535997,11.0159997 C103.103997,11.0159997 102.959997,11.2319997 102.959997,11.5919997 C102.959997,12.8159997 102.959997,14.0399996 102.887997,15.2639996 C102.815997,17.0639995 102.743997,18.7919995 102.671997,20.5919995 C102.671997,21.1679994 102.671997,21.1679994 103.391997,21.1679994 Z" id="Path"></path>
            </g>
        </g>
    </g>
</svg>