<?xml version="1.0" encoding="UTF-8"?>
<svg width="300px" height="200px" viewBox="0 0 300 200" version="1.1" xmlns="http://www.w3.org/2000/svg" xmlns:xlink="http://www.w3.org/1999/xlink">
    <title>United Nations</title>
    <defs>
        <filter id="filter-1">
            <feColorMatrix in="SourceGraphic" type="matrix" values="0 0 0 0 0.133333 0 0 0 0 0.133333 0 0 0 0 0.133333 0 0 0 1.000000 0"></feColorMatrix>
        </filter>
        <polygon id="path-2" points="0.0536031056 0.0937174969 38.8257873 0.0937174969 38.8257873 7.46798961 0.0536031056 7.46798961"></polygon>
        <polygon id="path-4" points="0 52.2759273 62.016 52.2759273 62.016 0 0 0"></polygon>
    </defs>
    <g id="United-Nations" stroke="none" stroke-width="1" fill="none" fill-rule="evenodd">
        <rect fill="#FFFFFF" x="0" y="0" width="300" height="200"></rect>
        <g id="Group-2" transform="translate(98.000000, 66.000000)">
            <g filter="url(#filter-1)" id="Group">
                <g transform="translate(21.542400, 0.000000)" id="Group-47">
                    <path d="M51.8476426,42.8419578 C50.0399545,43.367192 48.1109961,43.5360862 46.3553939,44.1856052 C49.3289371,41.419493 49.159139,37.139338 51.1429506,33.8812342 C51.7749002,32.9589109 52.297242,31.991978 53.0338576,31.1166234 C51.8271838,33.7430091 52.350514,37.1504903 50.9642574,39.6991311 C50.4305495,40.7116386 49.6673474,41.6937987 48.8233972,42.488942 C49.0991462,42.4777896 49.3405008,42.2187113 49.5830413,42.0457421 C51.8346953,39.6078746 54.7764136,38.9260781 57.2120979,36.9454581 C58.1877949,36.1018448 59.0813601,34.9964723 59.510303,33.8009157 C59.0494365,37.8457984 55.3406614,41.6369645 51.8476426,42.8419578" id="Fill-1" fill="#222222"></path>
                    <path d="M60.3516686,26.3695284 C59.0590095,27.9801916 57.4950846,29.4796591 56.3007725,31.1166234 C56.434028,29.8205579 56.6092664,28.2268533 56.032754,26.9991301 C55.033628,24.3553109 54.1556962,21.6708722 53.8724848,18.7692209 L53.9115685,17.6597003 C54.6634354,20.6228901 57.987863,22.6598545 57.77818,25.9836435 C57.8542597,26.789229 57.5696567,27.4739716 57.3973176,28.1824765 L57.4546093,28.2347741 L57.6043332,28.0878332 C58.0972276,26.457368 58.3459943,24.7429221 59.1124741,23.2218248 C60.2019446,21.032842 61.5622172,18.823651 61.007856,16.1806442 C62.6646769,19.2966646 62.1627365,23.4600579 60.3516686,26.3695284" id="Fill-3" fill="#222222"></path>
                    <path d="M58.8758262,9.95675138 C60.9257058,12.5486283 61.3749212,16.6788629 59.8820077,19.6518951 C59.3254779,20.9117632 58.932428,22.2542522 58.713873,23.6486338 C58.6095032,23.4081986 58.5856192,23.0847355 58.4924825,22.816726 C57.6771548,19.9067788 54.7273174,17.8328092 53.5141412,15.0892231 C53.1294888,14.191992 52.8014383,13.264948 52.6196364,12.2909973 C53.9159158,14.5278686 57.1104824,15.6832394 57.9812123,18.1482341 C58.3379454,18.7716562 58.3178785,19.5506539 58.5391599,20.2209827 C58.5856192,20.2209827 58.6321876,20.1887279 58.6321876,20.1446702 C58.2488439,17.6053981 58.3657556,14.9478924 58.7351396,12.4401628 C58.713873,11.0818007 58.5717687,9.76413869 57.7628755,8.71265455 C58.2815617,8.9946037 58.5150578,9.53621877 58.8758262,9.95675138" id="Fill-5" fill="#222222"></path>
                    <path d="M57.3793251,9.15009728 C57.9289353,11.4997183 57.1261727,13.7879698 57.6310303,16.1602227 L57.6122164,16.1806442 C56.2602889,13.6670202 53.3904488,12.4807885 51.4157708,10.468963 C50.2712412,9.27515215 49.7738424,7.820284 49.4875152,6.27973012 C50.6190197,8.85903944 53.6722117,9.42747066 55.4250195,11.6009832 C56.0115895,12.1020448 56.2029567,12.7962678 56.5811268,13.3645938 L56.642912,13.3080664 C55.6348666,11.2732932 55.2972187,8.98346272 54.5938691,6.81342388 C54.2416376,5.87319653 53.5428523,4.94917999 52.6051641,4.35632727 C54.9061349,4.80096681 56.9002948,7.07237588 57.3793251,9.15009728" id="Fill-7" fill="#222222"></path>
                    <path d="M51.905023,4.16038882 C53.5914498,5.58736972 54.3542746,7.43500886 54.8467901,9.3494289 L55.1253333,9.95731948 C52.6775985,8.29302056 50.4538033,6.05565544 48.8907762,3.69282008 L46.9818182,1.8669974 C48.6600111,2.53972282 50.4692959,2.94122764 51.905023,4.16038882" id="Fill-9" fill="#222222"></path>
                    <path d="M14.4077576,2.48932987 C12.6768727,3.88171956 11.4764024,5.64277571 10.1923691,7.28494329 C9.04132738,8.59271766 7.56900023,9.45504124 6.26424242,10.5796519 C6.96854344,9.23974003 6.99425514,7.6390665 7.99335407,6.40807645 C9.4150336,4.13200595 12.0512584,3.33131323 14.4077576,2.48932987" id="Fill-11" fill="#222222"></path>
                    <path d="M5.45355381,6.33588579 C6.32349409,5.34036028 7.42638047,4.64838464 8.66749986,4.35632727 C6.25764159,5.88029739 6.41442782,8.61150825 5.65042418,10.8820698 C5.40682716,11.7216556 4.98388226,12.4951332 4.77315423,13.3558062 L4.83442569,13.4007219 C5.23538158,12.4277597 5.94017523,11.5085697 6.81985023,10.7146376 C8.53144285,9.2600443 11.0632714,8.35350667 11.9020606,6.20177136 C11.8636944,9.19182729 9.1542358,11.5426255 6.56182292,13.2230625 C5.49272174,14.0865823 4.46175775,15.0706153 3.87297905,16.1806442 C3.8152579,15.426145 3.99414767,14.6687992 3.93585389,13.8606332 C3.65389062,11.2504627 3.44911794,8.27116125 5.45355381,6.33588579" id="Fill-13" fill="#222222"></path>
                    <path d="M1.26820175,15.9394103 C1.19790833,13.3829174 2.35414061,11.2961051 3.98354862,9.39119331 C4.03085509,9.36948753 4.0646137,9.32617787 4.12546803,9.33657219 C2.331931,11.8377306 3.81564397,14.9882282 3.73391261,17.8321953 L3.49738027,20.7439293 C3.5325825,20.7650237 3.5325825,20.8525602 3.61575749,20.8189315 C3.72180837,20.4943638 3.74479532,20.1475808 3.81564397,19.8137397 C4.2381818,17.4650313 6.46091953,15.7984755 8.40237256,14.1753313 C8.81691492,13.7507948 9.18337348,13.3198382 9.39636364,12.8216242 C9.23789807,13.991087 8.83845824,15.1706383 8.30975848,16.2520551 C6.79872769,18.9562084 4.0073129,21.1749878 3.49738027,24.2709662 C3.24996522,21.3041016 1.0487708,19.0859336 1.26820175,15.9394103" id="Fill-15" fill="#222222"></path>
                    <path d="M0.168244902,19.1689652 C0.363711912,18.3675358 0.513040495,17.5383266 0.882039853,16.8029766 C0.182940045,20.1902846 2.59326762,22.6308294 3.38388791,25.5669184 C3.71474473,26.6649389 3.79567607,27.8443586 4.26883806,28.8748698 C4.31281543,28.8973389 4.35117408,28.8538307 4.37840331,28.820842 C3.2011711,25.7019369 4.90051309,22.8037388 6.60817513,20.3617641 C7.02342097,19.7000512 7.2627573,18.9631693 7.46924567,18.2026949 C7.65066585,19.6142604 7.27302229,21.2397924 7.05616088,22.7052836 C6.64091504,24.5701107 6.02112579,26.3385252 5.48161955,28.1479968 C5.12666702,29.2785974 5.21991635,30.5543275 5.402309,31.7389558 L5.23126186,31.6097589 C3.97936536,29.4276079 1.50042443,27.7256812 0.764262606,25.3418196 C0.158412123,23.4413485 -0.244299622,21.2397924 0.168244902,19.1689652" id="Fill-17" fill="#222222"></path>
                    <path d="M0.0579552904,25.447135 C0.32809076,29.0652369 4.3310939,30.9771608 6.18667361,33.9723642 C6.62570993,34.585279 7.00661047,35.2633451 7.59336885,35.7763204 C7.50166469,35.3909714 7.13156533,35.0666565 6.99580929,34.6717356 C6.34657347,33.4154402 6.10990049,31.9184046 6.26598817,30.4000636 C6.4457961,28.5519528 7.24328345,26.8370263 6.93883834,24.8932987 C8.56928751,28.3101834 8.07412739,32.5751652 8.98576842,36.2777681 C9.22445338,37.0874745 9.70669443,37.8106214 10.0227879,38.584613 C6.67272684,36.3670036 2.10488537,34.2570531 0.618663762,30.1926709 C-0.00769895927,28.791355 -0.077588967,27.0564611 0.0579552904,25.447135" id="Fill-19" fill="#222222"></path>
                    <path d="M2.50569697,33.8000359 C4.23411495,37.9303216 8.56309741,38.2725281 11.4656794,40.7876321 C11.9998446,41.2876925 12.5594883,41.7129147 13.1624453,42.00968 L13.1935094,41.976246 C12.5271503,41.339862 11.7562316,40.6150797 11.2897802,39.7900991 C9.59095637,37.2951797 10.1884257,33.8000359 8.91567979,31.1166234 C10.0721069,32.5778845 11.1238763,34.0969047 11.8220835,35.7547328 C12.8606238,38.4609176 13.2574995,41.5176934 15.6606061,43.5632727 C13.0599436,42.6579678 10.0132125,42.910948 7.71780126,41.2193755 C5.211409,39.5922901 2.9746962,36.8324866 2.50569697,33.8000359" id="Fill-21" fill="#222222"></path>
                    <path d="M6.89066667,42.3414696 C9.87497009,45.5921096 14.7512387,44.5075186 18.7263706,45.3582535 C19.2879455,45.4316241 19.8018256,45.647087 20.3969558,45.5596689 C19.9230676,45.2724524 19.2654699,45.3036803 18.7483186,45.0426387 C15.6323268,43.9942278 15.1752162,40.7632947 13.4836326,38.584613 C15.6446726,39.9591491 17.4615079,41.8129184 19.4550885,43.6091838 C20.8881492,44.8113092 22.613077,45.3663384 24.4305455,45.7201544 C23.9938001,45.8728582 23.4212511,45.8310187 22.9524278,45.9485532 C19.6872314,46.7176304 16.0596809,47.97443 12.596952,46.8492124 C10.3457982,46.170484 8.02331333,44.4656792 6.89066667,42.3414696" id="Fill-23" fill="#222222"></path>
                    <g id="Group-27" transform="translate(11.902061, 44.807938)">
                        <mask id="mask-3" fill="white">
                            <use xlink:href="#path-2"></use>
                        </mask>
                        <g id="Clip-26"></g>
                        <path d="M34.8432473,4.70707385 C31.5249152,5.99427386 28.0617464,4.64819579 25.4698884,2.60521359 C24.4206295,1.91198933 23.4956948,0.913659825 22.1383325,1.00197692 C21.6460336,0.992236063 21.1713317,1.01734583 20.7529609,1.14289464 C23.2707866,2.36082633 25.6097271,4.03993345 27.7482286,6.18725104 C27.387855,6.61498285 26.9211706,7.01511557 26.4814544,7.38396932 C24.4206295,5.0759276 22.1383325,2.85436304 19.582918,1.55677278 C19.0826015,1.62420115 18.6064418,1.9370991 18.1552719,2.18895434 C16.0749758,3.5561376 14.0178993,5.31490327 12.4713435,7.46806537 L11.1423031,6.32719467 C13.2634158,4.09697157 15.6095409,2.36082633 18.1762009,1.12070713 C15.654106,0.290353271 14.0079034,2.48648338 12.093477,3.60365133 C9.86261741,5.22268983 6.65424039,5.98312599 3.95815411,4.86606627 C2.50822551,4.29438625 1.10348678,3.4524516 0.0536031056,2.08429425 C2.17544477,3.60365133 5.33540407,3.76286021 7.74837682,2.77611149 C10.9863251,1.31628187 14.3508883,-0.534264306 18.2541898,0.350638347 C18.863316,0.361786216 19.4552618,0.992236063 20.0307559,0.455406665 C22.9318626,-0.327649927 26.2162502,0.210694716 28.7140841,1.58902584 L31.2883452,2.66160232 C33.681222,3.58135559 36.7747501,3.32690279 38.8257873,1.81144205 C37.7712181,3.17591952 36.3307647,4.1533603 34.8432473,4.70707385" id="Fill-25" fill="#222222" mask="url(#mask-3)"></path>
                    </g>
                    <path d="M49.5269066,46.7437049 C45.7343829,48.1890893 41.9189648,46.4149604 38.2850062,45.8223004 L37.5854545,45.7325456 L37.5854545,45.7101871 C39.3229924,45.3122277 41.0097597,44.7900664 42.392646,43.5298615 C44.4297191,41.5536505 46.2424058,39.5195643 48.5045013,37.9622805 C46.8268493,40.1330851 46.6492056,43.2231546 43.8779213,44.618794 C43.1921487,45.0717404 42.3266126,45.1518671 41.6188996,45.4948397 C42.6281617,45.5168772 43.5522058,45.1518671 44.5517167,45.0497028 C48.2676077,44.460894 52.5186556,45.0650007 55.1253333,41.8699855 C54.1575143,44.0963118 51.7337799,45.9606234 49.5269066,46.7437049" id="Fill-28" fill="#222222"></path>
                    <path d="M56.4636629,35.6916419 C54.9607142,36.6357543 53.4373447,37.5112708 51.9932121,38.584613 L51.9932121,38.4528313 C54.2052514,34.9243272 53.1239069,30.0771894 54.4867818,26.1941711 L54.9950679,24.8932987 C54.7107723,27.3123252 55.8055179,29.3614238 55.7286209,31.7888206 C55.6517239,33.2550581 55.1531163,34.5551138 54.3508559,35.7259398 L54.4867818,35.7259398 C55.5706789,34.3598401 56.4169716,32.9069747 57.6835923,31.605694 C59.6497313,29.7860651 61.6486286,27.9201952 61.9067601,25.3951104 C62.5744773,29.6105943 60.1098371,33.3050759 56.4636629,35.6916419" id="Fill-30" fill="#222222"></path>
                    <mask id="mask-5" fill="white">
                        <use xlink:href="#path-4"></use>
                    </mask>
                    <g id="Clip-33"></g>
                    <polygon id="Fill-32" fill="#222222" mask="url(#mask-5)" points="31.3212121 42.9409403 31.9476364 42.9409403 31.9476364 26.7602961 31.3212121 26.7602961"></polygon>
                    <polygon id="Fill-34" fill="#222222" mask="url(#mask-5)" points="27.0835807 24.8932987 27.5626667 25.3705629 15.5132678 37.3399481 15.0341818 36.8623682"></polygon>
                    <polygon id="Fill-35" fill="#222222" mask="url(#mask-5)" points="25.6833939 21.7998266 25.6823822 22.4039688 9.39636364 22.3858728 9.39707187 21.7816364"></polygon>
                    <polygon id="Fill-36" fill="#222222" mask="url(#mask-5)" points="27.5626667 19.4380935 27.082451 19.914639 15.0341818 7.94442996 15.5142917 7.46798961"></polygon>
                    <polygon id="Fill-37" fill="#222222" mask="url(#mask-5)" points="31.9335015 16.8029766 31.3212121 16.802474 31.335347 0.622332468 31.9476364 0.623036087"></polygon>
                    <polygon id="Fill-38" fill="#222222" mask="url(#mask-5)" points="34.3057283 18.669974 33.8269091 18.1920384 45.8765748 6.22332468 46.3553939 6.70115505"></polygon>
                    <polygon id="Fill-39" fill="#222222" mask="url(#mask-5)" points="36.3333143 23.0263013 36.3326061 22.4229785 52.6185234 22.4039688 52.6196364 23.0071975"></polygon>
                    <polygon id="Fill-40" fill="#222222" mask="url(#mask-5)" points="33.8269091 25.9933405 34.3059627 25.5156312 46.3553939 37.4846764 45.8764461 37.9622805"></polygon>
                    <path d="M36.9872696,5.54654306 C45.816856,8.76810831 50.3044189,18.3771215 47.0040728,26.9952277 C43.7036227,35.6137403 33.8579685,39.9934636 25.0284862,36.7718984 C16.1987956,33.5507395 11.7115451,23.9415232 15.011787,15.3233154 C18.3124454,6.70510754 28.157579,2.32518102 36.9872696,5.54654306 M37.2573187,4.84024752 C46.4869818,8.20752243 51.1776541,18.2513275 47.7275005,27.2593137 C44.2774511,36.2672999 33.9871632,40.845672 24.7583329,37.4781939 C15.5287739,34.1111222 10.8388304,24.0675204 14.2881511,15.0593309 C17.7384088,6.05114148 28.0284884,1.47317583 37.2573187,4.84024752" id="Fill-41" fill="#222222" mask="url(#mask-5)"></path>
                    <path d="M35.8735058,9.68356324 C42.5951717,12.1798169 46.0116728,19.6259086 43.4991012,26.3041613 C40.9865296,32.9823104 33.4908265,36.3763785 26.7692649,33.8798142 C20.047182,31.3837677 16.6304724,23.9373653 19.1433567,17.2593197 C21.6563453,10.581067 29.1513187,7.18710246 35.8735058,9.68356324 M36.1452789,8.95953265 C43.2700696,11.6053357 46.8903744,19.4966581 44.2277907,26.5744688 C41.5644773,33.6522795 33.6207188,37.2493372 26.4967621,34.6037412 C19.3728053,31.9582488 15.7517708,24.0664086 18.4147714,16.9887015 C21.0776678,9.91099439 29.0214264,6.31393669 36.1452789,8.95953265" id="Fill-42" fill="#222222" mask="url(#mask-5)"></path>
                    <path d="M34.7864626,13.6739676 C39.4415411,15.3469407 41.807521,20.3368892 40.067323,24.8124049 C38.3270219,29.2878213 33.1371806,31.5621401 28.482102,29.889167 C23.8271267,28.2164915 21.4614565,23.2263446 23.2012416,18.7508289 C24.9414396,14.2756109 30.1313841,12.0010936 34.7864626,13.6739676 M35.0331016,13.0392855 C40.0527724,14.843124 42.6036798,20.2236842 40.7276757,25.0494309 C38.8508459,29.8750784 33.2544115,32.327886 28.2354631,30.5239483 C23.2157923,28.7199113 20.664988,23.3393511 22.541405,18.5137037 C24.4177187,13.6881554 30.01405,11.235447 35.0331016,13.0392855" id="Fill-43" fill="#222222" mask="url(#mask-5)"></path>
                    <path d="M32.6027819,17.2312103 C34.9587882,18.105984 36.1555559,20.7151232 35.2753412,23.0553237 C34.3943988,25.3953176 31.7687247,26.5844728 29.4132381,25.7098023 C27.0575436,24.8350286 25.8605681,22.2259927 26.7406788,19.8857923 C27.6214133,17.5456951 30.248023,16.3564366 32.6027819,17.2312103 M32.8718259,16.5165192 C35.624537,17.5387754 37.0235035,20.5875736 35.9945245,23.3224033 C34.9655455,26.0567167 31.8969052,27.4467497 29.1440901,26.4243902 C26.391379,25.4022373 24.9926204,22.3534391 26.0213915,19.6186093 C27.0504745,16.8840894 30.1197385,15.4942629 32.8718259,16.5165192" id="Fill-44" fill="#222222" mask="url(#mask-5)"></path>
                    <path d="M41.7044143,3.48409783 C52.1455731,9.1922754 56.1082608,22.1618204 50.5493599,32.4339657 C44.9912948,42.7057996 32.0054105,46.410079 21.5646697,40.7016938 C11.1231974,34.993101 7.16050966,22.0236599 12.7193061,11.7516183 C18.2774757,1.47957677 31.263151,-2.22428735 41.7044143,3.48409783 M42.0835894,2.78281129 C52.9180287,8.70617048 57.0305475,22.164623 51.2622592,32.8234309 C45.4945978,43.4825503 32.0196204,47.3262357 21.1850767,41.4027727 C10.3507418,35.4796211 6.23832746,22.0210648 12.0066158,11.3620493 C17.7744862,0.702929966 31.2490456,-3.1405479 42.0835894,2.78281129" id="Fill-45" fill="#222222" mask="url(#mask-5)"></path>
                    <path d="M27.0346769,42.9153015 C21.6766946,41.783625 28.124607,43.1399075 27.0346769,42.9153015 L27.0346769,42.9153015 Z M31.9074711,4.00772132 C31.8738628,4.12537697 31.7615921,4.15821349 31.6541079,4.23665059 C31.6793922,4.25723776 31.6822015,4.28008951 31.7075899,4.30077961 C31.781778,4.3401011 32.1587533,4.39846571 32.2530232,4.4130826 C32.4848479,4.41555306 32.4929639,4.27710437 32.7656806,4.22985683 L33.1071747,4.17663901 C33.4279627,4.14802285 33.866536,4.13217073 34.1525712,3.99197214 C34.0436302,3.84106822 33.9748527,3.84693556 33.806915,3.79310012 C33.5442913,3.72454486 33.2642911,3.70354596 32.9961527,3.79608526 C32.7488244,3.86402291 32.7589173,3.95491524 32.4374009,3.9835314 L31.9074711,4.00772132 Z M30.5164185,4.63614453 C30.8199341,4.65508472 30.9341817,4.64489407 31.2242748,4.75678532 C31.4888755,4.84808939 31.6439109,4.99497882 31.9474265,5.01402194 L31.6072851,4.65395243 L31.8011314,4.52209164 C31.699578,4.4392283 31.6541079,4.44324279 31.5544274,4.38323121 C31.5037547,4.34195394 31.4990724,4.29635337 31.4481917,4.25497317 C31.4020973,4.2590906 31.2871214,4.26917831 31.2416512,4.27329575 C31.1059692,4.30819099 30.9943229,4.34133633 30.8386632,4.40093617 C30.7028772,4.43583141 30.5224534,4.47484409 30.5164185,4.63614453 L30.5164185,4.63614453 Z M39.5033739,6.54714812 C39.493281,6.45625579 39.4679967,6.43556568 39.4351167,6.34673207 C39.298082,6.15218336 39.1457519,6.02804275 38.9291186,5.95526713 C38.8583642,5.93890033 38.6445401,5.88887352 38.6057293,5.96113447 C38.5468366,6.05810001 38.7961419,6.2198122 38.8696016,6.25913368 C38.9457667,6.32120398 39.0427418,6.35856969 39.1190109,6.42074293 C39.2666588,6.49948883 39.3376213,6.5160615 39.5033739,6.54714812 L39.5033739,6.54714812 Z M45.1025455,12.4550469 C45.0424042,12.1159762 44.8218169,11.7913167 44.5631471,11.538918 L44.1561011,11.2076705 C43.9989847,11.0380323 43.8292781,10.75465 43.5978695,10.5455873 C43.3440901,10.3385834 43.1529491,10.2867037 42.9269512,10.1230357 L42.5425882,9.78972954 L41.8567907,9.23078801 C41.6789682,9.08606024 41.4677454,8.85208711 41.3334161,8.68049309 C41.1962774,8.48594438 41.2350882,8.41368343 41.1563219,8.32886431 C41.1028399,8.26473529 40.9096179,8.19000389 40.8154521,8.17548993 L40.8515577,8.08037723 L40.6811228,8.00369004 C40.7760169,7.81171473 40.6430403,7.86935879 40.5086069,7.69776477 C40.4551249,7.63363575 40.4457603,7.54243461 40.3616874,7.41232373 C40.2298553,7.26327265 40.0540097,7.14108783 39.8815979,7.04185769 L39.0448229,6.58801364 C38.7747075,6.45131487 38.4056399,6.25439863 38.1029567,6.23542602 C37.8708198,6.23309092 37.7224436,6.36104015 37.4951971,6.40406732 C37.291466,6.44513872 36.8509157,6.43844789 36.7098231,6.63454063 C36.5668575,6.80788456 36.9251038,7.12050066 37.0547508,7.24669999 L37.4177834,7.60471078 C37.5221462,7.71032294 37.5521128,7.77640774 37.6583484,7.90466578 C37.7606302,7.98752912 37.9585345,8.10775816 38.0401101,8.21522316 C38.1209575,8.32268816 37.9860038,8.35778928 38.0947367,8.50879613 C38.1783934,8.63900995 38.3823326,8.8046337 38.4432022,8.9371121 C38.4758741,9.02594572 38.4906493,9.16243862 38.5669184,9.22461186 C38.6403781,9.26393335 38.7273644,9.21020085 38.7961419,9.2040247 C38.9084125,9.17118817 39.2380448,9.00422626 39.3368929,9.06434078 C39.4358451,9.12435237 39.7739055,9.46157013 39.852984,9.54659512 C39.9036566,9.58787239 40.007291,9.69338161 39.9919956,9.76378971 C40.0045857,9.87732793 39.6430098,9.74876108 39.7292678,9.90182665 C39.7572574,9.94536851 39.978573,10.063333 40.0547381,10.1255062 L40.3368193,10.3759491 L40.6643706,10.6222745 C40.7405357,10.6844477 40.8240883,10.8146615 40.8982764,10.854086 C41.043323,10.9100831 41.1175111,10.7428123 41.2424758,10.8234111 C41.4864745,10.9395227 41.6615917,11.2685056 41.9155792,11.4754066 C42.0880952,11.5748426 42.1313802,11.5479764 42.2765308,11.6040764 C42.3987903,11.6620293 42.4777647,11.7469513 42.6020011,11.827653 C42.7979284,11.9250303 42.8139522,11.8548281 43.0424474,12.0411419 C43.3473157,12.2894231 43.6067139,12.5420276 43.868089,12.817278 C43.9722437,12.9226843 44.2289365,13.1524371 44.3485947,13.1877441 C44.3713818,13.1857883 44.3939608,13.1838325 44.4174762,13.1816708 L44.6801,13.0436339 C44.6801,13.0436339 44.7036154,13.0413693 44.7009101,13.0188264 C44.7162055,12.9485212 44.7061126,12.8576289 44.7215121,12.7873237 C44.7375359,12.7170185 44.7810291,12.6902552 44.7938273,12.5972012 C44.8092268,12.5272049 44.7944516,12.3905061 44.8606278,12.361787 C44.9274283,12.332862 45.0544741,12.4363125 45.1025455,12.4550469 L45.1025455,12.4550469 Z M39.1543881,12.5010592 L39.0962239,12.3914325 C39.193199,12.4285923 39.2901742,12.4659581 39.3456332,12.5529388 C39.3757038,12.6190236 39.3810104,12.6645213 39.388398,12.7327677 C39.4031732,12.8691577 39.6444665,13.1692156 39.7842065,13.1796121 C39.8327981,13.1983464 39.8301969,13.1757006 39.8762913,13.1714802 L39.7579858,12.7228859 C39.7043997,12.6586539 39.6383275,12.6876818 39.5595612,12.6028627 L39.0822811,12.0482445 C39.0541874,12.0047026 38.9479517,11.8764446 38.9632472,11.8063453 C39.004035,11.7567302 39.1190109,11.7465396 39.1651054,11.742628 L38.7278847,11.3451928 C38.677108,11.3037097 38.5982376,11.2188905 38.5087541,11.2497713 C38.4196868,11.280652 38.3862865,11.3984106 38.3474757,11.4705686 C38.3092891,11.5430354 38.2478992,11.6172522 38.2550787,11.6854986 C38.2879587,11.7745381 38.3923215,11.8800473 38.4452832,11.9440734 L38.8523292,12.275218 C38.9565879,12.3808301 39.0092375,12.4449591 39.1543881,12.5010592 L39.1543881,12.5010592 Z M40.9911936,13.4168792 C41.179109,13.6527052 41.5145682,13.9672771 41.7972737,14.0111277 C41.7138251,13.880708 41.6422383,13.8642383 41.5406849,13.781375 C41.390852,13.6798802 41.1363442,13.4728763 40.9911936,13.4168792 L40.9911936,13.4168792 Z M24.5950022,15.7905793 C24.6638837,15.7845061 24.7558644,15.7762712 24.8015426,15.7722567 L25.3998337,15.9485858 C25.5655863,15.9798783 25.7286336,15.988422 25.8375746,16.1393259 C25.5394696,16.1659863 25.6030445,16.1142096 25.3663294,16.0664473 C25.1551066,16.0393752 25.0909074,16.0909461 24.9278601,16.0822995 C24.8335902,16.0677855 24.7854148,16.0491541 24.713932,16.0325815 L24.0997213,16.1329439 C23.9366739,16.1245031 23.9011927,16.0128178 23.8042175,15.975555 C23.7052654,15.9153375 23.6157819,15.9462183 23.5288996,15.9999508 C23.3737601,16.0597565 23.2227827,16.164854 23.0720134,16.2701573 C22.7909727,16.4556477 22.466855,16.6682102 22.2645806,16.9386226 C22.1239042,17.1347153 22.1590733,17.2465036 22.0182928,17.4425964 C21.8753273,17.6159403 21.545799,17.7829022 21.3231307,18.0782251 C21.1617482,18.2991254 21.1764193,18.4355153 21.1152375,18.5099379 C21.0741375,18.5593471 20.7907037,18.7223975 20.7242153,18.7511166 C20.6580391,18.7798357 20.5892617,18.7860118 20.5457685,18.812981 C20.4819855,18.8645519 20.4434868,18.9368128 20.40478,19.0090738 L20.1775334,19.2587961 C20.1187448,19.3558646 19.8800527,19.7212867 19.8670464,19.8144437 C19.8613236,19.9756412 20.1240514,20.0441964 19.9853519,20.263038 C19.964958,20.2876396 19.9445641,20.3124472 19.9241702,20.3374606 C19.7735049,20.4425581 19.7330292,20.2853751 19.6160763,20.2728169 C19.4733189,20.2395686 19.2611597,20.4190887 19.1341139,20.3155353 C19.0552435,20.2308191 19.08906,20.1130605 19.0793833,20.0220652 C19.043902,19.9104828 18.9931253,19.8691026 18.9603494,19.780166 C18.9018729,19.6703335 18.9483835,19.4596239 18.7858565,19.244488 C18.7024079,19.1143771 18.6057449,19.0770114 18.5312446,19.2443851 L18.4771383,19.3867453 C18.3861981,19.188388 18.4375991,19.023073 18.2718465,18.9915747 C18.0607278,18.9647084 17.9962164,19.2229744 17.8732286,19.3715108 C17.5663833,19.7431091 17.5152945,19.7017289 17.2802441,19.8832048 L16.9685085,20.2094084 L16.7740379,20.3414751 C16.669363,20.4425581 16.5998572,20.6553264 16.546063,20.7977896 L16.3211056,21.7130949 C16.2719937,21.9009528 16.1894816,22.207084 15.9879355,22.2704924 C15.9217593,22.2993145 15.7126176,22.2950941 15.6413429,22.2785214 C15.567467,22.2392 15.5144012,22.1750709 15.4431265,22.1581895 C15.3743491,22.1644685 15.1904916,22.1806295 15.0201608,22.1039423 C14.9185033,22.0213877 14.784174,21.849382 14.6871988,21.812428 C14.5906398,21.7746506 14.4987632,21.7829884 14.4071986,21.7912232 C14.2922227,21.8011051 14.1317766,21.815619 14.0375068,21.8011051 C13.7982944,21.730594 13.6437793,21.3769065 13.5529431,21.1783433 C13.5202712,21.0894068 13.4592975,20.9570313 13.3855256,20.9177098 C13.2838682,20.8348465 13.1611925,20.9834858 13.0416384,20.9482818 C12.9473685,20.9335619 12.7388511,20.7226464 12.6169038,20.6644877 C12.5914114,20.6436947 12.5149342,20.5818302 12.4718572,20.6085935 C12.426075,20.6125051 12.4126524,20.705765 12.3948598,20.7530125 C12.3916342,20.9370618 12.4427231,20.978339 12.5489587,21.1068029 C12.5743471,21.1272872 12.6533215,21.2123122 12.5891223,21.263883 C12.4821582,21.3421142 12.3277471,20.9886326 12.2074646,21.1600208 C12.1893598,21.2075771 12.1920651,21.2303259 12.1713591,21.2549276 L12.1254727,21.259045 L12.0145548,20.8786972 L11.9974905,20.7195584 L11.8431834,20.3659738 L11.6540194,20.5434352 L11.6088614,20.3407545 L11.5457027,20.1857332 C11.5102215,20.0741507 11.418761,20.0822827 11.3317747,20.1357064 C11.1607155,20.2658173 11.0424099,20.4599542 10.9354459,20.5382884 C10.8050705,20.6187842 10.7058062,20.5586697 10.6166348,20.5895504 C10.5070695,20.6452387 10.4300721,20.7897606 10.3963597,20.9076221 L10.2198898,21.8414559 C10.0672476,22.5667417 9.9696481,22.7360712 10.053825,23.5091192 L10.1467422,23.9369205 L10.2340407,24.5261252 L10.3118706,24.8176394 L10.357965,24.8134191 C10.3258133,24.5177874 10.3352819,23.9659484 10.4200832,23.6830808 C10.5030115,23.3774643 10.6353639,23.3197173 10.6420232,22.9517217 L10.6968578,23.2456035 C10.8222388,23.1193013 10.8124581,23.0284089 10.9883036,22.9441045 C11.04678,23.0534223 11.0720643,23.0744212 11.1099388,23.2089584 C11.145316,23.320232 11.1549927,23.4112273 11.2134691,23.5210598 C11.2717375,23.6303776 11.3198088,23.6492149 11.37558,23.7361957 C11.429166,23.8000159 11.4642311,23.9118042 11.496903,24.0007407 C11.5604779,24.155865 11.6105263,24.4040433 11.8013551,24.4560259 C11.8759594,24.2886522 11.8539006,24.0841187 11.8565019,23.8999665 C11.8746067,23.8523073 11.8829308,23.7140645 11.9260077,23.6873011 C12.0382783,23.6542587 12.0838525,23.8569394 12.091136,23.9250829 C12.1566879,24.102956 12.2044471,24.3284884 12.3133881,24.4790835 C12.4273236,24.6758968 12.5169111,24.6448102 12.6659116,24.9528971 L12.699624,24.8352415 C12.7628868,24.9902628 12.6833921,25.1122418 12.8564283,25.2114719 C12.8464394,25.1205796 12.8277103,24.7320998 12.8657928,24.6596329 C12.8838976,24.6120766 12.9527792,24.6061063 12.9988736,24.6020918 L13.1058376,25.3731841 C13.1155143,25.4640764 13.1505794,25.5758647 13.2040614,25.6399937 C13.3337084,25.766296 13.4843737,25.6607868 13.542538,25.7705164 L13.6331661,26.1755688 C13.710996,26.467186 13.8196248,26.824991 13.9405316,27.0894331 C14.031784,27.2880992 14.1532111,27.5529531 14.3082465,27.6998425 C14.3617285,27.7639715 14.4402867,27.8488936 14.5294581,27.817704 C14.6190457,27.7870292 14.5835644,27.6752409 14.5989639,27.6052445 C14.6123864,27.5122935 14.6554634,27.4855301 14.671175,27.415122 C14.6818922,27.2993192 14.6438097,27.1647821 14.7024942,27.0679195 C14.6719034,27.2084269 14.7199748,27.2269553 14.734958,27.3635512 C14.7547277,27.5453359 14.7998856,27.7480165 14.8656456,27.9255808 C14.9639734,28.1928022 15.037121,28.4383041 15.2019372,28.6764976 C15.3111903,28.8276074 15.5628888,29.0116567 15.7152189,29.1360032 C15.9238403,29.3469187 16.1293403,29.5353942 16.3809347,29.7195463 L16.6811207,29.9225358 L16.930426,30.084248 C17.1517416,30.2022124 17.175049,29.9933556 17.3127079,29.9814151 C17.3841907,29.9978848 17.6354729,30.182037 17.711742,30.2442102 C18.098186,30.6002653 17.9711402,30.4968148 18.2378219,30.8175628 L18.8393385,31.4526768 C18.994478,31.5994633 19.1869716,31.8811987 19.3985065,31.9078591 L19.6100414,31.9353429 C19.8466525,31.983311 20.1113572,32.0746151 20.3585815,32.0063686 C20.4505622,31.9981338 20.5143453,31.9468717 20.5554452,31.8973596 C20.6167311,31.822937 20.6527326,31.7280302 20.7447133,31.7197953 C20.8388791,31.7344122 21.0579057,31.8296278 21.1543606,31.8671994 C21.3986714,31.9830022 21.7446397,32.1819772 22.00435,32.2275777 C22.2642685,32.27359 22.4508312,32.0732769 22.4080664,31.893448 C22.3425145,31.715472 22.0678209,31.5333785 21.9210055,31.2480404 C21.7790804,31.0083029 21.6807526,30.7413903 21.5183296,30.5262544 L21.1454122,30.0772483 L20.9221196,29.729737 L20.8131786,29.5787301 C20.7850849,29.5353942 20.7450255,29.3783141 20.7376379,29.3098618 L20.4822977,28.6668217 C20.3659691,28.4475684 20.1360172,28.4680526 19.9870167,28.1599657 C20.0935646,28.2882237 20.2971916,28.4539504 20.441926,28.5098445 C20.3763741,28.3318685 20.2296628,28.0466333 20.1203056,27.8955235 L19.886816,27.6637121 C20.0137578,27.7671626 20.1153112,27.8502318 20.2810638,27.8812155 L20.3298635,27.6930488 C20.4020746,27.5029263 20.4682508,27.4742072 20.466586,27.2448662 C20.4475448,26.8562834 20.0849284,26.2915775 20.0331112,25.8142641 C20.0107403,25.6095247 20.0572509,25.399021 20.0808704,25.1903701 L20.0873215,24.8223745 C20.0799339,24.754128 20.1207218,24.7043071 20.1340403,24.6117678 L20.1297742,24.3594721 C20.1607813,24.2189647 20.178782,24.1714083 20.1642149,24.0348125 L20.0531929,23.6545675 L20.0465337,23.379523 L20.0067864,23.0158507 C19.9770279,22.7430708 20.1254041,22.6151216 20.1515208,22.4292195 C20.1648392,22.3360626 20.0458053,22.0940604 19.9947165,22.0527832 C19.9208406,22.0133588 19.7630998,22.0504156 19.8192872,21.9307013 C19.8757866,21.8109869 20.0839919,22.0219024 20.1373699,22.0860314 C20.2042744,21.8507201 20.1534977,21.8090311 20.1083398,21.6064534 L20.0210413,21.0173517 C19.9809818,20.8601687 19.8793244,20.7775112 19.8717287,20.7092648 C19.8874403,20.6389596 19.9562178,20.6327835 20.0377934,20.5338621 C20.1199934,20.434632 20.1534977,20.3169764 20.1642149,20.2012765 L20.1681689,19.8105321 C20.1938694,19.62463 20.3526506,19.3809809 20.5545088,19.3171607 C20.758448,19.2761922 20.9666533,19.4871077 21.081213,19.47702 C21.1961889,19.4667264 21.2523762,19.347115 21.2910831,19.2746482 L21.5557878,18.5165258 L21.6018823,18.5124084 C21.7158177,18.7091188 21.8354759,18.7443228 21.9903032,18.8913152 L22.1225515,19.0402633 C22.1480439,19.0609534 22.191433,19.0341901 22.2348221,19.0073239 C22.3163978,18.9082996 22.4146216,18.532275 22.3565613,18.4226484 C22.3237854,18.3337118 22.222232,18.2508485 22.1867507,18.139266 C22.1793632,18.0710196 22.2178619,17.9987586 22.2562566,17.9266006 C22.3103629,17.7839316 22.3388727,17.6206754 22.4433396,17.5195924 C22.6506084,17.2945747 23.0636893,17.2578266 23.3152837,17.4421846 C23.4427457,17.5457381 23.4267219,17.6159403 23.4800999,17.6800693 C23.5589702,17.7648884 23.673634,17.7548007 23.7114044,17.889132 C23.7163988,17.9346296 23.7059937,18.0503295 23.6902821,18.1206347 C23.7052654,18.2570246 23.7327347,18.3004635 23.6789406,18.4429267 C23.6020472,18.5874486 23.4744811,18.6905903 23.4226639,18.8559053 C23.3507649,19.0460277 23.46803,19.0585859 23.439312,19.2217392 C23.387911,19.387157 23.26253,19.5130476 23.211025,19.6782596 C23.1519242,19.775431 23.1620171,19.8663233 23.0550531,19.9446575 C22.9680668,19.9981841 22.8278066,19.9877876 22.736138,19.9959195 C22.6008722,20.0308148 22.493596,20.1092519 22.3839267,20.1648372 C22.3886089,20.2104378 22.3936034,20.2557295 22.4213849,20.2992714 C22.4594674,20.4337056 22.5741312,20.423412 22.6860896,20.3904725 C22.8672417,20.3516657 23.1070784,20.2153787 23.2853171,20.3603123 C23.4400404,20.5074076 23.4871753,20.9393264 23.6192155,21.0882745 C23.7461573,21.191725 23.838034,21.1835931 23.9806874,21.2169443 C24.0773504,21.25431 24.1512263,21.2936315 24.2273914,21.3557018 C24.4052139,21.5005325 24.3490265,21.6204527 24.4298738,21.7279177 C24.5061429,21.7898851 24.5726313,21.7614748 24.6511895,21.846088 L24.9883135,22.389898 L25.2206585,22.1856733 C25.2995289,22.2704924 25.3915096,22.2622576 25.4018106,22.1465577 C25.394423,22.0785171 25.3569648,21.9442888 25.3262699,21.8778952 C25.4813053,22.0248876 25.4936873,22.1386316 25.493063,22.3453268 C25.4980574,22.3906185 25.4800567,22.4381749 25.5080463,22.4819226 C25.517723,22.5724032 25.6293693,22.7463648 25.7055344,22.808538 C25.8047986,22.8683437 25.8709748,22.8395217 25.9578571,22.7859951 C26.0374558,22.6643249 26.0838624,22.4534094 26.2065381,22.3049759 C26.309132,22.1809383 26.5129671,22.1399698 26.6971367,21.9168049 C26.6490653,21.8982765 26.5040188,21.8423823 26.5193142,21.7720772 C26.5554198,21.6771703 26.6931828,21.664818 26.779961,21.6111885 C26.9077351,21.5080468 27.0052306,21.3386144 27.0337404,21.1755641 L26.75322,21.1543593 L26.5878835,21.1231697 L26.3582438,21.1437569 L26.13235,20.979986 L25.8061513,20.9630016 C25.8623386,20.8432872 25.9010455,20.7709233 26.0388085,20.758674 C26.1075859,20.7524978 26.2042489,20.7900694 26.2477421,20.7632032 C26.3368094,20.7322195 26.3268206,20.6412242 26.3910198,20.5897563 C26.5136955,20.441014 26.6944314,20.4021043 26.7208602,20.2160992 C26.9092959,20.2452301 26.9504999,20.1958209 27.0444576,20.2103348 C27.2378877,20.2848604 27.298029,20.623931 27.3866801,20.7997454 C27.1473637,20.7292343 27.1924176,20.931812 27.1866948,21.0930095 C27.2736811,21.03938 27.3759629,20.9155482 27.4651343,20.8845645 L27.7659446,20.8808588 C27.834722,20.8746827 27.855116,20.850081 27.9217083,20.8210531 C28.0796572,20.7842021 28.1840199,20.8897113 28.2675726,21.020028 C28.3545589,20.9663985 28.3494604,20.9209008 28.2935852,20.834023 L28.4083531,20.8237294 L28.3428012,20.6461651 C28.2281374,20.6561499 28.2023328,20.6355627 28.1689326,20.7532184 C28.0700845,20.6932068 28.0700845,20.6932068 27.9527154,20.6806486 L28.0373086,20.6043732 L28.0318979,20.5587726 C27.8361787,20.4613953 28.06072,20.3956193 28.0941202,20.2777578 C28.1098319,20.2074526 28.0821544,20.1642196 28.0539567,20.1206777 L28.342385,20.003228 C28.4650606,19.8547945 28.5693194,19.9602008 28.6208244,19.7948859 C28.8575396,19.842751 28.7796056,19.5512368 28.9583646,19.4893723 C29.0015456,19.462609 29.0726122,19.4793875 29.1188106,19.4751672 C29.1849868,19.4463451 29.251059,19.4176261 29.3179635,19.3887011 C29.4095281,19.3806721 29.4557265,19.3766576 29.5444817,19.345571 C29.631468,19.2920443 29.7109627,19.1701683 29.7724566,19.0960545 C29.8132444,19.0461307 29.8974214,18.9699582 29.9155262,18.9224018 C29.9309257,18.8520966 29.900751,18.7862177 29.8887852,18.6722677 C29.982951,18.6867817 30.0519365,18.6807085 30.1127021,18.6064918 C30.1769013,18.5549209 30.1669125,18.4639256 30.0699373,18.4266629 C30.0471502,18.4288245 29.9783727,18.4348977 29.9556897,18.4368535 L30.2724198,18.1561475 L30.334642,17.8751327 L30.2450545,17.9060135 L30.2764778,17.7655061 L30.0238429,17.788049 C30.0646307,17.7384339 30.1875145,17.5897946 30.2283023,17.5401795 C30.3359947,17.4618454 30.4529476,17.4745065 30.507158,17.3317345 C30.2804317,17.3748646 30.0017841,17.5832067 29.8587145,17.7565506 L29.6354219,18.0518735 L29.6489485,17.9589225 C29.4243032,18.0248014 29.4389744,18.1612943 29.3519881,18.2149239 L29.308599,18.2415843 C29.3774805,18.235511 28.9162241,18.2535248 28.9878109,18.2703033 C28.8705459,18.2576422 28.7435001,18.1541917 28.6418426,18.0712255 C28.5653654,18.0091552 28.5125077,17.9450261 28.4256255,17.9987586 L27.9958964,17.6696728 C28.0365802,17.6200577 28.0573903,17.5952502 28.0066136,17.5537671 C27.9558369,17.5123869 27.8361787,17.4770799 27.7369145,17.4170683 C27.5586758,17.2722376 27.5671039,17.133686 27.5446289,16.9290495 C27.5252755,16.7472649 27.5018641,16.7492207 27.4391216,16.5940964 C27.4086348,16.5278057 27.4036403,16.482411 27.3501583,16.418282 C27.2969885,16.35405 27.1724399,16.2734513 27.0961708,16.211278 C26.9946174,16.1285176 26.8676756,16.0250671 26.7503066,16.012406 C26.5848661,15.9813194 26.457196,16.0844611 26.3142304,16.0511099 C26.1945722,16.0159058 26.0397449,15.8689135 25.8946984,15.8129164 C25.8005326,15.7982995 25.6858688,15.8085931 25.593888,15.8166221 C25.5888936,15.7711245 25.5789048,15.6802321 25.5308334,15.6616007 C25.4572696,15.6222793 25.3242929,15.6800263 25.2326243,15.6880552 C25.1407476,15.6961872 25.1103648,15.6301024 25.0391942,15.6133238 C24.9680236,15.5967512 24.6441141,15.6026185 24.6030141,15.6521306 C24.559625,15.678894 24.5903199,15.7450817 24.5950022,15.7905793 L24.5950022,15.7905793 Z M41.5780391,14.1224013 C41.6407816,14.2774227 41.8868613,14.6229783 42.0553192,14.6768137 C41.9409676,14.4804121 41.7939441,14.1949711 41.5780391,14.1224013 L41.5780391,14.1224013 Z M40.582795,14.3483455 L40.8729921,14.6671377 C40.9818291,14.8180417 41.09077,14.9691514 41.2204171,15.0952478 C41.3220746,15.1781112 41.4672252,15.2341083 41.6021788,15.1993159 C41.6917664,15.1682293 41.962298,14.8917437 41.7411904,14.7735734 C41.6675226,14.7343548 41.557333,14.7899402 41.4891798,14.7960134 C41.4945905,14.6348159 41.4846016,14.5439236 41.4444381,14.3867405 C41.4397558,14.3412429 41.4296629,14.2503506 41.3400753,14.2813343 C41.23051,14.3370225 41.3594287,14.6698141 41.1862885,14.5703781 L41.1128288,14.5309536 L41.0365597,14.4688833 C40.9544637,14.5679076 41.0512308,14.6052733 41.1302052,14.6900924 C41.2318627,14.7730587 41.3100047,14.8578778 41.3253001,14.9941648 C41.0760989,14.8325556 41.0614278,14.6963715 40.9009817,14.5039845 C40.7973473,14.3983723 40.7211823,14.3360961 40.582795,14.3483455 L40.582795,14.3483455 Z M35.7354931,15.3526903 C36.0562812,15.32428 36.0006141,15.2371963 36.1845756,15.2210354 C36.2734348,15.1899488 36.415776,15.2234029 36.5100459,15.2379169 L36.4973517,15.330765 C36.6904696,15.4055993 36.6783998,15.2918553 36.8208451,15.3250006 C36.9659957,15.3811006 37.0547508,15.5570179 37.2940673,15.627426 C37.3903141,15.6649976 37.4391138,15.6834231 37.5261001,15.6298965 C37.581455,15.7167743 37.6048664,15.7148186 37.696431,15.7065837 C37.7071482,15.5908838 37.7733244,15.5619589 37.7425254,15.4957711 C37.7125588,15.4294805 37.470433,15.3363235 37.449831,15.5678262 C37.3682553,15.4600524 37.4116444,15.4332891 37.3816779,15.3673072 C37.3001022,15.2596363 37.1370549,15.2511956 37.0245762,15.2840321 C36.9771291,15.0587056 37.0073038,15.1247904 36.6897413,14.9694603 C36.5902689,14.9094487 36.3717626,14.8140272 36.2540814,14.801469 C36.1143414,14.7908666 36.0783399,14.8859793 35.9686706,14.9416676 C35.9071766,15.0160902 35.8355898,14.9993116 35.7721189,15.0509854 C35.710521,15.1252022 35.7254002,15.2616951 35.7354931,15.3526903 L35.7354931,15.3526903 Z M34.9587553,15.2379169 L35.1846492,15.4015848 L35.356957,15.7075101 C35.4894134,15.6498661 35.5073101,15.6024126 35.5971058,15.5715319 C35.6403909,15.5447686 35.9259057,15.6111622 35.8596255,15.4334949 C35.8342372,15.412599 35.8089529,15.3920118 35.7835645,15.3714246 L35.768165,15.4416269 C35.692,15.3794536 35.5903425,15.2965903 35.4933674,15.2592246 C35.3964962,15.2220648 35.0727948,15.2278292 34.9587553,15.2379169 L34.9587553,15.2379169 Z M32.5242831,16.0737558 C32.266966,16.0508011 32.4366725,16.3341834 32.4032723,16.4518391 C32.347189,16.5716564 32.0892475,16.7552939 31.9641787,16.6744893 C31.8980025,16.7034142 31.829225,16.7095904 31.7576382,16.6928118 C31.6866757,16.6761362 31.6360031,16.634756 31.5671215,16.6409322 L31.2014877,16.9029039 C31.1373925,16.9544747 31.0511346,17.0081043 30.9589457,17.0162362 C30.8906885,17.0223094 30.7984997,17.0303384 30.7577118,17.0801593 C30.6936167,17.1315243 30.7543822,17.2640027 30.7851812,17.3300875 L30.8940181,17.4811973 C30.6694769,17.5469733 30.6868534,17.7060092 30.7089121,17.9108514 C30.7216063,18.0243897 30.7657237,18.4337654 30.7984997,18.5225991 C30.8338769,18.6343874 30.98423,18.7357791 31.103368,18.7708803 C31.177452,18.8105106 31.2944049,18.8228629 31.3632864,18.8168926 L31.3793102,18.5398923 L31.4481917,18.533922 L31.5190502,18.7572927 C31.5418372,18.7550281 31.5878276,18.7511166 31.6106147,18.7490579 L31.8960255,18.8155544 L31.9468022,18.8569346 C31.9769769,18.9230194 31.9206855,19.0429397 31.9280731,19.1111861 C31.9682367,19.2681632 32.1338852,19.2994557 32.2717523,19.2872064 C32.2683186,19.4710497 32.2863194,19.4235963 32.2757062,19.5392962 C32.2884004,19.6530403 32.2195189,19.6592164 32.3612358,19.8990569 C32.3893295,19.9423929 32.4474938,20.0521225 32.5162712,20.0459463 C32.5850487,20.0399761 32.7281183,19.8664263 32.8812808,19.7840776 C32.916658,19.8955571 32.9192593,19.9184088 33.0182114,19.9785234 L32.9848111,20.096179 L33.2454579,19.9353933 C33.1679402,20.2866103 33.0202924,20.2077614 32.8592221,20.4286617 C32.8023064,20.5486849 32.8377876,20.6602673 32.8043874,20.7780259 L32.8297757,20.798716 L32.916658,20.7450865 L32.9829382,20.7163674 C33.1866693,20.6750901 33.0283043,20.9188421 33.0329866,20.9643398 C33.0402701,21.0326891 33.0891739,21.0510117 33.1372453,21.069849 L33.029657,21.1481831 L33.0931278,21.3033074 L32.6800469,21.3400555 C32.4761077,21.381024 32.3070255,21.5337807 32.1359662,21.6636858 L32.1413769,21.7091834 L32.2121313,21.725859 L31.8165309,21.9217459 C31.936085,21.956847 32.0918488,21.8972471 32.2068247,21.8870565 C32.3191994,21.8540141 32.2983893,21.8791304 32.4340713,21.8437205 L32.507531,21.8834537 L32.4942125,21.9764048 L32.9982337,22.138014 C33.1177878,22.173424 33.2047741,22.1197944 33.2789622,22.1592188 C33.3778103,22.2193333 33.3444101,22.336989 33.5101627,22.3680756 C33.7006794,22.4200582 33.8517608,22.3149607 34.0096056,22.2779038 L33.8230429,22.4782169 L33.9093008,22.6312825 L34.1338421,22.5655065 C33.9673611,22.7408062 33.975477,22.6025634 33.6545849,22.6309737 C33.7281487,22.6702952 33.946655,22.7655108 33.9954547,22.7843481 C34.1151129,22.819758 34.1785838,22.7677754 34.3470418,22.8220226 C34.489383,22.855065 34.6625232,22.9546039 34.7086176,22.7436884 C34.7367113,22.7873332 34.764805,22.8306692 34.7901933,22.8514622 C34.8638611,22.8908867 34.9098515,22.8868722 34.9815424,22.9033419 C35.0756041,22.9179588 35.2987927,23.058775 35.2889079,23.1745778 C35.2680978,23.1992824 35.2473917,23.2240899 35.227414,23.2488975 C35.196511,23.1825039 35.1665444,23.1167279 35.1130624,23.0525988 C34.9815424,22.9033419 34.7794761,22.967265 34.6137235,22.9357667 L34.2801372,22.8508446 L34.0229241,22.8276841 C33.8831841,22.8171846 33.8043138,22.7324684 33.6666548,22.7447178 C33.6204563,22.7487323 33.5543842,22.7774514 33.5596908,22.8230519 C33.564269,22.8683437 33.6151498,22.9100327 33.6406422,22.930517 C33.78829,23.0091599 33.734808,22.9450309 33.9587249,23.0858471 C34.0830654,23.1666517 34.1265585,23.1397855 34.2461127,23.1751954 L34.3684762,23.2333541 C34.462642,23.247971 34.4807468,23.2003117 34.5749126,23.2148257 C34.6204868,23.2109141 34.7146526,23.2254281 34.7634523,23.2442653 L34.3651466,23.4171975 L34.059654,23.3755085 C34.1204195,23.5077811 34.1459119,23.528677 34.0436302,23.652303 L33.9874428,23.565631 C33.9259489,23.6397448 33.9313596,23.6853454 33.8698656,23.759665 L33.7675839,23.8833939 C33.7495831,23.9309502 33.6880892,24.0053728 33.6418908,24.0093873 C33.5730093,24.0156664 33.4947632,23.9306414 33.4433622,23.8893642 C33.3444101,23.8291467 33.2984197,23.8331612 33.1861491,23.8661007 C33.270222,23.9965204 33.3137151,23.9696541 33.4353503,24.027504 C33.5349267,24.0876186 33.7890183,24.2946225 33.8677846,24.3796475 C33.8443732,24.3816033 33.8216902,24.383662 33.8036895,24.4312183 C33.7629016,24.4808334 33.8076434,24.6834111 33.8611254,24.7472313 C33.9119021,24.7889203 33.9607018,24.8074488 34.028855,24.8015814 L33.755514,25.0555241 C33.8751722,25.0904194 33.9186654,25.063759 34.0202188,25.1466223 L33.7908912,25.1667977 L33.488208,24.9413683 L33.1727265,24.8084781 C33.2904078,24.8210363 33.4761381,24.8276242 33.5857034,24.7717301 C33.782255,24.6626181 33.6887135,24.4415119 33.5363834,24.3171654 C33.4374313,24.256948 33.3685498,24.2632271 33.2515969,24.2506689 C33.157223,24.236155 33.0122805,24.179952 32.9199876,24.1881869 L32.670058,24.2334786 L32.6860818,24.1630705 C32.614495,24.1466008 32.5891067,24.1257048 32.5250115,24.1772757 C32.4487424,24.1151024 32.4467654,24.0926624 32.3524956,24.0781485 L32.3645654,24.1914808 L32.2603067,24.0860745 L32.2502138,24.2017744 C32.1941305,24.1147936 32.1915293,24.0923536 32.0951784,24.0549879 L32.1726961,24.3461934 L32.1346136,24.4186602 C32.0070475,24.5218019 32.0082961,24.7513488 32.0236956,24.8878417 C32.0530379,25.1606216 31.991544,25.2349413 31.9682367,25.4435922 C31.9622017,25.6045838 32.0156837,25.6688158 31.9715663,25.9024801 C31.9588721,25.9953282 31.8712615,26.25555 31.8325547,26.3280168 L31.7301689,26.4517457 L31.6533795,26.5961646 C31.6145686,26.6685285 31.5510978,26.7200993 31.5123909,26.7925662 C31.4762854,26.8873701 31.5270621,26.9290591 31.5551557,26.9723951 C31.5932383,27.1066234 31.4962631,27.0692577 31.6560848,27.2619535 L31.5744051,27.3608749 L31.6660737,27.35264 C31.6145686,27.5179549 31.7188273,27.62367 31.8766721,27.5867161 C31.9889427,27.5536737 32.1118265,27.4051373 32.1453308,27.2871728 L32.1915293,27.2831583 L32.5002474,27.7837352 C32.5537295,27.8478642 32.5664236,27.9616083 32.6606935,27.9761223 C32.7549633,27.9907392 32.7903405,27.8958323 32.8291514,27.8233655 C32.8699393,27.7737504 32.9134324,27.7470901 32.9540122,27.697475 C33.0109278,27.5777606 32.8992815,27.403902 32.9099988,27.2880992 C32.9225889,27.1952511 32.9868922,27.1435773 32.9975053,27.0278775 C32.9802329,26.8688416 32.8604707,26.8335346 32.7817043,26.7485096 C32.7027299,26.6638964 32.6933654,26.5730041 32.6807753,26.45926 C32.6534099,26.20892 32.7835773,26.1286301 32.807717,25.9200821 C32.8157289,25.7814276 32.7368585,25.6968143 32.7268697,25.6056132 C32.7194821,25.5374697 32.7348816,25.4673704 32.8037631,25.4610913 C32.9620241,25.4240344 32.9814815,25.6062308 32.9941757,25.7196661 L32.9728453,25.9510658 C32.9601511,26.0444286 32.9214443,26.1164837 32.9340344,26.2300219 C32.9668104,26.3190614 33.0202924,26.3832933 33.050363,26.4493781 C33.103845,26.5134042 33.1112326,26.5819595 33.1620093,26.6233397 C33.2100807,26.6417652 33.2354691,26.6621465 33.2816675,26.6582349 C33.3297389,26.6771751 33.3778103,26.6956006 33.4240088,26.6916891 C33.5363834,26.6585437 33.6518796,26.4416579 33.7588436,26.3637355 C33.8230429,26.3118559 33.9173127,26.3266786 33.9860902,26.3202966 C33.9473834,26.3927634 33.8451016,26.5166982 33.8043138,26.5661074 C33.7174315,26.619531 33.5590665,26.6565879 33.5509505,26.7951396 C33.5021508,26.9833062 33.7542654,26.9607633 33.7488548,27.1217549 C33.7381376,27.2375577 33.5603151,27.092727 33.5062088,27.2351902 C33.4294194,27.3797121 33.5309728,27.4627813 33.56635,27.5744667 C33.5737376,27.6426102 33.5356551,27.7145624 33.5196313,27.7850734 C33.4226561,27.9542999 33.3411845,27.8468349 33.210705,27.9272278 C33.1011397,27.9831219 32.9808572,28.1544071 32.8684826,28.1874495 C32.7796233,28.2182273 32.7027299,28.1559512 32.6339525,28.1619214 C32.5422839,28.1702592 32.4654945,28.314987 32.3130604,28.1906405 C32.158025,28.0435452 32.3344948,27.9593437 32.2964123,27.8247037 L32.2027667,27.6034946 C32.0724954,27.6838875 31.9448253,27.787338 31.9875901,27.9671669 C32.0510609,28.1218794 32.2034951,28.2462259 32.1240004,28.367896 C32.0596971,28.4195698 31.9220382,28.4317162 31.8150742,28.5101533 C31.6848028,28.5907521 31.5491208,28.8322395 31.5056276,28.8592087 C31.4415325,28.9107796 31.372651,28.9168528 31.3092841,28.9683207 L31.0786039,29.1955001 C31.0584181,29.2203076 31.0584181,29.2203076 31.037712,29.2451151 L30.7504283,29.1557668 L30.7677007,29.3148027 C30.6527248,29.3250963 30.6527248,29.3250963 30.558559,29.3105823 C30.4877005,29.2937008 30.3472322,29.2834073 30.3112307,29.3783141 C30.2724198,29.450678 30.4636648,29.5025576 30.5124645,29.5210861 C30.8044306,29.655932 30.8619705,29.9721509 30.7371098,30.0983502 C30.6527248,30.1744198 30.5076782,30.1186285 30.4135124,30.1040117 C30.2016654,30.0768366 29.8680791,29.9916057 29.6595617,29.9872824 C29.3841397,30.0114723 29.4723746,30.1873897 29.4189967,30.3298529 C29.4054701,30.4231127 29.3186919,30.4766393 29.3032924,30.5468416 C29.2824823,30.5715462 29.2852916,30.5943979 29.2878929,30.6171467 C29.2852916,30.5943979 29.3634336,30.8859122 29.3607283,30.8631634 C29.3935043,30.951997 29.5545746,30.9378948 29.6489485,30.9524087 C29.7677743,30.9874069 29.7985733,31.0540064 29.8974214,31.1141209 C29.9943965,31.1510749 30.0377856,31.1243116 30.1273732,31.0935337 C30.3332894,31.0751082 30.5297369,31.1725885 30.8359579,31.0075823 C30.90203,30.9788632 30.9663333,30.9272924 30.98423,30.8796331 C31.0457239,30.8056222 31.015029,30.7392286 31.09931,30.6628502 C31.2042971,30.5615614 31.4081322,30.5205929 31.5157205,30.4422588 C31.5998975,30.3658804 31.5391319,30.2337108 31.6947916,30.1739051 C31.8071663,30.1410686 31.9314027,30.2218732 32.0871665,30.1619645 C32.2222242,30.1268634 32.3678951,29.9763712 32.5035771,29.9413731 C32.641236,29.9291237 32.7268697,30.0821893 32.9180106,30.1341719 L33.6765396,30.2960899 C33.699951,30.2941341 33.7481264,30.3129714 33.7735148,30.3337644 C33.9767256,30.4991823 33.6840313,30.5711344 33.5717606,30.6042798 C33.482069,30.6349546 33.459386,30.6370134 33.3671971,30.6452482 C33.3932098,30.6658354 33.3951868,30.6885842 33.4206792,30.7093772 C33.5175503,30.7467429 33.7514561,30.7718593 33.8363614,30.6954809 C33.8771492,30.6459688 33.8724669,30.6002653 33.8651834,30.5321218 C33.9540426,30.5014469 33.9974317,30.4746836 34.0336413,30.3794679 C34.0262537,30.3114273 33.9954547,30.2452396 34.059654,30.1935658 C34.1004418,30.1440537 34.1920063,30.1358188 34.2615122,30.1294368 C34.1545481,30.0015905 34.0676659,30.0550142 33.9273016,30.0445147 C33.8564431,30.028045 33.8283495,29.9842973 33.7568667,29.9679305 C33.6880892,29.9741066 33.6245143,30.0256775 33.5276432,29.9883118 C33.4560564,29.9714303 33.3798913,29.9092571 33.3090328,29.8927873 C33.2347407,29.8533629 33.0464091,29.824335 33.0570223,29.7085322 C33.075023,29.6609759 33.0957291,29.6361683 33.1411992,29.6321538 C33.1620093,29.6074492 33.1846924,29.6053905 33.2081038,29.6031259 L33.2408797,29.6924742 C33.4856067,29.6017878 33.405904,29.7235608 33.6178551,29.750633 C33.8083717,29.8025126 34.032913,29.7367366 34.2267593,29.811468 C34.3464175,29.8464662 34.3076066,29.9188301 34.4118653,30.0243393 C34.5390151,30.1280986 34.7200632,30.0888801 34.8804052,30.074572 C34.8603234,30.0993795 34.8371201,30.1017471 34.8396174,30.1241871 C34.8008065,30.196551 34.8516872,30.2379312 34.900487,30.2563567 C35.0727948,30.3559986 35.3289674,30.1496122 35.1098368,30.0544995 L35.4620481,29.8855818 C35.2916132,29.8087917 35.2072282,29.8851701 34.9833113,29.7443539 C35.0984953,29.7340603 35.1209702,29.7321045 35.2053553,29.6557261 L35.2186737,29.5624663 L35.5915911,29.3686381 C35.4733896,29.5627751 35.6063663,29.5053369 35.6511081,29.7079146 C35.7661881,29.697724 35.9084252,29.7307664 36.0235052,29.7207816 C36.1130928,29.6897979 36.3576117,29.5992144 36.4217069,29.5476435 C36.4852818,29.4960727 36.5013056,29.4258704 36.5646725,29.3744025 L36.8302096,29.2589085 C36.937798,29.1805744 37.0193736,29.0814472 37.1015736,28.98232 C37.1422574,28.932602 37.1831493,28.8830898 37.2547361,28.8998684 C37.3509829,28.9372341 37.3756429,29.1647223 37.3856318,29.2557175 C37.4163267,29.3218023 37.4491027,29.4104301 37.4565943,29.4787795 C37.4424434,29.7783227 37.1242567,29.8296877 36.9324914,29.9842973 C36.8048213,30.0875419 36.7072218,30.2567684 36.5742451,30.3146184 C36.4031859,30.4446263 35.9131075,30.6257934 35.6884623,30.6915693 L35.2119104,30.7797853 C35.1024492,30.8355766 34.9746751,30.9388212 34.9386735,31.033728 C34.9024639,31.1289437 34.9605242,31.2384674 34.8510629,31.2939498 C34.7413936,31.3498439 34.2849235,31.4129436 34.1678666,31.4007972 C33.979535,31.3713575 34.0429018,31.3197867 33.7675839,31.3441825 C33.5155733,31.3667254 33.2428567,31.413973 32.9829382,31.3679606 C33.023622,31.3184485 33.105822,31.2192184 33.1212215,31.1491191 C33.1392222,31.1014598 33.1138339,31.0806668 33.1086314,31.035375 C33.1064463,31.0128321 33.1011397,30.9673344 33.0757514,30.9465414 C33.0222694,30.8824124 32.8391403,30.8985733 32.7703628,30.9047494 C32.6117897,30.9418063 32.6399874,30.9852453 32.3879768,31.0075823 L31.5411089,31.1057831 C31.1286523,31.1422224 30.799124,31.3094931 30.6386779,31.3236982 C30.523702,31.3338889 30.2663848,31.3108313 30.1467266,31.2754213 C30.0499596,31.2380556 29.9483021,31.1550894 29.8386328,31.2109835 C29.7263622,31.2440259 29.6902566,31.3389327 29.5579042,31.3964739 C29.4249275,31.4543238 29.172917,31.4767638 29.0218355,31.5818613 C28.8714823,31.6870617 28.9500405,31.7719838 28.7738829,31.8562882 C28.6846074,31.8873748 28.3842133,31.8909776 28.2692374,31.9012712 C28.0146255,31.9009624 27.8868514,32.004104 27.6647033,32.0927318 L27.4196641,32.1833153 C27.3304928,32.2139902 27.1493406,32.2531058 27.110946,32.3254697 C27.0724472,32.3975248 27.1282184,32.4845055 27.13571,32.5529579 C27.1429936,32.6209984 27.1275941,32.6912007 27.1118824,32.7615058 C26.9919121,32.9327911 26.6827777,33.0749454 26.7332423,33.3232266 C26.7733017,33.4804096 26.8676756,33.4948207 27.0453941,33.6397543 C27.2789877,33.8715658 27.4536887,34.2004457 27.7053871,34.3845979 C28.0306493,34.6084834 28.5011662,34.88816 28.9035299,34.9671118 L29.6020217,34.9968602 C29.9762917,35.0322701 30.2637836,35.1219272 30.6568868,35.1096779 L31.5204028,34.9642296 C31.7041562,34.9480686 31.9769769,34.9008211 32.1680138,34.9527008 C32.3591548,35.0044775 32.3967171,35.1390146 32.7408125,35.1083397 L33.2201736,35.0428725 C33.3324442,35.0101389 33.4219278,34.9790523 33.543667,35.037314 C33.8390667,35.1947029 33.3383751,35.4915698 33.5670784,35.6779866 C33.6940201,35.78154 34.1144886,35.8129354 34.2829466,35.8666679 C34.3998995,35.879329 34.7688629,36.0761423 34.8477333,36.1610644 C34.89851,36.2023417 34.9031923,36.2480452 34.9565702,36.3121742 C35.009428,36.3763032 35.1298145,36.4113014 35.1370981,36.4797537 C35.1444857,36.5478972 34.9961095,36.6758465 34.9553216,36.7254615 C34.8297325,36.851352 34.5863582,37.1713795 34.7233928,37.3658253 C34.7768748,37.4299543 34.9219214,37.4858485 34.9961095,37.52517 L35.665259,37.7182776 C35.955144,37.8303747 35.9800121,38.0578628 36.1558576,38.1798418 C36.280094,38.2607494 36.4865304,38.2423238 36.6497859,38.2509705 L37.3396414,38.4191676 C37.5794781,38.4899874 37.4792773,38.6364651 37.667713,38.665493 C38.0653944,38.699256 38.6758594,38.346392 38.999977,38.1342412 L39.6584093,37.8003174 C39.9217614,37.6620746 40.1588928,37.5030388 40.3963363,37.3444146 C40.8461471,37.0061675 41.2144862,36.5601466 41.4375707,36.0582315 C41.5145682,35.9137096 41.7323461,35.5727862 41.7458727,35.480041 C41.7765676,35.3394306 41.6287117,35.2607877 41.6856274,35.1411762 C41.7598155,34.9734938 42.0592731,34.7403441 42.13086,34.5505305 C42.1903769,34.4533591 42.1730005,34.2943232 42.07332,34.2342087 C41.9770732,34.196843 41.9128739,34.2484138 41.721733,34.1965342 C41.8661552,33.8164951 42.1274263,33.4489113 42.344788,33.1080908 C42.4449888,32.9616131 42.6240599,32.6930535 42.6274935,32.5093131 C42.6282219,32.3026179 42.4415551,32.29603 42.3634131,32.2114168 C42.287144,32.1492436 42.3045204,32.1016872 42.2564491,32.08285 C42.1602022,32.0457931 42.0065195,32.1281417 41.9123537,32.1135248 C41.8433681,32.1194951 41.7925914,32.0782178 41.74452,32.0596894 C41.670332,32.0203679 41.5812646,32.0510428 41.5124872,32.057116 C41.4090609,31.7449116 41.6247578,31.174853 41.7305773,30.8671779 C41.9362853,30.206124 42.2118113,29.5386881 42.1121309,28.8361511 L42.0065195,28.2945028 C41.9764489,28.2280062 41.9209899,28.1415402 41.8315064,28.1721121 C41.6964487,28.2072132 41.5773107,28.6080453 41.5213315,28.7276567 L41.2111566,29.2834073 C41.1316619,29.4050774 41.0800528,29.5703923 40.9751698,29.6715783 C40.8907848,29.7479566 40.7578081,29.8054978 40.6482428,29.8610831 C40.6128656,29.7496036 40.5466894,29.7783227 40.4572059,29.8094093 L40.0413156,30.0298979 C39.9545374,30.0836304 39.7834782,30.2134324 39.6683982,30.223726 C39.5768336,30.2319609 39.5233516,30.1678319 39.388398,30.2026242 C39.2968334,30.210859 39.1410697,30.2706648 39.0695869,30.2537833 C38.975317,30.2392693 38.8737636,30.1566119 38.7793897,30.1420979 C38.7086353,30.1252164 38.5728493,30.1603176 38.506569,30.1890366 C38.2772415,30.2094179 37.9182669,30.1032911 37.6811355,30.0557348 C37.7246287,30.0289714 37.7706191,30.0249569 37.7659368,29.9793564 C37.7995451,29.8617007 37.616312,29.6712694 37.8408532,29.6053905 C37.8636403,29.6034347 37.9096307,29.5992144 37.9324178,29.5972586 L38.3246886,29.585318 L38.5522473,29.5422909 C38.6692001,29.554952 38.6998951,29.6210368 38.8602371,29.6068316 L39.4237752,29.4649861 C39.653727,29.4443989 39.7465402,29.6660197 39.984608,29.5069839 C40.1784543,29.3750201 40.3609591,28.9225143 40.4304649,28.7097459 L40.6308663,28.2098895 L40.7085921,27.8587754 C40.7958906,27.5982449 40.8754893,27.4765747 40.8433377,27.181046 L40.796619,26.7488184 C40.7766412,26.5670338 40.739183,26.4324967 40.550019,26.6100609 C40.4037239,26.7608619 40.3522188,26.9260739 40.118313,26.9009576 C40.0561948,27.1819724 40.0955259,27.5457476 39.8120921,27.708695 C39.7043997,27.7870292 39.5849496,27.7516192 39.4733033,27.7847646 C39.4063987,27.8134837 39.3194124,27.8674221 39.271341,27.8485848 C39.2024595,27.8544521 39.1517869,27.8131749 39.1442952,27.7450314 C39.1570935,27.6521832 39.3128572,27.5923775 39.3796577,27.5634526 C39.6017017,27.4749277 39.7139723,27.4418854 39.877644,27.2438368 C39.9771163,27.0970503 39.9878336,26.9812475 40.0673282,26.8595774 C40.149008,26.7604502 40.2204907,26.7770229 40.3020664,26.6781015 C40.3635603,26.6036789 40.4765593,26.3640443 40.5352438,26.2671817 L40.8159724,25.4386513 C40.9516544,25.1969579 41.179109,25.1539308 41.2385219,24.8501671 L41.2738991,24.9618525 C41.5166492,24.8484172 41.5145682,24.6190762 41.4672252,24.3938526 C41.6047801,24.3816033 41.8848843,24.4024992 41.9971549,24.3697657 L42.5177201,24.0480912 C42.6481996,23.9673895 42.862752,23.8106183 42.893551,23.6701109 C42.9294484,23.575204 42.780552,23.2671171 42.72707,23.2029881 C42.6996006,23.1596521 42.6742123,23.1388591 42.6254125,23.1202277 C42.5057543,23.0850236 42.3480136,23.1219776 42.2617556,22.9688091 C42.1548957,22.840654 42.0364861,22.3919567 41.9484592,22.2160394 C41.7584628,21.7508724 41.7458727,21.8437205 41.6569094,21.6680091 C41.5987451,21.5584853 41.6094623,21.4426825 41.5966641,21.3289385 C41.5640963,21.2402078 41.5106143,21.1760788 41.506036,21.1303752 C41.495735,21.0394829 41.5599343,20.9879121 41.6215322,20.9136953 C41.7185074,20.744263 41.7036282,20.607873 41.8087193,20.5066871 C41.8927922,20.4303087 41.9669803,20.4698361 42.0050628,20.3974722 C42.1462595,20.2013794 41.8053897,20.048005 41.9202615,19.8311193 C41.9790501,19.7340508 42.1455311,19.5586481 42.260507,19.5483546 C42.3494703,19.5176797 42.4236584,19.5567953 42.5124136,19.5261204 C42.5992958,19.472285 42.6054348,19.3111904 42.6415404,19.2161806 C42.7310239,18.9786048 42.8713882,18.9892072 42.9055168,18.6648564 C42.916234,18.5490536 42.9215406,18.3877531 42.8660816,18.3009782 C42.7591176,18.1725143 42.6086604,18.2778177 42.5726589,18.3729304 C42.4931642,18.4944976 42.5105407,18.6539452 42.5252118,18.7902322 C42.5170958,18.9286809 42.4909791,19.114583 42.4115885,19.236459 C42.3146133,19.4058914 42.1160848,19.2857653 42.0600015,19.1989904 C42.0325321,19.1554485 42.0506369,19.1079951 42.0453304,19.0623945 C42.0485559,18.8784482 41.995178,18.8144221 42.0418967,18.6037125 C42.0545909,18.5106585 42.1420974,18.2503338 42.1148362,18.2068949 C42.1067202,18.1386484 41.8961218,17.905087 41.8433681,17.8407522 C41.7392135,17.7352429 41.5512981,17.499314 41.3776376,17.6066761 C41.2244751,17.6890247 41.2565227,17.9847594 41.2279088,18.1479127 C41.2123012,18.2181149 41.1809819,18.3586223 41.1121004,18.3647984 C41.0693356,18.3915618 40.9926503,18.3293885 40.9424979,18.2880083 C40.8127468,18.161809 40.7338764,18.0769899 40.7118177,17.8722505 C40.7826762,17.8889261 40.9738172,17.9409087 40.9870316,17.8478547 C40.9771468,17.7569624 40.8683098,17.6058526 40.7760169,17.6140875 C40.6818511,17.5995735 40.6690529,17.6924216 40.54388,17.6118229 C40.4423266,17.5289595 40.2170571,17.1586994 40.1101971,17.0303384 C39.9759718,16.8586414 39.7753622,16.7157665 39.5788106,16.6183892 C39.4598807,16.5832881 39.0728125,16.4338253 38.9653282,16.5122624 C38.9219391,16.5390257 38.9291186,16.6071692 38.9111178,16.6546226 C38.8858335,16.6341384 38.8602371,16.6132424 38.814871,16.6173599 C38.6492224,16.5861703 38.6003186,16.7741311 38.5896014,16.8899339 C38.5942837,16.9353286 38.6042726,17.0264268 38.5379923,17.0551459 C38.4712959,17.083968 38.4204151,17.0425878 38.3695344,17.0012076 C38.2451939,16.9204029 38.2425926,16.8976541 38.074759,16.8437158 C38.1074309,16.9326523 38.1403109,17.0216918 38.1957699,17.1084667 C38.3307235,17.2801636 38.422288,17.2719288 38.4009577,17.5035344 C38.2077357,17.428803 37.9892294,17.3335873 37.856877,17.1844333 L38.0354279,17.1226718 L38.0305375,17.0773801 C37.9570778,17.0378527 37.7050672,16.8535976 37.6950783,16.7628082 C37.6876907,16.6945617 37.7792553,16.6862239 37.7720758,16.6180804 C37.7879955,16.5478782 37.7139115,16.5085567 37.749913,16.4135469 C37.8114069,16.3390214 37.9442795,16.2813773 37.9342907,16.190485 C37.9289841,16.1449874 37.8782074,16.1037101 37.830136,16.0849758 C37.7310798,16.0248613 37.5553383,15.9028823 37.4504553,16.0038624 C37.3662784,16.0802407 37.4298533,16.2352621 37.3831346,16.4459717 C37.3114437,16.429502 37.1891842,16.3713433 37.1183258,16.3547706 C37.0240559,16.3401537 36.9143866,16.395739 36.7921271,16.3378891 C36.6237732,16.2838478 36.563632,16.1514723 36.4184813,16.0953723 C36.1511753,15.9815253 35.9265301,16.0474042 35.6766005,16.092593 C35.5622489,16.1026807 35.3783914,16.1190475 35.2688261,16.17453 C35.1818398,16.2283654 35.1430289,16.3005234 35.1049464,16.3727844 C35.0028728,16.4967191 34.8008065,16.5604364 34.8210963,16.742221 C34.8610518,16.899507 35.0015201,16.9100064 35.0521928,16.9511808 L35.198592,17.2368277 C35.0408512,17.2736787 34.9666632,17.2345631 34.8297325,17.2466066 L34.2862762,17.3636446 C34.0081489,17.3654974 33.921891,17.2124319 33.7514561,17.1357447 C33.6552092,17.098379 33.5864318,17.1043493 33.5122437,17.0651307 C33.4359746,17.0031633 33.4286911,16.934814 33.4033027,16.913918 C33.3498207,16.8500978 33.1159149,16.8247756 33.0470334,16.8308488 C33.0517157,16.8765523 33.054421,16.8990952 33.0135291,16.9485044 C32.9748223,17.0209712 32.7783747,17.1302891 32.6867061,17.138421 C32.643317,17.1651843 32.5717302,17.1486117 32.5235548,17.1299803 L32.536353,17.0368234 C32.5470702,16.9213294 32.4781887,16.9274026 32.3893295,16.9581804 C32.2536475,16.9931786 32.1721759,17.0922028 32.0643794,17.1706399 C32.1031903,17.098379 32.1392959,17.0033692 32.2007898,16.9290495 C32.2849667,16.8527741 32.3974454,16.8196288 32.5069067,16.7640434 L32.8538114,16.5496281 C32.9406937,16.4961015 33.0738785,16.4382515 33.1372453,16.3866807 C33.3291146,16.2318652 33.3691741,15.7464199 33.3190217,15.4983445 C32.9642091,15.6444105 33.0583749,15.6589244 32.8183302,15.7951085 C32.731552,15.8487381 32.6853535,15.8529584 32.6191773,15.8816775 C32.5557064,15.9333513 32.5396826,16.0036565 32.5242831,16.0737558 L32.5242831,16.0737558 Z M42.1435541,14.8525252 C42.2118113,15.05325 42.2597787,15.0719843 42.371529,15.2456371 C42.4296933,15.3552637 42.4142938,15.4255689 42.5491434,15.3906736 C42.4685042,15.2831057 42.2432346,14.9127426 42.1435541,14.8525252 L42.1435541,14.8525252 Z M35.0335677,15.7132745 C35.0201452,15.8064314 35.0121333,15.9449831 34.8998627,15.9778196 C34.8771796,15.9798783 34.7829098,15.9652614 34.7573133,15.9444684 L34.6699108,16.204896 C34.6310999,16.277054 34.5588888,16.4671765 34.5669007,16.5355259 C34.5562875,16.6510199 34.7167336,16.6367118 34.7983093,16.5377905 C34.8831105,16.4614121 34.8938277,16.3456093 34.9526163,16.2486437 C35.0475105,16.0565655 35.223356,15.9719522 35.2446864,15.7406555 L35.0335677,15.7132745 Z M41.415512,15.3994232 L41.396991,15.6534688 L41.0833825,15.5435333 C41.0781799,15.7049367 41.1509113,15.9509533 41.2807665,16.0770497 L41.5324649,16.2614078 C41.7357798,16.4270315 41.941696,16.6154041 42.1242007,16.8057324 C42.2845427,16.9982224 42.2918263,17.0664689 42.3473893,17.1532438 C42.39827,17.194521 42.4489427,17.2361071 42.5152229,17.2071821 C42.5587161,17.1803159 42.5693292,17.064616 42.58733,17.0170597 L42.6642234,16.8725378 C42.6977277,16.7547792 42.6093887,16.5790677 42.5512244,16.4693382 L42.3995186,16.1386054 C42.3359437,15.9834811 42.2978612,15.8490469 42.1915215,15.7208918 C42.0112018,15.5532093 41.8735428,15.5653557 41.6829221,15.5132702 L41.415512,15.3994232 Z M42.6835768,15.7688599 C42.7056355,15.9735992 42.7886679,16.310714 42.8774231,16.4863226 L43.0800097,16.8586414 L43.319118,17.5719867 C43.4422098,17.4233474 43.376762,17.2454743 43.3365985,17.0883942 C43.2330681,16.7761898 43.0839636,16.468 42.9597271,16.1807061 C42.8734692,16.0276405 42.8107267,15.8724133 42.6835768,15.7688599 L42.6835768,15.7688599 Z M39.2519876,16.1653687 C39.2565659,16.2107634 39.2820583,16.2315564 39.3101519,16.2748924 C39.3354362,16.2956854 39.3609286,16.3163755 39.386317,16.3370656 C39.5339648,16.4158115 39.6109622,16.2712896 39.5547749,16.1843089 C39.5275136,16.1408699 39.4331397,16.1262531 39.3870453,16.1304734 C39.3415752,16.1345909 39.2953767,16.1386054 39.2519876,16.1653687 L39.2519876,16.1653687 Z M42.9670107,20.0825915 C43.0873972,19.9111004 43.1193408,19.5641037 43.1655393,19.3531882 C43.2745843,18.8615667 43.5044321,18.6345932 43.4375276,18.020581 C43.4227524,17.884294 43.3701028,17.6134698 43.2049744,17.5820744 C42.9476573,17.5591197 43.0532686,17.89397 43.0378692,17.9641722 C43.0453608,18.0325216 43.0271519,18.079975 43.0090471,18.1275314 C42.8962563,18.367063 42.9490099,18.6378872 42.9529639,18.89008 L42.9041641,19.7207721 L42.9670107,20.0825915 Z M22.0778098,19.4804169 C22.0998685,19.6851563 22.0738558,19.8710584 22.0016447,20.0610779 C21.9093518,20.2760079 21.6867876,20.5712278 21.6399648,20.7818345 L21.586899,20.7176026 C21.4869063,20.8642861 21.4755648,21.1867841 21.5391397,21.3417025 C21.6641045,21.2159149 21.6928225,21.0525558 21.7696118,20.9080339 C21.9210055,20.5962412 22.1231758,20.3259318 22.2007976,19.9745089 C22.2141161,19.8815578 22.2328452,19.6273063 22.1767619,19.5405314 C22.1488763,19.4969896 22.1258811,19.4991512 22.0778098,19.4804169 L22.0778098,19.4804169 Z M21.2649664,20.9529139 C21.3468542,20.8538896 21.37526,20.6905305 21.3859772,20.5748306 C21.2329188,20.6574881 21.247694,20.7936722 21.2649664,20.9529139 L21.2649664,20.9529139 Z M28.6391373,20.3901637 C28.6850236,20.3860463 28.7311181,20.3820318 28.7745072,20.3552685 C28.8587882,20.2788901 28.8113411,20.0534606 28.7370489,20.0142421 C28.6658783,19.9975665 28.6275877,20.0698274 28.6325821,20.1152221 L28.6168705,20.1857332 L28.6291485,20.2992714 L28.6391373,20.3901637 Z M28.0453205,20.4659245 L28.1238787,20.5507436 C28.2819316,20.5136867 28.3328123,20.554964 28.4754657,20.5883152 L28.4195905,20.5014374 L28.4783791,20.4044718 C28.6161421,20.3923254 28.6268593,20.2764196 28.5686951,20.1668959 C28.5433067,20.1461029 28.4948191,20.1275744 28.4694308,20.1066785 C28.2225187,19.9681268 28.1991073,20.1767778 28.1402146,20.2737433 L28.0453205,20.4659245 Z M28.7270601,20.7725703 C28.712493,20.6361803 28.7377773,20.6569734 28.8547302,20.6694286 L28.8530654,20.4399847 C28.786577,20.4688067 28.6950125,20.4771445 28.6308133,20.5285095 C28.5285315,20.6523413 28.5413297,20.7662912 28.7270601,20.7725703 L28.7270601,20.7725703 Z M21.2637178,21.3660983 L21.157378,21.8807774 L21.2049292,22.106001 L21.3004476,22.5565511 C21.3593403,22.4596885 21.4648476,22.1519104 21.4755648,22.0362105 L21.5016815,21.8499996 C21.5096934,21.7116538 21.5276942,21.6643034 21.4669286,21.531825 L21.3184484,21.6597742 L21.309396,21.3621867 L21.2637178,21.3660983 Z M28.4894085,20.9316062 L28.3748488,20.9416939 L28.4053356,21.0077787 C28.5406014,20.9728834 28.63227,20.9646486 28.6378887,20.8034511 C28.5232249,20.8137446 28.5001257,20.8157004 28.4894085,20.9316062 L28.4894085,20.9316062 Z M27.4294449,20.9796772 C27.5841682,21.1266696 27.5868735,21.1492125 27.7934139,21.1308899 C27.7618866,21.2713973 27.5781332,21.4944593 27.427676,21.3931704 C27.328828,21.3329529 27.318735,21.2419577 27.2706637,21.2233263 C27.1967877,21.1840048 27.1910649,21.3452023 27.1502771,21.3946115 C27.0526776,21.5640439 26.8896303,21.5557061 26.8737106,21.8325005 L26.9604888,21.7785621 C27.0487237,21.9545824 27.2124994,21.7565339 27.3224809,21.7007427 C27.3019829,21.7255502 27.260987,21.7753711 27.2431943,21.8226187 C27.2271705,21.8930268 27.3037518,21.9552 27.3702401,21.9260692 C27.4364163,21.8972471 27.515911,21.7753711 27.5794859,21.7236973 C27.6436851,21.6723324 27.6663681,21.6702736 27.7328565,21.6412457 C27.7966395,21.5898808 27.8809205,21.5135024 27.9451197,21.4618286 C28.136885,21.307219 28.1465617,21.3980084 28.2137784,21.1624912 C28.2083678,21.1170965 28.2290739,21.092289 28.2240794,21.0467914 C28.132827,20.8482281 27.8041312,21.0151901 27.7782226,20.9947058 L27.6355692,20.9612517 C27.5873937,20.9426203 27.4979102,20.973604 27.4294449,20.9796772 L27.4294449,20.9796772 Z M28.3888956,21.284676 C28.4497652,21.4170515 28.6735781,21.5577648 28.8006239,21.6614212 C28.844013,21.6346579 28.8644069,21.6098503 28.8825117,21.5623969 C28.9390112,21.4424767 28.9142471,21.2150914 28.7919877,21.1570356 C28.7184239,21.1177141 28.6288363,21.1486978 28.5627642,21.1774169 C28.5600589,21.154771 28.5298842,21.0885833 28.5044958,21.0677903 C28.3240721,20.9002107 28.0981782,21.379377 28.3888956,21.284676 L28.3888956,21.284676 Z M28.1857888,21.1190523 L28.1883901,21.1418011 L28.1625855,21.121214 L28.1857888,21.1190523 Z M28.0523959,22.8756522 L28.1288731,22.9377225 C28.2973311,22.7850686 28.3334366,22.689853 28.4564244,22.5413166 C28.5586021,22.4173819 28.6275877,22.4114116 28.6913707,22.3599437 C28.7320545,22.3102257 28.7270601,22.2646251 28.7424596,22.1945258 C28.7785651,22.0993102 28.8450535,22.0705911 28.8279892,21.9115552 C28.8361051,21.7730036 28.7448527,21.5745433 28.5867999,21.6116002 L28.5513186,21.4999149 C28.4825411,21.5059881 28.3701665,21.5389275 28.3063835,21.5903954 C28.2424964,21.6420692 28.2752723,21.7310058 28.1910954,21.8072812 C28.0887096,21.931113 27.9103668,21.9928745 27.8668737,22.0196378 C27.8003853,22.0487687 27.8307681,22.1148535 27.7231798,22.1931876 C27.5727226,22.298388 27.4734583,22.2381706 27.3841829,22.2692572 C27.2719123,22.3020937 27.1055353,22.4775993 27.0213584,22.5538748 C26.8982665,22.7024112 26.8625772,22.7976268 26.8111762,22.9629417 C26.7930714,23.0101893 26.7546767,23.0825532 26.7824582,23.126198 C26.8101357,23.1696369 26.8790172,23.1632549 26.9227184,23.1364915 C27.0119938,23.1058167 27.2084414,22.9967047 27.2800282,23.0131744 C27.3484935,23.0068953 27.3765872,23.0505401 27.4249707,23.0690686 C27.4962454,23.0855383 27.5420277,23.0816267 27.5904112,23.1001552 C27.6385866,23.1189924 27.6920686,23.1831215 27.7428453,23.2245017 C27.8648967,23.2823516 27.9878845,23.1338152 28.023886,23.0390113 C28.0419909,22.991352 28.0596795,22.9436927 28.0523959,22.8756522 L28.0523959,22.8756522 Z M21.2767241,22.765202 C21.2202246,22.8852252 21.2096114,23.0009251 21.33416,23.0816267 C21.3218821,22.9681915 21.3551783,22.8501241 21.2767241,22.765202 L21.2767241,22.765202 Z M42.9630568,22.8148171 C42.8534915,22.8704024 42.8146806,22.9427663 42.8272707,23.0560987 C42.8165535,23.1721073 42.9181069,23.2547648 43.0304816,23.2218253 C43.1861413,23.1623284 43.2129863,22.7695253 42.9630568,22.8148171 L42.9630568,22.8148171 Z M11.2693443,26.5922531 C11.2602919,26.9372939 11.3521686,26.9290591 11.4299984,27.2206763 C11.4704741,27.3777563 11.4066911,27.4293272 11.5330085,27.7393699 C11.5938782,27.8719512 11.6312323,28.0061795 11.7762789,28.0620737 C11.7345546,27.6755497 11.6866913,27.450429 11.5556916,27.0947857 C11.4621501,26.8734737 11.3906673,26.857004 11.3150225,26.5878268 L11.2693443,26.5922531 Z M30.1749244,25.1437401 L30.1695137,25.3047318 L30.1160317,25.2406027 L30.1226909,25.5153385 C30.1634788,25.6727273 30.3419256,25.6109658 30.3827134,25.5612478 C30.4262066,25.5344845 30.4389008,25.4413276 30.4342185,25.3959329 C30.4295362,25.3506411 30.4014425,25.3070993 30.3760542,25.2865121 C30.3272545,25.2676749 30.3044674,25.2697336 30.258477,25.2736451 L30.2437018,25.137461 L30.1749244,25.1437401 Z M30.3105023,28.0928515 C30.2637836,28.3038699 30.394159,28.2231683 30.4729253,28.3080903 C30.523702,28.3493676 30.5311937,28.4175111 30.5384772,28.4859634 L30.3574291,28.5249761 L30.2777264,28.6466462 L30.1755487,28.7706839 L30.4863478,28.8579735 C30.3306881,28.9174704 30.2364183,28.9028535 30.1367378,29.0497429 L30.5264073,29.0149506 C30.7811232,29.0153624 30.9722642,29.067242 31.212309,28.930955 L31.1615323,28.8896777 L31.2310381,28.6768064 L31.0578979,28.5775763 L30.9970282,28.4453038 L30.7055825,28.1037627 L30.6087114,28.066397 C30.6909113,27.9671669 30.856664,27.7916613 30.6200529,27.744002 L30.5029959,27.7314438 L30.6052777,27.6075091 C30.4649134,27.5972155 30.3479605,27.5846573 30.2429735,27.6858433 C30.1199856,27.8342767 30.116656,28.0181201 30.3105023,28.0928515 L30.3105023,28.0928515 Z M36.4672811,27.40874 L36.4919411,27.6359194 L36.4652001,27.8221303 C36.7152337,27.7768385 36.8690205,27.6944899 37.0908564,27.6057592 C37.1571366,27.5770401 37.289385,27.5192931 37.340786,27.5605704 C37.4144538,27.6003036 37.3756429,27.6722557 37.3574341,27.719915 C37.3215366,27.8148218 37.178467,27.9883716 37.1168691,28.0627942 C36.9304104,28.2627986 36.6550924,28.2872973 36.4224353,28.4916249 C36.2973664,28.6176183 36.2641743,28.7351711 36.1383771,28.8612674 C36.0134123,28.9868491 35.9237207,29.0179358 35.8596255,29.0695066 C35.7982356,29.1439292 35.8495326,29.1852065 35.7193653,29.2655994 L35.7935534,29.0985345 C35.7226949,29.081653 35.630402,29.0899908 35.57692,29.025553 C35.5468494,28.959777 35.5394618,28.8913247 35.5547572,28.8212254 C35.5863886,28.680718 35.6150025,28.3107666 35.6972025,28.2115365 C35.7180126,28.186729 35.8964594,28.1248645 35.9625316,28.0961455 L35.9318366,28.2366529 C36.0006141,28.2306826 36.1150698,28.2204919 36.1583548,28.1936257 C36.2708335,28.1606862 36.3836244,27.9209487 36.442517,27.8240861 L36.1310936,27.9434916 C36.1853039,27.8009255 36.3388826,27.5118817 36.4672811,27.40874 L36.4672811,27.40874 Z M29.8259386,28.1130269 C29.6574807,28.2654749 29.6702789,28.1728326 29.5840209,28.2264622 C29.5198217,28.2776213 29.5733037,28.3418533 29.5145151,28.4389218 C29.4964103,28.486581 29.4296098,28.5154031 29.4350205,28.5610036 C29.4195169,28.6311029 29.4930807,28.6704244 29.5645635,28.6869971 C29.6588333,28.701511 29.9342553,28.6774241 30.0204092,28.6238974 C30.1054185,28.5474161 30.0719142,28.4585825 30.1107251,28.3861157 C30.1314312,28.3613081 30.172219,28.311796 30.1929251,28.2869885 C30.202914,28.1712886 29.956314,28.0323252 29.8259386,28.1130269 L29.8259386,28.1130269 Z M32.591916,30.1172904 C32.486929,30.2180645 32.4487424,30.2906343 32.6191773,30.3672186 L32.591916,30.1172904 Z M32.4200244,30.4537876 L32.48079,30.5861631 C32.4834953,30.6088089 32.5108606,30.6522479 32.534272,30.6502921 C32.6894115,30.7972844 32.9066691,30.4565669 32.647271,30.4107604 C32.6238596,30.4128191 32.5757882,30.3938789 32.5550821,30.4187894 C32.509716,30.4231127 32.4635176,30.4271272 32.4200244,30.4537876 L32.4200244,30.4537876 Z M43.8091963,31.8765666 C43.8217865,31.9898989 43.7824553,32.2689579 43.8359374,32.3330869 C43.8912923,32.4199648 44.0980408,32.4014363 44.1875244,32.3707615 C44.4321474,32.2798691 44.6755217,31.9601504 44.7884167,31.7204129 C44.8680154,31.5987428 44.9214974,31.4562796 44.9040169,31.2969349 L44.7328536,30.7841086 C44.6900888,30.6042798 44.6326529,30.2881638 44.4388066,30.2134324 C44.4569114,30.165979 44.5184053,30.0914535 44.5110177,30.02331 C44.466276,29.8206293 44.1240535,29.8739501 44.00169,30.0226924 C43.940092,30.097115 43.9575725,30.2561508 43.944254,30.3489989 C43.9408204,30.533254 43.8887951,30.9050582 43.814607,31.0724319 C43.7404189,31.2393938 43.5325258,31.4646174 43.5298204,31.6486666 C43.5443875,31.7848507 43.6922435,31.8636996 43.8091963,31.8765666 L43.8091963,31.8765666 Z" id="Fill-46" fill="#222222" mask="url(#mask-5)"></path>
                </g>
            </g>
            <text id="UNITED-NATIONS" font-family="AvenirNext-DemiBold, Avenir Next" font-size="12.4032" font-weight="500" fill="#222222">
                <tspan x="0" y="67.488">UNITED NATIONS</tspan>
            </text>
        </g>
    </g>
</svg>