<?xml version="1.0" encoding="UTF-8"?>
<svg width="300px" height="200px" viewBox="0 0 300 200" version="1.1" xmlns="http://www.w3.org/2000/svg" xmlns:xlink="http://www.w3.org/1999/xlink">
    <!-- Generator: Sketch 64 (93537) - https://sketch.com -->
    <title>co:</title>
    <desc>Created with Sketch.</desc>
    <g id="co:" stroke="none" stroke-width="1" fill="none" fill-rule="evenodd">
        <rect fill="#FFFFFF" x="0" y="0" width="300" height="200"></rect>
        <g id="Logo" transform="translate(109.000000, 84.000000)" fill="#222222">
            <path d="M27.7656904,4.59642857 C24.8368201,1.76785714 20.8535565,0 16.4016736,0 C7.38075314,0 0,7.425 0,16.5 C0,25.575 7.38075314,33 16.4016736,33 C20.9707113,33 25.0711297,31.1142857 28,28.1678571 L21.6736402,21.8035714 C20.3849372,23.1 18.5104603,24.0428571 16.4016736,24.0428571 C12.3012552,24.0428571 9.0209205,20.7428571 9.0209205,16.6178571 C9.0209205,12.4928571 12.3012552,9.19285714 16.4016736,9.19285714 C18.3933054,9.19285714 20.1506276,9.9 21.4393305,11.1964286 L27.7656904,4.59642857 Z" id="Path"></path>
            <path d="M48.5,23.925 C44.375,23.925 41.075,20.625 41.075,16.5 C41.075,12.375 44.375,9.075 48.5,9.075 C52.625,9.075 56.0428571,12.375 56.0428571,16.5 C56.0428571,20.625 52.625,23.925 48.5,23.925 M48.5,0 C39.425,0 32,7.425 32,16.5 C32,25.575 39.425,33 48.5,33 C57.575,33 65,25.575 65,16.5 C65,7.425 57.6928571,0 48.5,0" id="Shape"></path>
            <path d="M82,6.5 C82,9.53061224 79.5306122,12 76.5,12 C73.4693878,12 71,9.53061224 71,6.5 C71,3.46938776 73.4693878,1 76.5,1 C79.5306122,1 82,3.46938776 82,6.5" id="Path"></path>
            <path d="M82,27.5017635 C82,30.531404 79.5306122,33 76.5,33 C73.4693878,33 71,30.531404 71,27.5017635 C71,24.472123 73.4693878,22.0035271 76.5,22.0035271 C79.5306122,21.8913182 82,24.472123 82,27.5017635" id="Path"></path>
        </g>
    </g>
</svg>