<?xml version="1.0" encoding="UTF-8"?>
<svg width="300px" height="200px" viewBox="0 0 300 200" version="1.1" xmlns="http://www.w3.org/2000/svg" xmlns:xlink="http://www.w3.org/1999/xlink">
    <!-- Generator: Sketch 64 (93537) - https://sketch.com -->
    <title>GEICO</title>
    <desc>Created with Sketch.</desc>
    <g id="GEICO" stroke="none" stroke-width="1" fill="none" fill-rule="evenodd">
        <rect fill="#FFFFFF" x="0" y="0" width="300" height="200"></rect>
        <g id="Group" transform="translate(62.000000, 80.000000)" fill="#222222">
            <path d="M0,11.967 C0,2.957 5.097,0.772 13.561,0.772 L27.759,0.772 C38.499,0.772 39.955,4.686 39.955,10.693 L39.955,11.603 L30.672,11.603 C30.672,8.6 28.943,8.235 25.939,8.235 L15.654,8.235 C10.922,8.235 9.738,9.328 9.738,14.606 L9.738,18.429 C9.738,23.708 10.922,24.8 15.654,24.8 L25.757,24.8 C28.214,24.8 30.672,24.436 30.672,21.524 L30.672,20.614 L18.931,20.614 L18.931,14.242 L40.137,14.242 L40.137,22.98 C40.137,31.808 35.496,32.263 24.938,32.263 L13.561,32.263 C5.097,32.263 0,30.079 0,21.068 L0,11.967" id="Fill-1"></path>
            <polyline id="Fill-4" points="42.413 1.136 76.088 1.136 76.088 8.235 51.878 8.235 51.878 13.242 74.813 13.242 74.813 19.612 51.878 19.612 51.878 24.527 76.634 24.527 76.634 31.899 42.413 31.899 42.413 1.136"></polyline>
            <polygon id="Fill-5" points="79.455 31.899 88.921 31.899 88.921 1.136 79.455 1.136"></polygon>
            <path d="M91.742,11.967 C91.742,2.957 96.839,0.772 105.303,0.772 L116.407,0.772 C129.786,0.772 131.516,3.685 131.424,12.422 L122.05,12.422 L122.05,11.512 C122.05,9.328 120.412,8.691 117.59,8.691 L107.306,8.691 C102.391,8.691 101.48,11.057 101.48,14.879 L101.48,18.156 C101.48,22.616 102.391,24.345 106.851,24.345 L116.862,24.345 C121.14,24.345 122.414,23.89 122.414,20.067 L131.88,20.067 L131.88,22.98 C131.88,28.167 129.968,32.263 120.503,32.263 L105.303,32.263 C96.839,32.263 91.742,30.079 91.742,21.068 L91.742,11.967" id="Fill-6"></path>
            <path d="M143.165,18.156 C143.165,22.616 144.075,24.345 148.535,24.345 L160.64,24.345 C165.1,24.345 166.01,22.616 166.01,18.156 L166.01,14.879 C166.01,11.057 165.1,8.691 160.094,8.691 L149.081,8.691 C144.075,8.691 143.165,11.057 143.165,14.879 L143.165,18.156 Z M133.518,11.967 C133.518,2.957 138.523,0.772 147.079,0.772 L162.187,0.772 C170.651,0.772 175.748,2.957 175.748,11.967 L175.748,21.068 C175.748,30.079 170.651,32.263 162.187,32.263 L147.079,32.263 C138.523,32.263 133.518,30.079 133.518,21.068 L133.518,11.967 L133.518,11.967 Z" id="Fill-7"></path>
            <path d="M170.561,35.631 L170.561,34.174 L171.562,34.174 C172.29,34.174 172.563,34.356 172.563,34.903 C172.563,35.358 172.29,35.631 171.744,35.631 L170.561,35.631 Z M169.832,33.538 L169.832,38.27 L170.561,38.27 L170.561,36.177 L171.379,36.177 L172.653,38.27 L173.473,38.27 L172.107,36.177 C172.927,36.086 173.382,35.631 173.382,34.812 C173.382,33.993 172.744,33.538 171.652,33.538 L169.832,33.538 Z M171.288,32.536 C171.379,32.536 171.379,32.536 171.471,32.536 C173.291,32.536 174.747,33.993 174.747,35.904 C174.747,37.815 173.291,39.271 171.471,39.271 C169.56,39.271 168.103,37.815 168.103,35.904 C168.103,33.993 169.469,32.536 171.288,32.536 Z M171.471,31.808 C169.104,31.808 167.284,33.628 167.284,35.904 C167.284,38.179 169.104,40 171.471,40 C173.746,40 175.566,38.179 175.566,35.904 C175.566,33.628 173.746,31.808 171.471,31.808 L171.471,31.808 Z" id="Fill-8"></path>
        </g>
    </g>
</svg>