<?xml version="1.0" encoding="UTF-8"?>
<svg width="300px" height="200px" viewBox="0 0 300 200" version="1.1" xmlns="http://www.w3.org/2000/svg" xmlns:xlink="http://www.w3.org/1999/xlink">
    <!-- Generator: Sketch 64 (93537) - https://sketch.com -->
    <title>Revlon</title>
    <desc>Created with Sketch.</desc>
    <g id="Revlon" stroke="none" stroke-width="1" fill="none" fill-rule="evenodd">
        <rect fill="#FFFFFF" x="0" y="0" width="300" height="200"></rect>
        <g id="Revlon-grey" transform="translate(51.000000, 83.000000)" fill="#2B2B2B" fill-rule="nonzero">
            <g id="grey">
                <path d="M154.556044,19.387234 C152.887912,28.0680851 147.013187,31.0340426 141.573626,31.0340426 L111.982418,31.0340426 L111.982418,4.48510638 C111.982418,2.67659574 112.49011,2.38723404 114.085714,1.37446809 L102.916484,1.22978723 C103.569231,1.59148936 105.237363,2.38723404 105.237363,4.34042553 L105.237363,29.7319149 C105.237363,31.8297872 104.221978,32.6978723 102.916484,33.2042553 L141.863736,33.2042553 C151.872527,33.2042553 156.006593,29.4425532 158.98022,25.9702128 C162.098901,22.2085106 163.912088,15.3361702 160.285714,9.40425532 C157.674725,5.13617021 152.742857,1.51914894 147.158242,0.578723404 C145.852747,0.434042553 144.184615,0.0723404255 142.226374,0.0723404255 C140.268132,0.0723404255 138.30989,0.217021277 137.004396,0.578723404 C132.435165,1.73617021 126.487912,4.70212766 123.876923,9.6212766 C121.048352,14.6851064 122.571429,20.2553191 124.52967,23.3659574 C126.342857,26.187234 130.767033,29.9489362 136.859341,30.2382979 L137.004396,30.2382979 C133.087912,28.2851064 131.057143,24.5234043 129.969231,19.6042553 C128.953846,15.8425532 129.606593,10.1276596 133.087912,6.65531915 C135.553846,4.05106383 139.18022,2.53191489 142.589011,2.53191489 C146.07033,2.53191489 149.479121,3.83404255 151.945055,6.43829787 C154.556044,9.69361702 155.208791,15.7702128 154.556044,19.387234 L154.556044,19.387234 Z M35.9010989,30.6723404 L26.0373626,18.0851064 C37.0615385,16.2765957 35.9010989,1.01276596 22.9186813,1.01276596 L0.435164835,1.01276596 C1.88571429,1.51914894 2.9010989,2.31489362 2.9010989,3.83404255 L2.9010989,29.8765957 C2.9010989,31.0340426 2.1032967,32.4808511 0.942857143,33.1319149 L11.4593407,33.1319149 C10.2989011,32.4808511 9.13846154,30.8170213 9.13846154,29.8765957 L9.13846154,18.5914894 L18.4945055,18.5914894 L29.3736264,33.2042553 L38.7296703,33.2042553 C37.7142857,32.8425532 36.6989011,31.8297872 35.9010989,30.6723404 L35.9010989,30.6723404 Z M18.4945055,16.2765957 L9.42857143,16.2765957 L9.42857143,3.32765957 L20.3076923,3.32765957 C27.8505495,3.47234043 29.8087912,16.2765957 18.4945055,16.2765957 L18.4945055,16.2765957 Z M76.5164835,4.62978723 C75.7186813,2.8212766 76.6615385,1.80851064 77.967033,1.37446809 L65.4923077,1.37446809 C66.7978022,2.38723404 68.3208791,3.18297872 68.756044,5.13617021 L82.8989011,33.3489362 L86.1626374,33.3489362 L99.3626374,4.12340426 C100.16044,2.31489362 100.813187,2.02553191 101.683516,1.30212766 L94.2857143,1.30212766 C95.5912088,1.66382979 96.7516484,2.74893617 95.9538462,4.77446809 L86.2351648,26.2595745 L76.5164835,4.62978723 L76.5164835,4.62978723 Z M167.320879,29.5148936 C167.320879,31.4680851 165.652747,32.7702128 165,33.1319149 L172.035165,33.1319149 C171.382418,32.6255319 169.931868,31.6851064 169.931868,29.6595745 L169.931868,7.23404255 L192.197802,33.1319149 L195.461538,33.1319149 L195.461538,4.26808511 C195.461538,2.31489362 197.12967,1.66382979 197.564835,1.15744681 L190.52967,1.15744681 C191.182418,1.66382979 192.850549,2.60425532 192.850549,4.41276596 L192.850549,23.1489362 L173.630769,1.15744681 L163.476923,1.15744681 C164.637363,1.66382979 167.393407,2.96595745 167.393407,5.57021277 L167.393407,29.5148936 L167.320879,29.5148936 Z M64.6945055,1.15744681 L38.8747253,1.15744681 C40.0351648,1.80851064 41.1956044,2.31489362 41.1956044,4.26808511 L41.1956044,29.8042553 C41.1956044,31.612766 40.5428571,32.4085106 39.2373626,33.0595745 L66,33.0595745 L68.4659341,25.3914894 C67.1604396,26.8382979 64.0417582,30.8170213 58.4571429,30.8170213 L48.3032967,30.8170213 L48.3032967,18.0851064 L55.7010989,18.0851064 C58.021978,18.0851064 59.3274725,19.387234 60.1252747,20.5446809 L60.1252747,13.0212766 C58.9648352,14.6851064 58.021978,15.6255319 55.7010989,15.6255319 L48.2307692,15.6255319 L48.2307692,3.47234043 L58.6021978,3.47234043 C63.0263736,3.47234043 64.8395604,6.29361702 65.8549451,7.88510638 L64.6945055,1.15744681 L64.6945055,1.15744681 Z" id="Shape"></path>
            </g>
        </g>
    </g>
</svg>