<?xml version="1.0" encoding="UTF-8"?>
<svg width="300px" height="200px" viewBox="0 0 300 200" version="1.1" xmlns="http://www.w3.org/2000/svg" xmlns:xlink="http://www.w3.org/1999/xlink">
    <!-- Generator: Sketch 64 (93537) - https://sketch.com -->
    <title>Special Olympics</title>
    <desc>Created with Sketch.</desc>
    <g id="Special-Olympics" stroke="none" stroke-width="1" fill="none" fill-rule="evenodd">
        <rect fill="#FFFFFF" x="0" y="0" width="300" height="200"></rect>
        <g id="specialolympics" transform="translate(50.000000, 56.000000)" fill="#2D2D2D" fill-rule="nonzero">
            <path d="M95.6254797,45.7275862 C92.2486569,47.4155172 88.8718342,48.95 85.1880276,50.1775862 C84.7275518,49.4103448 84.267076,48.6431034 83.6531082,47.8758621 C86.876439,46.3413793 90.0997698,45.2672414 93.3231005,43.5793103 C93.0161167,43.4258621 92.8626247,43.4258621 92.7091328,43.4258621 C90.2532617,42.9655172 87.7973906,42.3517241 85.3415196,41.5844828 C83.8066002,40.9706897 82.2716807,40.3568966 80.7367613,39.5896552 C80.8902533,38.6689655 80.8902533,37.7482759 81.0437452,36.8275862 C82.4251727,37.4413793 83.8066002,38.0551724 85.1880276,38.5155172 C86.5694551,38.9758621 88.1043745,39.4362069 89.485802,39.7431034 C90.8672295,40.05 92.4021489,40.3568966 93.7835764,40.5103448 C90.4067536,37.7482759 87.1834229,34.6793103 84.7275518,30.9965517 C85.3415196,30.3827586 85.9554873,29.7689655 86.5694551,29.0017241 C86.5694551,29.1551724 86.722947,29.3086207 86.722947,29.3086207 C89.485802,32.9913793 92.7091328,36.0603448 96.3929394,38.8224138 C96.8534152,39.1293103 97.313891,39.4362069 97.6208749,39.7431034 C98.3883346,40.3568966 98.6953185,41.1241379 98.6953185,42.0448276 C98.6953185,46.187931 98.8488104,50.3310345 98.8488104,54.4741379 C98.8488104,57.0827586 99.0023024,59.6913793 99.0023024,62.3 C99.0023024,62.4534483 99.0023024,62.7603448 99.0023024,63.0672414 C98.0813507,63.0672414 97.313891,62.9137931 96.5464313,62.9137931 C96.2394474,59.9982759 95.9324635,57.2362069 95.7789716,54.4741379 C95.7789716,51.5586207 95.6254797,48.6431034 95.6254797,45.7275862 L95.6254797,45.7275862 Z M113.737529,29.0017241 C114.351497,29.6155172 114.965464,30.2293103 115.579432,30.8431034 C112.970069,34.3724138 109.90023,37.4413793 106.523408,40.2034483 C110.974674,39.5896552 115.272448,38.362069 119.263239,36.3672414 C119.416731,37.287931 119.570223,38.2086207 119.570223,39.1293103 C115.579432,41.2775862 111.281658,42.3517241 106.983883,43.2724138 C110.053722,44.9603448 113.277053,46.0344828 116.500384,47.5689655 C116.039908,48.3362069 115.42594,49.1034483 114.965464,49.8706897 C111.43515,48.6431034 107.904835,47.262069 104.528012,45.4206897 C104.528012,45.8810345 104.528012,46.3413793 104.37452,46.8017241 C104.37452,48.7965517 104.37452,50.7913793 104.221028,52.6327586 C104.067536,55.2413793 103.914045,57.85 103.607061,60.4586207 C103.607061,61.0724138 103.453569,61.8396552 103.453569,62.6068966 C102.686109,62.6068966 101.765157,62.7603448 100.997698,62.7603448 C100.997698,62.4534483 100.997698,62.3 100.997698,62.1465517 C100.997698,58.3103448 101.15119,54.4741379 101.15119,50.637931 C101.15119,48.6431034 101.15119,46.6482759 101.304682,44.8068966 C101.304682,43.7327586 101.304682,42.6586207 101.304682,41.5844828 C101.304682,40.8172414 101.611665,40.2034483 102.072141,39.7431034 C102.532617,39.4362069 102.993093,38.9758621 103.453569,38.6689655 C106.523408,36.5206897 109.286262,34.0655172 111.742134,31.15 C112.202609,30.5362069 112.816577,29.9224138 113.277053,29.3086207 C113.430545,29.462069 113.584037,29.3086207 113.737529,29.0017241 Z M99.1557943,85.3172414 C97.6208749,85.3172414 96.0859555,85.3172414 94.704528,85.1637931 C94.5510361,85.1637931 94.2440522,85.1637931 94.0905602,85.1637931 C93.0161167,84.8568966 92.4021489,84.2431034 92.4021489,83.1689655 C92.4021489,82.2482759 92.5556408,81.3275862 92.7091328,80.5603448 C93.1696086,78.8724138 93.4765925,77.337931 93.9370683,75.65 C94.0905602,75.0362069 94.3975441,74.4224138 94.704528,73.8086207 C95.1650038,72.7344828 96.0859555,72.1206897 97.313891,72.1206897 C98.3883346,71.9672414 99.4627782,71.9672414 100.537222,71.9672414 C102.532617,71.9672414 104.528012,71.9672414 106.523408,71.9672414 C106.830391,71.9672414 107.137375,71.9672414 107.444359,72.1206897 C108.672295,72.2741379 109.286262,73.0413793 109.439754,74.2689655 C109.439754,74.8827586 109.439754,75.4965517 109.286262,75.9568966 C108.979279,77.9517241 108.365311,79.9465517 107.751343,81.9413793 C107.597851,82.4017241 107.444359,82.7086207 107.290867,83.1689655 C106.676899,84.7034483 105.448964,85.4706897 103.914045,85.4706897 C102.225633,85.3172414 100.690714,85.3172414 99.1557943,85.3172414 L99.1557943,85.3172414 Z M99.7697621,83.1689655 C100.076746,83.1689655 100.38373,83.1689655 100.690714,83.1689655 C101.611665,83.1689655 102.072141,82.862069 102.225633,81.9413793 C102.532617,80.7137931 102.839601,79.3327586 103.146585,78.1051724 C103.300077,77.1844828 103.607061,76.4172414 103.760553,75.4965517 C103.914045,74.7293103 103.607061,74.2689655 102.839601,74.2689655 C102.225633,74.2689655 101.611665,74.2689655 100.997698,74.2689655 C100.38373,74.2689655 99.923254,74.5758621 99.6162701,75.3431034 C99.6162701,75.65 99.4627782,75.8034483 99.4627782,76.1103448 C99.1557943,77.4913793 98.8488104,78.7189655 98.3883346,80.1 C98.2348427,80.8672414 98.0813507,81.4810345 97.9278588,82.2482759 C97.7743668,82.862069 98.0813507,83.1689655 98.6953185,83.3224138 C99.0023024,83.0155172 99.4627782,83.0155172 99.7697621,83.1689655 L99.7697621,83.1689655 Z M144.589409,76.4172414 C144.896393,75.65 145.663853,75.4965517 146.431312,75.4965517 C147.352264,75.4965517 148.273216,75.4965517 149.194167,75.4965517 C149.501151,75.4965517 149.654643,75.4965517 149.961627,75.4965517 C151.036071,75.65 151.650038,76.1103448 151.650038,77.1844828 C151.650038,77.7982759 151.650038,78.412069 151.496546,79.1793103 C151.189563,80.2534483 151.036071,81.3275862 150.729087,82.4017241 C150.575595,83.3224138 150.268611,84.2431034 150.575595,85.1637931 C148.733691,85.1637931 146.891788,85.1637931 145.049885,85.1637931 C145.203377,85.0103448 145.203377,84.8568966 145.356869,84.7034483 C145.663853,84.2431034 145.817345,83.6293103 145.970837,83.1689655 C146.431312,81.4810345 146.738296,79.7931034 147.198772,78.1051724 C147.352264,77.4913793 147.04528,77.1844828 146.431312,77.1844828 C146.124328,77.1844828 145.817345,77.1844828 145.510361,77.1844828 C144.742901,77.1844828 144.589409,77.337931 144.282425,78.1051724 C143.975441,79.0258621 143.821949,79.9465517 143.514965,81.0206897 C143.361474,81.6344828 143.207982,82.2482759 143.05449,82.862069 C142.900998,83.6293103 142.747506,84.3965517 143.05449,85.1637931 C141.212586,85.1637931 139.370683,85.1637931 137.682272,85.1637931 C137.682272,85.1637931 137.682272,85.0103448 137.682272,85.0103448 C138.142748,84.3965517 138.449731,83.7827586 138.603223,83.0155172 C139.063699,81.4810345 139.370683,79.9465517 139.831159,78.412069 C139.831159,78.2586207 139.831159,78.1051724 139.831159,77.9517241 C139.831159,77.6448276 139.677667,77.4913793 139.370683,77.4913793 C138.910207,77.4913793 138.296239,77.4913793 137.835764,77.4913793 C137.375288,77.4913793 137.221796,77.7982759 137.068304,78.1051724 C136.914812,78.7189655 136.76132,79.1793103 136.607828,79.7931034 C136.300844,80.8672414 136.147352,81.787931 135.840368,82.862069 C135.686876,83.6293103 135.379893,84.3965517 135.686876,85.3172414 C133.844973,85.3172414 132.00307,85.3172414 130.161167,85.3172414 C130.314658,85.1637931 130.314658,85.0103448 130.46815,84.8568966 C130.621642,84.3965517 130.928626,83.9362069 131.082118,83.3224138 C131.542594,81.3275862 132.156562,79.3327586 132.617038,77.337931 C132.77053,76.7241379 132.77053,76.1103448 132.77053,75.4965517 C133.077513,75.3431034 136.454336,75.3431034 137.221796,75.4965517 C137.221796,75.8034483 137.221796,75.9568966 137.221796,76.2637931 C137.221796,76.2637931 137.375288,76.2637931 137.375288,76.2637931 C137.835764,75.65 138.449731,75.4965517 139.217191,75.4965517 C140.445127,75.4965517 141.673062,75.4965517 142.900998,75.4965517 C143.05449,75.4965517 143.207982,75.4965517 143.361474,75.4965517 C143.975441,75.4965517 144.128933,75.65 144.589409,76.4172414 L144.589409,76.4172414 Z M15.5026861,71.9672414 C15.5026861,72.887931 15.5026861,73.6551724 15.3491942,74.5758621 C14.5817345,73.962069 13.8142748,73.962069 13.046815,73.962069 C11.5118956,73.962069 10.1304682,73.962069 8.59554873,73.962069 C8.44205679,73.962069 8.28856485,73.962069 8.13507291,73.962069 C7.06062932,73.962069 6.75364543,74.7293103 6.75364543,75.65 C6.75364543,75.9568966 6.90713738,76.1103448 7.21412126,76.2637931 C7.52110514,76.2637931 7.67459708,76.2637931 7.98158097,76.2637931 C9.05602456,76.2637931 10.2839601,76.2637931 11.3584037,76.2637931 C11.8188795,76.2637931 12.1258634,76.2637931 12.5863392,76.4172414 C13.8142748,76.7241379 14.5817345,77.4913793 14.4282425,78.7189655 C14.4282425,80.2534483 14.1212586,81.787931 13.3537989,83.1689655 C12.5863392,84.7034483 11.2049117,85.3172414 9.51650038,85.3172414 C6.44666155,85.3172414 3.37682272,85.3172414 0.306983883,85.3172414 C0.306983883,85.3172414 0.153491942,85.3172414 0,85.3172414 C0,84.55 0.153491942,83.6293103 0.153491942,82.862069 C0.767459708,83.0155172 1.38142748,83.1689655 1.99539524,83.1689655 C3.53031466,83.1689655 5.06523408,83.1689655 6.44666155,83.1689655 C6.75364543,83.1689655 7.06062932,83.1689655 7.3676132,83.0155172 C8.13507291,82.862069 8.59554873,82.0948276 8.44205679,81.3275862 C8.44205679,81.0206897 8.13507291,80.8672414 7.82808903,80.8672414 C7.52110514,80.8672414 7.21412126,80.8672414 6.90713738,80.8672414 C5.5257099,80.8672414 4.29777437,80.8672414 2.91634689,80.7137931 C2.91634689,80.7137931 2.76285495,80.7137931 2.76285495,80.7137931 C1.38142748,80.4068966 0.767459708,79.6396552 0.767459708,78.2586207 C0.92095165,76.8775862 1.22793553,75.4965517 1.8419033,74.1155172 C2.60936301,72.5810345 3.99079048,71.8137931 5.5257099,71.8137931 C8.59554873,71.8137931 11.6653876,71.8137931 14.7352264,71.8137931 C15.1957022,71.9672414 15.3491942,71.9672414 15.5026861,71.9672414 L15.5026861,71.9672414 Z M125.863392,75.4965517 C127.705295,75.4965517 129.393707,75.4965517 131.082118,75.4965517 C131.082118,75.65 131.082118,75.8034483 130.928626,75.9568966 C130.161167,79.3327586 129.240215,82.7086207 128.472755,86.0844828 C128.472755,86.237931 128.319263,86.3913793 128.319263,86.6982759 C127.858787,88.2327586 126.630852,89 125.095932,89 C122.026094,89 118.956255,89 115.886416,89 C115.732924,89 115.579432,89 115.272448,89 C115.272448,88.2327586 115.42594,87.4655172 115.42594,86.6982759 C115.579432,86.6982759 115.732924,86.8517241 115.886416,86.8517241 C116.346892,87.0051724 116.807368,87.1586207 117.267843,87.1586207 C118.802763,87.1586207 120.491174,87.1586207 122.026094,87.1586207 C122.947045,87.1586207 123.254029,86.8517241 123.407521,85.9310345 C123.561013,85.6241379 123.561013,85.3172414 123.561013,84.8568966 C122.947045,85.4706897 122.179586,85.3172414 121.412126,85.3172414 C120.491174,85.3172414 119.723715,85.3172414 118.802763,85.3172414 C118.649271,85.3172414 118.342287,85.3172414 118.188795,85.3172414 C116.807368,85.1637931 116.039908,84.3965517 116.039908,83.0155172 C116.039908,82.4017241 116.1934,81.9413793 116.346892,81.4810345 C116.653876,80.4068966 116.807368,79.3327586 117.114351,78.2586207 C117.267843,77.337931 117.574827,76.5706897 117.267843,75.65 C119.109747,75.65 120.798158,75.65 122.640061,75.65 C122.640061,75.8034483 122.640061,76.1103448 122.486569,76.2637931 C122.026094,78.2586207 121.565618,80.2534483 120.95165,82.2482759 C120.644666,83.3224138 120.798158,83.4758621 121.872602,83.4758621 C122.179586,83.4758621 122.486569,83.4758621 122.947045,83.4758621 C123.714505,83.4758621 123.867997,83.3224138 124.021489,82.5551724 C124.328473,81.6344828 124.481965,80.5603448 124.788949,79.6396552 C124.942441,78.8724138 125.249424,78.1051724 125.402916,77.337931 C125.863392,76.5706897 126.016884,76.1103448 125.863392,75.4965517 L125.863392,75.4965517 Z M150.422103,89 C150.422103,88.6931034 150.575595,88.5396552 150.575595,88.3862069 C151.496546,84.7034483 152.417498,81.1741379 153.33845,77.4913793 C153.491942,76.8775862 153.645434,76.2637931 153.491942,75.65 C155.026861,75.65 156.561781,75.65 158.250192,75.65 C158.250192,75.9568966 158.250192,76.1103448 158.403684,76.4172414 C158.403684,76.4172414 158.557176,76.4172414 158.557176,76.4172414 C159.017652,75.8034483 159.631619,75.65 160.399079,75.65 C161.627015,75.65 162.85495,75.65 164.082886,75.65 C164.38987,75.65 164.850345,75.65 165.157329,75.8034483 C165.924789,75.9568966 166.385265,76.5706897 166.385265,77.337931 C166.385265,77.6448276 166.385265,77.9517241 166.385265,78.2586207 C166.078281,79.6396552 165.771297,81.0206897 165.310821,82.4017241 C165.310821,82.7086207 165.157329,82.862069 165.003837,83.1689655 C164.38987,84.55 163.315426,85.3172414 161.780507,85.3172414 C160.399079,85.3172414 159.017652,85.3172414 157.482732,85.3172414 C157.022256,85.3172414 156.715272,85.1637931 156.408289,84.7034483 C156.101305,86.0844828 155.487337,87.4655172 155.640829,89 C153.952417,89 152.264006,89 150.422103,89 Z M158.250192,83.3224138 C158.557176,83.3224138 158.86416,83.3224138 159.324635,83.3224138 C159.785111,83.3224138 160.092095,83.1689655 160.245587,82.7086207 C160.399079,82.5551724 160.399079,82.4017241 160.552571,82.2482759 C161.013047,81.0206897 161.320031,79.6396552 161.473523,78.412069 C161.627015,77.7982759 161.320031,77.4913793 160.706063,77.4913793 C160.092095,77.4913793 159.631619,77.4913793 159.017652,77.4913793 C158.557176,77.4913793 158.250192,77.6448276 158.0967,78.1051724 C157.943208,78.412069 157.943208,78.8724138 157.789716,79.1793103 C157.482732,80.2534483 157.175748,81.4810345 156.868764,82.5551724 C156.715272,83.1689655 156.868764,83.1689655 157.482732,83.3224138 C157.789716,83.3224138 157.943208,83.3224138 158.250192,83.3224138 L158.250192,83.3224138 Z M19.6469685,84.55 C19.3399847,85.9310345 18.7260169,87.312069 18.8795088,88.8465517 C18.419033,89 14.4282425,89 13.6607828,88.8465517 C13.6607828,88.5396552 13.8142748,88.3862069 13.8142748,88.0793103 C14.7352264,84.55 15.6561781,80.8672414 16.4236378,77.337931 C16.5771297,76.7241379 16.5771297,76.1103448 16.7306216,75.3431034 C18.2655411,75.3431034 19.8004605,75.3431034 21.3353799,75.3431034 C21.3353799,75.65 21.3353799,75.8034483 21.3353799,76.1103448 C21.3353799,76.1103448 21.4888718,76.1103448 21.4888718,76.1103448 C21.9493477,75.4965517 22.5633154,75.3431034 23.4842671,75.3431034 C24.7122026,75.3431034 25.9401381,75.3431034 27.1680737,75.3431034 C27.6285495,75.3431034 28.0890253,75.3431034 28.3960092,75.4965517 C29.1634689,75.65 29.4704528,76.2637931 29.4704528,77.0310345 C29.4704528,77.4913793 29.4704528,78.1051724 29.3169609,78.5655172 C29.009977,79.7931034 28.7029931,80.8672414 28.3960092,82.0948276 C28.3960092,82.4017241 28.2425173,82.5551724 28.0890253,82.862069 C27.4750576,84.2431034 26.400614,85.1637931 24.8656946,85.1637931 C23.4842671,85.1637931 21.9493477,85.1637931 20.5679202,85.1637931 C20.2609363,85.3172414 19.8004605,85.0103448 19.6469685,84.55 L19.6469685,84.55 Z M21.4888718,83.3224138 C21.7958557,83.3224138 21.9493477,83.3224138 22.2563315,83.3224138 C22.8702993,83.3224138 23.1772832,83.0155172 23.4842671,82.5551724 C24.0982348,81.1741379 24.4052187,79.7931034 24.5587107,78.2586207 C24.5587107,77.6448276 24.4052187,77.337931 23.791251,77.337931 C23.3307751,77.337931 22.8702993,77.337931 22.4098235,77.337931 C21.7958557,77.337931 21.6423638,77.4913793 21.3353799,78.1051724 C21.181888,78.8724138 20.8749041,79.7931034 20.7214121,80.5603448 C20.5679202,81.1741379 20.4144282,81.787931 20.2609363,82.5551724 C20.1074444,83.1689655 20.2609363,83.3224138 20.8749041,83.3224138 C20.8749041,83.3224138 21.181888,83.3224138 21.4888718,83.3224138 Z M65.2340752,77.6448276 C65.5410591,76.8775862 65.848043,76.1103448 66.1550269,75.4965517 C66.3085188,75.4965517 66.4620107,75.4965517 66.6155027,75.4965517 C69.3783576,75.4965517 72.2947045,75.4965517 75.0575595,75.4965517 C75.5180353,75.4965517 75.8250192,75.4965517 76.285495,75.65 C77.0529547,75.8034483 77.6669225,76.4172414 77.6669225,77.337931 C77.6669225,77.9517241 77.6669225,78.5655172 77.5134305,79.1793103 C77.2064467,80.5603448 76.8994628,81.9413793 76.438987,83.1689655 C76.285495,83.7827586 76.1320031,84.3965517 76.438987,85.1637931 C74.7505756,85.1637931 73.2156562,85.1637931 71.5272448,85.1637931 C71.5272448,84.8568966 71.5272448,84.7034483 71.5272448,84.3965517 C71.3737529,84.3965517 71.3737529,84.3965517 71.3737529,84.55 C70.9132771,85.1637931 70.4528012,85.3172414 69.8388335,85.3172414 C68.457406,85.3172414 66.9224866,85.3172414 65.5410591,85.3172414 C64.0061397,85.3172414 63.3921719,84.55 63.6991558,83.0155172 C63.8526477,82.2482759 64.0061397,81.6344828 64.3131236,80.8672414 C64.7735994,79.4862069 65.848043,78.7189655 67.3829624,78.7189655 C68.9178818,78.7189655 70.4528012,78.7189655 71.8342287,78.7189655 C71.9877206,78.7189655 72.1412126,78.7189655 72.4481965,78.7189655 C72.7551804,78.7189655 72.9086723,78.5655172 73.0621642,78.1051724 C73.2156562,77.7982759 73.0621642,77.6448276 72.7551804,77.4913793 C72.6016884,77.4913793 72.4481965,77.4913793 72.2947045,77.4913793 C70.7597851,77.4913793 69.0713738,77.4913793 67.5364543,77.4913793 C66.6155027,77.4913793 66.0015349,77.6448276 65.2340752,77.6448276 L65.2340752,77.6448276 Z M72.2947045,80.5603448 C71.3737529,80.5603448 70.4528012,80.5603448 69.5318496,80.5603448 C69.2248657,80.5603448 69.0713738,80.7137931 68.9178818,81.0206897 C68.7643899,81.4810345 68.6108979,82.0948276 68.457406,82.7086207 C68.457406,83.1689655 68.6108979,83.3224138 69.0713738,83.3224138 C69.5318496,83.3224138 70.1458173,83.3224138 70.6062932,83.3224138 C71.066769,83.3224138 71.5272448,83.0155172 71.6807368,82.5551724 C71.8342287,81.9413793 71.9877206,81.3275862 72.2947045,80.5603448 L72.2947045,80.5603448 Z M42.5172678,83.0155172 C42.210284,83.7827586 41.9033001,84.3965517 41.5963162,85.1637931 C41.4428243,85.1637931 41.2893323,85.1637931 40.9823484,85.1637931 C37.9125096,85.1637931 34.9961627,85.1637931 31.9263239,85.1637931 C31.61934,85.1637931 31.3123561,85.1637931 31.0053722,85.0103448 C30.0844206,84.8568966 29.6239447,84.2431034 29.4704528,83.3224138 C29.4704528,82.862069 29.4704528,82.5551724 29.6239447,82.0948276 C29.9309286,80.7137931 30.2379125,79.4862069 30.5448964,78.1051724 C30.5448964,77.7982759 30.6983883,77.4913793 30.8518803,77.337931 C31.465848,76.1103448 32.5402916,75.4965517 33.9217191,75.3431034 C34.8426708,75.3431034 35.7636224,75.3431034 36.6845741,75.3431034 C38.3729854,75.3431034 40.0613968,75.3431034 41.7498081,75.3431034 C42.210284,75.3431034 42.6707598,75.3431034 43.1312356,75.4965517 C43.7452034,75.65 44.0521873,76.1103448 44.0521873,76.7241379 C44.0521873,77.0310345 44.0521873,77.337931 44.0521873,77.6448276 C43.7452034,78.8724138 43.4382195,80.1 43.1312356,81.3275862 C40.3683807,81.3275862 37.6055257,81.3275862 34.8426708,81.3275862 C34.8426708,81.4810345 34.6891788,81.4810345 34.6891788,81.6344828 C34.3821949,83.3224138 34.6891788,83.3224138 35.9171144,83.3224138 C36.9915579,83.3224138 38.0660015,83.3224138 39.2939371,83.3224138 C40.3683807,83.3224138 41.4428243,83.3224138 42.5172678,83.0155172 L42.5172678,83.0155172 Z M38.8334612,79.4862069 C38.9869532,79.0258621 39.1404451,78.5655172 39.1404451,78.1051724 C39.2939371,77.6448276 39.1404451,77.4913793 38.6799693,77.4913793 C38.0660015,77.4913793 37.4520338,77.4913793 36.838066,77.4913793 C36.3775902,77.4913793 36.0706063,77.6448276 35.9171144,77.9517241 C35.7636224,78.412069 35.4566385,78.8724138 35.3031466,79.4862069 C36.3775902,79.4862069 37.6055257,79.4862069 38.8334612,79.4862069 Z M200,75.4965517 C200,76.2637931 199.846508,77.0310345 199.846508,77.7982759 C198.925556,77.337931 198.004605,77.1844828 196.930161,77.1844828 C195.702226,77.1844828 194.320798,77.1844828 193.092863,77.1844828 C192.478895,77.1844828 192.325403,77.337931 192.325403,77.9517241 C192.325403,78.2586207 192.325403,78.412069 192.785879,78.5655172 C192.939371,78.5655172 193.092863,78.5655172 193.399847,78.5655172 C194.627782,78.5655172 195.855718,78.5655172 197.083653,78.5655172 C197.237145,78.5655172 197.390637,78.5655172 197.697621,78.5655172 C199.079048,78.8724138 199.693016,79.9465517 199.386032,81.3275862 C199.23254,81.787931 199.23254,82.2482759 199.079048,82.5551724 C198.618573,84.2431034 197.544129,85.1637931 195.702226,85.3172414 C195.395242,85.3172414 195.24175,85.3172414 194.934766,85.3172414 C192.171911,85.3172414 189.562548,85.3172414 186.799693,85.3172414 C186.646201,85.3172414 186.339217,85.3172414 186.032233,85.3172414 C186.032233,84.55 186.185725,83.7827586 186.185725,83.0155172 C186.492709,83.1689655 186.799693,83.3224138 187.106677,83.3224138 C187.567153,83.4758621 188.18112,83.4758621 188.641596,83.4758621 C190.176516,83.4758621 191.711435,83.4758621 193.246355,83.4758621 C193.860322,83.4758621 194.167306,83.1689655 194.167306,82.5551724 C194.167306,82.2482759 194.013814,82.0948276 193.70683,82.0948276 C193.553338,82.0948276 193.399847,82.0948276 193.246355,82.0948276 C192.171911,82.0948276 190.943975,82.0948276 189.869532,82.0948276 C189.409056,82.0948276 188.94858,82.0948276 188.641596,81.9413793 C187.567153,81.6344828 186.953185,80.7137931 187.260169,79.6396552 C187.413661,79.0258621 187.567153,78.2586207 187.874137,77.6448276 C188.334612,76.4172414 189.409056,75.8034483 190.636992,75.4965517 C190.943975,75.4965517 191.250959,75.3431034 191.557943,75.3431034 C194.167306,75.3431034 196.776669,75.3431034 199.386032,75.3431034 C199.539524,75.4965517 199.693016,75.4965517 200,75.4965517 Z M123.100537,51.8655172 C123.254029,51.712069 123.254029,51.5586207 123.407521,51.4051724 C126.170376,47.5689655 127.858787,43.4258621 128.319263,38.6689655 C128.472755,37.287931 128.626247,35.9068966 128.779739,34.5258621 C128.319263,35.6 128.012279,36.6741379 127.551804,37.7482759 C127.091328,38.8224138 126.630852,39.8965517 126.016884,40.9706897 C125.556408,42.0448276 124.942441,43.1189655 124.174981,44.0396552 C123.867997,43.5793103 123.561013,42.9655172 123.254029,42.5051724 C125.095932,39.4362069 126.630852,36.3672414 127.705295,32.9913793 C125.863392,35.4465517 123.407521,37.1344828 120.798158,38.8224138 C120.644666,37.7482759 120.644666,36.8275862 120.491174,35.9068966 C123.561013,34.0655172 126.170376,32.0706897 128.012279,29.0017241 C125.402916,28.5413793 122.793553,28.2344828 120.337682,27.4672414 C120.337682,26.7 120.491174,25.7793103 120.491174,25.012069 C120.798158,25.012069 121.105142,25.1655172 121.258634,25.1655172 C123.561013,25.6258621 125.863392,26.0862069 128.165771,26.2396552 C129.086723,26.3931034 129.240215,26.3931034 129.393707,27.3137931 C130.161167,30.2293103 130.314658,33.1448276 130.007675,36.2137931 C129.547199,39.7431034 128.626247,43.1189655 126.937836,46.3413793 C126.016884,48.1827586 124.942441,49.8706897 123.561013,51.4051724 C123.407521,51.5586207 123.407521,51.712069 123.254029,51.712069 C123.254029,51.8655172 123.254029,51.8655172 123.100537,51.8655172 C123.254029,51.8655172 123.100537,51.8655172 123.100537,51.8655172 L123.100537,51.8655172 Z M79.6623177,25.1655172 C79.6623177,25.9327586 79.8158097,26.7 79.8158097,27.6206897 C77.3599386,28.387931 74.7505756,28.6948276 72.1412126,29.1551724 C72.2947045,29.462069 72.4481965,29.6155172 72.6016884,29.7689655 C73.9831159,31.7637931 75.5180353,33.2982759 77.5134305,34.5258621 C78.2808903,34.9862069 79.04835,35.4465517 79.8158097,36.0603448 C79.6623177,36.9810345 79.6623177,37.9017241 79.5088258,38.8224138 C78.894858,38.6689655 77.3599386,37.7482759 75.6715272,36.3672414 C74.4435917,35.4465517 73.3691481,34.3724138 72.4481965,33.1448276 C73.5226401,36.5206897 75.0575595,39.7431034 76.8994628,42.6586207 C76.5924789,43.1189655 76.285495,43.5793103 75.9785111,44.1931034 C74.9040675,42.6586207 73.9831159,41.1241379 73.3691481,39.5896552 C72.6016884,38.0551724 71.9877206,36.3672414 71.3737529,34.6793103 C71.3737529,35.2931034 71.5272448,35.9068966 71.5272448,36.5206897 C71.8342287,38.8224138 72.1412126,40.9706897 72.7551804,43.2724138 C73.5226401,46.187931 74.9040675,48.7965517 76.5924789,51.4051724 C76.7459708,51.5586207 76.8994628,51.8655172 77.0529547,52.0189655 C77.0529547,52.0189655 77.0529547,52.0189655 77.0529547,52.1724138 C76.7459708,52.1724138 76.7459708,51.8655172 76.5924789,51.712069 C74.9040675,49.8706897 73.5226401,47.5689655 72.4481965,45.2672414 C70.6062932,41.2775862 69.8388335,37.1344828 69.9923254,32.6844828 C69.9923254,30.9965517 70.2993093,29.3086207 70.7597851,27.6206897 C71.066769,26.8534483 71.066769,26.7 71.9877206,26.5465517 C74.4435917,26.3931034 76.8994628,25.7793103 79.2018419,25.3189655 C79.3553338,25.1655172 79.5088258,25.1655172 79.6623177,25.1655172 L79.6623177,25.1655172 Z M110.66769,6.90517241 C107.444359,6.13793103 104.221028,5.83103448 100.997698,5.67758621 C100.997698,5.37068966 100.997698,5.21724138 100.997698,5.0637931 C100.997698,4.91034483 100.997698,4.60344828 100.997698,4.29655172 C104.221028,4.29655172 107.444359,4.75689655 110.514198,5.37068966 C108.365311,3.68275862 105.90944,2.45517241 103.300077,1.38103448 C103.607061,1.07413793 103.914045,0.767241379 104.221028,0.613793103 C104.834996,0.920689655 105.602456,1.22758621 106.216424,1.53448276 C108.365311,2.60862069 110.514198,3.98965517 112.509593,5.37068966 C113.123561,5.83103448 113.584037,6.44482759 113.584037,7.36551724 C114.044513,10.8948276 114.198005,14.4241379 114.198005,17.9534483 C114.198005,19.3344828 114.044513,20.562069 114.044513,21.9431034 C113.584037,21.9431034 112.816577,21.7896552 112.202609,21.4827586 C112.509593,17.3396552 112.509593,13.1965517 112.049117,8.9 C110.66769,9.36034483 109.439754,9.82068966 108.211819,10.4344828 C106.983883,10.8948276 105.755948,11.5086207 104.528012,12.1224138 C104.221028,11.662069 103.760553,11.2017241 103.300077,10.7413793 C103.607061,10.587931 103.914045,10.2810345 104.221028,10.2810345 C106.062932,9.36034483 108.058327,8.59310345 109.90023,7.82586207 C110.207214,7.21206897 110.360706,7.05862069 110.66769,6.90517241 L110.66769,6.90517241 Z M87.7973906,21.3293103 C87.1834229,21.4827586 86.5694551,21.6362069 86.1089793,21.7896552 C86.1089793,21.4827586 85.9554873,21.3293103 85.9554873,21.1758621 C85.6485035,18.1068966 85.6485035,15.037931 85.9554873,11.8155172 C86.1089793,10.1275862 86.2624712,8.43965517 86.4159632,6.75172414 C86.4159632,6.29137931 86.722947,5.83103448 87.1834229,5.52413793 C89.7927859,3.52931034 92.5556408,1.84137931 95.4719877,0.613793103 C95.4719877,0.613793103 95.6254797,0.613793103 95.7789716,0.460344828 C95.9324635,0.460344828 95.9324635,0.613793103 96.0859555,0.613793103 C96.2394474,0.767241379 96.3929394,0.920689655 96.6999233,1.07413793 C94.2440522,2.30172414 91.6346892,3.37586207 89.485802,5.0637931 C92.5556408,4.45 95.7789716,3.98965517 98.8488104,3.98965517 C98.8488104,4.45 98.8488104,4.91034483 98.8488104,5.37068966 C95.6254797,5.52413793 92.5556408,5.83103448 89.485802,6.59827586 C89.6392939,6.90517241 89.7927859,6.90517241 90.0997698,6.90517241 C91.9416731,7.67241379 93.7835764,8.59310345 95.6254797,9.36034483 C95.9324635,9.5137931 96.2394474,9.66724138 96.5464313,9.82068966 C96.0859555,10.2810345 95.7789716,10.7413793 95.3184958,11.3551724 C92.8626247,10.2810345 90.4067536,9.20689655 87.9508826,8.2862069 C87.4904068,12.8896552 87.4904068,17.0327586 87.7973906,21.3293103 L87.7973906,21.3293103 Z M104.681504,29.9224138 C104.681504,32.5310345 102.532617,34.6793103 99.7697621,34.5258621 C97.1603991,34.5258621 95.1650038,32.3775862 95.1650038,29.7689655 C95.1650038,27.1603448 97.313891,25.012069 100.076746,25.012069 C102.686109,25.1655172 104.681504,27.3137931 104.681504,29.9224138 L104.681504,29.9224138 Z M54.9501151,82.862069 C54.6431312,83.6293103 54.3361474,84.3965517 54.0291635,85.1637931 C53.8756715,85.1637931 53.5686876,85.1637931 53.4151957,85.1637931 C51.1128166,85.1637931 48.6569455,85.1637931 46.3545664,85.1637931 C46.0475825,85.1637931 45.5871067,85.1637931 45.2801228,85.0103448 C44.3591711,84.8568966 43.8986953,84.2431034 43.8986953,83.3224138 C43.8986953,82.862069 43.8986953,82.5551724 44.0521873,82.0948276 C44.3591711,80.8672414 44.666155,79.6396552 44.9731389,78.412069 C44.9731389,78.1051724 45.1266309,77.9517241 45.2801228,77.6448276 C45.8940906,76.1103448 46.9685342,75.3431034 48.6569455,75.3431034 C51.1128166,75.3431034 53.7221796,75.3431034 56.1780507,75.3431034 C56.3315426,75.3431034 56.3315426,75.3431034 56.4850345,75.3431034 C56.4850345,76.1103448 56.3315426,76.8775862 56.3315426,77.6448276 C55.4105909,77.1844828 54.4896393,77.1844828 53.5686876,77.1844828 C52.8012279,77.1844828 52.0337682,77.1844828 51.4198005,77.1844828 C50.8058327,77.1844828 50.3453569,77.4913793 50.038373,77.9517241 C49.4244052,79.3327586 49.1174213,80.7137931 48.9639294,82.0948276 C48.8104375,82.7086207 49.1174213,83.0155172 49.7313891,83.0155172 C51.1128166,83.0155172 52.3407521,83.0155172 53.7221796,82.862069 C54.0291635,83.1689655 54.3361474,83.0155172 54.9501151,82.862069 L54.9501151,82.862069 Z M186.339217,75.4965517 C186.339217,76.2637931 186.185725,77.0310345 186.185725,77.7982759 C185.878741,77.6448276 185.418266,77.4913793 185.111282,77.4913793 C183.729854,77.4913793 182.348427,77.337931 180.966999,77.337931 C180.353031,77.337931 180.046048,77.6448276 179.892556,78.2586207 C179.585572,79.1793103 179.278588,79.9465517 179.125096,80.8672414 C178.971604,81.3275862 178.971604,81.9413793 178.818112,82.4017241 C178.818112,83.1689655 178.971604,83.3224138 179.585572,83.3224138 C181.427475,83.3224138 182.808903,83.4758621 184.650806,82.862069 C184.343822,83.6293103 184.036838,84.3965517 183.729854,85.1637931 C183.576362,85.1637931 183.42287,85.1637931 183.269378,85.1637931 C180.813507,85.1637931 178.511128,85.1637931 176.055257,85.1637931 C175.748273,85.1637931 175.594781,85.1637931 175.287797,85.1637931 C174.059862,85.0103448 173.445894,84.2431034 173.599386,83.0155172 C173.599386,82.4017241 173.752878,81.787931 173.90637,81.1741379 C174.059862,80.2534483 174.366846,79.3327586 174.67383,78.412069 C174.827322,78.1051724 174.827322,77.7982759 174.980814,77.4913793 C175.594781,76.2637931 176.669225,75.65 177.89716,75.4965517 C178.511128,75.4965517 179.278588,75.4965517 179.892556,75.4965517 C181.734459,75.4965517 183.42287,75.4965517 185.264774,75.4965517 C185.725249,75.4965517 186.032233,75.4965517 186.339217,75.4965517 L186.339217,75.4965517 Z M83.4996163,85.1637931 C81.504221,85.1637931 79.6623177,85.1637931 77.6669225,85.1637931 C77.8204144,85.0103448 77.8204144,84.8568966 77.9739064,84.7034483 C78.4343822,84.0896552 78.5878741,83.4758621 78.7413661,82.862069 C79.5088258,79.9465517 80.2762855,76.8775862 80.8902533,73.962069 C81.0437452,73.1948276 81.1972371,72.5810345 80.8902533,71.8137931 C81.3507291,71.6603448 85.3415196,71.6603448 86.2624712,71.8137931 C86.2624712,71.9672414 86.2624712,72.1206897 86.2624712,72.2741379 C85.3415196,75.8034483 84.5740599,79.1793103 83.6531082,82.7086207 C83.4996163,83.6293103 83.3461243,84.3965517 83.4996163,85.1637931 Z M111.43515,71.9672414 C113.277053,71.9672414 114.965464,71.9672414 116.807368,71.9672414 C116.807368,72.1206897 116.807368,72.4275862 116.653876,72.5810345 C115.886416,75.9568966 114.965464,79.3327586 114.198005,82.7086207 C114.044513,83.4758621 113.737529,84.3965517 114.044513,85.3172414 C112.049117,85.3172414 110.053722,85.3172414 108.211819,85.3172414 C108.518803,84.7034483 108.825787,84.2431034 108.979279,83.6293103 C109.286262,82.7086207 109.439754,81.787931 109.746738,80.8672414 C110.360706,78.7189655 110.821182,76.4172414 111.43515,74.2689655 C111.588642,73.5017241 111.588642,72.7344828 111.43515,71.9672414 L111.43515,71.9672414 Z M84.267076,22.4034483 C83.8066002,22.5568966 83.1926324,22.7103448 82.7321566,23.0172414 C82.2716807,18.8741379 82.2716807,14.7310345 82.7321566,10.4344828 C80.2762855,12.4293103 78.4343822,15.037931 76.5924789,17.4931034 C76.438987,17.3396552 76.285495,17.1862069 76.285495,17.0327586 C76.1320031,16.8793103 76.1320031,16.7258621 75.9785111,16.5724138 C77.6669225,14.1172414 79.6623177,11.8155172 81.8112049,9.82068966 C80.4297774,10.2810345 79.2018419,11.0482759 77.9739064,11.9689655 C76.7459708,12.8896552 75.6715272,13.6568966 74.4435917,14.5775862 C74.2900998,14.2706897 74.1366078,14.1172414 73.9831159,13.6568966 C76.438987,11.2017241 79.2018419,9.36034483 82.2716807,7.82586207 C80.8902533,7.51896552 79.5088258,7.21206897 77.9739064,6.90517241 C78.4343822,6.44482759 78.894858,5.98448276 79.3553338,5.67758621 C79.3553338,5.67758621 79.6623177,5.67758621 79.6623177,5.67758621 C80.8902533,5.98448276 82.2716807,6.13793103 83.4996163,6.44482759 C83.8066002,6.44482759 83.9600921,6.59827586 84.267076,6.75172414 C84.8810437,7.05862069 85.0345357,7.36551724 84.8810437,7.97931034 C84.7275518,8.59310345 84.7275518,9.20689655 84.5740599,9.82068966 C84.267076,12.2758621 84.113584,14.5775862 84.267076,17.0327586 C84.267076,18.5672414 84.4205679,19.9482759 84.4205679,21.3293103 C84.267076,21.6362069 84.267076,21.9431034 84.267076,22.4034483 L84.267076,22.4034483 Z M117.267843,10.2810345 C117.728319,14.5775862 117.728319,18.7206897 117.267843,22.8637931 C116.653876,22.7103448 116.1934,22.5568966 115.732924,22.4034483 C115.732924,21.6362069 115.732924,20.8689655 115.732924,20.1017241 C115.886416,17.4931034 116.039908,14.8844828 115.732924,12.2758621 C115.579432,10.8948276 115.42594,9.5137931 115.272448,8.2862069 C115.272448,8.13275862 115.272448,7.97931034 115.272448,7.97931034 C115.118956,7.21206897 115.42594,6.75172414 116.039908,6.59827586 C116.96086,6.29137931 117.881811,6.13793103 118.956255,5.98448276 C119.416731,5.83103448 119.877206,5.83103448 120.491174,5.67758621 C120.798158,5.67758621 120.95165,5.67758621 121.105142,5.83103448 C121.412126,6.13793103 121.71911,6.44482759 122.179586,6.90517241 C120.644666,7.21206897 119.263239,7.51896552 117.881811,7.82586207 C120.95165,9.36034483 123.714505,11.2017241 126.170376,13.6568966 C126.016884,13.9637931 125.863392,14.2706897 125.7099,14.5775862 C123.407521,12.5827586 120.95165,10.8948276 118.188795,9.66724138 C120.337682,11.8155172 122.333078,13.9637931 124.021489,16.4189655 C123.867997,16.7258621 123.714505,17.0327586 123.407521,17.3396552 C121.412126,14.8844828 119.723715,12.2758621 117.267843,10.2810345 L117.267843,10.2810345 Z M61.5502686,85.1637931 C59.5548734,85.1637931 57.5594781,85.1637931 55.7175748,85.1637931 C56.9455104,83.4758621 56.9455104,81.4810345 57.5594781,79.6396552 C57.7129701,78.8724138 57.866462,78.2586207 58.019954,77.4913793 C58.1734459,76.8775862 58.3269378,76.1103448 58.019954,75.3431034 C59.8618573,75.3431034 61.5502686,75.3431034 63.3921719,75.3431034 C63.23868,76.2637931 62.9316961,77.0310345 62.7782041,77.9517241 C62.4712203,79.4862069 62.0107444,81.0206897 61.5502686,82.5551724 C61.5502686,83.4758621 61.2432847,84.3965517 61.5502686,85.1637931 L61.5502686,85.1637931 Z M168.38066,75.4965517 C170.222563,75.4965517 171.910975,75.4965517 173.752878,75.4965517 C173.752878,75.65 173.752878,75.8034483 173.752878,75.9568966 C173.13891,78.2586207 172.524942,80.7137931 172.064467,83.0155172 C171.910975,83.7827586 171.757483,84.55 171.910975,85.1637931 C171.450499,85.3172414 167.6132,85.3172414 166.078281,85.1637931 C166.078281,85.0103448 166.078281,85.0103448 166.231773,84.8568966 C166.692249,84.3965517 166.845741,83.7827586 166.999233,83.1689655 C167.459708,81.1741379 167.920184,79.3327586 168.38066,77.337931 C168.534152,76.8775862 168.687644,76.2637931 168.38066,75.4965517 L168.38066,75.4965517 Z M129.393707,20.562069 C129.240215,21.0224138 129.240215,21.3293103 129.086723,21.7896552 C128.626247,23.0172414 127.398312,23.4775862 126.323868,22.7103448 C126.016884,22.5568966 125.863392,22.4034483 125.7099,22.0965517 C124.635457,20.8689655 124.174981,19.3344828 124.635457,17.6465517 C124.635457,17.4931034 124.635457,17.3396552 124.788949,17.3396552 C125.249424,15.8051724 126.630852,15.4982759 127.858787,16.5724138 C128.165771,16.8793103 128.472755,17.3396552 128.779739,17.8 C129.086723,18.7206897 129.240215,19.6413793 129.393707,20.562069 L129.393707,20.562069 Z M75.9785111,19.0275862 C75.8250192,20.4086207 75.3645434,21.4827586 74.5970837,22.4034483 C74.2900998,22.7103448 73.8296239,23.0172414 73.3691481,23.1706897 C72.4481965,23.6310345 71.5272448,23.1706897 71.066769,22.0965517 C70.7597851,21.4827586 70.7597851,20.7155172 70.9132771,20.1017241 C71.066769,19.0275862 71.5272448,18.1068966 72.4481965,17.3396552 C72.7551804,17.0327586 73.2156562,16.8793103 73.5226401,16.7258621 C74.2900998,16.4189655 75.2110514,16.7258621 75.5180353,17.6465517 C75.6715272,17.9534483 75.8250192,18.5672414 75.9785111,19.0275862 L75.9785111,19.0275862 Z M116.346892,2.30172414 C116.346892,3.52931034 115.272448,4.45 114.044513,4.45 C112.816577,4.45 111.895625,3.37586207 112.049117,2.14827586 C112.049117,0.920689655 113.123561,5.55111512e-17 114.351497,0.153448276 C115.42594,1.38777878e-15 116.346892,1.07413793 116.346892,2.30172414 Z M85.8019954,0 C87.0299309,0 87.9508826,0.920689655 87.9508826,2.14827586 C87.9508826,3.37586207 86.876439,4.29655172 85.8019954,4.29655172 C84.5740599,4.29655172 83.6531082,3.37586207 83.6531082,2.14827586 C83.6531082,0.920689655 84.5740599,0 85.8019954,0 Z M58.9409056,74.4224138 C59.0943975,73.5017241 59.4013814,72.7344828 59.5548734,71.9672414 C61.0897928,71.9672414 62.7782041,71.9672414 64.3131236,71.9672414 C64.1596316,72.887931 63.8526477,73.6551724 63.6991558,74.4224138 C62.1642364,74.4224138 60.475825,74.4224138 58.9409056,74.4224138 Z M169.762087,71.9672414 C171.450499,71.9672414 172.985418,71.9672414 174.67383,71.9672414 C174.520338,72.4275862 174.520338,72.887931 174.366846,73.3482759 C174.213354,73.8086207 174.213354,74.1155172 174.059862,74.5758621 C172.524942,74.5758621 170.836531,74.5758621 169.14812,74.5758621 C169.455104,73.6551724 169.608596,72.887931 169.762087,71.9672414 L169.762087,71.9672414 Z M70.1458173,19.6413793 C70.1458173,20.1017241 69.9923254,20.562069 69.9923254,21.0224138 C69.8388335,22.0965517 69.8388335,23.1706897 70.1458173,24.2448276 C70.2993093,24.8586207 70.2993093,25.4724138 70.1458173,26.0862069 C69.5318496,28.2344828 69.3783576,30.3827586 69.3783576,32.6844828 C69.3783576,33.6051724 69.3783576,34.6793103 69.3783576,35.6 C69.3783576,35.7534483 69.3783576,35.9068966 69.3783576,36.0603448 C68.303914,29.7689655 68.457406,24.3982759 70.1458173,19.6413793 Z M130.775134,35.2931034 C130.775134,34.3724138 130.775134,33.4517241 130.775134,32.3775862 C130.775134,30.3827586 130.621642,28.387931 130.007675,26.3931034 C129.854183,25.6258621 129.700691,24.8586207 130.007675,23.937931 C130.314658,22.7103448 130.161167,21.3293103 130.007675,20.1017241 C130.007675,19.9482759 130.007675,19.7948276 130.007675,19.6413793 C131.696086,24.8586207 131.696086,30.0758621 130.775134,35.2931034 Z M89.9462778,60.612069 C89.9462778,59.3844828 90.8672295,58.4637931 92.095165,58.4637931 C93.3231005,58.4637931 94.2440522,59.3844828 94.2440522,60.612069 C94.2440522,61.8396552 93.3231005,62.9137931 92.095165,62.9137931 C91.0207214,62.9137931 89.9462778,61.8396552 89.9462778,60.612069 Z M90.4067536,60.612069 C90.4067536,61.6862069 91.1742134,62.4534483 92.2486569,62.4534483 C93.3231005,62.4534483 94.0905602,61.6862069 94.0905602,60.4586207 C94.0905602,59.3844828 93.3231005,58.6172414 92.2486569,58.6172414 C91.1742134,58.7706897 90.4067536,59.537931 90.4067536,60.612069 Z M92.5556408,60.7655172 C92.8626247,61.0724138 93.0161167,61.3793103 93.1696086,61.6862069 C93.0161167,61.8396552 92.8626247,61.8396552 92.7091328,61.5327586 C92.5556408,61.3793103 92.4021489,61.0724138 92.2486569,60.9189655 C92.095165,60.612069 91.9416731,60.4586207 91.4811972,60.612069 C91.4811972,60.9189655 91.4811972,61.2258621 91.3277053,61.6862069 C91.0207214,61.2258621 91.0207214,60.3051724 91.1742134,59.2310345 C91.6346892,59.0775862 92.095165,59.0775862 92.5556408,59.2310345 C92.8626247,59.2310345 93.0161167,59.3844828 93.1696086,59.6913793 C93.1696086,59.9982759 93.1696086,60.3051724 92.8626247,60.4586207 C92.8626247,60.7655172 92.7091328,60.7655172 92.5556408,60.7655172 L92.5556408,60.7655172 Z M91.6346892,60.4586207 C91.9416731,60.4586207 92.2486569,60.4586207 92.5556408,60.4586207 C92.7091328,60.4586207 92.8626247,60.1517241 92.8626247,59.9982759 C92.8626247,59.8448276 92.7091328,59.6913793 92.5556408,59.6913793 C92.2486569,59.537931 91.9416731,59.537931 91.6346892,59.6913793 C91.6346892,59.9982759 91.6346892,60.1517241 91.6346892,60.4586207 Z" id="Shape"></path>
        </g>
    </g>
</svg>