<?xml version="1.0" encoding="UTF-8"?>
<svg width="300px" height="200px" viewBox="0 0 300 200" version="1.1" xmlns="http://www.w3.org/2000/svg" xmlns:xlink="http://www.w3.org/1999/xlink">
    <!-- Generator: Sketch 64 (93537) - https://sketch.com -->
    <title>United Way</title>
    <desc>Created with Sketch.</desc>
    <g id="United-Way" stroke="none" stroke-width="1" fill="none" fill-rule="evenodd">
        <rect fill="#FFFFFF" x="0" y="0" width="300" height="200"></rect>
        <g id="United-Way-grey" transform="translate(48.000000, 57.000000)" fill-rule="nonzero">
            <g id="Group" fill="#2B2B2B">
                <path d="M106.5,22.377551 C106.5,23.9571429 106.5,25.5367347 106.5,27.1163265 C106.5,27.9938776 106.5,28.8714286 106.5,29.7489796 C106.5,28.8714286 106.5,27.9938776 106.5,27.1163265 C106.5,25.4489796 106.5,23.8693878 106.5,22.377551 Z" id="Path"></path>
                <path d="M121.235294,0.965306122 C121.235294,0.702040816 121.235294,0.43877551 121.235294,0.175510204 C81,0.175510204 40.8529412,0.175510204 0.617647059,0.175510204 C0.617647059,0.351020408 0.617647059,0.526530612 0.617647059,0.702040816 C0.617647059,28.6959184 0.617647059,56.777551 0.617647059,84.7714286 C0.617647059,84.9469388 0.617647059,85.122449 0.705882353,85.2979592 C40.9411765,85.2979592 81.0882353,85.2979592 121.323529,85.2979592 C121.323529,85.0346939 121.323529,84.8591837 121.323529,84.5959184 C121.235294,56.777551 121.235294,28.8714286 121.235294,0.965306122 Z M78.9705882,21.6755102 C79.8529412,19.3061224 81.4411765,17.5510204 83.9117647,16.8489796 C86.8235294,15.9714286 90.6176471,16.6734694 92.2058824,20.7979592 C93.1764706,23.1673469 93.3529412,25.5367347 93.2647059,28.0816327 C93.2647059,28.5204082 93,28.6959184 92.6470588,28.6959184 C92.4705882,28.6959184 92.2941176,28.6959184 92.1176471,28.6959184 C89.1176471,28.6959184 86.0294118,28.6959184 83.0294118,28.6959184 C82.8529412,28.6959184 82.5882353,28.6959184 82.4117647,28.6959184 C82.4117647,29.9244898 82.5,30.977551 83.0294118,32.0306122 C83.6470588,33.3469388 84.7058824,34.0489796 86.2058824,34.0489796 C87.3529412,34.0489796 88.5882353,33.7857143 89.7352941,33.6979592 C90.3529412,33.6102041 90.8823529,33.6102041 91.5,33.6102041 C91.9411765,33.6102041 92.2058824,33.9612245 92.3823529,34.3122449 C92.4705882,34.5755102 92.5588235,34.8387755 92.6470588,35.1020408 C92.8235294,35.8918367 92.8235294,36.155102 92.1176471,36.5061224 C89.2058824,38.0857143 86.0294118,38.6122449 82.8529412,37.4714286 C80.8235294,36.6816327 79.5,35.1020408 78.7941176,33.0836735 C77.4705882,29.3979592 77.4705882,25.5367347 78.9705882,21.6755102 Z M64.1470588,17.2877551 C65.0294118,17.2877551 65.8235294,17.2877551 66.7941176,17.2877551 C66.7941176,16.322449 66.7941176,15.444898 66.7941176,14.5673469 C66.7941176,12.5489796 67.9411765,11.3204082 69.9705882,11.144898 C71.2941176,10.9693878 71.2941176,10.9693878 71.2941176,12.3734694 C71.2941176,13.9530612 71.2941176,15.6204082 71.2941176,17.2877551 C71.4705882,17.2877551 71.6470588,17.2877551 71.8235294,17.2877551 C73.0588235,17.2877551 74.3823529,17.2877551 75.6176471,17.2877551 C76.0588235,17.2877551 76.3235294,17.4632653 76.2352941,17.9020408 C76.2352941,18.3408163 76.2352941,18.8673469 76.1470588,19.3061224 C75.9705882,20.2714286 75.3529412,20.7979592 74.3823529,20.7979592 C73.5882353,20.8857143 72.7058824,20.7979592 71.9117647,20.7979592 C71.7352941,20.7979592 71.5588235,20.7979592 71.2941176,20.7979592 C71.2941176,20.9734694 71.2941176,21.1489796 71.2941176,21.3244898 C71.2941176,24.7469388 71.2941176,28.0816327 71.2941176,31.5040816 C71.2941176,32.0306122 71.3823529,32.5571429 71.4705882,33.0836735 C71.6470588,33.7857143 72.0882353,33.9612245 72.7941176,33.9612245 C73.3235294,33.9612245 73.8529412,33.8734694 74.3823529,33.8734694 C75.1764706,33.8734694 75.5294118,34.2244898 75.7941176,34.9265306 C75.9705882,35.3653061 76.0588235,35.8918367 76.1470588,36.3306122 C76.3235294,37.0326531 76.2352941,37.2081633 75.5294118,37.4714286 C74.9117647,37.7346939 74.2058824,37.9102041 73.5882353,37.9979592 C72.7058824,38.0857143 71.8235294,38.1734694 70.8529412,38.0857143 C68.9117647,37.9979592 67.5882353,36.944898 67.1470588,35.1020408 C66.8823529,33.9612245 66.7941176,32.7326531 66.7058824,31.5918367 C66.6176471,28.2571429 66.7058824,24.8346939 66.7058824,21.5 C66.7058824,21.3244898 66.7058824,21.0612245 66.7058824,20.7979592 C66.2647059,20.7979592 65.9117647,20.7979592 65.5588235,20.7979592 C64.3235294,20.7102041 63.7058824,20.1836735 63.5294118,18.955102 C63.4411765,18.6040816 63.5294118,18.1653061 63.5294118,17.8142857 C63.5294118,17.4632653 63.7058824,17.2877551 64.1470588,17.2877551 Z M57.6176471,9.65306122 C59.1176471,9.65306122 60.3529412,10.9693878 60.3529412,12.5489796 C60.3529412,14.2163265 59.1176471,15.444898 57.6176471,15.444898 C56.1176471,15.444898 54.8823529,14.1285714 54.8823529,12.4612245 C54.8823529,10.8816327 56.1176471,9.65306122 57.6176471,9.65306122 Z M52.4117647,36.6816327 C52.4117647,36.3306122 52.4117647,35.9795918 52.5,35.6285714 C52.6764706,34.5755102 53.2058824,34.0489796 54.4411765,33.9612245 C54.7058824,33.9612245 55.0588235,33.9612245 55.3235294,33.8734694 C55.3235294,29.5734694 55.3235294,25.2734694 55.3235294,20.8857143 C54.9705882,20.8857143 54.6176471,20.8857143 54.2647059,20.7979592 C53.2058824,20.7102041 52.6764706,20.2714286 52.5,19.3061224 C52.4117647,18.8673469 52.4117647,18.3408163 52.4117647,17.8142857 C52.4117647,17.3755102 52.5882353,17.2 53.0294118,17.2 C54.7058824,17.2 56.4705882,17.2 58.1470588,17.2 C58.5882353,17.2 59.0294118,17.2 59.4705882,17.2 C59.7352941,17.2 59.9117647,17.2877551 59.9117647,17.5510204 C59.9117647,17.8142857 59.9117647,17.9897959 59.9117647,18.2530612 C59.9117647,23.1673469 59.9117647,28.1693878 59.9117647,33.0836735 C59.9117647,33.2591837 59.9117647,33.522449 59.9117647,33.6979592 C60.3529412,33.7857143 60.7941176,33.7857143 61.2352941,33.8734694 C62.0294118,33.9612245 62.5588235,34.4 62.7352941,35.1897959 C62.8235294,35.7163265 62.9117647,36.2428571 62.9117647,36.7693878 C62.9117647,37.2081633 62.7352941,37.3836735 62.2941176,37.3836735 C61.5882353,37.3836735 60.8823529,37.3836735 60.1764706,37.3836735 C57.8823529,37.3836735 55.5882353,37.3836735 53.2941176,37.3836735 C52.5,37.5591837 52.4117647,37.4714286 52.4117647,36.6816327 Z M29.8235294,12.8122449 C29.6470588,14.1285714 29.0294118,14.655102 27.7058824,14.7428571 C27.5294118,14.7428571 27.4411765,14.7428571 27.1764706,14.7428571 C27.1764706,14.9183673 27.1764706,15.1816327 27.1764706,15.3571429 C27.1764706,19.744898 27.1764706,24.044898 27.1764706,28.4326531 C27.1764706,29.9244898 27,31.5040816 26.5588235,32.9959184 C25.7647059,35.6285714 24.0882353,37.2959184 21.3529412,37.9102041 C19.3235294,38.3489796 17.2941176,38.3489796 15.2647059,37.9102041 C12.0882353,37.2081633 10.4117647,35.1897959 9.79411765,32.1183673 C9.52941176,30.8897959 9.44117647,29.5734694 9.35294118,28.344898 C9.26470588,24.044898 9.35294118,19.744898 9.35294118,15.444898 C9.35294118,15.2693878 9.35294118,15.0061224 9.35294118,14.8306122 C8.91176471,14.7428571 8.55882353,14.7428571 8.20588235,14.655102 C7.5,14.5673469 7.05882353,14.1285714 6.88235294,13.4265306 C6.79411765,12.8122449 6.70588235,12.1102041 6.70588235,11.4959184 C6.70588235,11.144898 6.88235294,11.0571429 7.23529412,11.0571429 C7.85294118,11.0571429 8.55882353,11.0571429 9.17647059,11.0571429 C11.4705882,11.0571429 13.6764706,11.0571429 15.9705882,11.0571429 C16.8529412,11.0571429 16.9411765,11.0571429 16.8529412,12.022449 C16.8529412,12.3734694 16.8529412,12.7244898 16.7647059,13.0755102 C16.5882353,14.2163265 15.9705882,14.655102 14.9117647,14.8306122 C14.7352941,14.8306122 14.4705882,14.8306122 14.2058824,14.8306122 C14.2058824,15.0061224 14.2058824,15.1816327 14.2058824,15.3571429 C14.2058824,19.4816327 14.2058824,23.6938776 14.2058824,27.8183673 C14.2058824,28.9591837 14.2941176,30.1 14.4705882,31.2408163 C14.8235294,32.9081633 15.8823529,33.7857143 17.5588235,33.9612245 C18,33.9612245 18.5294118,34.0489796 18.9705882,33.9612245 C20.9117647,33.6979592 21.9705882,32.5571429 22.1470588,30.4510204 C22.2352941,29.8367347 22.2352941,29.222449 22.2352941,28.6081633 C22.2352941,24.2204082 22.2352941,19.744898 22.2352941,15.3571429 C22.2352941,15.1816327 22.2352941,15.0938776 22.2352941,14.8306122 C21.8823529,14.7428571 21.5294118,14.7428571 21.1764706,14.7428571 C20.3823529,14.5673469 19.8529412,14.1285714 19.6764706,13.3387755 C19.5882353,12.8122449 19.5882353,12.1979592 19.5,11.6714286 C19.5,11.3204082 19.6764706,11.144898 20.0294118,11.144898 C23.0294118,11.144898 26.1176471,11.144898 29.1176471,11.144898 C29.4705882,11.144898 29.6470588,11.3204082 29.6470588,11.6714286 C29.9117647,12.022449 29.9117647,12.3734694 29.8235294,12.8122449 Z M47.3823529,37.5591837 C46.2352941,37.5591837 45.0882353,37.5591837 44.0294118,37.5591837 C43.2352941,37.5591837 43.2352941,37.5591837 43.2352941,36.7693878 C43.2352941,32.644898 43.2352941,28.5204082 43.2352941,24.4836735 C43.2352941,23.8693878 43.2352941,23.255102 43.1470588,22.6408163 C42.8823529,21.0612245 41.7352941,20.3591837 40.2352941,20.7979592 C39.2647059,21.0612245 38.5588235,21.5877551 37.9411765,22.2897959 C37.8529412,22.4653061 37.7647059,22.7285714 37.7647059,22.9040816 C37.7647059,27.555102 37.7647059,32.1183673 37.7647059,36.7693878 C37.7647059,37.5591837 37.7647059,37.5591837 36.9705882,37.5591837 C35.2058824,37.5591837 33.3529412,37.5591837 31.5882353,37.5591837 C30.7941176,37.5591837 30.7941176,37.4714286 30.7941176,36.7693878 C30.7941176,36.4183673 30.7941176,35.9795918 30.8823529,35.6285714 C31.0588235,34.5755102 31.5,34.1367347 32.5588235,33.9612245 C32.7352941,33.9612245 33,33.8734694 33.2647059,33.8734694 C33.2647059,33.6979592 33.2647059,33.522449 33.2647059,33.4346939 C33.2647059,30.3632653 33.2647059,27.2040816 33.2647059,24.1326531 C33.2647059,23.1673469 33.0882353,22.2897959 33,21.3244898 C33,21.0612245 32.8235294,20.8857143 32.5588235,20.8857143 C31.4117647,20.7979592 30.8823529,20.3591837 30.7058824,19.2183673 C30.6176471,18.7795918 30.6176471,18.2530612 30.6176471,17.8142857 C30.6176471,17.4632653 30.7941176,17.2877551 31.1470588,17.2877551 C32.8235294,17.2877551 34.5,17.2877551 36.1764706,17.2877551 C36.6176471,17.2877551 36.7941176,17.5510204 36.9705882,17.9020408 C37.1470588,18.4285714 37.2352941,18.8673469 37.4117647,19.4816327 C37.7647059,19.2183673 38.0294118,18.8673469 38.2941176,18.6040816 C39.6176471,17.2877551 41.2058824,16.5857143 43.0588235,16.4979592 C45.6176471,16.4979592 47.2058824,17.7265306 47.6470588,20.2714286 C47.8235294,21.2367347 47.9117647,22.2897959 47.9117647,23.255102 C47.9117647,26.5897959 47.9117647,29.8367347 47.9117647,33.1714286 C47.9117647,33.3469388 47.9117647,33.6102041 47.9117647,33.7857143 C48.1764706,33.8734694 48.4411765,33.8734694 48.6176471,33.8734694 C49.5882353,34.0489796 50.0294118,34.4877551 50.2058824,35.4530612 C50.2941176,35.8918367 50.2941176,36.3306122 50.2941176,36.8571429 C50.2941176,37.2959184 50.1176471,37.4714286 49.6764706,37.4714286 C48.7941176,37.5591837 48.0882353,37.5591837 47.3823529,37.5591837 Z M76.9411765,47.6510204 C76.5882353,49.3183673 76.2352941,50.9857143 75.8823529,52.6530612 C74.6470588,58.5326531 73.4117647,64.4122449 72.1764706,70.2918367 C72,71.0816327 72,71.0816327 71.2058824,71.0816327 C70.0588235,71.0816327 69,71.0816327 67.8529412,71.0816327 C67.3235294,71.0816327 67.1470588,70.9061224 67.0588235,70.3795918 C66.7058824,68.3612245 66.3529412,66.3428571 66,64.3244898 C65.3823529,60.6387755 64.7647059,56.9530612 64.1470588,53.2673469 C64.1470588,53.1795918 64.0588235,53.0918367 64.0588235,52.9163265 C63.4411765,56.0755102 62.8235294,59.1469388 62.2058824,62.2183673 C61.6764706,64.9387755 61.0588235,67.7469388 60.5294118,70.4673469 C60.4411765,70.9061224 60.2647059,71.0816327 59.7352941,71.0816327 C58.6764706,71.0816327 57.5294118,71.0816327 56.4705882,71.0816327 C55.6764706,71.0816327 55.5882353,70.9938776 55.4117647,70.2040816 C55.0588235,68.2734694 54.7058824,66.3428571 54.3529412,64.4122449 C53.3823529,58.9714286 52.3235294,53.4428571 51.3529412,48.0020408 C51.3529412,47.9142857 51.2647059,47.7387755 51.2647059,47.5632653 C51.1764706,47.5632653 51.0882353,47.5632653 50.9117647,47.5632653 C49.5,47.4755102 48.8823529,46.8612245 48.7941176,45.4571429 C48.7941176,45.1061224 48.7941176,44.755102 48.7941176,44.3163265 C48.7941176,43.9653061 48.9705882,43.7897959 49.3235294,43.7897959 C51.2647059,43.7897959 53.1176471,43.7897959 55.0588235,43.7897959 C55.4117647,43.7897959 55.5,43.9653061 55.5,44.3163265 C55.8529412,46.7734694 56.2941176,49.2306122 56.6470588,51.6877551 C57.1764706,55.2857143 57.7941176,58.9714286 58.4117647,62.5693878 C58.6764706,61.4285714 58.8529412,60.2877551 59.1176471,59.1469388 C60.0882353,54.3204082 61.1470588,49.4061224 62.1176471,44.5795918 C62.2058824,44.0530612 62.4705882,43.877551 63,43.877551 C63.8823529,43.877551 64.7647059,43.877551 65.6470588,43.877551 C66.1764706,43.877551 66.3529412,44.1408163 66.4411765,44.5795918 C66.9705882,47.5632653 67.5882353,50.5469388 68.2058824,53.4428571 C68.8235294,56.4265306 69.3529412,59.322449 69.9705882,62.3061224 C69.9705882,62.3938776 69.9705882,62.4816327 70.1470588,62.5693878 C70.3235294,61.4285714 70.5,60.3755102 70.6764706,59.2346939 C71.4705882,54.3204082 72.2647059,49.4061224 73.0588235,44.4918367 C73.1470588,44.0530612 73.3235294,43.877551 73.7647059,43.877551 C75.4411765,43.877551 77.1176471,43.877551 78.7941176,43.877551 C79.4117647,43.877551 79.5,43.9653061 79.5,44.5795918 C79.5,45.0183673 79.5,45.4571429 79.4117647,45.9836735 C79.2352941,47.0367347 78.6176471,47.4755102 77.5588235,47.5632653 C77.2941176,47.6510204 77.1176471,47.6510204 76.9411765,47.6510204 Z M90,71.0816327 C89.2058824,71.0816327 88.9411765,70.9061224 88.7647059,70.1163265 C88.6764706,69.8530612 88.6764706,69.5897959 88.5882353,69.1510204 C88.0588235,69.677551 87.7058824,70.1163265 87.2647059,70.4673469 C85.5,71.8714286 83.4705882,72.1346939 81.3529412,71.344898 C79.4117647,70.6428571 78.4411765,69.0632653 78.0882353,67.1326531 C77.9117647,65.9918367 77.9117647,64.8510204 78.0882353,63.7102041 C78.6176471,61.4285714 80.1176471,60.0244898 82.2352941,59.322449 C83.8235294,58.7959184 85.5,58.7081633 87.1764706,58.6204082 C87.3529412,58.6204082 87.5294118,58.6204082 87.7058824,58.6204082 C87.7941176,58.6204082 87.7941176,58.6204082 87.9705882,58.5326531 C87.8823529,57.5673469 87.8823529,56.6020408 87.7941176,55.7244898 C87.6176471,54.6714286 86.7352941,54.0571429 85.5,54.0571429 C84.4411765,54.0571429 83.3823529,54.3204082 82.3235294,54.4081633 C81.7941176,54.4959184 81.2647059,54.4959184 80.7352941,54.4959184 C80.2941176,54.4959184 79.9411765,54.144898 79.8529412,53.7061224 C79.4117647,52.2142857 79.1470588,52.0387755 80.9117647,51.2489796 C83.2941176,50.1959184 85.7647059,49.9326531 88.2352941,50.3714286 C90.5294118,50.8102041 91.9411765,52.3897959 92.2941176,54.7591837 C92.3823529,55.5489796 92.4705882,56.3387755 92.4705882,57.1285714 C92.4705882,59.8489796 92.4705882,62.5693878 92.5588235,65.2897959 C92.5588235,65.9040816 92.7352941,66.5183673 92.8235294,67.1326531 C92.8235294,67.3081633 93,67.4836735 93.1764706,67.4836735 C94.5882353,67.8346939 95.0294118,68.2734694 95.0294118,69.7653061 C95.1176471,71.0816327 95.1176471,71.0816327 93.7941176,71.0816327 C92.4705882,71.0816327 91.2352941,71.0816327 90,71.0816327 Z M113.470588,52.9163265 C113.294118,53.8816327 112.764706,54.4081633 111.794118,54.4081633 C111.352941,54.4081633 111.264706,54.5836735 111.088235,54.9346939 C109.147059,61.4285714 107.117647,67.8346939 105.176471,74.3285714 C104.911765,75.0306122 104.647059,75.8204082 104.382353,76.4346939 C103.235294,78.9795918 100.852941,80.2959184 98.0294118,79.7693878 C96.8823529,79.5938776 95.8235294,79.155102 94.7647059,78.7163265 C94.0588235,78.4530612 93.9705882,78.1020408 94.1470588,77.4 C94.5882353,75.644898 95.0294118,75.4693878 96.7941176,75.7326531 C97.5882353,75.8204082 98.4705882,75.9081633 99.2647059,75.9081633 C100.147059,75.9081633 100.941176,75.3816327 101.294118,74.5918367 C101.647059,73.8897959 101.911765,73.1 102.176471,72.3102041 C102.176471,72.222449 102.176471,72.0469388 102.088235,71.9591837 C100.323529,66.3428571 98.6470588,60.6387755 96.8823529,55.022449 C96.7941176,54.6714286 96.6176471,54.5836735 96.3529412,54.5836735 C95.2941176,54.4959184 94.7647059,54.0571429 94.5882353,53.0918367 C94.5,52.5653061 94.5,52.1265306 94.4117647,51.6 C94.4117647,51.2489796 94.5882353,50.9857143 95.0294118,50.9857143 C96.5294118,50.9857143 98.0294118,50.9857143 99.5294118,50.9857143 C100.058824,50.9857143 100.147059,51.2489796 100.235294,51.6877551 C101.029412,54.7591837 101.911765,57.9183673 102.705882,60.9897959 C103.147059,62.5693878 103.5,64.0612245 103.941176,65.6408163 L104.029412,65.6408163 C104.382353,64.3244898 104.735294,63.0959184 105,61.7795918 C105.882353,58.444898 106.764706,55.1102041 107.558824,51.7755102 C107.735294,50.9857143 107.735294,50.9857143 108.529412,50.9857143 C109.941176,50.9857143 111.264706,50.9857143 112.676471,50.9857143 C113.205882,50.9857143 113.382353,51.1612245 113.382353,51.6877551 C113.558824,52.0387755 113.558824,52.477551 113.470588,52.9163265 Z M114,37.2081633 C113.911765,37.3836735 113.558824,37.5591837 113.382353,37.5591837 C112.058824,37.5591837 110.823529,37.5591837 109.5,37.5591837 C109.058824,37.5591837 108.617647,37.5591837 108.176471,37.5591837 C107.735294,37.5591837 107.558824,37.3836735 107.470588,37.0326531 C107.382353,36.6816327 107.294118,36.4183673 107.205882,35.9795918 C106.941176,36.155102 106.764706,36.3306122 106.588235,36.5061224 C104.823529,37.9102041 102.882353,38.5244898 100.588235,38.0857143 C99,37.7346939 97.9411765,36.8571429 97.0588235,35.4530612 C96.2647059,34.1367347 95.9117647,32.644898 95.7352941,31.1530612 C95.3823529,27.9938776 95.4705882,24.8346939 96.3529412,21.7632653 C96.7058824,20.622449 97.2352941,19.5693878 98.0294118,18.6040816 C99.8823529,16.4102041 103.5,15.8836735 105.970588,17.4632653 C106.147059,17.5510204 106.323529,17.7265306 106.588235,17.8142857 C106.588235,16.2346939 106.588235,14.8306122 106.588235,13.3387755 C106.323529,13.3387755 106.058824,13.2510204 105.794118,13.2510204 C105,13.1632653 104.470588,12.6367347 104.294118,11.8469388 C104.205882,11.3204082 104.205882,10.7938776 104.117647,10.2673469 C104.117647,9.91632653 104.294118,9.74081633 104.647059,9.74081633 C106.676471,9.74081633 108.617647,9.74081633 110.647059,9.74081633 C111,9.74081633 111.088235,9.91632653 111.088235,10.1795918 C111.088235,10.355102 111.088235,10.6183673 111.088235,10.7938776 C111.088235,17.2 111.088235,23.6061224 111.088235,30.0122449 C111.088235,31.1530612 111.264706,32.2938776 111.352941,33.4346939 C111.352941,33.7857143 111.529412,33.8734694 111.882353,33.9612245 C113.558824,34.0489796 114.529412,35.6285714 114,37.2081633 Z" id="Shape"></path>
                <path d="M188.205882,55.7244898 C187.147059,55.6367347 186.176471,55.9 185.382353,56.6020408 C184.323529,57.4795918 183.352941,58.3571429 182.294118,59.2346939 C182.117647,59.322449 182.029412,59.4102041 181.852941,59.5857143 C181.852941,59.322449 182.029412,59.2346939 182.117647,59.0591837 C182.735294,58.2693878 183.441176,57.3918367 183.970588,56.6020408 C184.852941,55.1979592 184.058824,53.7061224 182.382353,53.6183673 C181.411765,53.5306122 180.617647,53.8816327 179.911765,54.4959184 C179.029412,55.1979592 178.235294,55.9877551 177.441176,56.6897959 C177.264706,56.777551 177.176471,56.9530612 177,57.0408163 C177,56.8653061 177.088235,56.6897959 177.176471,56.6020408 C177.705882,55.8122449 178.323529,55.1102041 178.852941,54.3204082 C179.558824,53.355102 179.205882,52.3020408 178.058824,51.9510204 C177.176471,51.6877551 176.382353,51.7755102 175.588235,52.3020408 C174.441176,53.0918367 173.382353,53.9693878 172.323529,54.8469388 C172.147059,54.9346939 172.058824,55.1102041 171.882353,55.1979592 C172.235294,54.6714286 172.588235,54.2326531 173.029412,53.7061224 C173.382353,53.2673469 173.647059,52.8285714 173.382353,52.2142857 C173.117647,51.6 172.5,51.3367347 171.882353,51.4244898 C171.264706,51.5122449 170.647059,51.7755102 170.117647,52.1265306 C169.147059,52.7408163 168.264706,53.5306122 167.294118,54.2326531 C166.147059,55.1102041 165.088235,55.9 163.941176,56.777551 C164.117647,56.8653061 164.294118,56.9530612 164.558824,57.0408163 C165.441176,57.3040816 166.235294,57.4795918 167.117647,57.7428571 C168.794118,58.1816327 170.470588,58.7081633 171.882353,59.5857143 C173.470588,60.6387755 174.529412,62.0428571 174.352941,63.9734694 C174.088235,66.8693878 171.617647,68.7122449 168.705882,68.3612245 C166.5,68.0979592 164.382353,67.3959184 162.441176,66.5183673 C159.794118,65.2897959 157.058824,64.1489796 154.235294,63.3591837 C153.970588,63.2714286 153.705882,63.1836735 153.529412,63.0081633 C153.441176,62.9204082 153.264706,62.6571429 153.352941,62.5693878 C153.352941,62.3938776 153.529412,62.2183673 153.705882,62.2183673 C153.970588,62.1306122 154.235294,62.1306122 154.5,62.2183673 C155.647059,62.4816327 156.794118,62.744898 157.852941,63.1836735 C160.323529,64.1489796 162.705882,65.1142857 165.176471,66.0795918 C166.588235,66.6061224 168.088235,67.044898 169.676471,66.9571429 C171.088235,66.8693878 172.058824,66.1673469 172.588235,64.7632653 C173.117647,63.4469388 172.764706,62.3938776 171.794118,61.4285714 C171.441176,61.077551 171,60.7265306 170.558824,60.4632653 C169.5,59.9367347 168.352941,59.4979592 167.205882,59.0591837 C166.058824,58.7081633 164.823529,58.5326531 163.676471,58.1816327 C162,57.655102 160.5,56.6020408 159.088235,55.6367347 C157.676471,54.7591837 156.176471,53.7938776 154.676471,53.0918367 C151.676471,51.6 148.411765,51.0734694 145.147059,51.7755102 C141.705882,52.5653061 138.705882,54.4081633 135.794118,56.2510204 C135.088235,56.6897959 134.823529,57.4795918 135.088235,58.2693878 C135.352941,59.0591837 135.705882,59.9367347 136.235294,60.6387755 C143.205882,70.7306122 155.735294,75.9959184 167.911765,73.977551 C173.735294,73.0122449 178.941176,70.555102 183.441176,66.7816327 C186,64.6755102 188.117647,62.1306122 189.882353,59.322449 C190.941176,57.5673469 190.058824,55.8122449 188.205882,55.7244898 Z" id="Path"></path>
                <path d="M183.705882,18.1653061 C176.558824,12.022449 168.264706,9.47755102 158.911765,10.4428571 C155.205882,10.7938776 151.764706,11.8469388 148.5,13.5142857 C142.411765,16.4979592 137.647059,21.0612245 134.382353,27.0285714 C131.911765,31.5040816 130.676471,36.2428571 130.5,41.244898 C130.5,42.7367347 130.588235,44.2285714 130.676471,45.7204082 C130.941176,48.4408163 131.558824,50.9857143 132.529412,53.5306122 C132.705882,54.0571429 132.882353,54.144898 133.411765,53.8816327 C134.470588,53.4428571 135.441176,52.9163265 136.5,52.477551 C137.470588,52.0387755 137.470588,52.0387755 137.117647,50.9857143 C135.617647,46.6857143 135.176471,42.2979592 135.970588,37.822449 C136.941176,31.855102 139.676471,26.677551 144.176471,22.5530612 C150.705882,16.5857143 158.470588,14.2163265 167.205882,15.7081633 C174.705882,16.9367347 180.529412,20.8857143 184.852941,27.0285714 C187.5,30.8020408 189,35.0142857 189.441176,39.577551 C189.617647,41.4204082 189.617647,43.3510204 189.352941,45.1938776 C189.088235,47.6510204 188.470588,50.1081633 187.5,52.3897959 C187.235294,53.0040816 187.323529,53.1795918 187.941176,53.4428571 C189,53.8816327 190.058824,54.3204082 191.117647,54.8469388 C191.911765,55.1979592 192,55.1102041 192.352941,54.3204082 C193.941176,50.3714286 194.823529,46.3346939 194.735294,42.122449 L194.823529,42.122449 C194.647059,40.2795918 194.558824,38.3489796 194.205882,36.5061224 C192.882353,29.3102041 189.441176,23.0795918 183.705882,18.1653061 Z" id="Path"></path>
                <path d="M182.558824,50.5469388 C182.382353,50.9857143 182.382353,51.2489796 182.911765,51.4244898 C183.441176,51.6 183.882353,51.8632653 184.411765,52.1265306 C185.117647,52.477551 185.205882,52.3897959 185.470588,51.6877551 C186.705882,48.7040816 187.323529,45.544898 187.411765,42.2979592 C187.323529,40.9816327 187.235294,39.6653061 186.970588,38.4367347 C186,32.2061224 183,27.1163265 178.058824,23.1673469 C172.147059,18.5163265 165.441176,16.7612245 158.029412,18.077551 C150.882353,19.3938776 145.411765,23.255102 141.529412,29.3102041 C139.147059,33.0836735 137.911765,37.2081633 137.823529,41.5959184 C137.823529,43.0877551 137.911765,44.5795918 138.176471,46.0714286 C138.441176,47.5632653 138.970588,49.055102 139.323529,50.6346939 C139.411765,50.9857143 139.676471,51.1612245 140.029412,50.9857143 C140.558824,50.722449 141.088235,50.4591837 141.617647,50.1959184 C142.235294,49.844898 142.235294,49.844898 142.058824,49.2306122 C141,45.9836735 140.647059,42.7367347 141.088235,39.3142857 C141.794118,34.4 144,30.1 147.617647,26.677551 C153,21.6755102 159.441176,19.8326531 166.676471,21.2367347 C173.647059,22.5530612 178.676471,26.5897959 181.852941,32.8204082 C183.882353,36.8571429 184.5,41.244898 183.794118,45.7204082 C183.705882,47.3877551 183.176471,48.9673469 182.558824,50.5469388 Z" id="Path"></path>
                <path d="M178.147059,48.7040816 C177.970588,49.1428571 178.058824,49.3183673 178.5,49.4938776 C178.852941,49.5816327 179.117647,49.7571429 179.470588,49.9326531 C180.088235,50.1959184 180.176471,50.1959184 180.441176,49.5816327 C181.411765,47.2122449 181.941176,44.8428571 181.852941,42.2102041 C181.941176,39.6653061 181.323529,37.1204082 180.352941,34.6632653 C176.823529,26.5897959 168.176471,21.6755102 159.352941,23.3428571 C152.029412,24.6591837 147.088235,28.9591837 144.441176,35.8918367 C143.382353,38.6122449 143.117647,41.5081633 143.470588,44.3163265 C143.647059,45.6326531 144,46.9489796 144.352941,48.2653061 C144.441176,48.7040816 144.705882,48.7918367 145.058824,48.6163265 C145.411765,48.4408163 145.764706,48.2653061 146.117647,48.0897959 C146.558824,47.9142857 146.647059,47.6510204 146.558824,47.2122449 C145.676471,44.4040816 145.588235,41.5959184 146.117647,38.7877551 C147.882353,30.1877551 156.088235,24.3081633 165.176471,25.6244898 C168.617647,26.1510204 171.705882,27.555102 174.264706,30.0122449 C178.588235,34.2244898 180.264706,39.3142857 179.294118,45.2816327 C179.029412,46.422449 178.588235,47.5632653 178.147059,48.7040816 Z" id="Path"></path>
                <path d="M173.294118,34.8387755 C174.176471,33.9612245 174.176471,33.4346939 173.294118,32.5571429 C173.029412,32.2938776 172.764706,32.0306122 172.5,31.7673469 C171.705882,31.0653061 171.176471,30.977551 170.382353,31.7673469 C169.411765,32.7326531 168.441176,33.6979592 167.558824,34.5755102 C166.411765,35.7163265 165.264706,36.8571429 164.117647,37.9979592 C163.235294,38.7877551 162.088235,38.7877551 161.205882,37.9979592 C160.764706,37.5591837 160.323529,37.1204082 159.882353,36.6816327 C158.205882,35.0142857 156.441176,33.2591837 154.764706,31.5918367 C154.147059,30.977551 153.529412,30.977551 152.823529,31.5918367 C152.558824,31.855102 152.205882,32.2061224 151.941176,32.4693878 C151.058824,33.3469388 151.058824,33.8734694 151.941176,34.6632653 C154.147059,36.8571429 156.352941,39.0510204 158.647059,41.244898 C159.705882,42.2979592 160.323529,43.5265306 160.235294,45.1061224 C160.235294,45.3693878 160.235294,45.6326531 160.235294,45.8959184 C160.235294,46.6857143 160.235294,47.3877551 160.235294,48.177551 C160.235294,49.4061224 160.235294,50.6346939 160.235294,51.8632653 C160.235294,52.6530612 160.676471,53.0918367 161.558824,53.0918367 C162.264706,53.0918367 162.970588,53.0918367 163.676471,53.0918367 C164.735294,53.0918367 165.176471,52.6530612 165.176471,51.6 C165.176471,49.4938776 165.264706,47.3877551 165.176471,45.2816327 C165.088235,43.5265306 165.794118,42.2102041 166.941176,41.0693878 C169.058824,39.1387755 171.176471,36.944898 173.294118,34.8387755 Z" id="Path"></path>
                <path d="M160.235294,48.2653061 C160.235294,47.4755102 160.235294,46.7734694 160.235294,45.9836735 C160.147059,46.7734694 160.235294,47.5632653 160.235294,48.2653061 C160.235294,49.4938776 160.235294,50.722449 160.235294,51.9510204 C160.147059,50.722449 160.235294,49.4938776 160.235294,48.2653061 Z" id="Path"></path>
                <path d="M162.617647,35.277551 C164.558824,35.277551 166.058824,33.7857143 165.970588,31.855102 C165.970588,29.9244898 164.470588,28.4326531 162.529412,28.4326531 C160.588235,28.4326531 159.088235,29.9244898 159.088235,31.855102 C159.264706,33.7857143 160.764706,35.277551 162.617647,35.277551 Z" id="Path"></path>
                <path d="M106.5,22.377551 C106.5,21.2367347 106.5,21.1489796 105.441176,20.7979592 C102.794118,20.0081633 100.852941,20.622449 100.323529,23.5183673 C99.9705882,25.4489796 99.9705882,27.4673469 100.147059,29.3979592 C100.235294,30.4510204 100.411765,31.5040816 100.676471,32.4693878 C100.941176,33.3469388 101.558824,34.0489796 102.529412,34.2244898 C103.852941,34.4877551 105.176471,34.2244898 106.147059,33.1714286 C106.323529,32.9959184 106.5,32.644898 106.5,32.3816327 C106.5,31.5040816 106.5,30.6265306 106.5,29.7489796 C106.5,28.8714286 106.5,27.9938776 106.5,27.1163265 C106.5,25.4489796 106.5,23.8693878 106.5,22.377551 Z" id="Path"></path>
                <path d="M85.5,61.955102 C83.6470588,62.2183673 82.6764706,63.1836735 82.4117647,64.6755102 C82.1470588,66.3428571 83.0294118,67.8346939 84.5294118,68.1857143 C85.5882353,68.4489796 87.4411765,67.5714286 87.9705882,66.6061224 C87.9705882,66.5183673 88.0588235,66.5183673 88.0588235,66.4306122 C88.0588235,64.9387755 88.0588235,63.4469388 88.0588235,61.7795918 C87.0882353,61.8673469 86.2941176,61.8673469 85.5,61.955102 Z" id="Path"></path>
                <path d="M88.2352941,21.9387755 C87.8823529,20.9734694 87.2647059,20.2714286 86.1176471,20.1836735 C84.9705882,20.0959184 84.0882353,20.4469388 83.3823529,21.4122449 C82.6764706,22.5530612 82.5882353,23.7816327 82.4117647,25.0979592 C84.4411765,25.0979592 86.4705882,25.0979592 88.5,25.0979592 C88.6764706,23.9571429 88.5882353,22.9918367 88.2352941,21.9387755 Z" id="Path"></path>
            </g>
            <path d="M106.5,22 C106.5,23.5 106.5,25 106.5,26.5 C106.5,27.3333333 106.5,28.1666667 106.5,29 C106.5,28.1666667 106.5,27.3333333 106.5,26.5 C106.5,24.9166667 106.5,23.4166667 106.5,22 Z" id="Path" fill="#222222"></path>
            <path d="M120.912281,0.788659794 C120.912281,0.525773196 120.912281,0.262886598 120.912281,0 C80.9122807,0 41,0 1,0 C1,0.175257732 1,0.350515464 1,0.525773196 C1,28.4793814 1,56.5206186 1,84.4742268 C1,84.6494845 1,84.8247423 1.0877193,85 C41.0877193,85 81,85 121,85 C121,84.7371134 121,84.5618557 121,84.2989691 C120.912281,56.5206186 120.912281,28.6546392 120.912281,0.788659794 Z M78.8947368,21.4690722 C79.7719298,19.1030928 81.3508772,17.3505155 83.8070175,16.6494845 C86.7017544,15.7731959 90.4736842,16.4742268 92.0526316,20.5927835 C93.0175439,22.9587629 93.1929825,25.3247423 93.1052632,27.8659794 C93.1052632,28.3041237 92.8421053,28.4793814 92.4912281,28.4793814 C92.3157895,28.4793814 92.1403509,28.4793814 91.9649123,28.4793814 C88.9824561,28.4793814 85.9122807,28.4793814 82.9298246,28.4793814 C82.754386,28.4793814 82.4912281,28.4793814 82.3157895,28.4793814 C82.3157895,29.7061856 82.4035088,30.757732 82.9298246,31.8092784 C83.5438596,33.1237113 84.5964912,33.8247423 86.0877193,33.8247423 C87.2280702,33.8247423 88.4561404,33.5618557 89.5964912,33.4742268 C90.2105263,33.3865979 90.7368421,33.3865979 91.3508772,33.3865979 C91.7894737,33.3865979 92.0526316,33.7371134 92.2280702,34.0876289 C92.3157895,34.3505155 92.4035088,34.6134021 92.4912281,34.8762887 C92.6666667,35.6649485 92.6666667,35.9278351 91.9649123,36.2783505 C89.0701754,37.8556701 85.9122807,38.3814433 82.754386,37.242268 C80.7368421,36.4536082 79.4210526,34.8762887 78.7192982,32.8608247 C77.4035088,29.1804124 77.4035088,25.3247423 78.8947368,21.4690722 Z M64.1578947,17.0876289 C65.0350877,17.0876289 65.8245614,17.0876289 66.7894737,17.0876289 C66.7894737,16.1237113 66.7894737,15.2474227 66.7894737,14.371134 C66.7894737,12.3556701 67.9298246,11.128866 69.9473684,10.9536082 C71.2631579,10.7783505 71.2631579,10.7783505 71.2631579,12.1804124 C71.2631579,13.757732 71.2631579,15.4226804 71.2631579,17.0876289 C71.4385965,17.0876289 71.6140351,17.0876289 71.7894737,17.0876289 C73.0175439,17.0876289 74.3333333,17.0876289 75.5614035,17.0876289 C76,17.0876289 76.2631579,17.2628866 76.1754386,17.7010309 C76.1754386,18.1391753 76.1754386,18.6649485 76.0877193,19.1030928 C75.9122807,20.0670103 75.2982456,20.5927835 74.3333333,20.5927835 C73.5438596,20.6804124 72.6666667,20.5927835 71.877193,20.5927835 C71.7017544,20.5927835 71.5263158,20.5927835 71.2631579,20.5927835 C71.2631579,20.7680412 71.2631579,20.943299 71.2631579,21.1185567 C71.2631579,24.5360825 71.2631579,27.8659794 71.2631579,31.2835052 C71.2631579,31.8092784 71.3508772,32.3350515 71.4385965,32.8608247 C71.6140351,33.5618557 72.0526316,33.7371134 72.754386,33.7371134 C73.2807018,33.7371134 73.8070175,33.6494845 74.3333333,33.6494845 C75.122807,33.6494845 75.4736842,34 75.7368421,34.7010309 C75.9122807,35.1391753 76,35.6649485 76.0877193,36.1030928 C76.2631579,36.8041237 76.1754386,36.9793814 75.4736842,37.242268 C74.8596491,37.5051546 74.1578947,37.6804124 73.5438596,37.7680412 C72.6666667,37.8556701 71.7894737,37.943299 70.8245614,37.8556701 C68.8947368,37.7680412 67.5789474,36.7164948 67.1403509,34.8762887 C66.877193,33.7371134 66.7894737,32.5103093 66.7017544,31.371134 C66.6140351,28.0412371 66.7017544,24.6237113 66.7017544,21.2938144 C66.7017544,21.1185567 66.7017544,20.8556701 66.7017544,20.5927835 C66.2631579,20.5927835 65.9122807,20.5927835 65.5614035,20.5927835 C64.3333333,20.5051546 63.7192982,19.9793814 63.5438596,18.7525773 C63.4561404,18.4020619 63.5438596,17.9639175 63.5438596,17.6134021 C63.5438596,17.2628866 63.7192982,17.0876289 64.1578947,17.0876289 Z M57.6666667,9.46391753 C59.1578947,9.46391753 60.3859649,10.7783505 60.3859649,12.3556701 C60.3859649,14.0206186 59.1578947,15.2474227 57.6666667,15.2474227 C56.1754386,15.2474227 54.9473684,13.9329897 54.9473684,12.2680412 C54.9473684,10.6907216 56.1754386,9.46391753 57.6666667,9.46391753 Z M52.4912281,36.4536082 C52.4912281,36.1030928 52.4912281,35.7525773 52.5789474,35.4020619 C52.754386,34.3505155 53.2807018,33.8247423 54.5087719,33.7371134 C54.7719298,33.7371134 55.122807,33.7371134 55.3859649,33.6494845 C55.3859649,29.3556701 55.3859649,25.0618557 55.3859649,20.6804124 C55.0350877,20.6804124 54.6842105,20.6804124 54.3333333,20.5927835 C53.2807018,20.5051546 52.754386,20.0670103 52.5789474,19.1030928 C52.4912281,18.6649485 52.4912281,18.1391753 52.4912281,17.6134021 C52.4912281,17.1752577 52.6666667,17 53.1052632,17 C54.7719298,17 56.5263158,17 58.1929825,17 C58.6315789,17 59.0701754,17 59.5087719,17 C59.7719298,17 59.9473684,17.0876289 59.9473684,17.3505155 C59.9473684,17.6134021 59.9473684,17.7886598 59.9473684,18.0515464 C59.9473684,22.9587629 59.9473684,27.9536082 59.9473684,32.8608247 C59.9473684,33.0360825 59.9473684,33.2989691 59.9473684,33.4742268 C60.3859649,33.5618557 60.8245614,33.5618557 61.2631579,33.6494845 C62.0526316,33.7371134 62.5789474,34.1752577 62.754386,34.9639175 C62.8421053,35.4896907 62.9298246,36.0154639 62.9298246,36.5412371 C62.9298246,36.9793814 62.754386,37.1546392 62.3157895,37.1546392 C61.6140351,37.1546392 60.9122807,37.1546392 60.2105263,37.1546392 C57.9298246,37.1546392 55.6491228,37.1546392 53.3684211,37.1546392 C52.5789474,37.3298969 52.4912281,37.242268 52.4912281,36.4536082 Z M30.0350877,12.6185567 C29.8596491,13.9329897 29.245614,14.4587629 27.9298246,14.5463918 C27.754386,14.5463918 27.6666667,14.5463918 27.4035088,14.5463918 C27.4035088,14.7216495 27.4035088,14.9845361 27.4035088,15.1597938 C27.4035088,19.5412371 27.4035088,23.8350515 27.4035088,28.2164948 C27.4035088,29.7061856 27.2280702,31.2835052 26.7894737,32.7731959 C26,35.4020619 24.3333333,37.0670103 21.6140351,37.6804124 C19.5964912,38.1185567 17.5789474,38.1185567 15.5614035,37.6804124 C12.4035088,36.9793814 10.7368421,34.9639175 10.122807,31.8969072 C9.85964912,30.6701031 9.77192982,29.3556701 9.68421053,28.128866 C9.59649123,23.8350515 9.68421053,19.5412371 9.68421053,15.2474227 C9.68421053,15.0721649 9.68421053,14.8092784 9.68421053,14.6340206 C9.24561404,14.5463918 8.89473684,14.5463918 8.54385965,14.4587629 C7.84210526,14.371134 7.40350877,13.9329897 7.22807018,13.2319588 C7.14035088,12.6185567 7.05263158,11.9175258 7.05263158,11.3041237 C7.05263158,10.9536082 7.22807018,10.8659794 7.57894737,10.8659794 C8.19298246,10.8659794 8.89473684,10.8659794 9.50877193,10.8659794 C11.7894737,10.8659794 13.9824561,10.8659794 16.2631579,10.8659794 C17.1403509,10.8659794 17.2280702,10.8659794 17.1403509,11.8298969 C17.1403509,12.1804124 17.1403509,12.5309278 17.0526316,12.8814433 C16.877193,14.0206186 16.2631579,14.4587629 15.2105263,14.6340206 C15.0350877,14.6340206 14.7719298,14.6340206 14.5087719,14.6340206 C14.5087719,14.8092784 14.5087719,14.9845361 14.5087719,15.1597938 C14.5087719,19.2783505 14.5087719,23.4845361 14.5087719,27.6030928 C14.5087719,28.742268 14.5964912,29.8814433 14.7719298,31.0206186 C15.122807,32.685567 16.1754386,33.5618557 17.8421053,33.7371134 C18.2807018,33.7371134 18.8070175,33.8247423 19.245614,33.7371134 C21.1754386,33.4742268 22.2280702,32.3350515 22.4035088,30.2319588 C22.4912281,29.6185567 22.4912281,29.0051546 22.4912281,28.3917526 C22.4912281,24.0103093 22.4912281,19.5412371 22.4912281,15.1597938 C22.4912281,14.9845361 22.4912281,14.8969072 22.4912281,14.6340206 C22.1403509,14.5463918 21.7894737,14.5463918 21.4385965,14.5463918 C20.6491228,14.371134 20.122807,13.9329897 19.9473684,13.1443299 C19.8596491,12.6185567 19.8596491,12.0051546 19.7719298,11.4793814 C19.7719298,11.128866 19.9473684,10.9536082 20.2982456,10.9536082 C23.2807018,10.9536082 26.3508772,10.9536082 29.3333333,10.9536082 C29.6842105,10.9536082 29.8596491,11.128866 29.8596491,11.4793814 C30.122807,11.8298969 30.122807,12.1804124 30.0350877,12.6185567 Z M47.4912281,37.3298969 C46.3508772,37.3298969 45.2105263,37.3298969 44.1578947,37.3298969 C43.3684211,37.3298969 43.3684211,37.3298969 43.3684211,36.5412371 C43.3684211,32.4226804 43.3684211,28.3041237 43.3684211,24.2731959 C43.3684211,23.6597938 43.3684211,23.0463918 43.2807018,22.4329897 C43.0175439,20.8556701 41.877193,20.1546392 40.3859649,20.5927835 C39.4210526,20.8556701 38.7192982,21.3814433 38.1052632,22.0824742 C38.0175439,22.257732 37.9298246,22.5206186 37.9298246,22.6958763 C37.9298246,27.3402062 37.9298246,31.8969072 37.9298246,36.5412371 C37.9298246,37.3298969 37.9298246,37.3298969 37.1403509,37.3298969 C35.3859649,37.3298969 33.5438596,37.3298969 31.7894737,37.3298969 C31,37.3298969 31,37.242268 31,36.5412371 C31,36.1907216 31,35.7525773 31.0877193,35.4020619 C31.2631579,34.3505155 31.7017544,33.9123711 32.754386,33.7371134 C32.9298246,33.7371134 33.1929825,33.6494845 33.4561404,33.6494845 C33.4561404,33.4742268 33.4561404,33.2989691 33.4561404,33.2113402 C33.4561404,30.1443299 33.4561404,26.9896907 33.4561404,23.9226804 C33.4561404,22.9587629 33.2807018,22.0824742 33.1929825,21.1185567 C33.1929825,20.8556701 33.0175439,20.6804124 32.754386,20.6804124 C31.6140351,20.5927835 31.0877193,20.1546392 30.9122807,19.0154639 C30.8245614,18.5773196 30.8245614,18.0515464 30.8245614,17.6134021 C30.8245614,17.2628866 31,17.0876289 31.3508772,17.0876289 C33.0175439,17.0876289 34.6842105,17.0876289 36.3508772,17.0876289 C36.7894737,17.0876289 36.9649123,17.3505155 37.1403509,17.7010309 C37.3157895,18.2268041 37.4035088,18.6649485 37.5789474,19.2783505 C37.9298246,19.0154639 38.1929825,18.6649485 38.4561404,18.4020619 C39.7719298,17.0876289 41.3508772,16.3865979 43.1929825,16.2989691 C45.7368421,16.2989691 47.3157895,17.5257732 47.754386,20.0670103 C47.9298246,21.0309278 48.0175439,22.0824742 48.0175439,23.0463918 C48.0175439,26.3762887 48.0175439,29.6185567 48.0175439,32.9484536 C48.0175439,33.1237113 48.0175439,33.3865979 48.0175439,33.5618557 C48.2807018,33.6494845 48.5438596,33.6494845 48.7192982,33.6494845 C49.6842105,33.8247423 50.122807,34.2628866 50.2982456,35.2268041 C50.3859649,35.6649485 50.3859649,36.1030928 50.3859649,36.628866 C50.3859649,37.0670103 50.2105263,37.242268 49.7719298,37.242268 C48.8947368,37.3298969 48.1929825,37.3298969 47.4912281,37.3298969 Z M76.877193,47.4072165 C76.5263158,49.0721649 76.1754386,50.7371134 75.8245614,52.4020619 C74.5964912,58.2731959 73.3684211,64.1443299 72.1403509,70.0154639 C71.9649123,70.8041237 71.9649123,70.8041237 71.1754386,70.8041237 C70.0350877,70.8041237 68.9824561,70.8041237 67.8421053,70.8041237 C67.3157895,70.8041237 67.1403509,70.628866 67.0526316,70.1030928 C66.7017544,68.0876289 66.3508772,66.0721649 66,64.056701 C65.3859649,60.3762887 64.7719298,56.6958763 64.1578947,53.0154639 C64.1578947,52.9278351 64.0701754,52.8402062 64.0701754,52.6649485 C63.4561404,55.8195876 62.8421053,58.8865979 62.2280702,61.9536082 C61.7017544,64.6701031 61.0877193,67.4742268 60.5614035,70.1907216 C60.4736842,70.628866 60.2982456,70.8041237 59.7719298,70.8041237 C58.7192982,70.8041237 57.5789474,70.8041237 56.5263158,70.8041237 C55.7368421,70.8041237 55.6491228,70.7164948 55.4736842,69.9278351 C55.122807,68 54.7719298,66.0721649 54.4210526,64.1443299 C53.4561404,58.7113402 52.4035088,53.1907216 51.4385965,47.757732 C51.4385965,47.6701031 51.3508772,47.4948454 51.3508772,47.3195876 C51.2631579,47.3195876 51.1754386,47.3195876 51,47.3195876 C49.5964912,47.2319588 48.9824561,46.6185567 48.8947368,45.2164948 C48.8947368,44.8659794 48.8947368,44.5154639 48.8947368,44.0773196 C48.8947368,43.7268041 49.0701754,43.5515464 49.4210526,43.5515464 C51.3508772,43.5515464 53.1929825,43.5515464 55.122807,43.5515464 C55.4736842,43.5515464 55.5614035,43.7268041 55.5614035,44.0773196 C55.9122807,46.5309278 56.3508772,48.9845361 56.7017544,51.4381443 C57.2280702,55.0309278 57.8421053,58.7113402 58.4561404,62.3041237 C58.7192982,61.1649485 58.8947368,60.0257732 59.1578947,58.8865979 C60.122807,54.0670103 61.1754386,49.1597938 62.1403509,44.3402062 C62.2280702,43.814433 62.4912281,43.6391753 63.0175439,43.6391753 C63.8947368,43.6391753 64.7719298,43.6391753 65.6491228,43.6391753 C66.1754386,43.6391753 66.3508772,43.9020619 66.4385965,44.3402062 C66.9649123,47.3195876 67.5789474,50.2989691 68.1929825,53.1907216 C68.8070175,56.1701031 69.3333333,59.0618557 69.9473684,62.0412371 C69.9473684,62.128866 69.9473684,62.2164948 70.122807,62.3041237 C70.2982456,61.1649485 70.4736842,60.1134021 70.6491228,58.9742268 C71.4385965,54.0670103 72.2280702,49.1597938 73.0175439,44.2525773 C73.1052632,43.814433 73.2807018,43.6391753 73.7192982,43.6391753 C75.3859649,43.6391753 77.0526316,43.6391753 78.7192982,43.6391753 C79.3333333,43.6391753 79.4210526,43.7268041 79.4210526,44.3402062 C79.4210526,44.7783505 79.4210526,45.2164948 79.3333333,45.742268 C79.1578947,46.7938144 78.5438596,47.2319588 77.4912281,47.3195876 C77.2280702,47.4072165 77.0526316,47.4072165 76.877193,47.4072165 Z M89.8596491,70.8041237 C89.0701754,70.8041237 88.8070175,70.628866 88.6315789,69.8402062 C88.5438596,69.5773196 88.5438596,69.314433 88.4561404,68.8762887 C87.9298246,69.4020619 87.5789474,69.8402062 87.1403509,70.1907216 C85.3859649,71.5927835 83.3684211,71.8556701 81.2631579,71.0670103 C79.3333333,70.3659794 78.3684211,68.7886598 78.0175439,66.8608247 C77.8421053,65.7216495 77.8421053,64.5824742 78.0175439,63.443299 C78.5438596,61.1649485 80.0350877,59.7628866 82.1403509,59.0618557 C83.7192982,58.5360825 85.3859649,58.4484536 87.0526316,58.3608247 C87.2280702,58.3608247 87.4035088,58.3608247 87.5789474,58.3608247 C87.6666667,58.3608247 87.6666667,58.3608247 87.8421053,58.2731959 C87.754386,57.3092784 87.754386,56.3453608 87.6666667,55.4690722 C87.4912281,54.4175258 86.6140351,53.8041237 85.3859649,53.8041237 C84.3333333,53.8041237 83.2807018,54.0670103 82.2280702,54.1546392 C81.7017544,54.242268 81.1754386,54.242268 80.6491228,54.242268 C80.2105263,54.242268 79.8596491,53.8917526 79.7719298,53.4536082 C79.3333333,51.9639175 79.0701754,51.7886598 80.8245614,51 C83.1929825,49.9484536 85.6491228,49.685567 88.1052632,50.1237113 C90.3859649,50.5618557 91.7894737,52.1391753 92.1403509,54.5051546 C92.2280702,55.2938144 92.3157895,56.0824742 92.3157895,56.871134 C92.3157895,59.5876289 92.3157895,62.3041237 92.4035088,65.0206186 C92.4035088,65.6340206 92.5789474,66.2474227 92.6666667,66.8608247 C92.6666667,67.0360825 92.8421053,67.2113402 93.0175439,67.2113402 C94.4210526,67.5618557 94.8596491,68 94.8596491,69.4896907 C94.9473684,70.8041237 94.9473684,70.8041237 93.6315789,70.8041237 C92.3157895,70.8041237 91.0877193,70.8041237 89.8596491,70.8041237 Z M113.192982,52.6649485 C113.017544,53.628866 112.491228,54.1546392 111.526316,54.1546392 C111.087719,54.1546392 111,54.3298969 110.824561,54.6804124 C108.894737,61.1649485 106.877193,67.5618557 104.947368,74.0463918 C104.684211,74.7474227 104.421053,75.5360825 104.157895,76.1494845 C103.017544,78.6907216 100.649123,80.0051546 97.8421053,79.4793814 C96.7017544,79.3041237 95.6491228,78.8659794 94.5964912,78.4278351 C93.8947368,78.1649485 93.8070175,77.814433 93.9824561,77.1134021 C94.4210526,75.3608247 94.8596491,75.185567 96.6140351,75.4484536 C97.4035088,75.5360825 98.2807018,75.6237113 99.0701754,75.6237113 C99.9473684,75.6237113 100.736842,75.0979381 101.087719,74.3092784 C101.438596,73.6082474 101.701754,72.8195876 101.964912,72.0309278 C101.964912,71.943299 101.964912,71.7680412 101.877193,71.6804124 C100.122807,66.0721649 98.4561404,60.3762887 96.7017544,54.7680412 C96.6140351,54.4175258 96.4385965,54.3298969 96.1754386,54.3298969 C95.122807,54.242268 94.5964912,53.8041237 94.4210526,52.8402062 C94.3333333,52.314433 94.3333333,51.8762887 94.245614,51.3505155 C94.245614,51 94.4210526,50.7371134 94.8596491,50.7371134 C96.3508772,50.7371134 97.8421053,50.7371134 99.3333333,50.7371134 C99.8596491,50.7371134 99.9473684,51 100.035088,51.4381443 C100.824561,54.5051546 101.701754,57.6597938 102.491228,60.7268041 C102.929825,62.3041237 103.280702,63.7938144 103.719298,65.371134 L103.807018,65.371134 C104.157895,64.056701 104.508772,62.8298969 104.77193,61.5154639 C105.649123,58.185567 106.526316,54.8556701 107.315789,51.5257732 C107.491228,50.7371134 107.491228,50.7371134 108.280702,50.7371134 C109.684211,50.7371134 111,50.7371134 112.403509,50.7371134 C112.929825,50.7371134 113.105263,50.9123711 113.105263,51.4381443 C113.280702,51.7886598 113.280702,52.2268041 113.192982,52.6649485 Z M113.719298,36.9793814 C113.631579,37.1546392 113.280702,37.3298969 113.105263,37.3298969 C111.789474,37.3298969 110.561404,37.3298969 109.245614,37.3298969 C108.807018,37.3298969 108.368421,37.3298969 107.929825,37.3298969 C107.491228,37.3298969 107.315789,37.1546392 107.22807,36.8041237 C107.140351,36.4536082 107.052632,36.1907216 106.964912,35.7525773 C106.701754,35.9278351 106.526316,36.1030928 106.350877,36.2783505 C104.596491,37.6804124 102.666667,38.2938144 100.385965,37.8556701 C98.8070175,37.5051546 97.754386,36.628866 96.877193,35.2268041 C96.0877193,33.9123711 95.7368421,32.4226804 95.5614035,30.9329897 C95.2105263,27.7783505 95.2982456,24.6237113 96.1754386,21.556701 C96.5263158,20.4175258 97.0526316,19.3659794 97.8421053,18.4020619 C99.6842105,16.2113402 103.280702,15.685567 105.736842,17.2628866 C105.912281,17.3505155 106.087719,17.5257732 106.350877,17.6134021 C106.350877,16.0360825 106.350877,14.6340206 106.350877,13.1443299 C106.087719,13.1443299 105.824561,13.056701 105.561404,13.056701 C104.77193,12.9690722 104.245614,12.443299 104.070175,11.6546392 C103.982456,11.128866 103.982456,10.6030928 103.894737,10.0773196 C103.894737,9.72680412 104.070175,9.55154639 104.421053,9.55154639 C106.438596,9.55154639 108.368421,9.55154639 110.385965,9.55154639 C110.736842,9.55154639 110.824561,9.72680412 110.824561,9.98969072 C110.824561,10.1649485 110.824561,10.4278351 110.824561,10.6030928 C110.824561,17 110.824561,23.3969072 110.824561,29.7938144 C110.824561,30.9329897 111,32.0721649 111.087719,33.2113402 C111.087719,33.5618557 111.263158,33.6494845 111.614035,33.7371134 C113.280702,33.8247423 114.245614,35.4020619 113.719298,36.9793814 Z" id="Shape" fill="#222222"></path>
            <path d="M118,0 L118,85 L201,85 L201,0 C201,0 118,0 118,0 Z M162.055202,75.2731959 C143.552017,75.2731959 128.573248,60.3762887 128.573248,41.9742268 C128.573248,23.5721649 143.552017,8.67525773 162.055202,8.67525773 C180.558386,8.67525773 195.537155,23.5721649 195.537155,41.9742268 C195.537155,60.3762887 180.558386,75.2731959 162.055202,75.2731959 Z" id="Shape" fill="#222222"></path>
            <path d="M187.843311,56.1295414 C186.772053,56.0455863 185.790066,56.2974516 184.986623,56.9690924 C183.915365,57.8086434 182.933379,58.6481943 181.862121,59.4877453 C181.683578,59.5717004 181.594306,59.6556555 181.415763,59.8235657 C181.415763,59.5717004 181.594306,59.4877453 181.683578,59.3198351 C182.308478,58.5642392 183.02265,57.7246883 183.558279,56.9690924 C184.450994,55.6258108 183.647551,54.1985741 181.951392,54.114619 C180.969406,54.0306639 180.165962,54.3664843 179.45179,54.95417 C178.559075,55.6258108 177.755632,56.3814067 176.952188,57.0530475 C176.773645,57.1370026 176.684374,57.3049128 176.505831,57.3888679 C176.505831,57.2209577 176.595102,57.0530475 176.684374,56.9690924 C177.220003,56.2134965 177.844903,55.5418557 178.380532,54.7862598 C179.094704,53.8627537 178.737618,52.8552926 177.577089,52.5194722 C176.684374,52.2676069 175.88093,52.351562 175.077487,52.8552926 C173.916958,53.6108884 172.8457,54.4504394 171.774442,55.2899904 C171.595899,55.3739455 171.506627,55.5418557 171.328084,55.6258108 C171.68517,55.1220802 172.042256,54.7023047 172.488614,54.1985741 C172.8457,53.7787986 173.113514,53.3590232 172.8457,52.7713375 C172.577885,52.1836518 171.952985,51.9317865 171.328084,52.0157416 C170.703184,52.0996967 170.078283,52.351562 169.542654,52.6873824 C168.560668,53.2750681 167.667953,54.0306639 166.685966,54.7023047 C165.525437,55.5418557 164.454179,56.2974516 163.29365,57.1370026 C163.472193,57.2209577 163.650736,57.3049128 163.91855,57.3888679 C164.811265,57.6407332 165.614709,57.8086434 166.507423,58.0605087 C168.203582,58.4802841 169.89974,58.9840147 171.328084,59.8235657 C172.934971,60.8310269 174.006229,62.1743085 173.827686,64.0213206 C173.559872,66.7918389 171.06027,68.5548959 168.11431,68.2190755 C165.882523,67.9672102 163.740007,67.2955695 161.776034,66.4560185 C159.097889,65.2806471 156.330473,64.1892308 153.473785,63.4336349 C153.205971,63.3496798 152.938156,63.2657247 152.759613,63.0978145 C152.670342,63.0138595 152.491799,62.7619942 152.58107,62.6780391 C152.58107,62.5101289 152.759613,62.3422187 152.938156,62.3422187 C153.205971,62.2582636 153.473785,62.2582636 153.7416,62.3422187 C154.902129,62.594084 156.062659,62.8459493 157.133917,63.2657247 C159.633518,64.1892308 162.043849,65.1127369 164.543451,66.036243 C165.971795,66.5399736 167.48941,66.9597491 169.096297,66.875794 C170.524641,66.7918389 171.506627,66.1201981 172.042256,64.7769165 C172.577885,63.51759 172.220799,62.5101289 171.238813,61.5866228 C170.881727,61.2508024 170.435369,60.914982 169.989012,60.6631167 C168.917754,60.1593861 167.757224,59.7396106 166.596695,59.3198351 C165.436166,58.9840147 164.186365,58.8161045 163.025835,58.4802841 C161.329677,57.9765536 159.812061,56.9690924 158.383717,56.0455863 C156.955374,55.2060353 155.437758,54.2825292 153.920143,53.6108884 C150.884912,52.1836518 147.581867,51.6799212 144.278821,52.351562 C140.797233,53.1071579 137.762002,54.8702149 134.816043,56.633272 C134.101871,57.0530475 133.834056,57.8086434 134.101871,58.5642392 C134.369685,59.3198351 134.726771,60.1593861 135.2624,60.8310269 C142.314848,70.4858632 154.991401,75.5231691 167.310867,73.5922018 C173.202786,72.6686957 178.469804,70.317953 183.02265,66.7078838 C185.611523,64.6929614 187.754039,62.2582636 189.539469,59.5717004 C190.610727,57.8925985 189.718012,56.2134965 187.843311,56.1295414 Z" id="Path" fill="#222222"></path>
            <path d="M183.765432,18.9568257 C176.54321,12.7864312 168.161866,10.2301249 158.710562,11.1997583 C154.965706,11.5523523 151.48834,12.6101342 148.1893,14.2849556 C142.037037,17.2820043 137.222222,21.865726 133.923182,27.8598235 C131.426612,32.3553966 130.178326,37.1154153 130,42.1398794 C130,43.6384038 130.089163,45.1369281 130.178326,46.6354525 C130.445816,49.3680558 131.069959,51.9243621 132.050754,54.4806684 C132.229081,55.0095593 132.407407,55.0977078 132.942387,54.8332624 C134.012346,54.3925199 134.993141,53.8636289 136.0631,53.4228865 C137.043896,52.982144 137.043896,52.982144 136.687243,51.9243621 C135.171468,47.6050859 134.725652,43.1976613 135.528121,38.7020881 C136.508916,32.7079906 139.272977,27.5072295 143.820302,23.3642504 C150.418381,17.3701528 158.264746,14.9901435 167.091907,16.4886679 C174.670782,17.7227468 180.555556,21.689429 184.924554,27.8598235 C187.599451,31.6502087 189.115226,35.8813364 189.561043,40.465058 C189.739369,42.3161764 189.739369,44.2554432 189.471879,46.1065616 C189.20439,48.5747194 188.580247,51.0428772 187.599451,53.334738 C187.331962,53.9517774 187.421125,54.1280744 188.045267,54.3925199 C189.115226,54.8332624 190.185185,55.2740048 191.255144,55.8028958 C192.057613,56.1554898 192.146776,56.0673413 192.503429,55.2740048 C194.108368,51.3073226 195,47.252492 194.910837,43.0213643 L195,43.0213643 C194.821674,41.1702459 194.73251,39.2309791 194.375857,37.3798607 C193.038409,30.1516843 189.561043,23.8931413 183.765432,18.9568257 Z" id="Path" fill="#222222"></path>
            <path d="M182.204626,51.2031456 C182.030249,51.6460416 182.030249,51.9117793 182.553381,52.0889377 C183.076512,52.2660961 183.512456,52.5318337 184.035587,52.7975714 C184.733096,53.1518882 184.820285,53.063309 185.081851,52.3546753 C186.302491,49.3429822 186.912811,46.1541306 187,42.8766998 C186.912811,41.5480116 186.825623,40.2193235 186.564057,38.9792145 C185.604982,32.6900906 182.640569,27.5524964 177.758007,23.5664319 C171.91637,18.8717338 165.290036,17.1001496 157.966192,18.4288377 C150.903915,19.7575259 145.498221,23.6550111 141.661922,29.7669767 C139.307829,33.5758827 138.087189,37.7391056 138,42.1680661 C138,43.6739127 138.087189,45.1797593 138.348754,46.6856059 C138.61032,48.1914524 139.133452,49.697299 139.482206,51.2917248 C139.569395,51.6460416 139.830961,51.8232001 140.179715,51.6460416 C140.702847,51.380304 141.225979,51.1145664 141.74911,50.8488287 C142.359431,50.4945119 142.359431,50.4945119 142.185053,49.8744574 C141.13879,46.5970266 140.790036,43.3195959 141.225979,39.8650067 C141.923488,34.9045709 144.103203,30.5641896 147.677936,27.1096003 C152.996441,22.0605853 159.36121,20.2004219 166.510676,21.6176893 C173.398577,22.9463775 178.368327,27.0210211 181.507117,33.3101451 C183.512456,37.3847888 184.122776,41.8137493 183.425267,46.331289 C183.338078,48.014294 182.814947,49.6087198 182.204626,51.2031456 Z" id="Path" fill="#222222"></path>
            <path d="M178.24018,48.6084957 C178.061599,49.0459584 178.150889,49.2209435 178.59734,49.3959286 C178.954501,49.4834212 179.222372,49.6584062 179.579532,49.8333913 C180.204564,50.095869 180.293854,50.095869 180.561724,49.4834212 C181.543916,47.1211224 182.079657,44.7588236 181.990367,42.1340472 C182.079657,39.5967634 181.454626,37.0594795 180.472434,34.6096882 C176.900827,26.560374 168.15039,21.6607914 159.221372,23.3231497 C151.810287,24.6355379 146.810037,28.9226727 144.131332,35.8345839 C143.05985,38.5468528 142.791979,41.4341069 143.14914,44.2338684 C143.32772,45.5462566 143.684881,46.8586448 144.042042,48.171033 C144.131332,48.6084957 144.399202,48.6959882 144.756363,48.5210031 C145.113524,48.346018 145.470684,48.171033 145.827845,47.9960479 C146.274296,47.8210628 146.363586,47.5585851 146.274296,47.1211224 C145.381394,44.3213609 145.292104,41.5215994 145.827845,38.7218379 C147.613649,30.1475684 155.917635,24.2855678 165.114523,25.597956 C168.59684,26.1229112 171.721997,27.522792 174.311412,29.9725833 C178.686631,34.1722255 180.383144,39.2467932 179.400952,45.1962864 C179.133081,46.3336895 178.686631,47.4710926 178.24018,48.6084957 Z" id="Path" fill="#222222"></path>
            <path d="M173.357977,34.7142857 C174.214008,33.8351648 174.214008,33.3076923 173.357977,32.4285714 C173.101167,32.1648352 172.844358,31.9010989 172.587549,31.6373626 C171.817121,30.9340659 171.303502,30.8461538 170.533074,31.6373626 C169.59144,32.6043956 168.649805,33.5714286 167.793774,34.4505495 C166.680934,35.5934066 165.568093,36.7362637 164.455253,37.8791209 C163.599222,38.6703297 162.486381,38.6703297 161.63035,37.8791209 C161.202335,37.4395604 160.774319,37 160.346304,36.5604396 C158.719844,34.8901099 157.007782,33.1318681 155.381323,31.4615385 C154.782101,30.8461538 154.182879,30.8461538 153.498054,31.4615385 C153.241245,31.7252747 152.898833,32.0769231 152.642023,32.3406593 C151.785992,33.2197802 151.785992,33.7472527 152.642023,34.5384615 C154.782101,36.7362637 156.922179,38.9340659 159.14786,41.1318681 C160.175097,42.1868132 160.774319,43.4175824 160.688716,45 C160.688716,45.2637363 160.688716,45.5274725 160.688716,45.7912088 C160.688716,46.5824176 160.688716,47.2857143 160.688716,48.0769231 C160.688716,49.3076923 160.688716,50.5384615 160.688716,51.7692308 C160.688716,52.5604396 161.116732,53 161.972763,53 C162.657588,53 163.342412,53 164.027237,53 C165.054475,53 165.48249,52.5604396 165.48249,51.5054945 C165.48249,49.3956044 165.568093,47.2857143 165.48249,45.1758242 C165.396887,43.4175824 166.081712,42.0989011 167.194553,40.956044 C169.249027,39.021978 171.303502,36.8241758 173.357977,34.7142857 Z" id="Path" fill="#222222"></path>
            <path d="M160.522222,48.9117647 C160.522222,48.25 160.522222,47.6617647 160.522222,47 C160.422222,47.6617647 160.522222,48.3235294 160.522222,48.9117647 C160.522222,49.9411765 160.522222,50.9705882 160.522222,52 C160.422222,50.9705882 160.522222,49.9411765 160.522222,48.9117647 Z" id="Path" fill="#222222"></path>
            <path d="M162.075269,35 C163.766667,35 165.073657,33.6923077 164.996775,32 C164.996775,30.3076923 163.689785,29 161.998387,29 C160.306989,29 159,30.3076923 159,32 C159.153763,33.6923077 160.460753,35 162.075269,35 Z" id="Path" fill="#222222"></path>
            <path d="M107,22.7807591 C107,21.7089782 107,21.6265335 106.017919,21.2967548 C103.562717,20.5547526 101.762235,21.1318654 101.271194,23.85254 C100.943834,25.6663231 100.943834,27.5625508 101.107514,29.3763339 C101.189354,30.3656701 101.353034,31.3550064 101.598555,32.2618979 C101.844075,33.0863448 102.416955,33.7459022 103.317196,33.9107916 C104.544798,34.1581257 105.772399,33.9107916 106.67264,32.9214554 C106.83632,32.756566 107,32.4267873 107,32.1794532 C107,31.3550064 107,30.5305595 107,29.7061127 C107,28.8816658 107,28.0572189 107,27.2327721 C107,25.6663231 107,24.1823187 107,22.7807591 Z" id="Path" fill="#222222"></path>
            <path d="M85.7529426,62.163178 C84.1257631,62.407945 83.273431,63.3054241 83.0409768,64.6924373 C82.8085226,66.2426285 83.58337,67.6296416 84.9006105,67.9559977 C85.8304273,68.2007647 87.4576068,67.3848746 87.9225153,66.4873955 C87.9225153,66.4058065 88,66.4058065 88,66.3242175 C88,64.9372043 88,63.5501912 88,62 C87.1476679,62.081589 86.4503052,62.081589 85.7529426,62.163178 Z" id="Path" fill="#222222"></path>
            <path d="M88.6571429,22.4353521 C88.3142857,21.6517096 87.7142857,21.0817879 86.6,21.0105477 C85.4857143,20.9393074 84.6285714,21.2242683 83.9428571,22.0079107 C83.2571429,22.9340336 83.1714286,23.9313967 83,25 C84.9714286,25 86.9428571,25 88.9142857,25 C89.0857143,24.0738771 89,23.2902347 88.6571429,22.4353521 Z" id="Path" fill="#222222"></path>
        </g>
    </g>
</svg>